<svg width="795" height="447" viewBox="0 0 795 447" fill="none" xmlns="http://www.w3.org/2000/svg">
<g filter="url(#filter0_d_5470_5561)">
<mask id="path-1-inside-1_5470_5561" fill="white">
<path d="M198 57.8901C198 50.1581 204.268 43.8901 212 43.8901H486.663C494.394 43.8901 500.663 50.1582 500.663 57.8901V173.278C500.663 181.01 494.395 187.278 486.663 187.278H212C204.268 187.278 198 181.01 198 173.278V57.8901Z"/>
</mask>
<path d="M198 57.8901C198 50.1581 204.268 43.8901 212 43.8901H486.663C494.394 43.8901 500.663 50.1582 500.663 57.8901V173.278C500.663 181.01 494.395 187.278 486.663 187.278H212C204.268 187.278 198 181.01 198 173.278V57.8901Z" fill="white" shape-rendering="crispEdges"/>
<path d="M212 43.8901V45.4901H486.663V43.8901V42.2901H212V43.8901ZM500.663 57.8901H499.062V173.278H500.663H502.263V57.8901H500.663ZM486.663 187.278V185.678H212V187.278V188.878H486.663V187.278ZM198 173.278H199.6V57.8901H198H196.4V173.278H198ZM212 187.278V185.678C205.152 185.678 199.6 180.126 199.6 173.278H198H196.4C196.4 181.893 203.384 188.878 212 188.878V187.278ZM500.663 173.278H499.062C499.062 180.126 493.511 185.678 486.663 185.678V187.278V188.878C495.278 188.878 502.263 181.893 502.263 173.278H500.663ZM486.663 43.8901V45.4901C493.511 45.4901 499.062 51.0418 499.062 57.8901H500.663H502.263C502.263 49.2745 495.278 42.2901 486.663 42.2901V43.8901ZM212 43.8901V42.2901C203.384 42.2901 196.4 49.2745 196.4 57.8901H198H199.6C199.6 51.0418 205.152 45.4901 212 45.4901V43.8901Z" fill="#8EC5FF" mask="url(#path-1-inside-1_5470_5561)"/>
<path d="M228.932 70.1568C228.932 73.4854 225.24 76.9521 224 78.0228C223.884 78.1096 223.743 78.1566 223.599 78.1566C223.454 78.1566 223.314 78.1096 223.198 78.0228C221.958 76.9521 218.266 73.4854 218.266 70.1568C218.266 68.7423 218.828 67.3857 219.828 66.3855C220.828 65.3853 222.184 64.8234 223.599 64.8234C225.013 64.8234 226.37 65.3853 227.37 66.3855C228.37 67.3857 228.932 68.7423 228.932 70.1568Z" stroke="#155DFC" stroke-width="1.33333" stroke-linecap="round" stroke-linejoin="round"/>
<path d="M223.6 72.1568C224.704 72.1568 225.6 71.2614 225.6 70.1568C225.6 69.0522 224.704 68.1568 223.6 68.1568C222.495 68.1568 221.6 69.0522 221.6 70.1568C221.6 71.2614 222.495 72.1568 223.6 72.1568Z" stroke="#155DFC" stroke-width="1.33333" stroke-linecap="round" stroke-linejoin="round"/>
<path d="M246.672 69.383C246.619 68.9124 246.4 68.5478 246.016 68.2893C245.631 68.0274 245.147 67.8965 244.564 67.8965C244.146 67.8965 243.785 67.9628 243.48 68.0954C243.175 68.2247 242.938 68.4036 242.769 68.6323C242.603 68.8577 242.521 69.1146 242.521 69.4029C242.521 69.6449 242.577 69.8537 242.69 70.0293C242.806 70.205 242.956 70.3525 243.142 70.4718C243.331 70.5878 243.533 70.6856 243.749 70.7651C243.964 70.8414 244.171 70.9043 244.37 70.9541L245.364 71.2126C245.689 71.2921 246.022 71.3998 246.364 71.5357C246.705 71.6716 247.022 71.8506 247.313 72.0727C247.605 72.2947 247.84 72.5698 248.019 72.8979C248.201 73.2261 248.293 73.6188 248.293 74.0762C248.293 74.6529 248.143 75.165 247.845 75.6124C247.55 76.0599 247.121 76.4129 246.558 76.6714C245.997 76.9299 245.32 77.0592 244.524 77.0592C243.762 77.0592 243.102 76.9382 242.545 76.6962C241.989 76.4543 241.553 76.1113 241.238 75.6671C240.923 75.2197 240.749 74.6894 240.716 74.0762H242.257C242.287 74.4441 242.406 74.7507 242.615 74.996C242.827 75.2379 243.097 75.4185 243.425 75.5379C243.757 75.6539 244.12 75.7119 244.514 75.7119C244.948 75.7119 245.335 75.6439 245.673 75.508C246.014 75.3688 246.282 75.1766 246.478 74.9313C246.674 74.6828 246.771 74.3927 246.771 74.0613C246.771 73.7597 246.685 73.5128 246.513 73.3205C246.344 73.1283 246.113 72.9692 245.822 72.8433C245.533 72.7173 245.207 72.6063 244.842 72.5102L243.639 72.182C242.824 71.96 242.178 71.6335 241.7 71.2026C241.226 70.7718 240.989 70.2017 240.989 69.4924C240.989 68.9058 241.148 68.3937 241.467 67.9562C241.785 67.5187 242.216 67.179 242.759 66.937C243.303 66.6917 243.916 66.5691 244.599 66.5691C245.288 66.5691 245.896 66.6901 246.423 66.932C246.954 67.174 247.371 67.5071 247.676 67.9313C247.981 68.3523 248.14 68.8362 248.153 69.383H246.672ZM252.231 77.0592C251.747 77.0592 251.31 76.9697 250.919 76.7907C250.528 76.6084 250.218 76.3449 249.989 76.0002C249.764 75.6555 249.651 75.2329 249.651 74.7325C249.651 74.3016 249.734 73.947 249.9 73.6685C250.065 73.3901 250.289 73.1697 250.571 73.0073C250.853 72.8449 251.167 72.7223 251.515 72.6394C251.863 72.5566 252.218 72.4936 252.579 72.4505C253.037 72.3975 253.408 72.3544 253.693 72.3212C253.978 72.2848 254.185 72.2268 254.314 72.1472C254.444 72.0677 254.508 71.9384 254.508 71.7595V71.7247C254.508 71.2905 254.386 70.9541 254.14 70.7154C253.898 70.4768 253.537 70.3575 253.057 70.3575C252.556 70.3575 252.162 70.4685 251.873 70.6906C251.588 70.9093 251.391 71.1529 251.282 71.4214L249.885 71.1032C250.05 70.6392 250.292 70.2647 250.611 69.9796C250.932 69.6913 251.302 69.4825 251.719 69.3532C252.137 69.2206 252.576 69.1543 253.037 69.1543C253.342 69.1543 253.665 69.1908 254.006 69.2637C254.351 69.3333 254.672 69.4626 254.971 69.6515C255.272 69.8404 255.519 70.1105 255.711 70.4619C255.904 70.8099 256 71.2623 256 71.8191V76.8901H254.548V75.8461H254.488C254.392 76.0383 254.248 76.2273 254.056 76.4129C253.864 76.5985 253.617 76.7526 253.315 76.8752C253.014 76.9979 252.652 77.0592 252.231 77.0592ZM252.555 75.866C252.965 75.866 253.317 75.7848 253.608 75.6224C253.903 75.46 254.127 75.2479 254.28 74.986C254.435 74.7209 254.513 74.4375 254.513 74.1359V73.1515C254.46 73.2045 254.358 73.2542 254.205 73.3006C254.056 73.3437 253.885 73.3819 253.693 73.415C253.501 73.4448 253.314 73.473 253.131 73.4995C252.949 73.5227 252.796 73.5426 252.674 73.5592C252.385 73.5956 252.122 73.6569 251.883 73.7431C251.648 73.8293 251.459 73.9536 251.317 74.116C251.177 74.2751 251.108 74.4872 251.108 74.7524C251.108 75.1203 251.244 75.3987 251.515 75.5876C251.787 75.7732 252.134 75.866 252.555 75.866ZM259.466 72.356V76.8901H257.98V69.2538H259.407V70.4967H259.501C259.677 70.0923 259.952 69.7675 260.326 69.5222C260.704 69.277 261.18 69.1543 261.753 69.1543C262.274 69.1543 262.729 69.2637 263.12 69.4825C263.511 69.6979 263.815 70.0194 264.03 70.447C264.246 70.8745 264.353 71.4032 264.353 72.0329V76.8901H262.867V72.2119C262.867 71.6584 262.723 71.2258 262.434 70.9143C262.146 70.5994 261.75 70.442 261.246 70.442C260.901 70.442 260.595 70.5166 260.326 70.6657C260.061 70.8149 259.851 71.0336 259.695 71.322C259.542 71.607 259.466 71.9517 259.466 72.356ZM270.171 76.8901V66.7083H276.485V68.0308H271.708V71.133H276.033V72.4505H271.708V76.8901H270.171ZM278.159 76.8901V69.2538H279.596V70.4668H279.676C279.815 70.0559 280.06 69.7327 280.412 69.4974C280.766 69.2587 281.167 69.1394 281.615 69.1394C281.708 69.1394 281.817 69.1427 281.943 69.1494C282.072 69.156 282.173 69.1643 282.246 69.1742V70.5961C282.186 70.5795 282.08 70.5613 281.928 70.5414C281.775 70.5182 281.623 70.5066 281.471 70.5066C281.119 70.5066 280.806 70.5812 280.531 70.7303C280.259 70.8762 280.044 71.08 279.885 71.3418C279.725 71.6004 279.646 71.8953 279.646 72.2268V76.8901H278.159ZM285.686 77.0592C285.203 77.0592 284.765 76.9697 284.374 76.7907C283.983 76.6084 283.673 76.3449 283.444 76.0002C283.219 75.6555 283.106 75.2329 283.106 74.7325C283.106 74.3016 283.189 73.947 283.355 73.6685C283.52 73.3901 283.744 73.1697 284.026 73.0073C284.308 72.8449 284.623 72.7223 284.971 72.6394C285.319 72.5566 285.673 72.4936 286.034 72.4505C286.492 72.3975 286.863 72.3544 287.148 72.3212C287.433 72.2848 287.64 72.2268 287.77 72.1472C287.899 72.0677 287.963 71.9384 287.963 71.7595V71.7247C287.963 71.2905 287.841 70.9541 287.596 70.7154C287.354 70.4768 286.992 70.3575 286.512 70.3575C286.011 70.3575 285.617 70.4685 285.328 70.6906C285.043 70.9093 284.846 71.1529 284.737 71.4214L283.34 71.1032C283.506 70.6392 283.748 70.2647 284.066 69.9796C284.387 69.6913 284.757 69.4825 285.174 69.3532C285.592 69.2206 286.031 69.1543 286.492 69.1543C286.797 69.1543 287.12 69.1908 287.461 69.2637C287.806 69.3333 288.127 69.4626 288.426 69.6515C288.727 69.8404 288.974 70.1105 289.167 70.4619C289.359 70.8099 289.455 71.2623 289.455 71.8191V76.8901H288.003V75.8461H287.944C287.847 76.0383 287.703 76.2273 287.511 76.4129C287.319 76.5985 287.072 76.7526 286.77 76.8752C286.469 76.9979 286.107 77.0592 285.686 77.0592ZM286.01 75.866C286.421 75.866 286.772 75.7848 287.064 75.6224C287.359 75.46 287.582 75.2479 287.735 74.986C287.891 74.7209 287.968 74.4375 287.968 74.1359V73.1515C287.915 73.2045 287.813 73.2542 287.66 73.3006C287.511 73.3437 287.34 73.3819 287.148 73.415C286.956 73.4448 286.769 73.473 286.586 73.4995C286.404 73.5227 286.252 73.5426 286.129 73.5592C285.841 73.5956 285.577 73.6569 285.338 73.7431C285.103 73.8293 284.914 73.9536 284.772 74.116C284.632 74.2751 284.563 74.4872 284.563 74.7524C284.563 75.1203 284.699 75.3987 284.971 75.5876C285.242 75.7732 285.589 75.866 286.01 75.866ZM292.921 72.356V76.8901H291.435V69.2538H292.862V70.4967H292.956C293.132 70.0923 293.407 69.7675 293.781 69.5222C294.159 69.277 294.635 69.1543 295.208 69.1543C295.729 69.1543 296.184 69.2637 296.575 69.4825C296.967 69.6979 297.27 70.0194 297.485 70.447C297.701 70.8745 297.808 71.4032 297.808 72.0329V76.8901H296.322V72.2119C296.322 71.6584 296.178 71.2258 295.889 70.9143C295.601 70.5994 295.205 70.442 294.701 70.442C294.356 70.442 294.05 70.5166 293.781 70.6657C293.516 70.8149 293.306 71.0336 293.15 71.322C292.998 71.607 292.921 71.9517 292.921 72.356ZM303.019 77.0443C302.28 77.0443 301.643 76.8769 301.11 76.5421C300.579 76.2041 300.172 75.7384 299.887 75.1451C299.602 74.5518 299.459 73.8724 299.459 73.1068C299.459 72.3312 299.605 71.6468 299.896 71.0535C300.188 70.4569 300.599 69.9912 301.129 69.6565C301.66 69.3217 302.285 69.1543 303.004 69.1543C303.584 69.1543 304.101 69.2621 304.555 69.4775C305.009 69.6896 305.375 69.9879 305.654 70.3724C305.935 70.7569 306.103 71.206 306.156 71.7197H304.709C304.629 71.3617 304.447 71.0535 304.162 70.795C303.88 70.5364 303.503 70.4072 303.029 70.4072C302.614 70.4072 302.251 70.5166 301.94 70.7353C301.632 70.9507 301.391 71.259 301.219 71.66C301.047 72.0578 300.96 72.5284 300.96 73.072C300.96 73.6288 301.045 74.1094 301.214 74.5137C301.383 74.9181 301.622 75.2313 301.93 75.4533C302.241 75.6754 302.608 75.7864 303.029 75.7864C303.31 75.7864 303.566 75.7351 303.794 75.6323C304.026 75.5263 304.22 75.3755 304.376 75.1799C304.535 74.9844 304.646 74.749 304.709 74.4739H306.156C306.103 74.9678 305.942 75.4086 305.673 75.7964C305.405 76.1842 305.045 76.4891 304.595 76.7112C304.147 76.9332 303.622 77.0443 303.019 77.0443ZM307.745 76.8901V69.2538H309.232V76.8901H307.745ZM308.496 68.0755C308.238 68.0755 308.016 67.9893 307.83 67.817C307.648 67.6413 307.556 67.4325 307.556 67.1906C307.556 66.9453 307.648 66.7365 307.83 66.5641C308.016 66.3885 308.238 66.3006 308.496 66.3006C308.755 66.3006 308.975 66.3885 309.157 66.5641C309.343 66.7365 309.436 66.9453 309.436 67.1906C309.436 67.4325 309.343 67.6413 309.157 67.817C308.975 67.9893 308.755 68.0755 308.496 68.0755ZM316.954 71.1181L315.607 71.3568C315.55 71.1844 315.461 71.0203 315.338 70.8646C315.219 70.7088 315.057 70.5812 314.851 70.4818C314.646 70.3823 314.389 70.3326 314.08 70.3326C313.66 70.3326 313.308 70.4271 313.026 70.616C312.745 70.8016 312.604 71.0419 312.604 71.3369C312.604 71.5921 312.698 71.7976 312.887 71.9533C313.076 72.1091 313.381 72.2367 313.802 72.3362L315.015 72.6146C315.718 72.777 316.241 73.0272 316.586 73.3653C316.931 73.7033 317.103 74.1425 317.103 74.6828C317.103 75.1401 316.971 75.5478 316.705 75.9058C316.444 76.2604 316.077 76.5388 315.607 76.741C315.139 76.9432 314.597 77.0443 313.981 77.0443C313.126 77.0443 312.428 76.862 311.888 76.4974C311.348 76.1295 311.016 75.6075 310.894 74.9313L312.33 74.7126C312.42 75.0871 312.604 75.3705 312.882 75.5627C313.161 75.7516 313.524 75.8461 313.971 75.8461C314.458 75.8461 314.848 75.745 315.139 75.5428C315.431 75.3373 315.577 75.0871 315.577 74.7921C315.577 74.5535 315.487 74.353 315.308 74.1906C315.133 74.0282 314.863 73.9055 314.498 73.8227L313.205 73.5393C312.493 73.3769 311.966 73.1184 311.624 72.7637C311.286 72.4091 311.117 71.96 311.117 71.4164C311.117 70.9657 311.243 70.5712 311.495 70.2332C311.747 69.8951 312.095 69.6316 312.539 69.4427C312.983 69.2505 313.492 69.1543 314.066 69.1543C314.891 69.1543 315.54 69.3333 316.014 69.6913C316.488 70.0459 316.802 70.5215 316.954 71.1181ZM321.954 77.0443C321.215 77.0443 320.579 76.8769 320.045 76.5421C319.515 76.2041 319.107 75.7384 318.822 75.1451C318.537 74.5518 318.395 73.8724 318.395 73.1068C318.395 72.3312 318.54 71.6468 318.832 71.0535C319.124 70.4569 319.535 69.9912 320.065 69.6565C320.595 69.3217 321.22 69.1543 321.939 69.1543C322.519 69.1543 323.036 69.2621 323.49 69.4775C323.944 69.6896 324.311 69.9879 324.589 70.3724C324.871 70.7569 325.038 71.206 325.091 71.7197H323.645C323.565 71.3617 323.383 71.0535 323.098 70.795C322.816 70.5364 322.438 70.4072 321.964 70.4072C321.55 70.4072 321.187 70.5166 320.875 70.7353C320.567 70.9507 320.327 71.259 320.154 71.66C319.982 72.0578 319.896 72.5284 319.896 73.072C319.896 73.6288 319.98 74.1094 320.15 74.5137C320.319 74.9181 320.557 75.2313 320.865 75.4533C321.177 75.6754 321.543 75.7864 321.964 75.7864C322.246 75.7864 322.501 75.7351 322.73 75.6323C322.962 75.5263 323.156 75.3755 323.311 75.1799C323.471 74.9844 323.582 74.749 323.645 74.4739H325.091C325.038 74.9678 324.877 75.4086 324.609 75.7964C324.341 76.1842 323.981 76.4891 323.53 76.7112C323.083 76.9332 322.557 77.0443 321.954 77.0443ZM329.898 77.0443C329.182 77.0443 328.557 76.8802 328.023 76.5521C327.49 76.2239 327.075 75.7649 326.78 75.1749C326.485 74.585 326.338 73.8956 326.338 73.1068C326.338 72.3146 326.485 71.6219 326.78 71.0286C327.075 70.4354 327.49 69.9747 328.023 69.6465C328.557 69.3184 329.182 69.1543 329.898 69.1543C330.613 69.1543 331.238 69.3184 331.772 69.6465C332.305 69.9747 332.72 70.4354 333.015 71.0286C333.31 71.6219 333.457 72.3146 333.457 73.1068C333.457 73.8956 333.31 74.585 333.015 75.1749C332.72 75.7649 332.305 76.2239 331.772 76.5521C331.238 76.8802 330.613 77.0443 329.898 77.0443ZM329.903 75.7964C330.367 75.7964 330.751 75.6738 331.056 75.4285C331.361 75.1832 331.586 74.8568 331.732 74.4491C331.881 74.0414 331.956 73.5923 331.956 73.1018C331.956 72.6146 331.881 72.1671 331.732 71.7595C331.586 71.3485 331.361 71.0187 331.056 70.7701C330.751 70.5215 330.367 70.3972 329.903 70.3972C329.435 70.3972 329.047 70.5215 328.739 70.7701C328.434 71.0187 328.207 71.3485 328.058 71.7595C327.912 72.1671 327.839 72.6146 327.839 73.1018C327.839 73.5923 327.912 74.0414 328.058 74.4491C328.207 74.8568 328.434 75.1832 328.739 75.4285C329.047 75.6738 329.435 75.7964 329.903 75.7964Z" fill="#101828"/>
<path d="M459.936 75.4901V66.9003H462.719C463.773 66.9003 464.461 66.9432 464.781 67.0292C465.273 67.1581 465.686 67.4393 466.018 67.8729C466.35 68.3026 466.516 68.8593 466.516 69.5428C466.516 70.0702 466.42 70.5135 466.229 70.8729C466.037 71.2323 465.793 71.5155 465.496 71.7225C465.203 71.9257 464.904 72.0604 464.6 72.1268C464.186 72.2089 463.586 72.2499 462.801 72.2499H461.67V75.4901H459.936ZM461.67 68.3534V70.7909H462.619C463.303 70.7909 463.76 70.746 463.99 70.6561C464.221 70.5663 464.4 70.4257 464.529 70.2343C464.662 70.0428 464.729 69.8202 464.729 69.5663C464.729 69.2538 464.637 68.996 464.453 68.7928C464.27 68.5897 464.037 68.4628 463.756 68.412C463.549 68.3729 463.133 68.3534 462.508 68.3534H461.67ZM467.5 72.6952L469.188 72.5311C469.289 73.0975 469.494 73.5135 469.803 73.7792C470.115 74.0448 470.535 74.1776 471.062 74.1776C471.621 74.1776 472.041 74.0604 472.322 73.826C472.607 73.5878 472.75 73.3104 472.75 72.994C472.75 72.7909 472.689 72.619 472.568 72.4784C472.451 72.3339 472.244 72.2089 471.947 72.1034C471.744 72.0331 471.281 71.9081 470.559 71.7284C469.629 71.4979 468.977 71.2147 468.602 70.8788C468.074 70.4061 467.811 69.83 467.811 69.1503C467.811 68.7128 467.934 68.3046 468.18 67.9257C468.43 67.5428 468.787 67.2518 469.252 67.0526C469.721 66.8534 470.285 66.7538 470.945 66.7538C472.023 66.7538 472.834 66.9901 473.377 67.4628C473.924 67.9354 474.211 68.5663 474.238 69.3553L472.504 69.4315C472.43 68.9901 472.27 68.6737 472.023 68.4823C471.781 68.287 471.416 68.1893 470.928 68.1893C470.424 68.1893 470.029 68.2928 469.744 68.4999C469.561 68.6327 469.469 68.8104 469.469 69.0331C469.469 69.2362 469.555 69.41 469.727 69.5546C469.945 69.7382 470.477 69.9296 471.32 70.1288C472.164 70.328 472.787 70.535 473.189 70.7499C473.596 70.9608 473.912 71.2518 474.139 71.6229C474.369 71.9901 474.484 72.4452 474.484 72.9882C474.484 73.4803 474.348 73.9413 474.074 74.371C473.801 74.8007 473.414 75.121 472.914 75.3319C472.414 75.5389 471.791 75.6425 471.045 75.6425C469.959 75.6425 469.125 75.3925 468.543 74.8925C467.961 74.3885 467.613 73.6561 467.5 72.6952ZM477.877 75.4901V68.3534H475.328V66.9003H482.154V68.3534H479.611V75.4901H477.877Z" fill="#6A7282"/>
<g clip-path="url(#clip0_5470_5561)">
<path d="M221.6 94.4901V97.4901L223.6 98.4901" stroke="#4A5565" stroke-linecap="round" stroke-linejoin="round"/>
<path d="M221.6 102.49C224.361 102.49 226.6 100.252 226.6 97.4901C226.6 94.7287 224.361 92.4901 221.6 92.4901C218.838 92.4901 216.6 94.7287 216.6 97.4901C216.6 100.252 218.838 102.49 221.6 102.49Z" stroke="#4A5565" stroke-linecap="round" stroke-linejoin="round"/>
</g>
<path d="M235.571 92.7628V101.49H234.514V93.8708H234.463L232.333 95.2856V94.2117L234.514 92.7628H235.571ZM241.149 92.7628V101.49H240.093V93.8708H240.041L237.911 95.2856V94.2117L240.093 92.7628H241.149ZM244.409 100.374C244.199 100.374 244.019 100.298 243.868 100.148C243.718 99.9972 243.642 99.8168 243.642 99.6066C243.642 99.3964 243.718 99.216 243.868 99.0654C244.019 98.9148 244.199 98.8395 244.409 98.8395C244.619 98.8395 244.8 98.9148 244.95 99.0654C245.101 99.216 245.176 99.3964 245.176 99.6066C245.176 99.7458 245.141 99.8736 245.07 99.9901C245.002 100.107 244.909 100.2 244.793 100.271C244.679 100.34 244.551 100.374 244.409 100.374ZM244.409 95.9589C244.199 95.9589 244.019 95.8836 243.868 95.733C243.718 95.5824 243.642 95.402 243.642 95.1918C243.642 94.9816 243.718 94.8012 243.868 94.6506C244.019 94.5001 244.199 94.4248 244.409 94.4248C244.619 94.4248 244.8 94.5001 244.95 94.6506C245.101 94.8012 245.176 94.9816 245.176 95.1918C245.176 95.331 245.141 95.4589 245.07 95.5753C245.002 95.6918 244.909 95.7856 244.793 95.8566C244.679 95.9248 244.551 95.9589 244.409 95.9589ZM246.759 99.7003V98.831L250.595 92.7628H251.225V94.1094H250.799L247.901 98.6947V98.7628H253.066V99.7003H246.759ZM250.867 101.49V99.4361V99.0313V92.7628H251.873V101.49H250.867ZM254.663 101.49V100.723L257.544 97.5697C257.882 97.2003 258.16 96.8793 258.379 96.6066C258.598 96.331 258.76 96.0725 258.865 95.831C258.973 95.5867 259.027 95.331 259.027 95.064C259.027 94.7572 258.953 94.4915 258.805 94.2671C258.66 94.0427 258.461 93.8694 258.209 93.7472C257.956 93.6251 257.672 93.564 257.356 93.564C257.021 93.564 256.729 93.6336 256.479 93.7728C256.231 93.9091 256.04 94.1009 255.903 94.3481C255.77 94.5952 255.703 94.885 255.703 95.2174H254.697C254.697 94.706 254.815 94.2572 255.051 93.8708C255.287 93.4844 255.608 93.1833 256.014 92.9674C256.423 92.7515 256.882 92.6435 257.39 92.6435C257.902 92.6435 258.355 92.7515 258.75 92.9674C259.145 93.1833 259.454 93.4745 259.679 93.841C259.903 94.2074 260.015 94.6151 260.015 95.064C260.015 95.385 259.957 95.6989 259.841 96.0057C259.727 96.3097 259.528 96.6492 259.244 97.0242C258.963 97.3964 258.572 97.8509 258.072 98.3878L256.112 100.484V100.553H260.169V101.49H254.663ZM265.457 101.49V92.7628H268.406C269.091 92.7628 269.65 92.8864 270.085 93.1336C270.523 93.3779 270.846 93.7089 271.057 94.1265C271.267 94.5441 271.372 95.01 271.372 95.5242C271.372 96.0384 271.267 96.5057 271.057 96.9262C270.849 97.3466 270.528 97.6819 270.094 97.9319C269.659 98.179 269.102 98.3026 268.423 98.3026H266.309V97.3651H268.389C268.858 97.3651 269.234 97.2841 269.518 97.1222C269.802 96.9603 270.008 96.7415 270.136 96.466C270.267 96.1876 270.332 95.8736 270.332 95.5242C270.332 95.1748 270.267 94.8623 270.136 94.5867C270.008 94.3111 269.801 94.0952 269.514 93.939C269.227 93.7799 268.846 93.7003 268.372 93.7003H266.514V101.49H265.457ZM273.074 92.7628H274.336L277.302 100.007H277.404L280.37 92.7628H281.631V101.49H280.643V94.8594H280.557L277.83 101.49H276.876L274.148 94.8594H274.063V101.49H273.074V92.7628Z" fill="#4A5565"/>
<path d="M217.911 127.278H215.943L219.527 117.096H221.804L225.394 127.278H223.425L220.705 119.184H220.626L217.911 127.278ZM217.976 123.285H223.345V124.767H217.976V123.285ZM228.455 117.096V127.278H226.655V117.096H228.455ZM233.686 127.427C232.921 127.427 232.259 127.268 231.703 126.95C231.149 126.628 230.723 126.174 230.425 125.587C230.127 124.997 229.977 124.303 229.977 123.504C229.977 122.719 230.127 122.029 230.425 121.436C230.727 120.839 231.147 120.375 231.688 120.044C232.228 119.709 232.863 119.542 233.592 119.542C234.062 119.542 234.507 119.618 234.924 119.771C235.345 119.92 235.716 120.152 236.038 120.467C236.363 120.781 236.618 121.182 236.803 121.67C236.989 122.154 237.082 122.73 237.082 123.4V123.952H230.823V122.739H235.357C235.353 122.394 235.279 122.087 235.133 121.819C234.987 121.547 234.783 121.333 234.521 121.178C234.263 121.022 233.961 120.944 233.617 120.944C233.249 120.944 232.926 121.033 232.647 121.212C232.369 121.388 232.152 121.62 231.996 121.908C231.843 122.193 231.766 122.507 231.762 122.848V123.907C231.762 124.351 231.843 124.732 232.006 125.05C232.168 125.365 232.395 125.607 232.687 125.776C232.979 125.942 233.32 126.025 233.711 126.025C233.973 126.025 234.21 125.988 234.422 125.915C234.634 125.839 234.818 125.728 234.974 125.582C235.13 125.437 235.247 125.256 235.327 125.04L237.007 125.229C236.901 125.673 236.699 126.061 236.401 126.393C236.106 126.721 235.728 126.976 235.267 127.158C234.807 127.337 234.28 127.427 233.686 127.427ZM239.912 119.641L241.453 122.46L243.019 119.641H244.923L242.621 123.459L244.963 127.278H243.069L241.453 124.528L239.852 127.278H237.943L240.27 123.459L238.003 119.641H239.912ZM258.583 120.531H256.723C256.67 120.226 256.573 119.956 256.43 119.721C256.288 119.482 256.11 119.28 255.898 119.114C255.686 118.949 255.444 118.824 255.172 118.741C254.904 118.655 254.614 118.612 254.302 118.612C253.749 118.612 253.258 118.751 252.831 119.03C252.403 119.305 252.068 119.709 251.826 120.243C251.584 120.773 251.463 121.421 251.463 122.187C251.463 122.966 251.584 123.622 251.826 124.155C252.072 124.686 252.406 125.087 252.831 125.359C253.258 125.627 253.747 125.761 254.297 125.761C254.602 125.761 254.887 125.722 255.152 125.642C255.421 125.559 255.661 125.438 255.873 125.279C256.089 125.12 256.269 124.924 256.415 124.692C256.564 124.46 256.667 124.195 256.723 123.897L258.583 123.907C258.513 124.391 258.362 124.845 258.13 125.269C257.902 125.693 257.602 126.068 257.23 126.393C256.859 126.714 256.425 126.966 255.928 127.148C255.431 127.327 254.879 127.417 254.272 127.417C253.377 127.417 252.579 127.21 251.876 126.795C251.173 126.381 250.62 125.783 250.216 125.001C249.811 124.218 249.609 123.28 249.609 122.187C249.609 121.09 249.813 120.152 250.221 119.373C250.628 118.591 251.183 117.992 251.886 117.578C252.589 117.164 253.384 116.957 254.272 116.957C254.839 116.957 255.366 117.036 255.853 117.195C256.341 117.354 256.775 117.588 257.156 117.896C257.537 118.201 257.85 118.576 258.096 119.02C258.344 119.461 258.507 119.964 258.583 120.531ZM261.992 122.803V127.278H260.192V117.096H261.952V120.939H262.042C262.221 120.508 262.497 120.168 262.872 119.92C263.25 119.668 263.73 119.542 264.314 119.542C264.844 119.542 265.306 119.653 265.701 119.875C266.095 120.097 266.4 120.422 266.616 120.849C266.834 121.277 266.944 121.799 266.944 122.415V127.278H265.144V122.694C265.144 122.18 265.011 121.781 264.746 121.496C264.484 121.207 264.117 121.063 263.643 121.063C263.324 121.063 263.039 121.133 262.787 121.272C262.539 121.408 262.343 121.605 262.201 121.864C262.062 122.122 261.992 122.435 261.992 122.803ZM272.159 127.427C271.393 127.427 270.732 127.268 270.175 126.95C269.622 126.628 269.196 126.174 268.898 125.587C268.599 124.997 268.45 124.303 268.45 123.504C268.45 122.719 268.599 122.029 268.898 121.436C269.199 120.839 269.62 120.375 270.16 120.044C270.701 119.709 271.335 119.542 272.064 119.542C272.535 119.542 272.979 119.618 273.397 119.771C273.818 119.92 274.189 120.152 274.51 120.467C274.835 120.781 275.09 121.182 275.276 121.67C275.462 122.154 275.555 122.73 275.555 123.4V123.952H269.295V122.739H273.829C273.826 122.394 273.751 122.087 273.606 121.819C273.46 121.547 273.256 121.333 272.994 121.178C272.736 121.022 272.434 120.944 272.089 120.944C271.721 120.944 271.398 121.033 271.12 121.212C270.841 121.388 270.624 121.62 270.469 121.908C270.316 122.193 270.238 122.507 270.235 122.848V123.907C270.235 124.351 270.316 124.732 270.479 125.05C270.641 125.365 270.868 125.607 271.16 125.776C271.451 125.942 271.793 126.025 272.184 126.025C272.446 126.025 272.683 125.988 272.895 125.915C273.107 125.839 273.291 125.728 273.447 125.582C273.602 125.437 273.72 125.256 273.8 125.04L275.48 125.229C275.374 125.673 275.172 126.061 274.873 126.393C274.578 126.721 274.201 126.976 273.74 127.158C273.279 127.337 272.752 127.427 272.159 127.427ZM278.877 122.803V127.278H277.077V119.641H278.797V120.939H278.887C279.062 120.511 279.342 120.172 279.727 119.92C280.115 119.668 280.594 119.542 281.164 119.542C281.691 119.542 282.15 119.655 282.541 119.88C282.935 120.105 283.24 120.432 283.456 120.859C283.674 121.287 283.782 121.806 283.779 122.415V127.278H281.979V122.694C281.979 122.183 281.846 121.784 281.581 121.496C281.319 121.207 280.957 121.063 280.493 121.063C280.178 121.063 279.898 121.133 279.652 121.272C279.41 121.408 279.22 121.605 279.081 121.864C278.945 122.122 278.877 122.435 278.877 122.803Z" fill="#101828"/>
<mask id="path-11-inside-2_5470_5561" fill="white">
<path d="M215.6 157.09C215.6 149.91 221.42 144.09 228.6 144.09H287.6C294.779 144.09 300.6 149.91 300.6 157.09C300.6 164.27 294.779 170.09 287.6 170.09H228.6C221.42 170.09 215.6 164.27 215.6 157.09Z"/>
</mask>
<path d="M215.6 157.09C215.6 149.91 221.42 144.09 228.6 144.09H287.6C294.779 144.09 300.6 149.91 300.6 157.09C300.6 164.27 294.779 170.09 287.6 170.09H228.6C221.42 170.09 215.6 164.27 215.6 157.09Z" fill="#E5F0FF"/>
<path d="M228.6 144.09V144.89H287.6V144.09V143.29H228.6V144.09ZM287.6 170.09V169.29H228.6V170.09V170.89H287.6V170.09ZM228.6 170.09V169.29C221.862 169.29 216.4 163.828 216.4 157.09H215.6H214.8C214.8 164.712 220.978 170.89 228.6 170.89V170.09ZM300.6 157.09H299.8C299.8 163.828 294.337 169.29 287.6 169.29V170.09V170.89C295.221 170.89 301.4 164.712 301.4 157.09H300.6ZM287.6 144.09V144.89C294.337 144.89 299.8 150.352 299.8 157.09H300.6H301.4C301.4 149.469 295.221 143.29 287.6 143.29V144.09ZM228.6 144.09V143.29C220.978 143.29 214.8 149.469 214.8 157.09H215.6H216.4C216.4 150.352 221.862 144.89 228.6 144.89V144.09Z" fill="#8EC5FF" mask="url(#path-11-inside-2_5470_5561)"/>
<path d="M220.6 157.09C220.6 155.433 221.943 154.09 223.6 154.09C225.256 154.09 226.6 155.433 226.6 157.09C226.6 158.747 225.256 160.09 223.6 160.09C221.943 160.09 220.6 158.747 220.6 157.09Z" fill="#4E6BEA"/>
<path d="M232.875 152.363V161.09H231.558V152.363H232.875ZM235.965 157.204V161.09H234.691V154.545H235.914V155.61H235.994C236.145 155.263 236.381 154.985 236.702 154.775C237.026 154.565 237.433 154.459 237.925 154.459C238.371 154.459 238.762 154.553 239.097 154.741C239.432 154.925 239.692 155.201 239.877 155.567C240.061 155.934 240.154 156.387 240.154 156.927V161.09H238.879V157.08C238.879 156.606 238.756 156.235 238.509 155.968C238.262 155.698 237.922 155.563 237.49 155.563C237.195 155.563 236.932 155.627 236.702 155.755C236.475 155.883 236.294 156.07 236.161 156.317C236.03 156.562 235.965 156.857 235.965 157.204ZM245.14 161.09V152.363H248.251C248.93 152.363 249.493 152.486 249.939 152.734C250.385 152.981 250.719 153.319 250.94 153.748C251.162 154.174 251.273 154.654 251.273 155.188C251.273 155.725 251.16 156.208 250.936 156.637C250.714 157.063 250.379 157.401 249.93 157.651C249.484 157.898 248.923 158.022 248.247 158.022H246.108V156.905H248.128C248.557 156.905 248.905 156.832 249.172 156.684C249.439 156.533 249.635 156.329 249.76 156.07C249.885 155.812 249.947 155.518 249.947 155.188C249.947 154.859 249.885 154.566 249.76 154.31C249.635 154.055 249.437 153.854 249.167 153.709C248.9 153.565 248.548 153.492 248.111 153.492H246.457V161.09H245.14ZM252.714 161.09V154.545H253.945V155.584H254.014C254.133 155.232 254.343 154.955 254.644 154.754C254.948 154.549 255.292 154.447 255.676 154.447C255.755 154.447 255.849 154.45 255.957 154.455C256.068 154.461 256.154 154.468 256.217 154.477V155.695C256.166 155.681 256.075 155.665 255.944 155.648C255.813 155.629 255.683 155.619 255.552 155.619C255.251 155.619 254.982 155.682 254.747 155.81C254.514 155.935 254.329 156.11 254.193 156.334C254.056 156.556 253.988 156.809 253.988 157.093V161.09H252.714ZM259.842 161.222C259.229 161.222 258.693 161.082 258.236 160.8C257.778 160.519 257.423 160.126 257.17 159.62C256.917 159.114 256.791 158.523 256.791 157.847C256.791 157.168 256.917 156.575 257.17 156.066C257.423 155.557 257.778 155.163 258.236 154.881C258.693 154.6 259.229 154.459 259.842 154.459C260.456 154.459 260.991 154.6 261.449 154.881C261.906 155.163 262.261 155.557 262.514 156.066C262.767 156.575 262.893 157.168 262.893 157.847C262.893 158.523 262.767 159.114 262.514 159.62C262.261 160.126 261.906 160.519 261.449 160.8C260.991 161.082 260.456 161.222 259.842 161.222ZM259.846 160.153C260.244 160.153 260.574 160.048 260.835 159.837C261.096 159.627 261.29 159.347 261.415 158.998C261.542 158.648 261.606 158.263 261.606 157.843C261.606 157.425 261.542 157.042 261.415 156.692C261.29 156.34 261.096 156.057 260.835 155.844C260.574 155.631 260.244 155.525 259.846 155.525C259.446 155.525 259.113 155.631 258.849 155.844C258.588 156.057 258.393 156.34 258.265 156.692C258.14 157.042 258.078 157.425 258.078 157.843C258.078 158.263 258.14 158.648 258.265 158.998C258.393 159.347 258.588 159.627 258.849 159.837C259.113 160.048 259.446 160.153 259.846 160.153ZM267.06 163.681C266.54 163.681 266.093 163.613 265.718 163.477C265.345 163.34 265.041 163.16 264.806 162.935C264.57 162.711 264.394 162.465 264.277 162.198L265.372 161.746C265.449 161.871 265.551 162.004 265.679 162.143C265.81 162.285 265.986 162.405 266.208 162.505C266.432 162.604 266.72 162.654 267.073 162.654C267.556 162.654 267.955 162.536 268.27 162.3C268.585 162.067 268.743 161.695 268.743 161.184V159.897H268.662C268.585 160.036 268.475 160.191 268.33 160.361C268.188 160.532 267.992 160.68 267.742 160.805C267.492 160.93 267.166 160.992 266.766 160.992C266.249 160.992 265.783 160.871 265.368 160.63C264.956 160.386 264.629 160.026 264.388 159.552C264.149 159.075 264.03 158.488 264.03 157.792C264.03 157.096 264.148 156.499 264.384 156.002C264.622 155.505 264.949 155.124 265.364 154.86C265.779 154.593 266.249 154.459 266.774 154.459C267.181 154.459 267.509 154.528 267.759 154.664C268.009 154.798 268.203 154.954 268.343 155.133C268.485 155.312 268.594 155.469 268.671 155.606H268.764V154.545H270.013V161.235C270.013 161.798 269.882 162.259 269.621 162.62C269.36 162.981 269.006 163.248 268.56 163.421C268.117 163.594 267.617 163.681 267.06 163.681ZM267.047 159.935C267.414 159.935 267.723 159.85 267.976 159.68C268.232 159.506 268.425 159.259 268.556 158.938C268.689 158.614 268.756 158.227 268.756 157.775C268.756 157.334 268.691 156.947 268.56 156.611C268.429 156.276 268.237 156.015 267.985 155.827C267.732 155.637 267.419 155.542 267.047 155.542C266.664 155.542 266.344 155.641 266.088 155.84C265.833 156.036 265.639 156.303 265.509 156.641C265.381 156.979 265.317 157.357 265.317 157.775C265.317 158.204 265.382 158.58 265.513 158.904C265.644 159.228 265.837 159.481 266.093 159.663C266.351 159.844 266.669 159.935 267.047 159.935ZM271.722 161.09V154.545H272.953V155.584H273.021C273.141 155.232 273.351 154.955 273.652 154.754C273.956 154.549 274.3 154.447 274.683 154.447C274.763 154.447 274.857 154.45 274.965 154.455C275.075 154.461 275.162 154.468 275.225 154.477V155.695C275.173 155.681 275.083 155.665 274.952 155.648C274.821 155.629 274.691 155.619 274.56 155.619C274.259 155.619 273.99 155.682 273.754 155.81C273.521 155.935 273.337 156.11 273.2 156.334C273.064 156.556 272.996 156.809 272.996 157.093V161.09H271.722ZM278.914 161.222C278.269 161.222 277.714 161.084 277.248 160.809C276.785 160.53 276.427 160.14 276.174 159.637C275.924 159.131 275.799 158.539 275.799 157.86C275.799 157.19 275.924 156.599 276.174 156.087C276.427 155.576 276.779 155.177 277.231 154.89C277.685 154.603 278.216 154.459 278.824 154.459C279.194 154.459 279.552 154.521 279.898 154.643C280.245 154.765 280.556 154.957 280.831 155.218C281.107 155.479 281.324 155.819 281.483 156.236C281.643 156.651 281.722 157.155 281.722 157.749V158.201H276.519V157.246H280.474C280.474 156.911 280.405 156.614 280.269 156.356C280.133 156.094 279.941 155.888 279.694 155.738C279.449 155.587 279.162 155.512 278.833 155.512C278.475 155.512 278.162 155.6 277.895 155.776C277.631 155.95 277.427 156.177 277.282 156.458C277.14 156.736 277.069 157.039 277.069 157.366V158.111C277.069 158.549 277.145 158.921 277.299 159.228C277.455 159.535 277.672 159.769 277.951 159.931C278.229 160.09 278.555 160.17 278.927 160.17C279.168 160.17 279.388 160.136 279.587 160.067C279.786 159.996 279.958 159.891 280.103 159.752C280.248 159.613 280.358 159.441 280.435 159.236L281.641 159.454C281.545 159.809 281.371 160.12 281.121 160.387C280.874 160.651 280.563 160.857 280.188 161.005C279.816 161.15 279.391 161.222 278.914 161.222ZM288.041 156.143L286.886 156.347C286.838 156.2 286.761 156.059 286.656 155.925C286.553 155.792 286.414 155.682 286.238 155.597C286.062 155.512 285.842 155.469 285.578 155.469C285.217 155.469 284.916 155.55 284.674 155.712C284.433 155.871 284.312 156.077 284.312 156.33C284.312 156.549 284.393 156.725 284.555 156.859C284.717 156.992 284.978 157.102 285.339 157.187L286.379 157.425C286.981 157.565 287.43 157.779 287.725 158.069C288.021 158.359 288.169 158.735 288.169 159.198C288.169 159.59 288.055 159.94 287.828 160.246C287.603 160.55 287.289 160.789 286.886 160.962C286.485 161.136 286.021 161.222 285.492 161.222C284.759 161.222 284.161 161.066 283.698 160.754C283.235 160.438 282.951 159.991 282.846 159.411L284.078 159.224C284.154 159.545 284.312 159.788 284.551 159.952C284.789 160.114 285.1 160.195 285.484 160.195C285.901 160.195 286.235 160.109 286.485 159.935C286.735 159.759 286.86 159.545 286.86 159.292C286.86 159.087 286.784 158.915 286.63 158.776C286.48 158.637 286.248 158.532 285.936 158.461L284.828 158.218C284.217 158.079 283.765 157.857 283.472 157.553C283.183 157.249 283.038 156.864 283.038 156.398C283.038 156.012 283.146 155.674 283.362 155.384C283.578 155.094 283.876 154.869 284.257 154.707C284.637 154.542 285.073 154.459 285.565 154.459C286.272 154.459 286.829 154.613 287.235 154.92C287.642 155.224 287.91 155.631 288.041 156.143ZM294.474 156.143L293.319 156.347C293.271 156.2 293.194 156.059 293.089 155.925C292.987 155.792 292.848 155.682 292.672 155.597C292.496 155.512 292.275 155.469 292.011 155.469C291.65 155.469 291.349 155.55 291.108 155.712C290.866 155.871 290.746 156.077 290.746 156.33C290.746 156.549 290.827 156.725 290.988 156.859C291.15 156.992 291.412 157.102 291.773 157.187L292.812 157.425C293.415 157.565 293.863 157.779 294.159 158.069C294.454 158.359 294.602 158.735 294.602 159.198C294.602 159.59 294.488 159.94 294.261 160.246C294.037 160.55 293.723 160.789 293.319 160.962C292.919 161.136 292.454 161.222 291.926 161.222C291.193 161.222 290.595 161.066 290.132 160.754C289.669 160.438 289.385 159.991 289.28 159.411L290.511 159.224C290.588 159.545 290.746 159.788 290.984 159.952C291.223 160.114 291.534 160.195 291.917 160.195C292.335 160.195 292.669 160.109 292.919 159.935C293.169 159.759 293.294 159.545 293.294 159.292C293.294 159.087 293.217 158.915 293.064 158.776C292.913 158.637 292.682 158.532 292.369 158.461L291.261 158.218C290.65 158.079 290.199 157.857 289.906 157.553C289.616 157.249 289.471 156.864 289.471 156.398C289.471 156.012 289.579 155.674 289.795 155.384C290.011 155.094 290.309 154.869 290.69 154.707C291.071 154.542 291.507 154.459 291.998 154.459C292.706 154.459 293.263 154.613 293.669 154.92C294.075 155.224 294.344 155.631 294.474 156.143Z" fill="#4E6BEA"/>
</g>
<g filter="url(#filter1_d_5470_5561)">
<path d="M198 279.153C198 266.858 207.967 256.89 220.263 256.89H388.587C400.883 256.89 410.85 266.858 410.85 279.153V351.627C410.85 363.923 400.883 373.89 388.587 373.89H220.263C207.967 373.89 198 363.923 198 351.627V279.153Z" fill="white" shape-rendering="crispEdges"/>
<path d="M251.154 319.035H247.868C247.288 319.034 246.725 319.223 246.263 319.572C245.801 319.921 245.466 320.412 245.31 320.97L242.196 332.049C242.176 332.117 242.134 332.178 242.076 332.221C242.019 332.264 241.949 332.287 241.878 332.287C241.806 332.287 241.736 332.264 241.679 332.221C241.622 332.178 241.58 332.117 241.56 332.049L234.245 306.022C234.225 305.953 234.183 305.893 234.125 305.85C234.068 305.807 233.998 305.784 233.927 305.784C233.855 305.784 233.785 305.807 233.728 305.85C233.671 305.893 233.629 305.953 233.609 306.022L230.494 317.101C230.339 317.656 230.006 318.145 229.547 318.495C229.088 318.844 228.527 319.034 227.95 319.035H224.65" stroke="#00C950" stroke-width="2.65036" stroke-linecap="round" stroke-linejoin="round"/>
<path d="M274.955 314.89V311.845L283.034 303.924C283.807 303.144 284.451 302.451 284.966 301.845C285.481 301.239 285.868 300.651 286.125 300.083C286.383 299.515 286.512 298.909 286.512 298.265C286.512 297.53 286.345 296.901 286.012 296.379C285.678 295.848 285.22 295.439 284.637 295.152C284.053 294.864 283.391 294.72 282.648 294.72C281.883 294.72 281.212 294.879 280.637 295.197C280.061 295.508 279.614 295.951 279.296 296.527C278.985 297.102 278.83 297.788 278.83 298.583H274.819C274.819 297.106 275.156 295.822 275.83 294.731C276.504 293.64 277.432 292.795 278.614 292.197C279.803 291.598 281.167 291.299 282.705 291.299C284.266 291.299 285.637 291.591 286.819 292.174C288 292.758 288.917 293.557 289.569 294.572C290.228 295.587 290.557 296.746 290.557 298.049C290.557 298.92 290.391 299.777 290.057 300.617C289.724 301.458 289.137 302.39 288.296 303.413C287.462 304.436 286.292 305.674 284.784 307.129L280.773 311.208V311.367H290.909V314.89H274.955ZM293.909 310.572V307.22L303.784 291.617H306.58V296.39H304.875L298.228 306.924V307.106H312.012V310.572H293.909ZM305.012 314.89V309.549L305.057 308.049V291.617H309.034V314.89H305.012ZM325.188 290.526L317.688 318.39H314.086L321.586 290.526H325.188ZM328.62 314.89L338.517 295.299V295.14H327.029V291.617H342.881V295.22L332.995 314.89H328.62Z" fill="#101828"/>
<path d="M272.86 345.89L277.809 333.005H279.646L284.919 345.89H282.977L281.474 341.988H276.086L274.671 345.89H272.86ZM276.578 340.599H280.946L279.602 337.031C279.191 335.947 278.887 335.056 278.688 334.359C278.523 335.185 278.292 336.005 277.993 336.82L276.578 340.599ZM288.338 345.89L284.787 336.556H286.457L288.461 342.146C288.678 342.75 288.877 343.376 289.059 344.027C289.199 343.535 289.396 342.943 289.647 342.251L291.722 336.556H293.348L289.814 345.89H288.338ZM300.836 344.739C300.25 345.237 299.685 345.588 299.14 345.793C298.601 345.999 298.021 346.101 297.399 346.101C296.374 346.101 295.586 345.852 295.035 345.354C294.484 344.85 294.209 344.208 294.209 343.429C294.209 342.972 294.312 342.556 294.517 342.181C294.728 341.8 295 341.496 295.334 341.267C295.674 341.039 296.055 340.866 296.477 340.749C296.787 340.667 297.256 340.587 297.883 340.511C299.16 340.359 300.101 340.177 300.704 339.966C300.71 339.75 300.713 339.612 300.713 339.553C300.713 338.909 300.563 338.455 300.265 338.191C299.86 337.833 299.26 337.655 298.463 337.655C297.719 337.655 297.168 337.787 296.811 338.05C296.459 338.308 296.198 338.768 296.028 339.43L294.481 339.219C294.622 338.557 294.854 338.024 295.176 337.62C295.498 337.209 295.964 336.896 296.573 336.679C297.183 336.457 297.889 336.345 298.691 336.345C299.488 336.345 300.136 336.439 300.634 336.626C301.132 336.814 301.498 337.051 301.732 337.338C301.967 337.62 302.131 337.977 302.225 338.411C302.277 338.68 302.304 339.167 302.304 339.87V341.979C302.304 343.45 302.336 344.381 302.4 344.774C302.471 345.161 302.605 345.533 302.805 345.89H301.152C300.988 345.562 300.883 345.178 300.836 344.739ZM300.704 341.206C300.13 341.44 299.269 341.639 298.12 341.803C297.47 341.897 297.01 342.002 296.74 342.12C296.471 342.237 296.263 342.41 296.116 342.638C295.97 342.861 295.896 343.11 295.896 343.385C295.896 343.807 296.055 344.159 296.371 344.44C296.693 344.721 297.162 344.862 297.777 344.862C298.387 344.862 298.929 344.73 299.403 344.466C299.878 344.197 300.227 343.831 300.449 343.368C300.619 343.01 300.704 342.483 300.704 341.786V341.206ZM304.773 334.825V333.005H306.355V334.825H304.773ZM304.773 345.89V336.556H306.355V345.89H304.773ZM308.737 345.89V333.005H310.319V345.89H308.737ZM318.871 344.739C318.285 345.237 317.72 345.588 317.175 345.793C316.636 345.999 316.056 346.101 315.435 346.101C314.409 346.101 313.621 345.852 313.07 345.354C312.52 344.85 312.244 344.208 312.244 343.429C312.244 342.972 312.347 342.556 312.552 342.181C312.763 341.8 313.035 341.496 313.369 341.267C313.709 341.039 314.09 340.866 314.512 340.749C314.822 340.667 315.291 340.587 315.918 340.511C317.195 340.359 318.136 340.177 318.739 339.966C318.745 339.75 318.748 339.612 318.748 339.553C318.748 338.909 318.599 338.455 318.3 338.191C317.896 337.833 317.295 337.655 316.498 337.655C315.754 337.655 315.203 337.787 314.846 338.05C314.494 338.308 314.233 338.768 314.063 339.43L312.517 339.219C312.657 338.557 312.889 338.024 313.211 337.62C313.533 337.209 313.999 336.896 314.608 336.679C315.218 336.457 315.924 336.345 316.727 336.345C317.523 336.345 318.171 336.439 318.669 336.626C319.167 336.814 319.533 337.051 319.768 337.338C320.002 337.62 320.166 337.977 320.26 338.411C320.312 338.68 320.339 339.167 320.339 339.87V341.979C320.339 343.45 320.371 344.381 320.436 344.774C320.506 345.161 320.641 345.533 320.84 345.89H319.188C319.023 345.562 318.918 345.178 318.871 344.739ZM318.739 341.206C318.165 341.44 317.304 341.639 316.155 341.803C315.505 341.897 315.045 342.002 314.775 342.12C314.506 342.237 314.298 342.41 314.151 342.638C314.005 342.861 313.932 343.11 313.932 343.385C313.932 343.807 314.09 344.159 314.406 344.44C314.729 344.721 315.197 344.862 315.812 344.862C316.422 344.862 316.964 344.73 317.438 344.466C317.913 344.197 318.262 343.831 318.484 343.368C318.654 343.01 318.739 342.483 318.739 341.786V341.206ZM324.259 345.89H322.791V333.005H324.373V337.602C325.041 336.764 325.894 336.345 326.931 336.345C327.505 336.345 328.047 336.462 328.557 336.697C329.072 336.925 329.494 337.25 329.822 337.672C330.156 338.088 330.417 338.592 330.604 339.184C330.792 339.776 330.886 340.409 330.886 341.083C330.886 342.682 330.49 343.918 329.699 344.792C328.908 345.665 327.959 346.101 326.852 346.101C325.75 346.101 324.886 345.641 324.259 344.721V345.89ZM324.241 341.153C324.241 342.272 324.394 343.081 324.698 343.579C325.196 344.393 325.87 344.8 326.72 344.8C327.411 344.8 328.009 344.501 328.513 343.904C329.017 343.3 329.269 342.404 329.269 341.214C329.269 339.996 329.025 339.096 328.539 338.516C328.059 337.936 327.476 337.646 326.79 337.646C326.099 337.646 325.501 337.948 324.997 338.551C324.493 339.149 324.241 340.016 324.241 341.153ZM332.784 345.89V333.005H334.366V345.89H332.784ZM343.217 342.884L344.852 343.086C344.594 344.042 344.116 344.783 343.419 345.31C342.722 345.837 341.831 346.101 340.747 346.101C339.382 346.101 338.298 345.682 337.495 344.844C336.698 344 336.3 342.82 336.3 341.302C336.3 339.732 336.704 338.513 337.513 337.646C338.321 336.779 339.37 336.345 340.659 336.345C341.907 336.345 342.927 336.77 343.718 337.62C344.509 338.469 344.904 339.665 344.904 341.206C344.904 341.299 344.901 341.44 344.896 341.627H337.935C337.993 342.653 338.283 343.438 338.805 343.983C339.326 344.528 339.977 344.8 340.756 344.8C341.336 344.8 341.831 344.648 342.241 344.343C342.651 344.039 342.977 343.552 343.217 342.884ZM338.022 340.327H343.234C343.164 339.542 342.965 338.953 342.637 338.56C342.133 337.951 341.479 337.646 340.677 337.646C339.95 337.646 339.338 337.889 338.84 338.375C338.348 338.862 338.075 339.512 338.022 340.327Z" fill="#4A5565"/>
</g>
<g filter="url(#filter2_d_5470_5561)">
<path d="M459 233.89C459 226.158 465.268 219.89 473 219.89H741.8C749.532 219.89 755.8 226.158 755.8 233.89V301.09C755.8 308.822 749.532 315.09 741.8 315.09H473C465.268 315.09 459 308.822 459 301.09V233.89Z" fill="white" shape-rendering="crispEdges"/>
<path d="M570.294 260.055V256.422L579.402 242.072H582.534V247.1H580.681L574.939 256.188V256.358H587.882V260.055H570.294ZM580.766 263.89V258.947L580.851 257.338V242.072H585.176V263.89H580.766ZM599.511 264.37C597.678 264.362 596.102 263.911 594.781 263.017C593.467 262.122 592.455 260.826 591.744 259.128C591.041 257.431 590.693 255.389 590.7 253.002C590.7 250.623 591.052 248.595 591.755 246.919C592.465 245.243 593.477 243.968 594.791 243.095C596.112 242.214 597.685 241.774 599.511 241.774C601.336 241.774 602.906 242.214 604.219 243.095C605.54 243.975 606.556 245.254 607.266 246.93C607.977 248.599 608.328 250.623 608.321 253.002C608.321 255.396 607.966 257.441 607.256 259.139C606.553 260.836 605.544 262.132 604.23 263.027C602.916 263.922 601.343 264.37 599.511 264.37ZM599.511 260.545C600.761 260.545 601.759 259.916 602.504 258.659C603.25 257.402 603.619 255.517 603.612 253.002C603.612 251.348 603.442 249.97 603.101 248.869C602.767 247.768 602.291 246.941 601.673 246.387C601.062 245.833 600.342 245.556 599.511 245.556C598.268 245.556 597.273 246.177 596.528 247.42C595.782 248.663 595.406 250.524 595.398 253.002C595.398 254.678 595.565 256.078 595.899 257.2C596.24 258.315 596.719 259.153 597.337 259.714C597.955 260.268 598.68 260.545 599.511 260.545ZM620.165 264.37C618.333 264.362 616.756 263.911 615.435 263.017C614.121 262.122 613.109 260.826 612.399 259.128C611.695 257.431 611.347 255.389 611.355 253.002C611.355 250.623 611.706 248.595 612.409 246.919C613.119 245.243 614.132 243.968 615.445 243.095C616.767 242.214 618.34 241.774 620.165 241.774C621.99 241.774 623.56 242.214 624.874 243.095C626.195 243.975 627.21 245.254 627.921 246.93C628.631 248.599 628.982 250.623 628.975 253.002C628.975 255.396 628.62 257.441 627.91 259.139C627.207 260.836 626.198 262.132 624.884 263.027C623.57 263.922 621.997 264.37 620.165 264.37ZM620.165 260.545C621.415 260.545 622.413 259.916 623.159 258.659C623.904 257.402 624.274 255.517 624.267 253.002C624.267 251.348 624.096 249.97 623.755 248.869C623.421 247.768 622.945 246.941 622.328 246.387C621.717 245.833 620.996 245.556 620.165 245.556C618.922 245.556 617.928 246.177 617.182 247.42C616.436 248.663 616.06 250.524 616.053 253.002C616.053 254.678 616.22 256.078 616.553 257.2C616.894 258.315 617.374 259.153 617.992 259.714C618.61 260.268 619.334 260.545 620.165 260.545ZM636.1 247.526L639.104 253.247L642.183 247.526H646.838L642.098 255.708L646.966 263.89H642.332L639.104 258.233L635.929 263.89H631.242L636.1 255.708L631.412 247.526H636.1Z" fill="#9810FA"/>
<path d="M533.916 281.108H535.781L539.022 289.023H539.142L542.383 281.108H544.247V291.29H542.786V283.922H542.691L539.688 291.275H538.475L535.473 283.917H535.378V291.29H533.916V281.108ZM549.578 291.444C548.862 291.444 548.238 291.28 547.704 290.952C547.17 290.624 546.756 290.165 546.461 289.575C546.166 288.985 546.019 288.295 546.019 287.507C546.019 286.715 546.166 286.022 546.461 285.429C546.756 284.835 547.17 284.375 547.704 284.046C548.238 283.718 548.862 283.554 549.578 283.554C550.294 283.554 550.919 283.718 551.453 284.046C551.986 284.375 552.4 284.835 552.695 285.429C552.99 286.022 553.138 286.715 553.138 287.507C553.138 288.295 552.99 288.985 552.695 289.575C552.4 290.165 551.986 290.624 551.453 290.952C550.919 291.28 550.294 291.444 549.578 291.444ZM549.583 290.196C550.047 290.196 550.432 290.074 550.737 289.828C551.042 289.583 551.267 289.257 551.413 288.849C551.562 288.441 551.636 287.992 551.636 287.502C551.636 287.014 551.562 286.567 551.413 286.159C551.267 285.748 551.042 285.419 550.737 285.17C550.432 284.921 550.047 284.797 549.583 284.797C549.116 284.797 548.728 284.921 548.42 285.17C548.115 285.419 547.888 285.748 547.739 286.159C547.593 286.567 547.52 287.014 547.52 287.502C547.52 287.992 547.593 288.441 547.739 288.849C547.888 289.257 548.115 289.583 548.42 289.828C548.728 290.074 549.116 290.196 549.583 290.196ZM554.797 291.29V283.654H556.234V284.867H556.313C556.453 284.456 556.698 284.133 557.049 283.897C557.404 283.659 557.805 283.539 558.252 283.539C558.345 283.539 558.455 283.543 558.581 283.549C558.71 283.556 558.811 283.564 558.884 283.574V284.996C558.824 284.979 558.718 284.961 558.566 284.941C558.413 284.918 558.261 284.907 558.108 284.907C557.757 284.907 557.444 284.981 557.169 285.13C556.897 285.276 556.681 285.48 556.522 285.742C556.363 286 556.284 286.295 556.284 286.627V291.29H554.797ZM563.188 291.444C562.436 291.444 561.788 291.283 561.244 290.962C560.704 290.637 560.286 290.181 559.991 289.595C559.7 289.005 559.554 288.314 559.554 287.522C559.554 286.739 559.7 286.05 559.991 285.453C560.286 284.857 560.697 284.391 561.224 284.056C561.754 283.722 562.374 283.554 563.084 283.554C563.514 283.554 563.932 283.626 564.336 283.768C564.741 283.911 565.104 284.134 565.425 284.439C565.747 284.744 566 285.14 566.186 285.627C566.371 286.111 566.464 286.7 566.464 287.392V287.919H560.394V286.806H565.008C565.008 286.415 564.928 286.068 564.769 285.767C564.61 285.462 564.386 285.221 564.098 285.046C563.813 284.87 563.478 284.782 563.093 284.782C562.676 284.782 562.311 284.885 562 285.09C561.691 285.293 561.453 285.558 561.284 285.886C561.118 286.211 561.035 286.564 561.035 286.945V287.815C561.035 288.325 561.125 288.759 561.304 289.117C561.486 289.475 561.74 289.749 562.064 289.938C562.389 290.123 562.769 290.216 563.203 290.216C563.485 290.216 563.741 290.176 563.973 290.097C564.205 290.014 564.406 289.891 564.575 289.729C564.744 289.567 564.873 289.366 564.963 289.127L566.37 289.381C566.257 289.795 566.055 290.158 565.763 290.47C565.475 290.778 565.112 291.018 564.674 291.191C564.24 291.36 563.745 291.444 563.188 291.444ZM573.474 281.108V291.29H571.938V281.108H573.474ZM577.079 286.756V291.29H575.592V283.654H577.019V284.897H577.113C577.289 284.492 577.564 284.167 577.939 283.922C578.316 283.677 578.792 283.554 579.366 283.554C579.886 283.554 580.342 283.664 580.733 283.882C581.124 284.098 581.427 284.419 581.642 284.847C581.858 285.274 581.966 285.803 581.966 286.433V291.29H580.479V286.612C580.479 286.058 580.335 285.626 580.047 285.314C579.758 284.999 579.362 284.842 578.858 284.842C578.514 284.842 578.207 284.916 577.939 285.066C577.674 285.215 577.463 285.434 577.307 285.722C577.155 286.007 577.079 286.352 577.079 286.756ZM587.524 283.654V284.847H583.353V283.654H587.524ZM584.471 281.824H585.958V289.048C585.958 289.336 586.001 289.553 586.087 289.699C586.173 289.842 586.284 289.939 586.42 289.992C586.559 290.042 586.71 290.067 586.873 290.067C586.992 290.067 587.096 290.059 587.186 290.042C587.275 290.026 587.345 290.012 587.395 290.002L587.663 291.23C587.577 291.264 587.454 291.297 587.295 291.33C587.136 291.366 586.937 291.386 586.699 291.389C586.307 291.396 585.943 291.326 585.605 291.181C585.267 291.035 584.993 290.809 584.785 290.505C584.576 290.2 584.471 289.817 584.471 289.356V281.824ZM592.377 291.444C591.625 291.444 590.977 291.283 590.434 290.962C589.893 290.637 589.476 290.181 589.181 289.595C588.889 289.005 588.743 288.314 588.743 287.522C588.743 286.739 588.889 286.05 589.181 285.453C589.476 284.857 589.887 284.391 590.414 284.056C590.944 283.722 591.564 283.554 592.273 283.554C592.704 283.554 593.121 283.626 593.526 283.768C593.93 283.911 594.293 284.134 594.615 284.439C594.936 284.744 595.19 285.14 595.375 285.627C595.561 286.111 595.654 286.7 595.654 287.392V287.919H589.583V286.806H594.197C594.197 286.415 594.117 286.068 593.958 285.767C593.799 285.462 593.576 285.221 593.287 285.046C593.002 284.87 592.667 284.782 592.283 284.782C591.865 284.782 591.501 284.885 591.189 285.09C590.881 285.293 590.642 285.558 590.473 285.886C590.308 286.211 590.225 286.564 590.225 286.945V287.815C590.225 288.325 590.314 288.759 590.493 289.117C590.675 289.475 590.929 289.749 591.254 289.938C591.579 290.123 591.958 290.216 592.392 290.216C592.674 290.216 592.931 290.176 593.163 290.097C593.395 290.014 593.595 289.891 593.764 289.729C593.934 289.567 594.063 289.366 594.152 289.127L595.559 289.381C595.447 289.795 595.244 290.158 594.953 290.47C594.664 290.778 594.301 291.018 593.864 291.191C593.43 291.36 592.934 291.444 592.377 291.444ZM597.303 291.29V283.654H598.74V284.867H598.819C598.959 284.456 599.204 284.133 599.555 283.897C599.91 283.659 600.311 283.539 600.758 283.539C600.851 283.539 600.96 283.543 601.086 283.549C601.216 283.556 601.317 283.564 601.39 283.574V284.996C601.33 284.979 601.224 284.961 601.071 284.941C600.919 284.918 600.767 284.907 600.614 284.907C600.263 284.907 599.95 284.981 599.674 285.13C599.403 285.276 599.187 285.48 599.028 285.742C598.869 286 598.79 286.295 598.79 286.627V291.29H597.303ZM609.441 283.654L606.672 291.29H605.081L602.307 283.654H603.903L605.837 289.53H605.916L607.845 283.654H609.441ZM610.838 291.29V283.654H612.325V291.29H610.838ZM611.589 282.475C611.33 282.475 611.108 282.389 610.923 282.217C610.74 282.041 610.649 281.832 610.649 281.59C610.649 281.345 610.74 281.136 610.923 280.964C611.108 280.788 611.33 280.701 611.589 280.701C611.847 280.701 612.068 280.788 612.25 280.964C612.436 281.136 612.528 281.345 612.528 281.59C612.528 281.832 612.436 282.041 612.25 282.217C612.068 282.389 611.847 282.475 611.589 282.475ZM617.616 291.444C616.863 291.444 616.215 291.283 615.672 290.962C615.132 290.637 614.714 290.181 614.419 289.595C614.127 289.005 613.981 288.314 613.981 287.522C613.981 286.739 614.127 286.05 614.419 285.453C614.714 284.857 615.125 284.391 615.652 284.056C616.182 283.722 616.802 283.554 617.511 283.554C617.942 283.554 618.36 283.626 618.764 283.768C619.168 283.911 619.531 284.134 619.853 284.439C620.174 284.744 620.428 285.14 620.614 285.627C620.799 286.111 620.892 286.7 620.892 287.392V287.919H614.822V286.806H619.435C619.435 286.415 619.356 286.068 619.197 285.767C619.038 285.462 618.814 285.221 618.525 285.046C618.24 284.87 617.906 284.782 617.521 284.782C617.104 284.782 616.739 284.885 616.427 285.09C616.119 285.293 615.881 285.558 615.712 285.886C615.546 286.211 615.463 286.564 615.463 286.945V287.815C615.463 288.325 615.552 288.759 615.731 289.117C615.914 289.475 616.167 289.749 616.492 289.938C616.817 290.123 617.196 290.216 617.631 290.216C617.912 290.216 618.169 290.176 618.401 290.097C618.633 290.014 618.834 289.891 619.003 289.729C619.172 289.567 619.301 289.366 619.391 289.127L620.797 289.381C620.685 289.795 620.483 290.158 620.191 290.47C619.903 290.778 619.54 291.018 619.102 291.191C618.668 291.36 618.172 291.444 617.616 291.444ZM624.183 291.29L621.936 283.654H623.472L624.969 289.262H625.043L626.545 283.654H628.081L629.572 289.237H629.647L631.133 283.654H632.67L630.427 291.29H628.911L627.36 285.777H627.246L625.695 291.29H624.183ZM639.803 285.518L638.455 285.757C638.399 285.584 638.31 285.42 638.187 285.264C638.068 285.109 637.905 284.981 637.7 284.882C637.494 284.782 637.237 284.733 636.929 284.733C636.508 284.733 636.157 284.827 635.875 285.016C635.593 285.201 635.453 285.442 635.453 285.737C635.453 285.992 635.547 286.197 635.736 286.353C635.925 286.509 636.23 286.637 636.651 286.736L637.864 287.014C638.566 287.177 639.09 287.427 639.435 287.765C639.779 288.103 639.952 288.542 639.952 289.083C639.952 289.54 639.819 289.948 639.554 290.306C639.292 290.66 638.926 290.939 638.455 291.141C637.988 291.343 637.446 291.444 636.83 291.444C635.975 291.444 635.277 291.262 634.737 290.897C634.196 290.529 633.865 290.007 633.742 289.331L635.179 289.112C635.269 289.487 635.453 289.77 635.731 289.963C636.009 290.152 636.372 290.246 636.82 290.246C637.307 290.246 637.696 290.145 637.988 289.943C638.28 289.737 638.426 289.487 638.426 289.192C638.426 288.953 638.336 288.753 638.157 288.59C637.981 288.428 637.711 288.305 637.347 288.223L636.054 287.939C635.341 287.777 634.814 287.518 634.473 287.164C634.135 286.809 633.966 286.36 633.966 285.816C633.966 285.366 634.092 284.971 634.344 284.633C634.596 284.295 634.944 284.032 635.388 283.843C635.832 283.65 636.341 283.554 636.914 283.554C637.739 283.554 638.389 283.733 638.863 284.091C639.337 284.446 639.65 284.921 639.803 285.518ZM645.464 280.631L642.183 292.821H640.855L644.137 280.631H645.464ZM648.881 291.29L646.057 281.108H647.673L649.656 288.993H649.751L651.814 281.108H653.415L655.478 288.998H655.573L657.551 281.108H659.172L656.343 291.29H654.797L652.654 283.664H652.575L650.432 291.29H648.881ZM662.993 291.444C662.24 291.444 661.592 291.283 661.049 290.962C660.508 290.637 660.091 290.181 659.796 289.595C659.504 289.005 659.358 288.314 659.358 287.522C659.358 286.739 659.504 286.05 659.796 285.453C660.091 284.857 660.502 284.391 661.029 284.056C661.559 283.722 662.179 283.554 662.888 283.554C663.319 283.554 663.737 283.626 664.141 283.768C664.545 283.911 664.908 284.134 665.23 284.439C665.551 284.744 665.805 285.14 665.991 285.627C666.176 286.111 666.269 286.7 666.269 287.392V287.919H660.199V286.806H664.812C664.812 286.415 664.733 286.068 664.574 285.767C664.415 285.462 664.191 285.221 663.902 285.046C663.617 284.87 663.283 284.782 662.898 284.782C662.481 284.782 662.116 284.885 661.804 285.09C661.496 285.293 661.258 285.558 661.089 285.886C660.923 286.211 660.84 286.564 660.84 286.945V287.815C660.84 288.325 660.929 288.759 661.108 289.117C661.291 289.475 661.544 289.749 661.869 289.938C662.194 290.123 662.573 290.216 663.008 290.216C663.289 290.216 663.546 290.176 663.778 290.097C664.01 290.014 664.211 289.891 664.38 289.729C664.549 289.567 664.678 289.366 664.767 289.127L666.174 289.381C666.062 289.795 665.86 290.158 665.568 290.47C665.28 290.778 664.917 291.018 664.479 291.191C664.045 291.36 663.549 291.444 662.993 291.444ZM671.209 291.444C670.457 291.444 669.809 291.283 669.266 290.962C668.725 290.637 668.308 290.181 668.013 289.595C667.721 289.005 667.575 288.314 667.575 287.522C667.575 286.739 667.721 286.05 668.013 285.453C668.308 284.857 668.719 284.391 669.246 284.056C669.776 283.722 670.396 283.554 671.105 283.554C671.536 283.554 671.954 283.626 672.358 283.768C672.762 283.911 673.125 284.134 673.447 284.439C673.768 284.744 674.022 285.14 674.207 285.627C674.393 286.111 674.486 286.7 674.486 287.392V287.919H668.415V286.806H673.029C673.029 286.415 672.949 286.068 672.79 285.767C672.631 285.462 672.408 285.221 672.119 285.046C671.834 284.87 671.499 284.782 671.115 284.782C670.697 284.782 670.333 284.885 670.021 285.09C669.713 285.293 669.474 285.558 669.305 285.886C669.14 286.211 669.057 286.564 669.057 286.945V287.815C669.057 288.325 669.146 288.759 669.325 289.117C669.507 289.475 669.761 289.749 670.086 289.938C670.411 290.123 670.79 290.216 671.224 290.216C671.506 290.216 671.763 290.176 671.995 290.097C672.227 290.014 672.427 289.891 672.597 289.729C672.766 289.567 672.895 289.366 672.984 289.127L674.391 289.381C674.279 289.795 674.076 290.158 673.785 290.47C673.496 290.778 673.133 291.018 672.696 291.191C672.262 291.36 671.766 291.444 671.209 291.444ZM677.502 288.7L677.492 286.885H677.751L680.793 283.654H682.573L679.103 287.333H678.869L677.502 288.7ZM676.135 291.29V281.108H677.622V291.29H676.135ZM680.957 291.29L678.223 287.661L679.247 286.622L682.782 291.29H680.957Z" fill="#364153"/>
</g>
<defs>
<filter id="filter0_d_5470_5561" x="158.997" y="16.3928" width="380.669" height="221.393" filterUnits="userSpaceOnUse" color-interpolation-filters="sRGB">
<feFlood flood-opacity="0" result="BackgroundImageFix"/>
<feColorMatrix in="SourceAlpha" type="matrix" values="0 0 0 0 0 0 0 0 0 0 0 0 0 0 0 0 0 0 127 0" result="hardAlpha"/>
<feOffset dy="11.5052"/>
<feGaussianBlur stdDeviation="19.5013"/>
<feComposite in2="hardAlpha" operator="out"/>
<feColorMatrix type="matrix" values="0 0 0 0 0.376471 0 0 0 0 0.529412 0 0 0 0 0.956863 0 0 0 0.4 0"/>
<feBlend mode="normal" in2="BackgroundImageFix" result="effect1_dropShadow_5470_5561"/>
<feBlend mode="normal" in="SourceGraphic" in2="effect1_dropShadow_5470_5561" result="shape"/>
</filter>
<filter id="filter1_d_5470_5561" x="158.997" y="229.393" width="290.857" height="195.005" filterUnits="userSpaceOnUse" color-interpolation-filters="sRGB">
<feFlood flood-opacity="0" result="BackgroundImageFix"/>
<feColorMatrix in="SourceAlpha" type="matrix" values="0 0 0 0 0 0 0 0 0 0 0 0 0 0 0 0 0 0 127 0" result="hardAlpha"/>
<feOffset dy="11.5052"/>
<feGaussianBlur stdDeviation="19.5013"/>
<feComposite in2="hardAlpha" operator="out"/>
<feColorMatrix type="matrix" values="0 0 0 0 0.376471 0 0 0 0 0.529412 0 0 0 0 0.956863 0 0 0 0.4 0"/>
<feBlend mode="normal" in2="BackgroundImageFix" result="effect1_dropShadow_5470_5561"/>
<feBlend mode="normal" in="SourceGraphic" in2="effect1_dropShadow_5470_5561" result="shape"/>
</filter>
<filter id="filter2_d_5470_5561" x="419.997" y="192.393" width="374.806" height="173.205" filterUnits="userSpaceOnUse" color-interpolation-filters="sRGB">
<feFlood flood-opacity="0" result="BackgroundImageFix"/>
<feColorMatrix in="SourceAlpha" type="matrix" values="0 0 0 0 0 0 0 0 0 0 0 0 0 0 0 0 0 0 127 0" result="hardAlpha"/>
<feOffset dy="11.5052"/>
<feGaussianBlur stdDeviation="19.5013"/>
<feComposite in2="hardAlpha" operator="out"/>
<feColorMatrix type="matrix" values="0 0 0 0 0.376471 0 0 0 0 0.529412 0 0 0 0 0.956863 0 0 0 0.4 0"/>
<feBlend mode="normal" in2="BackgroundImageFix" result="effect1_dropShadow_5470_5561"/>
<feBlend mode="normal" in="SourceGraphic" in2="effect1_dropShadow_5470_5561" result="shape"/>
</filter>
<clipPath id="clip0_5470_5561">
<rect width="12" height="12" fill="white" transform="translate(215.6 91.4901)"/>
</clipPath>
</defs>
</svg>
