<svg width="38" height="38" viewBox="0 0 38 38" fill="none" xmlns="http://www.w3.org/2000/svg">
<path d="M22.8838 20.4168C22.6439 21.409 21.5104 22.1103 19.2433 23.5128C17.0517 24.8685 15.956 25.5464 15.0729 25.274C14.7078 25.1612 14.3752 24.9473 14.1069 24.6525C13.458 23.9397 13.458 22.557 13.458 19.7917C13.458 17.0264 13.458 15.6436 14.1069 14.9308C14.3752 14.636 14.7078 14.4221 15.0729 14.3094C15.956 14.0369 17.0517 14.7148 19.2433 16.0705C21.5104 17.473 22.6439 18.1743 22.8838 19.1666C22.9827 19.5762 22.9827 20.0072 22.8838 20.4168Z" stroke="#4E6BEA" stroke-width="2" stroke-linejoin="round"/>
<path d="M33.2467 17.4167C33.2503 18.161 33.2503 18.9514 33.2503 19.7917C33.2503 26.8823 33.2503 30.4277 31.0476 32.6306C28.8447 34.8333 25.2993 34.8333 18.2087 34.8333C11.118 34.8333 7.5726 34.8333 5.36979 32.6306C3.16699 30.4277 3.16699 26.8823 3.16699 19.7917C3.16699 12.701 3.16699 9.15561 5.36979 6.9528C7.5726 4.75 11.118 4.75 18.2087 4.75C19.0489 4.75 19.8393 4.75 20.5837 4.75366" stroke="#4E6BEA" stroke-width="2" stroke-linecap="round"/>
<path d="M29.2917 3.16667L29.7 4.2703C30.2355 5.71745 30.5032 6.44103 31.0311 6.96887C31.559 7.49672 32.2826 7.76446 33.7297 8.29996L34.8333 8.70833L33.7297 9.11671C32.2826 9.6522 31.559 9.91996 31.0311 10.4478C30.5032 10.9756 30.2355 11.6992 29.7 13.1464L29.2917 14.25L28.8833 13.1464C28.3478 11.6992 28.0801 10.9756 27.5522 10.4478C27.0243 9.91996 26.3007 9.6522 24.8536 9.11671L23.75 8.70833L24.8536 8.29996C26.3007 7.76446 27.0243 7.49672 27.5522 6.96887C28.0801 6.44103 28.3478 5.71745 28.8833 4.2703L29.2917 3.16667Z" stroke="#4E6BEA" stroke-width="2" stroke-linejoin="round"/>
</svg>
