<svg width="38" height="38" viewBox="0 0 38 38" fill="none" xmlns="http://www.w3.org/2000/svg">
<path d="M6.33301 19C6.33301 13.0288 6.33301 10.0433 8.18799 8.1883C10.043 6.33331 13.0285 6.33331 18.9997 6.33331C24.9707 6.33331 27.9564 6.33331 29.8113 8.1883C31.6663 10.0433 31.6663 13.0288 31.6663 19C31.6663 24.971 31.6663 27.9567 29.8113 29.8116C27.9564 31.6666 24.9707 31.6666 18.9997 31.6666C13.0285 31.6666 10.043 31.6666 8.18799 29.8116C6.33301 27.9567 6.33301 24.971 6.33301 19Z" stroke="#4E6BEA" stroke-width="1.7" stroke-linejoin="round"/>
<path d="M11.875 23.75L14.7913 15.001C14.9408 14.5525 15.3605 14.25 15.8333 14.25C16.3061 14.25 16.7259 14.5525 16.8753 15.001L19.7917 23.75M13.4583 20.5833H18.2083" stroke="#4E6BEA" stroke-width="1.7" stroke-linecap="round" stroke-linejoin="round"/>
<path d="M24.542 14.25V23.75" stroke="#4E6BEA" stroke-width="1.7" stroke-linecap="round" stroke-linejoin="round"/>
<path d="M12.667 3.16669V6.33335M25.3337 3.16669V6.33335M19.0003 3.16669V6.33335M12.667 31.6667V34.8334M19.0003 31.6667V34.8334M25.3337 31.6667V34.8334M34.8337 25.3334H31.667M6.33366 12.6667H3.16699M6.33366 25.3334H3.16699M6.33366 19H3.16699M34.8337 12.6667H31.667M34.8337 19H31.667" stroke="#4E6BEA" stroke-width="1.7" stroke-linecap="round" stroke-linejoin="round"/>
</svg>
