<svg width="38" height="38" viewBox="0 0 38 38" fill="none" xmlns="http://www.w3.org/2000/svg">
<path d="M29.2431 3.20634C29.2539 3.15345 29.3295 3.15345 29.3403 3.20634C29.9016 5.95241 32.0477 8.09845 34.7936 8.65972C34.8467 8.67054 34.8467 8.74613 34.7936 8.75694C32.0477 9.31822 29.9016 11.4643 29.3403 14.2103C29.3295 14.2632 29.2539 14.2632 29.2431 14.2103C28.6818 11.4643 26.5358 9.31822 23.7898 8.75694C23.7367 8.74613 23.7367 8.67054 23.7898 8.65972C26.5358 8.09845 28.6818 5.95241 29.2431 3.20634Z" stroke="#4E6BEA" stroke-width="2" stroke-linecap="round" stroke-linejoin="round"/>
<path d="M18.9856 17.4167H18.9999M12.6594 17.4167H12.6736" stroke="#4E6BEA" stroke-width="2" stroke-linecap="round" stroke-linejoin="round"/>
<path d="M20.5837 4.7575C20.0607 4.75253 19.5326 4.75 19.0003 4.75C16.6584 4.75 14.401 4.79893 12.281 4.88963C8.41685 5.05495 6.48479 5.13762 4.95627 6.67763C3.42775 8.21764 3.36146 10.0966 3.22888 13.8546C3.1883 15.0049 3.16699 16.1962 3.16699 17.4167C3.16699 18.6371 3.1883 19.8284 3.22888 20.9787C3.36146 24.7367 3.42775 26.6157 4.95627 28.1556C6.48479 29.6957 8.41683 29.7784 12.281 29.9437C12.4091 29.9492 12.5378 29.9545 12.667 29.9597V33.6777C12.667 34.3159 13.1844 34.8333 13.8227 34.8333C14.0986 34.8333 14.3655 34.7345 14.575 34.555L18.0258 31.5959C18.8934 30.852 19.3271 30.4801 19.8427 30.2838C20.3582 30.0875 20.945 30.0762 22.1184 30.054C23.3542 30.0306 24.5575 29.9934 25.7195 29.9437C29.5838 29.7784 31.5159 29.6957 33.0443 28.1558C34.5729 26.6157 34.6392 24.7367 34.7717 20.9787C34.8123 19.8284 34.8337 18.6371 34.8337 17.4167C34.8337 16.6112 34.8243 15.8184 34.8064 15.0417" stroke="#4E6BEA" stroke-width="2" stroke-linecap="round" stroke-linejoin="round"/>
</svg>
