<svg width="38" height="38" viewBox="0 0 38 38" fill="none" xmlns="http://www.w3.org/2000/svg">
<path d="M23.7503 11.875C23.7503 7.50273 20.2059 3.95831 15.8337 3.95831C11.4614 3.95831 7.91699 7.50273 7.91699 11.875C7.91699 16.2472 11.4614 19.7916 15.8337 19.7916C20.2059 19.7916 23.7503 16.2472 23.7503 11.875Z" stroke="#4E6BEA" stroke-width="2" stroke-linecap="round" stroke-linejoin="round"/>
<path d="M33.2503 34.0416L30.8753 31.6666M31.667 27.7083C31.667 25.0849 29.5404 22.9583 26.917 22.9583C24.2936 22.9583 22.167 25.0849 22.167 27.7083C22.167 30.3317 24.2936 32.4583 26.917 32.4583C29.5404 32.4583 31.667 30.3317 31.667 27.7083Z" stroke="#4E6BEA" stroke-width="2" stroke-linecap="round" stroke-linejoin="round"/>
<path d="M4.75 30.875C4.75 24.7538 9.71218 19.7917 15.8333 19.7917C17.5332 19.7917 19.1436 20.1743 20.5833 20.8582" stroke="#4E6BEA" stroke-width="2" stroke-linecap="round" stroke-linejoin="round"/>
</svg>
