<svg width="864" height="509" viewBox="0 0 864 509" fill="none" xmlns="http://www.w3.org/2000/svg">
<g filter="url(#filter0_d_5470_4833)">
<rect x="253" y="66.4149" width="539.487" height="336.455" rx="23.6429" fill="white" shape-rendering="crispEdges"/>
<path d="M293.715 102.85H290.86C290.779 102.382 290.629 101.967 290.41 101.606C290.191 101.239 289.919 100.929 289.593 100.674C289.267 100.42 288.896 100.229 288.479 100.102C288.067 99.9696 287.621 99.9035 287.143 99.9035C286.293 99.9035 285.54 100.117 284.884 100.545C284.227 100.967 283.713 101.588 283.342 102.407C282.971 103.221 282.785 104.216 282.785 105.391C282.785 106.587 282.971 107.595 283.342 108.414C283.719 109.228 284.232 109.844 284.884 110.261C285.54 110.673 286.291 110.879 287.135 110.879C287.604 110.879 288.041 110.818 288.448 110.696C288.86 110.569 289.229 110.383 289.555 110.139C289.886 109.895 290.163 109.594 290.387 109.238C290.616 108.882 290.774 108.475 290.86 108.017L293.715 108.032C293.608 108.775 293.376 109.472 293.02 110.124C292.669 110.775 292.209 111.35 291.639 111.849C291.069 112.342 290.402 112.729 289.639 113.009C288.876 113.283 288.028 113.421 287.097 113.421C285.723 113.421 284.497 113.103 283.418 112.467C282.34 111.831 281.49 110.912 280.869 109.711C280.248 108.511 279.938 107.071 279.938 105.391C279.938 103.707 280.251 102.267 280.877 101.071C281.503 99.8704 282.355 98.9519 283.434 98.3159C284.512 97.6798 285.734 97.3618 287.097 97.3618C287.967 97.3618 288.776 97.4839 289.524 97.7282C290.272 97.9724 290.939 98.3311 291.524 98.8044C292.109 99.2725 292.59 99.8475 292.967 100.529C293.348 101.206 293.598 101.98 293.715 102.85ZM299.559 113.444C298.817 113.444 298.147 113.311 297.552 113.047C296.962 112.777 296.494 112.38 296.148 111.856C295.807 111.332 295.636 110.686 295.636 109.917C295.636 109.256 295.758 108.709 296.003 108.276C296.247 107.844 296.58 107.498 297.003 107.238C297.425 106.979 297.901 106.783 298.43 106.651C298.964 106.513 299.516 106.414 300.086 106.353C300.773 106.282 301.33 106.218 301.758 106.162C302.185 106.101 302.495 106.01 302.689 105.887C302.887 105.76 302.987 105.564 302.987 105.3V105.254C302.987 104.679 302.816 104.234 302.475 103.918C302.134 103.603 301.643 103.445 301.002 103.445C300.325 103.445 299.788 103.593 299.392 103.888C299 104.183 298.735 104.531 298.598 104.933L296.018 104.567C296.221 103.855 296.557 103.259 297.025 102.781C297.494 102.298 298.066 101.936 298.743 101.697C299.42 101.453 300.168 101.331 300.987 101.331C301.552 101.331 302.114 101.397 302.674 101.529C303.233 101.662 303.745 101.88 304.208 102.186C304.671 102.486 305.042 102.895 305.322 103.414C305.607 103.933 305.75 104.582 305.75 105.361V113.207H303.093V111.597H303.002C302.834 111.922 302.597 112.228 302.292 112.513C301.992 112.792 301.613 113.019 301.155 113.192C300.702 113.36 300.17 113.444 299.559 113.444ZM300.277 111.413C300.832 111.413 301.312 111.304 301.72 111.085C302.127 110.861 302.44 110.566 302.658 110.2C302.882 109.834 302.994 109.434 302.994 109.002V107.62C302.908 107.691 302.76 107.757 302.551 107.819C302.348 107.88 302.119 107.933 301.865 107.979C301.61 108.025 301.358 108.065 301.109 108.101C300.86 108.137 300.643 108.167 300.46 108.193C300.048 108.248 299.679 108.34 299.353 108.467C299.028 108.594 298.771 108.773 298.582 109.002C298.394 109.225 298.3 109.516 298.3 109.872C298.3 110.381 298.486 110.765 298.857 111.024C299.229 111.284 299.702 111.413 300.277 111.413ZM311.291 106.338V113.207H308.528V101.483H311.169V103.476H311.306C311.576 102.819 312.006 102.298 312.596 101.911C313.191 101.524 313.927 101.331 314.802 101.331C315.611 101.331 316.316 101.504 316.916 101.85C317.522 102.196 317.99 102.697 318.32 103.353C318.656 104.01 318.822 104.806 318.817 105.742V113.207H316.054V106.17C316.054 105.386 315.85 104.773 315.443 104.33C315.041 103.888 314.484 103.666 313.771 103.666C313.288 103.666 312.858 103.773 312.482 103.987C312.11 104.196 311.817 104.498 311.604 104.895C311.395 105.292 311.291 105.773 311.291 106.338ZM325.976 113.413C325.055 113.413 324.231 113.177 323.503 112.703C322.775 112.23 322.2 111.543 321.778 110.643C321.356 109.742 321.145 108.648 321.145 107.361C321.145 106.058 321.358 104.959 321.786 104.063C322.218 103.163 322.801 102.483 323.534 102.025C324.266 101.562 325.083 101.331 325.984 101.331C326.671 101.331 327.235 101.448 327.678 101.682C328.121 101.911 328.472 102.188 328.731 102.514C328.991 102.834 329.192 103.137 329.334 103.422H329.449V97.5755H332.22V113.207H329.502V111.36H329.334C329.192 111.645 328.986 111.948 328.716 112.268C328.446 112.584 328.09 112.854 327.648 113.077C327.205 113.301 326.648 113.413 325.976 113.413ZM326.747 111.146C327.332 111.146 327.831 110.989 328.243 110.673C328.655 110.353 328.968 109.907 329.182 109.337C329.395 108.768 329.502 108.103 329.502 107.345C329.502 106.587 329.395 105.928 329.182 105.368C328.973 104.809 328.663 104.374 328.251 104.063C327.843 103.753 327.342 103.598 326.747 103.598C326.131 103.598 325.617 103.758 325.205 104.079C324.793 104.399 324.483 104.842 324.274 105.407C324.065 105.971 323.961 106.618 323.961 107.345C323.961 108.078 324.065 108.732 324.274 109.307C324.488 109.877 324.801 110.327 325.213 110.658C325.63 110.984 326.141 111.146 326.747 111.146ZM335.164 113.207V101.483H337.927V113.207H335.164ZM336.553 99.8195C336.115 99.8195 335.739 99.6745 335.423 99.3844C335.108 99.0893 334.95 98.7357 334.95 98.3235C334.95 97.9063 335.108 97.5526 335.423 97.2626C335.739 96.9674 336.115 96.8199 336.553 96.8199C336.996 96.8199 337.372 96.9674 337.683 97.2626C337.998 97.5526 338.156 97.9063 338.156 98.3235C338.156 98.7357 337.998 99.0893 337.683 99.3844C337.372 99.6745 336.996 99.8195 336.553 99.8195ZM345.119 113.413C344.198 113.413 343.373 113.177 342.646 112.703C341.918 112.23 341.343 111.543 340.921 110.643C340.498 109.742 340.287 108.648 340.287 107.361C340.287 106.058 340.501 104.959 340.928 104.063C341.361 103.163 341.944 102.483 342.676 102.025C343.409 101.562 344.226 101.331 345.126 101.331C345.813 101.331 346.378 101.448 346.821 101.682C347.263 101.911 347.615 102.188 347.874 102.514C348.134 102.834 348.335 103.137 348.477 103.422H348.592V97.5755H351.362V113.207H348.645V111.36H348.477C348.335 111.645 348.128 111.948 347.859 112.268C347.589 112.584 347.233 112.854 346.79 113.077C346.348 113.301 345.79 113.413 345.119 113.413ZM345.89 111.146C346.475 111.146 346.973 110.989 347.386 110.673C347.798 110.353 348.111 109.907 348.324 109.337C348.538 108.768 348.645 108.103 348.645 107.345C348.645 106.587 348.538 105.928 348.324 105.368C348.116 104.809 347.805 104.374 347.393 104.063C346.986 103.753 346.485 103.598 345.89 103.598C345.274 103.598 344.76 103.758 344.348 104.079C343.936 104.399 343.625 104.842 343.417 105.407C343.208 105.971 343.104 106.618 343.104 107.345C343.104 108.078 343.208 108.732 343.417 109.307C343.63 109.877 343.943 110.327 344.355 110.658C344.773 110.984 345.284 111.146 345.89 111.146ZM357.68 113.444C356.937 113.444 356.268 113.311 355.673 113.047C355.082 112.777 354.614 112.38 354.268 111.856C353.927 111.332 353.757 110.686 353.757 109.917C353.757 109.256 353.879 108.709 354.123 108.276C354.368 107.844 354.701 107.498 355.123 107.238C355.545 106.979 356.021 106.783 356.55 106.651C357.085 106.513 357.637 106.414 358.207 106.353C358.894 106.282 359.451 106.218 359.878 106.162C360.306 106.101 360.616 106.01 360.809 105.887C361.008 105.76 361.107 105.564 361.107 105.3V105.254C361.107 104.679 360.937 104.234 360.596 103.918C360.255 103.603 359.764 103.445 359.123 103.445C358.446 103.445 357.909 103.593 357.512 103.888C357.12 104.183 356.856 104.531 356.718 104.933L354.139 104.567C354.342 103.855 354.678 103.259 355.146 102.781C355.614 102.298 356.187 101.936 356.863 101.697C357.54 101.453 358.288 101.331 359.107 101.331C359.672 101.331 360.234 101.397 360.794 101.529C361.354 101.662 361.865 101.88 362.328 102.186C362.791 102.486 363.163 102.895 363.443 103.414C363.728 103.933 363.87 104.582 363.87 105.361V113.207H361.214V111.597H361.122C360.954 111.922 360.718 112.228 360.413 112.513C360.112 112.792 359.733 113.019 359.275 113.192C358.822 113.36 358.291 113.444 357.68 113.444ZM358.398 111.413C358.952 111.413 359.433 111.304 359.84 111.085C360.247 110.861 360.56 110.566 360.779 110.2C361.003 109.834 361.115 109.434 361.115 109.002V107.62C361.028 107.691 360.881 107.757 360.672 107.819C360.469 107.88 360.24 107.933 359.985 107.979C359.731 108.025 359.479 108.065 359.23 108.101C358.98 108.137 358.764 108.167 358.581 108.193C358.169 108.248 357.8 108.34 357.474 108.467C357.148 108.594 356.891 108.773 356.703 109.002C356.515 109.225 356.421 109.516 356.421 109.872C356.421 110.381 356.606 110.765 356.978 111.024C357.349 111.284 357.823 111.413 358.398 111.413ZM372.503 101.483V103.621H365.763V101.483H372.503ZM367.427 98.6746H370.19V109.681C370.19 110.052 370.246 110.337 370.358 110.536C370.475 110.729 370.628 110.861 370.816 110.933C371.004 111.004 371.213 111.039 371.442 111.039C371.615 111.039 371.772 111.027 371.915 111.001C372.063 110.976 372.174 110.953 372.251 110.933L372.716 113.093C372.569 113.144 372.358 113.2 372.083 113.261C371.813 113.322 371.482 113.357 371.091 113.367C370.399 113.388 369.775 113.283 369.221 113.055C368.666 112.82 368.226 112.459 367.9 111.971C367.58 111.482 367.422 110.872 367.427 110.139V98.6746ZM379.878 113.436C378.702 113.436 377.687 113.192 376.832 112.703C375.983 112.21 375.329 111.513 374.871 110.612C374.413 109.706 374.184 108.64 374.184 107.414C374.184 106.208 374.413 105.15 374.871 104.239C375.334 103.323 375.98 102.611 376.809 102.102C377.639 101.588 378.613 101.331 379.733 101.331C380.455 101.331 381.137 101.448 381.778 101.682C382.424 101.911 382.994 102.267 383.488 102.75C383.987 103.234 384.378 103.85 384.663 104.598C384.948 105.34 385.091 106.226 385.091 107.254V108.101H375.481V106.239H382.442C382.437 105.709 382.323 105.239 382.099 104.827C381.875 104.409 381.562 104.081 381.16 103.842C380.763 103.603 380.3 103.483 379.771 103.483C379.206 103.483 378.71 103.621 378.282 103.895C377.855 104.165 377.522 104.521 377.283 104.964C377.049 105.402 376.929 105.882 376.924 106.406V108.032C376.924 108.714 377.049 109.299 377.298 109.788C377.547 110.271 377.896 110.643 378.344 110.902C378.791 111.157 379.315 111.284 379.916 111.284C380.318 111.284 380.682 111.228 381.007 111.116C381.333 110.999 381.615 110.828 381.855 110.604C382.094 110.381 382.274 110.103 382.396 109.772L384.976 110.063C384.813 110.744 384.503 111.34 384.045 111.849C383.592 112.352 383.012 112.744 382.305 113.024C381.598 113.299 380.789 113.436 379.878 113.436ZM392.882 113.207V97.5755H403.048V99.9493H395.714V104.193H402.522V106.567H395.714V110.833H403.11V113.207H392.882ZM416.287 101.483L412.112 113.207H409.059L404.884 101.483H407.83L410.525 110.192H410.647L413.349 101.483H416.287ZM421.237 113.444C420.494 113.444 419.825 113.311 419.23 113.047C418.639 112.777 418.171 112.38 417.825 111.856C417.484 111.332 417.314 110.686 417.314 109.917C417.314 109.256 417.436 108.709 417.68 108.276C417.925 107.844 418.258 107.498 418.68 107.238C419.102 106.979 419.578 106.783 420.107 106.651C420.642 106.513 421.194 106.414 421.764 106.353C422.451 106.282 423.008 106.218 423.435 106.162C423.863 106.101 424.173 106.01 424.366 105.887C424.565 105.76 424.664 105.564 424.664 105.3V105.254C424.664 104.679 424.494 104.234 424.153 103.918C423.812 103.603 423.321 103.445 422.68 103.445C422.003 103.445 421.466 103.593 421.069 103.888C420.677 104.183 420.413 104.531 420.275 104.933L417.696 104.567C417.899 103.855 418.235 103.259 418.703 102.781C419.171 102.298 419.744 101.936 420.42 101.697C421.097 101.453 421.845 101.331 422.664 101.331C423.229 101.331 423.791 101.397 424.351 101.529C424.911 101.662 425.422 101.88 425.885 102.186C426.348 102.486 426.72 102.895 427 103.414C427.285 103.933 427.427 104.582 427.427 105.361V113.207H424.771V111.597H424.679C424.511 111.922 424.275 112.228 423.97 112.513C423.669 112.792 423.29 113.019 422.832 113.192C422.379 113.36 421.848 113.444 421.237 113.444ZM421.955 111.413C422.509 111.413 422.99 111.304 423.397 111.085C423.804 110.861 424.117 110.566 424.336 110.2C424.56 109.834 424.672 109.434 424.672 109.002V107.62C424.585 107.691 424.438 107.757 424.229 107.819C424.026 107.88 423.797 107.933 423.542 107.979C423.288 108.025 423.036 108.065 422.786 108.101C422.537 108.137 422.321 108.167 422.138 108.193C421.726 108.248 421.357 108.34 421.031 108.467C420.705 108.594 420.448 108.773 420.26 109.002C420.072 109.225 419.978 109.516 419.978 109.872C419.978 110.381 420.163 110.765 420.535 111.024C420.906 111.284 421.38 111.413 421.955 111.413ZM432.968 97.5755V113.207H430.205V97.5755H432.968ZM443.282 108.276V101.483H446.045V113.207H443.366V111.123H443.244C442.979 111.78 442.544 112.317 441.939 112.734C441.338 113.151 440.598 113.36 439.718 113.36C438.949 113.36 438.27 113.189 437.68 112.848C437.095 112.502 436.637 112.001 436.306 111.345C435.975 110.683 435.81 109.884 435.81 108.948V101.483H438.573V108.521C438.573 109.264 438.776 109.854 439.183 110.291C439.59 110.729 440.125 110.948 440.786 110.948C441.193 110.948 441.588 110.849 441.969 110.65C442.351 110.452 442.664 110.157 442.908 109.765C443.157 109.368 443.282 108.872 443.282 108.276ZM452.26 113.444C451.517 113.444 450.848 113.311 450.253 113.047C449.662 112.777 449.194 112.38 448.848 111.856C448.507 111.332 448.337 110.686 448.337 109.917C448.337 109.256 448.459 108.709 448.703 108.276C448.947 107.844 449.281 107.498 449.703 107.238C450.125 106.979 450.601 106.783 451.13 106.651C451.665 106.513 452.217 106.414 452.787 106.353C453.474 106.282 454.031 106.218 454.458 106.162C454.886 106.101 455.196 106.01 455.389 105.887C455.588 105.76 455.687 105.564 455.687 105.3V105.254C455.687 104.679 455.517 104.234 455.176 103.918C454.835 103.603 454.344 103.445 453.702 103.445C453.026 103.445 452.489 103.593 452.092 103.888C451.7 104.183 451.436 104.531 451.298 104.933L448.718 104.567C448.922 103.855 449.258 103.259 449.726 102.781C450.194 102.298 450.766 101.936 451.443 101.697C452.12 101.453 452.868 101.331 453.687 101.331C454.252 101.331 454.814 101.397 455.374 101.529C455.934 101.662 456.445 101.88 456.908 102.186C457.371 102.486 457.743 102.895 458.023 103.414C458.308 103.933 458.45 104.582 458.45 105.361V113.207H455.794V111.597H455.702C455.534 111.922 455.298 112.228 454.992 112.513C454.692 112.792 454.313 113.019 453.855 113.192C453.402 113.36 452.871 113.444 452.26 113.444ZM452.977 111.413C453.532 111.413 454.013 111.304 454.42 111.085C454.827 110.861 455.14 110.566 455.359 110.2C455.583 109.834 455.695 109.434 455.695 109.002V107.62C455.608 107.691 455.461 107.757 455.252 107.819C455.048 107.88 454.819 107.933 454.565 107.979C454.311 108.025 454.059 108.065 453.809 108.101C453.56 108.137 453.344 108.167 453.161 108.193C452.748 108.248 452.38 108.34 452.054 108.467C451.728 108.594 451.471 108.773 451.283 109.002C451.095 109.225 451.001 109.516 451.001 109.872C451.001 110.381 451.186 110.765 451.558 111.024C451.929 111.284 452.402 111.413 452.977 111.413ZM467.083 101.483V103.621H460.343V101.483H467.083ZM462.007 98.6746H464.77V109.681C464.77 110.052 464.826 110.337 464.938 110.536C465.055 110.729 465.207 110.861 465.396 110.933C465.584 111.004 465.793 111.039 466.022 111.039C466.195 111.039 466.352 111.027 466.495 111.001C466.642 110.976 466.754 110.953 466.831 110.933L467.296 113.093C467.149 113.144 466.937 113.2 466.663 113.261C466.393 113.322 466.062 113.357 465.67 113.367C464.978 113.388 464.355 113.283 463.8 113.055C463.246 112.82 462.806 112.459 462.48 111.971C462.159 111.482 462.002 110.872 462.007 110.139V98.6746ZM469.393 113.207V101.483H472.156V113.207H469.393ZM470.782 99.8195C470.345 99.8195 469.968 99.6745 469.653 99.3844C469.337 99.0893 469.18 98.7357 469.18 98.3235C469.18 97.9063 469.337 97.5526 469.653 97.2626C469.968 96.9674 470.345 96.8199 470.782 96.8199C471.225 96.8199 471.602 96.9674 471.912 97.2626C472.228 97.5526 472.385 97.9063 472.385 98.3235C472.385 98.7357 472.228 99.0893 471.912 99.3844C471.602 99.6745 471.225 99.8195 470.782 99.8195ZM480.111 113.436C478.967 113.436 477.974 113.184 477.135 112.681C476.295 112.177 475.644 111.472 475.181 110.566C474.723 109.661 474.494 108.602 474.494 107.391C474.494 106.18 474.723 105.119 475.181 104.208C475.644 103.297 476.295 102.59 477.135 102.086C477.974 101.583 478.967 101.331 480.111 101.331C481.256 101.331 482.249 101.583 483.088 102.086C483.928 102.59 484.577 103.297 485.034 104.208C485.498 105.119 485.729 106.18 485.729 107.391C485.729 108.602 485.498 109.661 485.034 110.566C484.577 111.472 483.928 112.177 483.088 112.681C482.249 113.184 481.256 113.436 480.111 113.436ZM480.127 111.223C480.747 111.223 481.266 111.052 481.684 110.711C482.101 110.365 482.411 109.902 482.615 109.322C482.824 108.742 482.928 108.096 482.928 107.383C482.928 106.666 482.824 106.017 482.615 105.437C482.411 104.852 482.101 104.386 481.684 104.04C481.266 103.694 480.747 103.521 480.127 103.521C479.491 103.521 478.961 103.694 478.539 104.04C478.122 104.386 477.809 104.852 477.6 105.437C477.397 106.017 477.295 106.666 477.295 107.383C477.295 108.096 477.397 108.742 477.6 109.322C477.809 109.902 478.122 110.365 478.539 110.711C478.961 111.052 479.491 111.223 480.127 111.223ZM490.837 106.338V113.207H488.074V101.483H490.715V103.476H490.852C491.122 102.819 491.552 102.298 492.142 101.911C492.738 101.524 493.473 101.331 494.348 101.331C495.157 101.331 495.862 101.504 496.462 101.85C497.068 102.196 497.536 102.697 497.867 103.353C498.203 104.01 498.368 104.806 498.363 105.742V113.207H495.6V106.17C495.6 105.386 495.396 104.773 494.989 104.33C494.587 103.888 494.03 103.666 493.318 103.666C492.834 103.666 492.404 103.773 492.028 103.987C491.656 104.196 491.364 104.498 491.15 104.895C490.941 105.292 490.837 105.773 490.837 106.338Z" fill="black"/>
<path d="M289.083 144.167H287.416C287.352 143.811 287.233 143.498 287.058 143.227C286.884 142.956 286.67 142.727 286.417 142.538C286.164 142.349 285.881 142.207 285.568 142.11C285.258 142.014 284.928 141.966 284.579 141.966C283.949 141.966 283.384 142.125 282.886 142.442C282.39 142.759 281.999 143.224 281.71 143.836C281.425 144.449 281.283 145.197 281.283 146.08C281.283 146.971 281.425 147.722 281.71 148.335C281.999 148.948 282.392 149.411 282.891 149.724C283.39 150.037 283.951 150.194 284.574 150.194C284.919 150.194 285.247 150.148 285.557 150.055C285.87 149.959 286.154 149.818 286.407 149.633C286.659 149.448 286.873 149.222 287.048 148.955C287.226 148.684 287.349 148.374 287.416 148.025L289.083 148.03C288.994 148.568 288.821 149.063 288.565 149.516C288.312 149.964 287.986 150.353 287.587 150.68C287.192 151.005 286.74 151.256 286.23 151.434C285.721 151.612 285.165 151.701 284.563 151.701C283.616 151.701 282.772 151.476 282.031 151.028C281.29 150.575 280.706 149.929 280.278 149.088C279.854 148.248 279.642 147.245 279.642 146.08C279.642 144.912 279.856 143.909 280.284 143.072C280.711 142.232 281.295 141.587 282.036 141.138C282.777 140.686 283.619 140.46 284.563 140.46C285.144 140.46 285.685 140.543 286.187 140.711C286.693 140.874 287.147 141.117 287.55 141.437C287.952 141.754 288.285 142.143 288.549 142.602C288.813 143.058 288.991 143.58 289.083 144.167ZM294.387 151.717C293.618 151.717 292.947 151.541 292.373 151.188C291.8 150.835 291.354 150.342 291.037 149.708C290.72 149.074 290.562 148.333 290.562 147.485C290.562 146.634 290.72 145.89 291.037 145.252C291.354 144.614 291.8 144.119 292.373 143.767C292.947 143.414 293.618 143.238 294.387 143.238C295.157 143.238 295.828 143.414 296.402 143.767C296.975 144.119 297.42 144.614 297.737 145.252C298.054 145.89 298.213 146.634 298.213 147.485C298.213 148.333 298.054 149.074 297.737 149.708C297.42 150.342 296.975 150.835 296.402 151.188C295.828 151.541 295.157 151.717 294.387 151.717ZM294.393 150.376C294.891 150.376 295.305 150.244 295.632 149.98C295.96 149.717 296.202 149.366 296.359 148.928C296.519 148.49 296.599 148.007 296.599 147.48C296.599 146.956 296.519 146.476 296.359 146.037C296.202 145.596 295.96 145.241 295.632 144.974C295.305 144.707 294.891 144.574 294.393 144.574C293.891 144.574 293.474 144.707 293.143 144.974C292.815 145.241 292.571 145.596 292.411 146.037C292.254 146.476 292.175 146.956 292.175 147.48C292.175 148.007 292.254 148.49 292.411 148.928C292.571 149.366 292.815 149.717 293.143 149.98C293.474 150.244 293.891 150.376 294.393 150.376ZM299.996 151.551V143.345H301.529V144.68H301.631C301.802 144.228 302.082 143.875 302.47 143.622C302.858 143.366 303.323 143.238 303.864 143.238C304.413 143.238 304.872 143.366 305.243 143.622C305.617 143.879 305.893 144.232 306.071 144.68H306.156C306.352 144.242 306.664 143.893 307.091 143.633C307.519 143.37 308.028 143.238 308.619 143.238C309.364 143.238 309.971 143.471 310.441 143.938C310.915 144.404 311.152 145.108 311.152 146.048V151.551H309.554V146.198C309.554 145.642 309.403 145.24 309.1 144.99C308.798 144.741 308.436 144.616 308.016 144.616C307.496 144.616 307.091 144.777 306.803 145.097C306.514 145.414 306.37 145.822 306.37 146.321V151.551H304.778V146.096C304.778 145.651 304.639 145.293 304.361 145.022C304.083 144.752 303.722 144.616 303.277 144.616C302.974 144.616 302.694 144.696 302.438 144.857C302.185 145.013 301.98 145.232 301.823 145.514C301.67 145.795 301.594 146.121 301.594 146.492V151.551H299.996ZM313.293 151.551V143.345H314.826V144.68H314.928C315.099 144.228 315.379 143.875 315.767 143.622C316.155 143.366 316.62 143.238 317.161 143.238C317.71 143.238 318.169 143.366 318.54 143.622C318.914 143.879 319.19 144.232 319.368 144.68H319.453C319.649 144.242 319.961 143.893 320.388 143.633C320.816 143.37 321.325 143.238 321.916 143.238C322.661 143.238 323.268 143.471 323.738 143.938C324.212 144.404 324.449 145.108 324.449 146.048V151.551H322.851V146.198C322.851 145.642 322.7 145.24 322.397 144.99C322.095 144.741 321.733 144.616 321.313 144.616C320.793 144.616 320.388 144.777 320.1 145.097C319.811 145.414 319.667 145.822 319.667 146.321V151.551H318.075V146.096C318.075 145.651 317.936 145.293 317.658 145.022C317.38 144.752 317.019 144.616 316.574 144.616C316.271 144.616 315.991 144.696 315.735 144.857C315.482 145.013 315.277 145.232 315.12 145.514C314.967 145.795 314.891 146.121 314.891 146.492V151.551H313.293ZM331.789 148.148V143.345H333.392V151.551H331.821V150.13H331.735C331.546 150.568 331.244 150.933 330.827 151.225C330.414 151.514 329.899 151.658 329.283 151.658C328.756 151.658 328.289 151.542 327.883 151.311C327.481 151.076 327.164 150.728 326.932 150.269C326.704 149.81 326.59 149.241 326.59 148.565V143.345H328.188V148.372C328.188 148.931 328.343 149.377 328.652 149.708C328.962 150.039 329.365 150.205 329.86 150.205C330.159 150.205 330.457 150.13 330.752 149.98C331.051 149.831 331.299 149.605 331.495 149.302C331.694 148.999 331.792 148.614 331.789 148.148ZM337.136 146.679V151.551H335.538V143.345H337.071V144.68H337.173C337.362 144.246 337.657 143.897 338.06 143.633C338.466 143.37 338.977 143.238 339.593 143.238C340.152 143.238 340.642 143.355 341.063 143.59C341.483 143.822 341.809 144.167 342.04 144.627C342.272 145.086 342.388 145.655 342.388 146.331V151.551H340.79V146.524C340.79 145.929 340.635 145.464 340.325 145.129C340.015 144.791 339.59 144.622 339.048 144.622C338.678 144.622 338.348 144.702 338.06 144.862C337.775 145.022 337.549 145.257 337.381 145.567C337.217 145.874 337.136 146.244 337.136 146.679ZM344.53 151.551V143.345H346.128V151.551H344.53ZM345.337 142.078C345.059 142.078 344.82 141.986 344.621 141.801C344.425 141.612 344.327 141.387 344.327 141.127C344.327 140.864 344.425 140.639 344.621 140.454C344.82 140.265 345.059 140.171 345.337 140.171C345.615 140.171 345.851 140.265 346.047 140.454C346.247 140.639 346.347 140.864 346.347 141.127C346.347 141.387 346.247 141.612 346.047 141.801C345.851 141.986 345.615 142.078 345.337 142.078ZM351.733 151.717C350.939 151.717 350.255 151.537 349.682 151.177C349.112 150.814 348.674 150.314 348.368 149.676C348.061 149.038 347.908 148.308 347.908 147.485C347.908 146.652 348.065 145.916 348.378 145.279C348.692 144.638 349.133 144.137 349.703 143.777C350.273 143.418 350.945 143.238 351.717 143.238C352.341 143.238 352.896 143.354 353.384 143.585C353.872 143.813 354.266 144.134 354.565 144.547C354.868 144.96 355.048 145.443 355.105 145.995H353.55C353.465 145.61 353.269 145.279 352.962 145.001C352.66 144.723 352.254 144.584 351.744 144.584C351.299 144.584 350.909 144.702 350.574 144.937C350.243 145.168 349.985 145.5 349.799 145.931C349.614 146.358 349.522 146.864 349.522 147.448C349.522 148.046 349.612 148.563 349.794 148.997C349.976 149.432 350.232 149.769 350.563 150.007C350.898 150.246 351.292 150.365 351.744 150.365C352.047 150.365 352.321 150.31 352.567 150.2C352.816 150.086 353.025 149.923 353.192 149.713C353.363 149.503 353.482 149.25 353.55 148.955H355.105C355.048 149.485 354.875 149.959 354.587 150.376C354.298 150.793 353.912 151.12 353.427 151.359C352.946 151.598 352.382 151.717 351.733 151.717ZM359.201 151.733C358.681 151.733 358.211 151.637 357.791 151.444C357.371 151.249 357.038 150.965 356.792 150.595C356.55 150.224 356.429 149.77 356.429 149.232C356.429 148.769 356.518 148.388 356.696 148.089C356.874 147.79 357.114 147.553 357.417 147.379C357.72 147.204 358.058 147.072 358.432 146.983C358.806 146.894 359.187 146.826 359.575 146.78C360.067 146.723 360.466 146.677 360.772 146.641C361.079 146.602 361.301 146.54 361.44 146.454C361.579 146.369 361.648 146.23 361.648 146.037V146C361.648 145.533 361.517 145.172 361.253 144.915C360.993 144.659 360.605 144.531 360.088 144.531C359.551 144.531 359.127 144.65 358.817 144.889C358.51 145.124 358.299 145.386 358.181 145.674L356.68 145.332C356.858 144.834 357.118 144.431 357.46 144.125C357.805 143.815 358.202 143.59 358.651 143.452C359.1 143.309 359.572 143.238 360.067 143.238C360.395 143.238 360.742 143.277 361.109 143.355C361.479 143.43 361.825 143.569 362.145 143.772C362.47 143.975 362.735 144.265 362.941 144.643C363.148 145.017 363.251 145.503 363.251 146.102V151.551H361.691V150.429H361.627C361.524 150.636 361.369 150.839 361.162 151.038C360.956 151.238 360.69 151.403 360.366 151.535C360.042 151.667 359.654 151.733 359.201 151.733ZM359.549 150.451C359.99 150.451 360.368 150.363 360.681 150.189C360.998 150.014 361.239 149.786 361.403 149.505C361.57 149.22 361.654 148.915 361.654 148.591V147.533C361.597 147.59 361.486 147.644 361.323 147.694C361.162 147.74 360.979 147.781 360.772 147.817C360.566 147.849 360.364 147.879 360.169 147.907C359.973 147.932 359.809 147.954 359.677 147.972C359.367 148.011 359.084 148.077 358.827 148.169C358.575 148.262 358.372 148.395 358.218 148.57C358.069 148.741 357.994 148.969 357.994 149.254C357.994 149.649 358.14 149.948 358.432 150.151C358.724 150.351 359.096 150.451 359.549 150.451ZM369.21 143.345V144.627H364.727V143.345H369.21ZM365.929 141.378H367.527V149.142C367.527 149.452 367.573 149.685 367.666 149.842C367.758 149.995 367.878 150.1 368.024 150.157C368.173 150.21 368.336 150.237 368.51 150.237C368.638 150.237 368.75 150.228 368.847 150.21C368.943 150.192 369.018 150.178 369.071 150.167L369.36 151.487C369.267 151.523 369.135 151.558 368.964 151.594C368.793 151.633 368.579 151.655 368.323 151.658C367.903 151.665 367.511 151.59 367.148 151.434C366.784 151.277 366.49 151.035 366.266 150.707C366.042 150.379 365.929 149.968 365.929 149.473V141.378ZM370.977 151.551V143.345H372.575V151.551H370.977ZM371.784 142.078C371.506 142.078 371.267 141.986 371.068 141.801C370.872 141.612 370.774 141.387 370.774 141.127C370.774 140.864 370.872 140.639 371.068 140.454C371.267 140.265 371.506 140.171 371.784 140.171C372.062 140.171 372.299 140.265 372.494 140.454C372.694 140.639 372.794 140.864 372.794 141.127C372.794 141.387 372.694 141.612 372.494 141.801C372.299 141.986 372.062 142.078 371.784 142.078ZM378.181 151.717C377.411 151.717 376.74 151.541 376.166 151.188C375.593 150.835 375.148 150.342 374.831 149.708C374.514 149.074 374.355 148.333 374.355 147.485C374.355 146.634 374.514 145.89 374.831 145.252C375.148 144.614 375.593 144.119 376.166 143.767C376.74 143.414 377.411 143.238 378.181 143.238C378.95 143.238 379.621 143.414 380.195 143.767C380.768 144.119 381.214 144.614 381.531 145.252C381.848 145.89 382.006 146.634 382.006 147.485C382.006 148.333 381.848 149.074 381.531 149.708C381.214 150.342 380.768 150.835 380.195 151.188C379.621 151.541 378.95 151.717 378.181 151.717ZM378.186 150.376C378.685 150.376 379.098 150.244 379.425 149.98C379.753 149.717 379.995 149.366 380.152 148.928C380.312 148.49 380.393 148.007 380.393 147.48C380.393 146.956 380.312 146.476 380.152 146.037C379.995 145.596 379.753 145.241 379.425 144.974C379.098 144.707 378.685 144.574 378.186 144.574C377.684 144.574 377.267 144.707 376.936 144.974C376.608 145.241 376.364 145.596 376.204 146.037C376.047 146.476 375.969 146.956 375.969 147.48C375.969 148.007 376.047 148.49 376.204 148.928C376.364 149.366 376.608 149.717 376.936 149.98C377.267 150.244 377.684 150.376 378.186 150.376ZM385.387 146.679V151.551H383.789V143.345H385.323V144.68H385.424C385.613 144.246 385.909 143.897 386.311 143.633C386.717 143.37 387.228 143.238 387.844 143.238C388.404 143.238 388.893 143.355 389.314 143.59C389.734 143.822 390.06 144.167 390.291 144.627C390.523 145.086 390.639 145.655 390.639 146.331V151.551H389.041V146.524C389.041 145.929 388.886 145.464 388.576 145.129C388.267 144.791 387.841 144.622 387.299 144.622C386.929 144.622 386.6 144.702 386.311 144.862C386.026 145.022 385.8 145.257 385.633 145.567C385.469 145.874 385.387 146.244 385.387 146.679Z" fill="#2A363B"/>
<rect x="278.793" y="164.402" width="443.841" height="8.5974" rx="4.2987" fill="#EAECF0"/>
<rect x="278.793" y="164.402" width="330.048" height="8.5974" rx="4.2987" fill="#4E6BEA"/>
<path d="M737.117 173.701L741.893 164.254V164.174H736.369V162.758H743.603V164.222L738.842 173.701H737.117ZM749.035 173.882C748.191 173.879 747.47 173.656 746.871 173.214C746.273 172.773 745.815 172.13 745.498 171.286C745.181 170.441 745.023 169.425 745.023 168.235C745.023 167.049 745.181 166.035 745.498 165.195C745.819 164.354 746.278 163.713 746.877 163.271C747.479 162.83 748.198 162.609 749.035 162.609C749.872 162.609 750.59 162.831 751.188 163.277C751.787 163.718 752.244 164.36 752.561 165.2C752.882 166.037 753.042 167.049 753.042 168.235C753.042 169.428 752.884 170.447 752.567 171.291C752.25 172.132 751.792 172.775 751.194 173.22C750.595 173.661 749.876 173.882 749.035 173.882ZM749.035 172.456C749.776 172.456 750.355 172.094 750.771 171.371C751.192 170.648 751.402 169.603 751.402 168.235C751.402 167.327 751.306 166.559 751.113 165.932C750.925 165.302 750.652 164.824 750.296 164.5C749.943 164.173 749.523 164.009 749.035 164.009C748.298 164.009 747.719 164.372 747.299 165.099C746.878 165.825 746.666 166.871 746.663 168.235C746.663 169.147 746.757 169.918 746.946 170.548C747.138 171.175 747.411 171.651 747.763 171.975C748.116 172.295 748.54 172.456 749.035 172.456ZM760.649 171.649V171.072C760.649 170.659 760.735 170.281 760.906 169.939C761.08 169.594 761.333 169.318 761.664 169.111C761.999 168.901 762.403 168.796 762.877 168.796C763.361 168.796 763.768 168.899 764.095 169.106C764.423 169.312 764.67 169.588 764.838 169.934C765.009 170.279 765.094 170.659 765.094 171.072V171.649C765.094 172.062 765.009 172.441 764.838 172.787C764.667 173.129 764.416 173.405 764.085 173.615C763.757 173.822 763.354 173.925 762.877 173.925C762.396 173.925 761.99 173.822 761.659 173.615C761.328 173.405 761.077 173.129 760.906 172.787C760.735 172.441 760.649 172.062 760.649 171.649ZM761.894 171.072V171.649C761.894 171.955 761.967 172.233 762.113 172.482C762.259 172.732 762.514 172.856 762.877 172.856C763.237 172.856 763.488 172.732 763.63 172.482C763.773 172.233 763.844 171.955 763.844 171.649V171.072C763.844 170.766 763.775 170.488 763.636 170.238C763.5 169.989 763.247 169.864 762.877 169.864C762.521 169.864 762.268 169.989 762.118 170.238C761.969 170.488 761.894 170.766 761.894 171.072ZM755.146 165.387V164.81C755.146 164.397 755.231 164.018 755.402 163.672C755.577 163.327 755.83 163.051 756.161 162.844C756.496 162.637 756.9 162.534 757.374 162.534C757.858 162.534 758.264 162.637 758.592 162.844C758.92 163.051 759.167 163.327 759.335 163.672C759.502 164.018 759.586 164.397 759.586 164.81V165.387C759.586 165.8 759.5 166.18 759.329 166.525C759.162 166.867 758.913 167.143 758.581 167.353C758.254 167.56 757.851 167.663 757.374 167.663C756.889 167.663 756.482 167.56 756.15 167.353C755.823 167.143 755.573 166.867 755.402 166.525C755.231 166.18 755.146 165.8 755.146 165.387ZM756.396 164.81V165.387C756.396 165.693 756.467 165.971 756.61 166.221C756.756 166.47 757.011 166.595 757.374 166.595C757.73 166.595 757.979 166.47 758.122 166.221C758.268 165.971 758.341 165.693 758.341 165.387V164.81C758.341 164.504 758.272 164.226 758.133 163.977C757.994 163.727 757.741 163.603 757.374 163.603C757.018 163.603 756.765 163.727 756.615 163.977C756.469 164.226 756.396 164.504 756.396 164.81ZM755.654 173.701L763.176 162.758H764.453L756.93 173.701H755.654Z" fill="#2A363B"/>
<path d="M279.455 207.823V206.401H287.924V207.823H284.51V217.344H282.864V207.823H279.455ZM292.014 217.509C291.205 217.509 290.509 217.336 289.925 216.991C289.344 216.642 288.895 216.152 288.578 215.522C288.265 214.888 288.108 214.145 288.108 213.294C288.108 212.453 288.265 211.712 288.578 211.071C288.895 210.43 289.337 209.929 289.903 209.57C290.473 209.21 291.139 209.03 291.902 209.03C292.365 209.03 292.813 209.107 293.248 209.26C293.683 209.413 294.073 209.653 294.418 209.981C294.764 210.309 295.036 210.734 295.236 211.258C295.435 211.778 295.535 212.41 295.535 213.155V213.721H289.011V212.524H293.969C293.969 212.104 293.884 211.732 293.713 211.408C293.542 211.08 293.301 210.822 292.992 210.633C292.685 210.444 292.326 210.35 291.912 210.35C291.464 210.35 291.072 210.46 290.737 210.681C290.406 210.898 290.149 211.183 289.968 211.536C289.789 211.885 289.7 212.264 289.7 212.674V213.609C289.7 214.157 289.797 214.624 289.989 215.009C290.185 215.393 290.457 215.687 290.806 215.89C291.155 216.09 291.563 216.189 292.03 216.189C292.333 216.189 292.609 216.147 292.858 216.061C293.107 215.972 293.323 215.84 293.504 215.666C293.686 215.491 293.825 215.276 293.921 215.019L295.433 215.292C295.312 215.737 295.095 216.127 294.781 216.462C294.472 216.793 294.082 217.051 293.611 217.237C293.145 217.418 292.612 217.509 292.014 217.509ZM300.764 217.509C299.97 217.509 299.286 217.329 298.712 216.97C298.143 216.606 297.704 216.106 297.398 215.468C297.092 214.831 296.939 214.1 296.939 213.278C296.939 212.444 297.095 211.709 297.409 211.071C297.722 210.43 298.164 209.929 298.734 209.57C299.304 209.21 299.975 209.03 300.748 209.03C301.371 209.03 301.927 209.146 302.415 209.377C302.903 209.605 303.297 209.926 303.596 210.339C303.899 210.752 304.078 211.235 304.135 211.787H302.581C302.495 211.402 302.299 211.071 301.993 210.793C301.69 210.515 301.284 210.376 300.775 210.376C300.33 210.376 299.94 210.494 299.605 210.729C299.273 210.961 299.015 211.292 298.83 211.723C298.645 212.15 298.552 212.656 298.552 213.24C298.552 213.839 298.643 214.355 298.825 214.79C299.006 215.224 299.263 215.561 299.594 215.799C299.929 216.038 300.322 216.157 300.775 216.157C301.078 216.157 301.352 216.102 301.598 215.992C301.847 215.878 302.055 215.716 302.223 215.506C302.394 215.295 302.513 215.043 302.581 214.747H304.135C304.078 215.278 303.906 215.751 303.617 216.168C303.329 216.585 302.942 216.913 302.458 217.151C301.977 217.39 301.412 217.509 300.764 217.509ZM307.441 212.471V217.344H305.844V206.401H307.42V210.473H307.521C307.714 210.031 308.008 209.68 308.403 209.42C308.798 209.16 309.315 209.03 309.952 209.03C310.515 209.03 311.007 209.146 311.427 209.377C311.851 209.609 312.179 209.954 312.41 210.414C312.645 210.87 312.763 211.44 312.763 212.124V217.344H311.165V212.316C311.165 211.714 311.01 211.247 310.7 210.916C310.391 210.581 309.96 210.414 309.407 210.414C309.03 210.414 308.692 210.494 308.392 210.654C308.097 210.815 307.863 211.05 307.692 211.36C307.525 211.666 307.441 212.036 307.441 212.471ZM316.492 212.471V217.344H314.895V209.137H316.428V210.473H316.529C316.718 210.038 317.014 209.689 317.416 209.425C317.822 209.162 318.334 209.03 318.95 209.03C319.509 209.03 319.999 209.148 320.419 209.383C320.839 209.614 321.165 209.96 321.397 210.419C321.628 210.879 321.744 211.447 321.744 212.124V217.344H320.147V212.316C320.147 211.721 319.992 211.256 319.682 210.921C319.372 210.583 318.946 210.414 318.405 210.414C318.034 210.414 317.705 210.494 317.416 210.654C317.131 210.815 316.905 211.05 316.738 211.36C316.574 211.666 316.492 212.036 316.492 212.471ZM323.887 217.344V209.137H325.484V217.344H323.887ZM324.693 207.871C324.416 207.871 324.177 207.778 323.977 207.593C323.782 207.404 323.684 207.18 323.684 206.92C323.684 206.656 323.782 206.432 323.977 206.246C324.177 206.058 324.416 205.963 324.693 205.963C324.971 205.963 325.208 206.058 325.404 206.246C325.603 206.432 325.703 206.656 325.703 206.92C325.703 207.18 325.603 207.404 325.404 207.593C325.208 207.778 324.971 207.871 324.693 207.871ZM331.09 217.509C330.296 217.509 329.612 217.329 329.038 216.97C328.469 216.606 328.03 216.106 327.724 215.468C327.418 214.831 327.265 214.1 327.265 213.278C327.265 212.444 327.421 211.709 327.735 211.071C328.048 210.43 328.49 209.929 329.06 209.57C329.63 209.21 330.301 209.03 331.074 209.03C331.697 209.03 332.253 209.146 332.741 209.377C333.229 209.605 333.623 209.926 333.922 210.339C334.225 210.752 334.404 211.235 334.461 211.787H332.907C332.821 211.402 332.625 211.071 332.319 210.793C332.016 210.515 331.61 210.376 331.101 210.376C330.656 210.376 330.265 210.494 329.931 210.729C329.599 210.961 329.341 211.292 329.156 211.723C328.971 212.15 328.878 212.656 328.878 213.24C328.878 213.839 328.969 214.355 329.151 214.79C329.332 215.224 329.589 215.561 329.92 215.799C330.255 216.038 330.648 216.157 331.101 216.157C331.404 216.157 331.678 216.102 331.924 215.992C332.173 215.878 332.381 215.716 332.549 215.506C332.72 215.295 332.839 215.043 332.907 214.747H334.461C334.404 215.278 334.232 215.751 333.943 216.168C333.655 216.585 333.268 216.913 332.784 217.151C332.303 217.39 331.738 217.509 331.09 217.509ZM338.558 217.525C338.038 217.525 337.568 217.429 337.148 217.237C336.727 217.041 336.394 216.758 336.148 216.387C335.906 216.017 335.785 215.563 335.785 215.025C335.785 214.562 335.874 214.181 336.052 213.881C336.23 213.582 336.471 213.345 336.774 213.171C337.076 212.996 337.415 212.864 337.789 212.775C338.163 212.686 338.544 212.619 338.932 212.572C339.424 212.515 339.823 212.469 340.129 212.433C340.435 212.394 340.658 212.332 340.797 212.246C340.936 212.161 341.005 212.022 341.005 211.83V211.792C341.005 211.326 340.873 210.964 340.61 210.708C340.35 210.451 339.961 210.323 339.445 210.323C338.907 210.323 338.483 210.442 338.173 210.681C337.867 210.916 337.655 211.178 337.538 211.466L336.036 211.124C336.214 210.626 336.474 210.223 336.816 209.917C337.162 209.607 337.559 209.383 338.008 209.244C338.457 209.101 338.928 209.03 339.424 209.03C339.751 209.03 340.099 209.069 340.465 209.148C340.836 209.222 341.181 209.361 341.502 209.564C341.826 209.767 342.091 210.058 342.298 210.435C342.505 210.809 342.608 211.295 342.608 211.894V217.344H341.048V216.222H340.984C340.88 216.428 340.725 216.631 340.519 216.831C340.312 217.03 340.047 217.196 339.723 217.327C339.399 217.459 339.01 217.525 338.558 217.525ZM338.905 216.243C339.347 216.243 339.725 216.156 340.038 215.981C340.355 215.807 340.595 215.579 340.759 215.297C340.927 215.012 341.01 214.708 341.01 214.384V213.326C340.953 213.383 340.843 213.436 340.679 213.486C340.519 213.532 340.335 213.573 340.129 213.609C339.922 213.641 339.721 213.671 339.525 213.7C339.329 213.725 339.165 213.746 339.034 213.764C338.724 213.803 338.441 213.869 338.184 213.961C337.931 214.054 337.728 214.188 337.575 214.362C337.425 214.533 337.351 214.761 337.351 215.046C337.351 215.441 337.497 215.741 337.789 215.944C338.081 216.143 338.453 216.243 338.905 216.243ZM346.333 206.401V217.344H344.736V206.401H346.333ZM352.592 217.344V206.401H354.243V211.627H354.377L358.966 206.401H361.045L356.632 211.327L361.061 217.344H359.073L355.536 212.455L354.243 213.94V217.344H352.592ZM364.053 212.471V217.344H362.455V209.137H363.989V210.473H364.09C364.279 210.038 364.575 209.689 364.977 209.425C365.383 209.162 365.894 209.03 366.51 209.03C367.07 209.03 367.559 209.148 367.98 209.383C368.4 209.614 368.726 209.96 368.958 210.419C369.189 210.879 369.305 211.447 369.305 212.124V217.344H367.707V212.316C367.707 211.721 367.552 211.256 367.242 210.921C366.933 210.583 366.507 210.414 365.966 210.414C365.595 210.414 365.266 210.494 364.977 210.654C364.692 210.815 364.466 211.05 364.299 211.36C364.135 211.666 364.053 212.036 364.053 212.471ZM374.904 217.509C374.135 217.509 373.463 217.333 372.89 216.98C372.316 216.628 371.871 216.134 371.554 215.5C371.237 214.866 371.079 214.125 371.079 213.278C371.079 212.426 371.237 211.682 371.554 211.044C371.871 210.407 372.316 209.912 372.89 209.559C373.463 209.206 374.135 209.03 374.904 209.03C375.673 209.03 376.345 209.206 376.918 209.559C377.492 209.912 377.937 210.407 378.254 211.044C378.571 211.682 378.73 212.426 378.73 213.278C378.73 214.125 378.571 214.866 378.254 215.5C377.937 216.134 377.492 216.628 376.918 216.98C376.345 217.333 375.673 217.509 374.904 217.509ZM374.909 216.168C375.408 216.168 375.821 216.036 376.149 215.773C376.477 215.509 376.719 215.158 376.876 214.72C377.036 214.282 377.116 213.799 377.116 213.272C377.116 212.749 377.036 212.268 376.876 211.83C376.719 211.388 376.477 211.034 376.149 210.766C375.821 210.499 375.408 210.366 374.909 210.366C374.407 210.366 373.99 210.499 373.659 210.766C373.332 211.034 373.088 211.388 372.927 211.83C372.771 212.268 372.692 212.749 372.692 213.272C372.692 213.799 372.771 214.282 372.927 214.72C373.088 215.158 373.332 215.509 373.659 215.773C373.99 216.036 374.407 216.168 374.909 216.168ZM382.042 217.344L379.627 209.137H381.278L382.886 215.164H382.966L384.58 209.137H386.231L387.834 215.137H387.914L389.511 209.137H391.162L388.753 217.344H387.123L385.456 211.418H385.333L383.666 217.344H382.042ZM394.276 206.401V217.344H392.678V206.401H394.276ZM399.962 217.509C399.153 217.509 398.457 217.336 397.873 216.991C397.292 216.642 396.844 216.152 396.527 215.522C396.213 214.888 396.056 214.145 396.056 213.294C396.056 212.453 396.213 211.712 396.527 211.071C396.844 210.43 397.285 209.929 397.852 209.57C398.422 209.21 399.088 209.03 399.85 209.03C400.313 209.03 400.762 209.107 401.196 209.26C401.631 209.413 402.021 209.653 402.366 209.981C402.712 210.309 402.984 210.734 403.184 211.258C403.383 211.778 403.483 212.41 403.483 213.155V213.721H396.959V212.524H401.918C401.918 212.104 401.832 211.732 401.661 211.408C401.49 211.08 401.25 210.822 400.94 210.633C400.633 210.444 400.274 210.35 399.861 210.35C399.412 210.35 399.02 210.46 398.685 210.681C398.354 210.898 398.097 211.183 397.916 211.536C397.738 211.885 397.649 212.264 397.649 212.674V213.609C397.649 214.157 397.745 214.624 397.937 215.009C398.133 215.393 398.405 215.687 398.755 215.89C399.104 216.09 399.511 216.189 399.978 216.189C400.281 216.189 400.557 216.147 400.806 216.061C401.056 215.972 401.271 215.84 401.453 215.666C401.634 215.491 401.773 215.276 401.869 215.019L403.381 215.292C403.26 215.737 403.043 216.127 402.73 216.462C402.42 216.793 402.03 217.051 401.56 217.237C401.093 217.418 400.56 217.509 399.962 217.509ZM408.328 217.504C407.665 217.504 407.074 217.335 406.554 216.996C406.037 216.654 405.631 216.168 405.336 215.538C405.044 214.904 404.897 214.143 404.897 213.256C404.897 212.369 405.045 211.611 405.341 210.98C405.64 210.35 406.05 209.867 406.57 209.532C407.09 209.197 407.679 209.03 408.338 209.03C408.848 209.03 409.257 209.116 409.567 209.286C409.881 209.454 410.123 209.65 410.294 209.874C410.468 210.099 410.604 210.296 410.7 210.467H410.796V206.401H412.394V217.344H410.833V216.067H410.7C410.604 216.241 410.465 216.441 410.283 216.665C410.105 216.889 409.859 217.085 409.546 217.253C409.232 217.42 408.826 217.504 408.328 217.504ZM408.68 216.141C409.14 216.141 409.528 216.02 409.845 215.778C410.166 215.532 410.408 215.192 410.572 214.758C410.739 214.323 410.823 213.817 410.823 213.24C410.823 212.67 410.741 212.172 410.577 211.744C410.413 211.317 410.173 210.984 409.856 210.745C409.539 210.506 409.147 210.387 408.68 210.387C408.199 210.387 407.799 210.512 407.478 210.761C407.158 211.01 406.915 211.351 406.751 211.782C406.591 212.213 406.511 212.699 406.511 213.24C406.511 213.789 406.593 214.282 406.757 214.72C406.921 215.158 407.163 215.506 407.483 215.762C407.808 216.015 408.206 216.141 408.68 216.141ZM418.114 220.592C417.463 220.592 416.902 220.506 416.431 220.335C415.965 220.165 415.584 219.938 415.288 219.657C414.992 219.376 414.772 219.067 414.625 218.733L415.999 218.166C416.095 218.323 416.223 218.489 416.383 218.663C416.547 218.841 416.768 218.993 417.046 219.117C417.327 219.242 417.689 219.304 418.13 219.304C418.736 219.304 419.236 219.157 419.632 218.861C420.027 218.569 420.225 218.102 420.225 217.461V215.848H420.123C420.027 216.022 419.888 216.216 419.707 216.43C419.528 216.644 419.283 216.829 418.969 216.986C418.656 217.142 418.248 217.221 417.746 217.221C417.097 217.221 416.513 217.069 415.993 216.766C415.477 216.46 415.067 216.01 414.764 215.415C414.465 214.816 414.316 214.081 414.316 213.208C414.316 212.335 414.463 211.587 414.759 210.964C415.058 210.341 415.468 209.864 415.988 209.532C416.508 209.197 417.097 209.03 417.756 209.03C418.266 209.03 418.677 209.116 418.991 209.286C419.304 209.454 419.548 209.65 419.723 209.874C419.901 210.099 420.038 210.296 420.134 210.467H420.251V209.137H421.817V217.525C421.817 218.23 421.653 218.809 421.325 219.262C420.998 219.714 420.554 220.049 419.995 220.266C419.439 220.483 418.812 220.592 418.114 220.592ZM418.098 215.896C418.558 215.896 418.946 215.789 419.263 215.575C419.584 215.358 419.826 215.048 419.99 214.645C420.157 214.239 420.241 213.753 420.241 213.187C420.241 212.635 420.159 212.148 419.995 211.728C419.831 211.308 419.591 210.98 419.274 210.745C418.957 210.506 418.565 210.387 418.098 210.387C417.617 210.387 417.217 210.512 416.896 210.761C416.576 211.007 416.333 211.342 416.17 211.766C416.009 212.189 415.929 212.663 415.929 213.187C415.929 213.725 416.011 214.197 416.175 214.603C416.339 215.009 416.581 215.326 416.902 215.554C417.226 215.782 417.625 215.896 418.098 215.896ZM427.496 217.509C426.688 217.509 425.991 217.336 425.407 216.991C424.827 216.642 424.378 216.152 424.061 215.522C423.747 214.888 423.591 214.145 423.591 213.294C423.591 212.453 423.747 211.712 424.061 211.071C424.378 210.43 424.82 209.929 425.386 209.57C425.956 209.21 426.622 209.03 427.384 209.03C427.847 209.03 428.296 209.107 428.731 209.26C429.165 209.413 429.555 209.653 429.901 209.981C430.246 210.309 430.519 210.734 430.718 211.258C430.918 211.778 431.017 212.41 431.017 213.155V213.721H424.494V212.524H429.452C429.452 212.104 429.366 211.732 429.195 211.408C429.024 211.08 428.784 210.822 428.474 210.633C428.168 210.444 427.808 210.35 427.395 210.35C426.946 210.35 426.554 210.46 426.219 210.681C425.888 210.898 425.632 211.183 425.45 211.536C425.272 211.885 425.183 212.264 425.183 212.674V213.609C425.183 214.157 425.279 214.624 425.471 215.009C425.667 215.393 425.94 215.687 426.289 215.89C426.638 216.09 427.046 216.189 427.512 216.189C427.815 216.189 428.091 216.147 428.341 216.061C428.59 215.972 428.805 215.84 428.987 215.666C429.169 215.491 429.308 215.276 429.404 215.019L430.916 215.292C430.795 215.737 430.577 216.127 430.264 216.462C429.954 216.793 429.564 217.051 429.094 217.237C428.627 217.418 428.095 217.509 427.496 217.509Z" fill="#2A363B"/>
<rect x="278.793" y="230.194" width="441.766" height="8.5974" rx="4.2987" fill="#EAECF0"/>
<rect x="278.793" y="230.194" width="216.187" height="8.5974" rx="4.2987" fill="#17B26A"/>
<path d="M734.518 237.356V236.02L739.247 228.551H740.299V230.517H739.631L736.249 235.87V235.956H742.73V237.356H734.518ZM739.706 239.493V236.95L739.717 236.341V228.551H741.282V239.493H739.706ZM748.401 239.642C747.668 239.642 747.012 239.516 746.435 239.263C745.862 239.01 745.408 238.659 745.073 238.211C744.742 237.758 744.564 237.235 744.539 236.64H746.216C746.238 236.964 746.346 237.245 746.542 237.484C746.742 237.719 747.002 237.901 747.322 238.029C747.643 238.157 747.999 238.221 748.391 238.221C748.822 238.221 749.203 238.146 749.534 237.997C749.869 237.847 750.131 237.639 750.32 237.372C750.508 237.101 750.603 236.789 750.603 236.437C750.603 236.07 750.508 235.748 750.32 235.47C750.134 235.188 749.862 234.967 749.502 234.807C749.146 234.647 748.715 234.567 748.209 234.567H747.285V233.22H748.209C748.615 233.22 748.971 233.147 749.278 233.001C749.588 232.855 749.83 232.652 750.004 232.392C750.179 232.129 750.266 231.821 750.266 231.468C750.266 231.13 750.19 230.836 750.036 230.586C749.887 230.333 749.673 230.136 749.395 229.993C749.121 229.851 748.797 229.78 748.423 229.78C748.067 229.78 747.734 229.845 747.424 229.977C747.117 230.105 746.868 230.291 746.676 230.533C746.483 230.772 746.38 231.058 746.366 231.393H744.768C744.786 230.802 744.961 230.282 745.292 229.833C745.627 229.384 746.068 229.033 746.617 228.78C747.166 228.528 747.775 228.401 748.444 228.401C749.146 228.401 749.751 228.538 750.261 228.813C750.774 229.083 751.169 229.445 751.447 229.897C751.728 230.349 751.867 230.845 751.864 231.382C751.867 231.995 751.696 232.515 751.351 232.943C751.009 233.37 750.553 233.657 749.983 233.803V233.888C750.71 233.999 751.272 234.287 751.671 234.754C752.074 235.22 752.273 235.799 752.27 236.49C752.273 237.092 752.106 237.632 751.767 238.109C751.433 238.586 750.975 238.962 750.394 239.236C749.814 239.507 749.149 239.642 748.401 239.642ZM760.001 237.441V236.864C760.001 236.451 760.086 236.073 760.257 235.731C760.432 235.386 760.685 235.11 761.016 234.903C761.351 234.693 761.755 234.588 762.229 234.588C762.713 234.588 763.119 234.691 763.447 234.898C763.775 235.105 764.022 235.381 764.19 235.726C764.361 236.072 764.446 236.451 764.446 236.864V237.441C764.446 237.854 764.361 238.234 764.19 238.579C764.019 238.921 763.768 239.197 763.436 239.407C763.109 239.614 762.706 239.717 762.229 239.717C761.748 239.717 761.342 239.614 761.011 239.407C760.679 239.197 760.428 238.921 760.257 238.579C760.086 238.234 760.001 237.854 760.001 237.441ZM761.246 236.864V237.441C761.246 237.748 761.319 238.025 761.465 238.275C761.611 238.524 761.865 238.649 762.229 238.649C762.589 238.649 762.84 238.524 762.982 238.275C763.125 238.025 763.196 237.748 763.196 237.441V236.864C763.196 236.558 763.126 236.28 762.987 236.031C762.852 235.781 762.599 235.657 762.229 235.657C761.873 235.657 761.62 235.781 761.47 236.031C761.32 236.28 761.246 236.558 761.246 236.864ZM754.498 231.179V230.602C754.498 230.189 754.583 229.81 754.754 229.464C754.929 229.119 755.182 228.843 755.513 228.636C755.848 228.43 756.252 228.326 756.726 228.326C757.21 228.326 757.616 228.43 757.944 228.636C758.272 228.843 758.519 229.119 758.686 229.464C758.854 229.81 758.938 230.189 758.938 230.602V231.179C758.938 231.593 758.852 231.972 758.681 232.317C758.514 232.659 758.264 232.935 757.933 233.146C757.605 233.352 757.203 233.455 756.726 233.455C756.241 233.455 755.833 233.352 755.502 233.146C755.174 232.935 754.925 232.659 754.754 232.317C754.583 231.972 754.498 231.593 754.498 231.179ZM755.748 230.602V231.179C755.748 231.486 755.819 231.764 755.962 232.013C756.108 232.262 756.362 232.387 756.726 232.387C757.082 232.387 757.331 232.262 757.474 232.013C757.62 231.764 757.693 231.486 757.693 231.179V230.602C757.693 230.296 757.623 230.018 757.484 229.769C757.345 229.52 757.093 229.395 756.726 229.395C756.369 229.395 756.117 229.52 755.967 229.769C755.821 230.018 755.748 230.296 755.748 230.602ZM755.005 239.493L762.528 228.551H763.805L756.282 239.493H755.005Z" fill="#2A363B"/>
<path d="M289.083 275.752H287.416C287.352 275.396 287.233 275.082 287.058 274.812C286.884 274.541 286.67 274.311 286.417 274.122C286.164 273.934 285.881 273.791 285.568 273.695C285.258 273.599 284.928 273.551 284.579 273.551C283.949 273.551 283.384 273.709 282.886 274.026C282.39 274.343 281.999 274.808 281.71 275.421C281.425 276.033 281.283 276.781 281.283 277.665C281.283 278.555 281.425 279.307 281.71 279.919C281.999 280.532 282.392 280.995 282.891 281.308C283.39 281.622 283.951 281.779 284.574 281.779C284.919 281.779 285.247 281.732 285.557 281.64C285.87 281.544 286.154 281.403 286.407 281.218C286.659 281.032 286.873 280.806 287.048 280.539C287.226 280.268 287.349 279.958 287.416 279.609L289.083 279.615C288.994 280.153 288.821 280.648 288.565 281.1C288.312 281.549 287.986 281.937 287.587 282.265C287.192 282.589 286.74 282.84 286.23 283.018C285.721 283.196 285.165 283.285 284.563 283.285C283.616 283.285 282.772 283.061 282.031 282.612C281.29 282.16 280.706 281.513 280.278 280.673C279.854 279.832 279.642 278.829 279.642 277.665C279.642 276.496 279.856 275.494 280.284 274.657C280.711 273.816 281.295 273.171 282.036 272.722C282.777 272.27 283.619 272.044 284.563 272.044C285.144 272.044 285.685 272.128 286.187 272.295C286.693 272.459 287.147 272.701 287.55 273.022C287.952 273.339 288.285 273.727 288.549 274.186C288.813 274.642 288.991 275.164 289.083 275.752ZM296.129 279.732V274.929H297.732V283.136H296.161V281.714H296.076C295.887 282.153 295.584 282.518 295.167 282.81C294.754 283.098 294.24 283.243 293.623 283.243C293.096 283.243 292.63 283.127 292.224 282.895C291.821 282.66 291.504 282.313 291.273 281.853C291.045 281.394 290.931 280.826 290.931 280.149V274.929H292.528V279.957C292.528 280.516 292.683 280.961 292.993 281.292C293.303 281.624 293.705 281.789 294.2 281.789C294.5 281.789 294.797 281.714 295.093 281.565C295.392 281.415 295.639 281.189 295.835 280.886C296.035 280.584 296.133 280.199 296.129 279.732ZM301.476 272.194V283.136H299.879V272.194H301.476ZM307.456 274.929V276.211H302.973V274.929H307.456ZM304.175 272.963H305.773V280.726C305.773 281.036 305.819 281.269 305.912 281.426C306.005 281.579 306.124 281.684 306.27 281.741C306.419 281.795 306.582 281.821 306.756 281.821C306.884 281.821 306.997 281.812 307.093 281.795C307.189 281.777 307.264 281.763 307.317 281.752L307.606 283.072C307.513 283.107 307.381 283.143 307.21 283.178C307.039 283.218 306.826 283.239 306.569 283.243C306.149 283.25 305.757 283.175 305.394 283.018C305.03 282.861 304.736 282.619 304.512 282.292C304.288 281.964 304.175 281.552 304.175 281.057V272.963ZM314.422 279.732V274.929H316.025V283.136H314.454V281.714H314.368C314.18 282.153 313.877 282.518 313.46 282.81C313.047 283.098 312.532 283.243 311.916 283.243C311.389 283.243 310.922 283.127 310.516 282.895C310.114 282.66 309.797 282.313 309.565 281.853C309.337 281.394 309.223 280.826 309.223 280.149V274.929H310.821V279.957C310.821 280.516 310.976 280.961 311.285 281.292C311.595 281.624 311.998 281.789 312.493 281.789C312.792 281.789 313.09 281.714 313.385 281.565C313.684 281.415 313.932 281.189 314.128 280.886C314.327 280.584 314.425 280.199 314.422 279.732ZM318.171 283.136V274.929H319.715V276.233H319.801C319.95 275.791 320.214 275.444 320.591 275.191C320.973 274.934 321.404 274.806 321.884 274.806C321.984 274.806 322.102 274.81 322.237 274.817C322.376 274.824 322.485 274.833 322.563 274.844V276.372C322.499 276.354 322.385 276.334 322.221 276.313C322.057 276.288 321.893 276.275 321.729 276.275C321.352 276.275 321.015 276.356 320.72 276.516C320.428 276.673 320.196 276.892 320.025 277.173C319.854 277.451 319.769 277.768 319.769 278.124V283.136H318.171ZM326.26 283.317C325.74 283.317 325.27 283.221 324.85 283.029C324.429 282.833 324.096 282.55 323.851 282.179C323.608 281.809 323.487 281.355 323.487 280.817C323.487 280.354 323.576 279.973 323.754 279.674C323.932 279.374 324.173 279.137 324.476 278.963C324.778 278.788 325.117 278.657 325.491 278.568C325.865 278.479 326.246 278.411 326.634 278.365C327.126 278.308 327.525 278.261 327.831 278.226C328.137 278.186 328.36 278.124 328.499 278.039C328.638 277.953 328.707 277.814 328.707 277.622V277.584C328.707 277.118 328.575 276.756 328.312 276.5C328.052 276.243 327.664 276.115 327.147 276.115C326.609 276.115 326.185 276.235 325.875 276.473C325.569 276.708 325.357 276.97 325.24 277.259L323.738 276.917C323.916 276.418 324.176 276.015 324.518 275.709C324.864 275.399 325.261 275.175 325.71 275.036C326.159 274.893 326.631 274.822 327.126 274.822C327.453 274.822 327.801 274.861 328.168 274.94C328.538 275.015 328.883 275.153 329.204 275.356C329.528 275.56 329.794 275.85 330 276.227C330.207 276.601 330.31 277.088 330.31 277.686V283.136H328.75V282.014H328.686C328.583 282.22 328.428 282.423 328.221 282.623C328.014 282.822 327.749 282.988 327.425 283.12C327.101 283.251 326.713 283.317 326.26 283.317ZM326.607 282.035C327.049 282.035 327.427 281.948 327.74 281.773C328.057 281.599 328.298 281.371 328.461 281.089C328.629 280.804 328.713 280.5 328.713 280.176V279.118C328.656 279.175 328.545 279.228 328.381 279.278C328.221 279.324 328.038 279.365 327.831 279.401C327.624 279.433 327.423 279.463 327.227 279.492C327.031 279.517 326.867 279.538 326.736 279.556C326.426 279.595 326.143 279.661 325.886 279.754C325.633 279.846 325.43 279.98 325.277 280.154C325.127 280.325 325.053 280.553 325.053 280.838C325.053 281.234 325.199 281.533 325.491 281.736C325.783 281.935 326.155 282.035 326.607 282.035ZM334.035 272.194V283.136H332.438V272.194H334.035ZM340.294 283.136V272.194H347.08V273.615H341.945V276.949H346.594V278.365H341.945V283.136H340.294ZM348.982 283.136V274.929H350.579V283.136H348.982ZM349.789 273.663C349.511 273.663 349.272 273.57 349.073 273.385C348.877 273.196 348.779 272.972 348.779 272.712C348.779 272.448 348.877 272.224 349.073 272.039C349.272 271.85 349.511 271.755 349.789 271.755C350.067 271.755 350.303 271.85 350.499 272.039C350.699 272.224 350.798 272.448 350.798 272.712C350.798 272.972 350.699 273.196 350.499 273.385C350.303 273.57 350.067 273.663 349.789 273.663ZM356.559 274.929V276.211H352.077V274.929H356.559ZM353.279 272.963H354.876V280.726C354.876 281.036 354.923 281.269 355.015 281.426C355.108 281.579 355.227 281.684 355.373 281.741C355.523 281.795 355.685 281.821 355.86 281.821C355.988 281.821 356.1 281.812 356.196 281.795C356.292 281.777 356.367 281.763 356.421 281.752L356.709 283.072C356.616 283.107 356.485 283.143 356.314 283.178C356.143 283.218 355.929 283.239 355.673 283.243C355.252 283.25 354.86 283.175 354.497 283.018C354.134 282.861 353.84 282.619 353.616 282.292C353.391 281.964 353.279 281.552 353.279 281.057V272.963Z" fill="#2A363B"/>
<rect x="278.793" y="295.986" width="442.766" height="8.5974" rx="4.2987" fill="#EAECF0"/>
<rect x="278.793" y="295.986" width="392.469" height="8.5974" rx="4.2987" fill="#FDB022"/>
<path d="M739.386 294.193C739.874 294.197 740.355 294.286 740.829 294.46C741.303 294.635 741.73 294.92 742.111 295.315C742.496 295.711 742.802 296.245 743.03 296.918C743.262 297.588 743.379 298.421 743.383 299.419C743.383 300.377 743.287 301.23 743.094 301.978C742.902 302.722 742.626 303.351 742.266 303.864C741.91 304.377 741.477 304.767 740.968 305.034C740.458 305.301 739.885 305.435 739.247 305.435C738.596 305.435 738.017 305.306 737.511 305.05C737.005 304.793 736.594 304.439 736.277 303.987C735.96 303.531 735.762 303.007 735.684 302.416H737.313C737.42 302.886 737.637 303.267 737.965 303.559C738.296 303.848 738.724 303.992 739.247 303.992C740.049 303.992 740.674 303.643 741.123 302.945C741.572 302.243 741.798 301.264 741.801 300.006H741.716C741.531 300.313 741.299 300.576 741.021 300.797C740.747 301.018 740.439 301.189 740.097 301.31C739.755 301.431 739.39 301.492 739.002 301.492C738.371 301.492 737.798 301.337 737.281 301.027C736.765 300.717 736.353 300.291 736.047 299.75C735.741 299.208 735.588 298.59 735.588 297.896C735.588 297.205 735.744 296.578 736.058 296.015C736.375 295.452 736.816 295.007 737.383 294.679C737.953 294.348 738.621 294.186 739.386 294.193ZM739.392 295.582C738.975 295.582 738.599 295.686 738.264 295.892C737.933 296.095 737.671 296.371 737.479 296.72C737.287 297.066 737.19 297.451 737.19 297.875C737.19 298.298 737.283 298.683 737.468 299.029C737.657 299.371 737.913 299.643 738.238 299.846C738.565 300.045 738.939 300.145 739.36 300.145C739.673 300.145 739.965 300.085 740.236 299.964C740.507 299.842 740.743 299.675 740.946 299.461C741.149 299.244 741.308 298.998 741.422 298.724C741.536 298.45 741.593 298.161 741.593 297.858C741.593 297.456 741.497 297.082 741.304 296.736C741.116 296.391 740.856 296.113 740.524 295.903C740.193 295.689 739.816 295.582 739.392 295.582ZM745.313 305.285V304.088L749.015 300.252C749.411 299.835 749.737 299.47 749.993 299.157C750.253 298.84 750.447 298.539 750.576 298.254C750.704 297.969 750.768 297.666 750.768 297.346C750.768 296.982 750.682 296.669 750.511 296.405C750.341 296.138 750.107 295.933 749.812 295.791C749.516 295.645 749.183 295.572 748.812 295.572C748.421 295.572 748.079 295.652 747.787 295.812C747.495 295.972 747.27 296.199 747.113 296.491C746.957 296.783 746.878 297.125 746.878 297.517H745.302C745.302 296.85 745.455 296.268 745.762 295.769C746.068 295.271 746.488 294.884 747.023 294.61C747.557 294.332 748.164 294.193 748.845 294.193C749.532 294.193 750.137 294.33 750.661 294.605C751.188 294.875 751.6 295.246 751.895 295.716C752.191 296.183 752.339 296.71 752.339 297.297C752.339 297.704 752.262 298.101 752.109 298.489C751.959 298.877 751.698 299.31 751.324 299.787C750.95 300.261 750.43 300.836 749.763 301.513L747.589 303.789V303.869H752.515V305.285H745.313ZM760.251 303.233V302.656C760.251 302.243 760.337 301.866 760.508 301.524C760.682 301.178 760.935 300.902 761.267 300.696C761.601 300.485 762.006 300.38 762.479 300.38C762.964 300.38 763.37 300.484 763.698 300.69C764.025 300.897 764.273 301.173 764.44 301.518C764.611 301.864 764.697 302.243 764.697 302.656V303.233C764.697 303.647 764.611 304.026 764.44 304.371C764.269 304.713 764.018 304.989 763.687 305.2C763.359 305.406 762.957 305.509 762.479 305.509C761.999 305.509 761.593 305.406 761.261 305.2C760.93 304.989 760.679 304.713 760.508 304.371C760.337 304.026 760.251 303.647 760.251 303.233ZM761.496 302.656V303.233C761.496 303.54 761.569 303.818 761.715 304.067C761.861 304.316 762.116 304.441 762.479 304.441C762.839 304.441 763.09 304.316 763.233 304.067C763.375 303.818 763.447 303.54 763.447 303.233V302.656C763.447 302.35 763.377 302.072 763.238 301.823C763.103 301.574 762.85 301.449 762.479 301.449C762.123 301.449 761.87 301.574 761.721 301.823C761.571 302.072 761.496 302.35 761.496 302.656ZM754.748 296.972V296.395C754.748 295.981 754.834 295.602 755.005 295.257C755.179 294.911 755.432 294.635 755.763 294.428C756.098 294.222 756.503 294.118 756.976 294.118C757.461 294.118 757.867 294.222 758.194 294.428C758.522 294.635 758.77 294.911 758.937 295.257C759.105 295.602 759.188 295.981 759.188 296.395V296.972C759.188 297.385 759.103 297.764 758.932 298.11C758.764 298.452 758.515 298.728 758.184 298.938C757.856 299.144 757.454 299.248 756.976 299.248C756.492 299.248 756.084 299.144 755.753 298.938C755.425 298.728 755.176 298.452 755.005 298.11C754.834 297.764 754.748 297.385 754.748 296.972ZM755.999 296.395V296.972C755.999 297.278 756.07 297.556 756.212 297.805C756.358 298.054 756.613 298.179 756.976 298.179C757.333 298.179 757.582 298.054 757.724 297.805C757.87 297.556 757.943 297.278 757.943 296.972V296.395C757.943 296.088 757.874 295.81 757.735 295.561C757.596 295.312 757.343 295.187 756.976 295.187C756.62 295.187 756.367 295.312 756.218 295.561C756.072 295.81 755.999 296.088 755.999 296.395ZM755.256 305.285L762.779 294.343H764.056L756.533 305.285H755.256Z" fill="#2A363B"/>
<path d="M279.995 348.928V337.986H283.895C284.747 337.986 285.452 338.141 286.011 338.451C286.57 338.76 286.989 339.184 287.267 339.722C287.545 340.256 287.683 340.858 287.683 341.528C287.683 342.201 287.543 342.807 287.261 343.345C286.984 343.879 286.563 344.303 286 344.616C285.441 344.926 284.738 345.081 283.89 345.081H281.208V343.681H283.74C284.278 343.681 284.715 343.589 285.049 343.403C285.384 343.215 285.63 342.958 285.787 342.634C285.943 342.31 286.022 341.941 286.022 341.528C286.022 341.115 285.943 340.748 285.787 340.427C285.63 340.107 285.382 339.856 285.044 339.674C284.709 339.492 284.268 339.402 283.719 339.402H281.646V348.928H279.995ZM289.491 348.928V340.721H291.035V342.025H291.12C291.27 341.583 291.533 341.236 291.911 340.983C292.292 340.727 292.723 340.598 293.204 340.598C293.304 340.598 293.421 340.602 293.557 340.609C293.696 340.616 293.804 340.625 293.883 340.636V342.164C293.818 342.146 293.704 342.126 293.541 342.105C293.377 342.08 293.213 342.068 293.049 342.068C292.671 342.068 292.335 342.148 292.039 342.308C291.747 342.465 291.516 342.684 291.345 342.965C291.174 343.243 291.088 343.56 291.088 343.916V348.928H289.491ZM298.428 349.093C297.659 349.093 296.987 348.917 296.414 348.565C295.84 348.212 295.395 347.719 295.078 347.085C294.761 346.451 294.602 345.71 294.602 344.862C294.602 344.011 294.761 343.266 295.078 342.629C295.395 341.991 295.84 341.496 296.414 341.143C296.987 340.791 297.659 340.614 298.428 340.614C299.197 340.614 299.869 340.791 300.442 341.143C301.016 341.496 301.461 341.991 301.778 342.629C302.095 343.266 302.253 344.011 302.253 344.862C302.253 345.71 302.095 346.451 301.778 347.085C301.461 347.719 301.016 348.212 300.442 348.565C299.869 348.917 299.197 349.093 298.428 349.093ZM298.433 347.752C298.932 347.752 299.345 347.621 299.673 347.357C300.001 347.093 300.243 346.743 300.399 346.305C300.56 345.866 300.64 345.384 300.64 344.857C300.64 344.333 300.56 343.852 300.399 343.414C300.243 342.972 300.001 342.618 299.673 342.351C299.345 342.084 298.932 341.95 298.433 341.95C297.931 341.95 297.514 342.084 297.183 342.351C296.855 342.618 296.611 342.972 296.451 343.414C296.294 343.852 296.216 344.333 296.216 344.857C296.216 345.384 296.294 345.866 296.451 346.305C296.611 346.743 296.855 347.093 297.183 347.357C297.514 347.621 297.931 347.752 298.433 347.752ZM304.165 348.928V337.986H305.762V342.052H305.858C305.951 341.881 306.085 341.683 306.259 341.459C306.434 341.234 306.676 341.038 306.986 340.871C307.296 340.7 307.705 340.614 308.215 340.614C308.877 340.614 309.468 340.782 309.989 341.117C310.509 341.451 310.916 341.934 311.212 342.565C311.511 343.195 311.661 343.954 311.661 344.841C311.661 345.727 311.513 346.488 311.217 347.122C310.922 347.752 310.516 348.239 309.999 348.581C309.483 348.919 308.893 349.088 308.231 349.088C307.732 349.088 307.324 349.004 307.007 348.837C306.694 348.67 306.448 348.474 306.27 348.249C306.092 348.025 305.955 347.825 305.858 347.651H305.725V348.928H304.165ZM305.73 344.825C305.73 345.402 305.814 345.907 305.981 346.342C306.149 346.776 306.391 347.117 306.708 347.362C307.025 347.605 307.413 347.726 307.873 347.726C308.35 347.726 308.749 347.599 309.07 347.346C309.39 347.09 309.632 346.743 309.796 346.305C309.964 345.866 310.047 345.373 310.047 344.825C310.047 344.283 309.965 343.797 309.802 343.366C309.641 342.935 309.399 342.595 309.075 342.345C308.754 342.096 308.354 341.971 307.873 341.971C307.41 341.971 307.018 342.091 306.697 342.329C306.38 342.568 306.14 342.901 305.976 343.329C305.812 343.756 305.73 344.255 305.73 344.825ZM315.052 337.986V348.928H313.455V337.986H315.052ZM320.738 349.093C319.93 349.093 319.233 348.921 318.649 348.575C318.069 348.226 317.62 347.736 317.303 347.106C316.989 346.472 316.833 345.729 316.833 344.878C316.833 344.037 316.989 343.296 317.303 342.655C317.62 342.014 318.062 341.514 318.628 341.154C319.198 340.794 319.864 340.614 320.626 340.614C321.089 340.614 321.538 340.691 321.973 340.844C322.407 340.997 322.797 341.238 323.143 341.565C323.488 341.893 323.761 342.319 323.96 342.842C324.16 343.362 324.259 343.995 324.259 344.739V345.305H317.736V344.109H322.694C322.694 343.688 322.608 343.316 322.437 342.992C322.266 342.664 322.026 342.406 321.716 342.217C321.41 342.028 321.05 341.934 320.637 341.934C320.188 341.934 319.796 342.044 319.461 342.265C319.13 342.483 318.874 342.768 318.692 343.12C318.514 343.469 318.425 343.849 318.425 344.258V345.193C318.425 345.742 318.521 346.208 318.713 346.593C318.909 346.978 319.182 347.272 319.531 347.475C319.88 347.674 320.288 347.774 320.754 347.774C321.057 347.774 321.333 347.731 321.582 347.646C321.832 347.557 322.047 347.425 322.229 347.25C322.411 347.076 322.55 346.86 322.646 346.604L324.158 346.876C324.037 347.321 323.819 347.711 323.506 348.046C323.196 348.378 322.806 348.636 322.336 348.821C321.869 349.003 321.337 349.093 320.738 349.093ZM326.032 348.928V340.721H327.565V342.057H327.667C327.838 341.605 328.117 341.252 328.505 340.999C328.894 340.743 329.359 340.614 329.9 340.614C330.448 340.614 330.908 340.743 331.278 340.999C331.652 341.256 331.928 341.608 332.107 342.057H332.192C332.388 341.619 332.7 341.27 333.127 341.01C333.554 340.746 334.064 340.614 334.655 340.614C335.4 340.614 336.007 340.848 336.477 341.314C336.951 341.781 337.188 342.484 337.188 343.425V348.928H335.59V343.574C335.59 343.019 335.439 342.616 335.136 342.367C334.833 342.118 334.472 341.993 334.051 341.993C333.531 341.993 333.127 342.153 332.839 342.474C332.55 342.791 332.406 343.199 332.406 343.697V348.928H330.814V343.473C330.814 343.028 330.675 342.67 330.397 342.399C330.119 342.128 329.757 341.993 329.312 341.993C329.009 341.993 328.73 342.073 328.473 342.233C328.221 342.39 328.016 342.609 327.859 342.89C327.706 343.172 327.629 343.498 327.629 343.868V348.928H326.032ZM349.407 340.86C349.35 340.354 349.115 339.963 348.701 339.685C348.288 339.403 347.768 339.263 347.141 339.263C346.693 339.263 346.304 339.334 345.977 339.476C345.649 339.615 345.394 339.808 345.213 340.053C345.034 340.296 344.945 340.572 344.945 340.882C344.945 341.142 345.006 341.366 345.127 341.555C345.252 341.744 345.414 341.902 345.613 342.03C345.816 342.155 346.034 342.26 346.265 342.345C346.497 342.427 346.719 342.495 346.933 342.548L348.002 342.826C348.351 342.912 348.709 343.028 349.075 343.174C349.442 343.32 349.782 343.512 350.096 343.751C350.409 343.989 350.662 344.285 350.855 344.638C351.051 344.99 351.148 345.412 351.148 345.904C351.148 346.524 350.988 347.074 350.668 347.555C350.351 348.036 349.889 348.415 349.284 348.693C348.682 348.971 347.953 349.11 347.099 349.11C346.279 349.11 345.571 348.98 344.972 348.719C344.374 348.459 343.905 348.091 343.567 347.614C343.229 347.133 343.042 346.563 343.006 345.904H344.662C344.694 346.299 344.823 346.629 345.047 346.892C345.275 347.152 345.565 347.346 345.918 347.475C346.274 347.599 346.664 347.662 347.088 347.662C347.555 347.662 347.969 347.589 348.333 347.443C348.7 347.293 348.988 347.086 349.198 346.823C349.408 346.556 349.514 346.244 349.514 345.888C349.514 345.564 349.421 345.298 349.236 345.092C349.054 344.885 348.807 344.714 348.493 344.579C348.183 344.443 347.832 344.324 347.441 344.221L346.148 343.868C345.271 343.63 344.577 343.279 344.064 342.816C343.554 342.353 343.3 341.74 343.3 340.978C343.3 340.347 343.471 339.797 343.813 339.327C344.155 338.857 344.618 338.491 345.202 338.231C345.786 337.968 346.445 337.836 347.179 337.836C347.92 337.836 348.573 337.966 349.14 338.226C349.709 338.486 350.158 338.844 350.486 339.3C350.814 339.752 350.985 340.272 350.999 340.86H349.407ZM356.45 349.093C355.681 349.093 355.009 348.917 354.436 348.565C353.862 348.212 353.417 347.719 353.1 347.085C352.783 346.451 352.624 345.71 352.624 344.862C352.624 344.011 352.783 343.266 353.1 342.629C353.417 341.991 353.862 341.496 354.436 341.143C355.009 340.791 355.681 340.614 356.45 340.614C357.219 340.614 357.891 340.791 358.464 341.143C359.038 341.496 359.483 341.991 359.8 342.629C360.117 343.266 360.275 344.011 360.275 344.862C360.275 345.71 360.117 346.451 359.8 347.085C359.483 347.719 359.038 348.212 358.464 348.565C357.891 348.917 357.219 349.093 356.45 349.093ZM356.455 347.752C356.954 347.752 357.367 347.621 357.695 347.357C358.022 347.093 358.265 346.743 358.421 346.305C358.582 345.866 358.662 345.384 358.662 344.857C358.662 344.333 358.582 343.852 358.421 343.414C358.265 342.972 358.022 342.618 357.695 342.351C357.367 342.084 356.954 341.95 356.455 341.95C355.953 341.95 355.536 342.084 355.205 342.351C354.877 342.618 354.633 342.972 354.473 343.414C354.316 343.852 354.238 344.333 354.238 344.857C354.238 345.384 354.316 345.866 354.473 346.305C354.633 346.743 354.877 347.093 355.205 347.357C355.536 347.621 355.953 347.752 356.455 347.752ZM363.656 337.986V348.928H362.059V337.986H363.656ZM372.826 340.721L369.85 348.928H368.14L365.159 340.721H366.874L368.952 347.036H369.038L371.111 340.721H372.826ZM374.327 348.928V340.721H375.925V348.928H374.327ZM375.134 339.455C374.856 339.455 374.617 339.362 374.418 339.177C374.222 338.988 374.124 338.764 374.124 338.504C374.124 338.24 374.222 338.016 374.418 337.831C374.617 337.642 374.856 337.548 375.134 337.548C375.412 337.548 375.649 337.642 375.844 337.831C376.044 338.016 376.144 338.24 376.144 338.504C376.144 338.764 376.044 338.988 375.844 339.177C375.649 339.362 375.412 339.455 375.134 339.455ZM379.671 344.055V348.928H378.074V340.721H379.607V342.057H379.709C379.897 341.622 380.193 341.273 380.596 341.01C381.002 340.746 381.513 340.614 382.129 340.614C382.688 340.614 383.178 340.732 383.598 340.967C384.019 341.199 384.344 341.544 384.576 342.004C384.807 342.463 384.923 343.031 384.923 343.708V348.928H383.326V343.9C383.326 343.305 383.171 342.841 382.861 342.506C382.551 342.167 382.125 341.998 381.584 341.998C381.214 341.998 380.884 342.078 380.596 342.239C380.311 342.399 380.084 342.634 379.917 342.944C379.753 343.25 379.671 343.621 379.671 344.055ZM390.507 352.176C389.855 352.176 389.294 352.091 388.824 351.92C388.357 351.749 387.976 351.523 387.68 351.241C387.385 350.96 387.164 350.652 387.018 350.317L388.391 349.751C388.487 349.907 388.615 350.073 388.775 350.248C388.939 350.426 389.16 350.577 389.438 350.702C389.719 350.826 390.081 350.889 390.523 350.889C391.128 350.889 391.629 350.741 392.024 350.445C392.419 350.153 392.617 349.687 392.617 349.045V347.432H392.515C392.419 347.606 392.28 347.801 392.099 348.014C391.921 348.228 391.675 348.413 391.361 348.57C391.048 348.727 390.64 348.805 390.138 348.805C389.49 348.805 388.905 348.654 388.385 348.351C387.869 348.045 387.459 347.594 387.157 346.999C386.857 346.401 386.708 345.665 386.708 344.792C386.708 343.92 386.856 343.172 387.151 342.548C387.45 341.925 387.86 341.448 388.38 341.117C388.9 340.782 389.49 340.614 390.149 340.614C390.658 340.614 391.069 340.7 391.383 340.871C391.696 341.038 391.94 341.234 392.115 341.459C392.293 341.683 392.43 341.881 392.526 342.052H392.644V340.721H394.209V349.11C394.209 349.815 394.045 350.394 393.718 350.846C393.39 351.298 392.946 351.633 392.387 351.85C391.832 352.068 391.205 352.176 390.507 352.176ZM390.491 347.48C390.95 347.48 391.338 347.373 391.655 347.159C391.976 346.942 392.218 346.632 392.382 346.23C392.549 345.824 392.633 345.337 392.633 344.771C392.633 344.219 392.551 343.733 392.387 343.313C392.223 342.892 391.983 342.565 391.666 342.329C391.349 342.091 390.957 341.971 390.491 341.971C390.01 341.971 389.609 342.096 389.288 342.345C388.968 342.591 388.726 342.926 388.562 343.35C388.401 343.774 388.321 344.248 388.321 344.771C388.321 345.309 388.403 345.781 388.567 346.187C388.731 346.593 388.973 346.91 389.294 347.138C389.618 347.366 390.017 347.48 390.491 347.48Z" fill="#2A363B"/>
<rect x="278.793" y="361.779" width="442.766" height="8.5974" rx="4.2987" fill="#EAECF0"/>
<rect x="278.793" y="361.779" width="327.954" height="8.5974" rx="4.2987" fill="#D444F1"/>
<path d="M739.568 371.227C739.08 371.22 738.599 371.131 738.125 370.96C737.655 370.789 737.228 370.504 736.843 370.105C736.458 369.706 736.15 369.17 735.919 368.497C735.691 367.823 735.577 366.983 735.577 365.975C735.577 365.02 735.671 364.172 735.86 363.432C736.052 362.691 736.328 362.066 736.688 361.556C737.048 361.043 737.482 360.653 737.992 360.386C738.501 360.119 739.073 359.985 739.707 359.985C740.359 359.985 740.938 360.114 741.443 360.37C741.949 360.627 742.359 360.981 742.672 361.433C742.989 361.886 743.19 362.4 743.276 362.977H741.646C741.536 362.522 741.317 362.149 740.989 361.861C740.661 361.572 740.234 361.428 739.707 361.428C738.905 361.428 738.28 361.777 737.832 362.475C737.386 363.173 737.162 364.144 737.158 365.387H737.239C737.427 365.077 737.659 364.814 737.933 364.596C738.211 364.375 738.521 364.206 738.863 364.089C739.208 363.968 739.572 363.907 739.953 363.907C740.587 363.907 741.16 364.062 741.673 364.372C742.19 364.678 742.601 365.102 742.907 365.644C743.214 366.185 743.367 366.805 743.367 367.503C743.367 368.201 743.208 368.833 742.891 369.4C742.578 369.966 742.136 370.415 741.566 370.746C740.996 371.074 740.33 371.234 739.568 371.227ZM739.563 369.838C739.983 369.838 740.359 369.734 740.69 369.528C741.021 369.321 741.283 369.043 741.475 368.694C741.668 368.345 741.764 367.955 741.764 367.524C741.764 367.104 741.67 366.721 741.481 366.376C741.296 366.03 741.039 365.756 740.711 365.553C740.387 365.35 740.017 365.248 739.6 365.248C739.283 365.248 738.989 365.309 738.718 365.43C738.451 365.551 738.216 365.718 738.013 365.932C737.81 366.146 737.65 366.392 737.532 366.669C737.418 366.944 737.361 367.234 737.361 367.54C737.361 367.95 737.456 368.329 737.645 368.678C737.837 369.027 738.099 369.309 738.43 369.522C738.765 369.733 739.142 369.838 739.563 369.838ZM749.01 371.227C748.244 371.227 747.568 371.095 746.98 370.831C746.396 370.568 745.938 370.205 745.607 369.741C745.275 369.278 745.112 368.751 745.115 368.16C745.112 367.697 745.206 367.271 745.398 366.883C745.594 366.491 745.86 366.165 746.194 365.905C746.529 365.642 746.903 365.474 747.316 365.403V365.339C746.771 365.207 746.335 364.915 746.007 364.463C745.68 364.01 745.518 363.49 745.521 362.903C745.518 362.343 745.666 361.845 745.965 361.407C746.267 360.965 746.682 360.618 747.21 360.365C747.737 360.112 748.337 359.985 749.01 359.985C749.676 359.985 750.271 360.114 750.795 360.37C751.322 360.623 751.737 360.97 752.04 361.412C752.342 361.85 752.495 362.347 752.499 362.903C752.495 363.49 752.328 364.01 751.997 364.463C751.666 364.915 751.235 365.207 750.704 365.339V365.403C751.113 365.474 751.482 365.642 751.81 365.905C752.141 366.165 752.405 366.491 752.601 366.883C752.8 367.271 752.902 367.697 752.905 368.16C752.902 368.751 752.734 369.278 752.403 369.741C752.072 370.205 751.612 370.568 751.024 370.831C750.44 371.095 749.769 371.227 749.01 371.227ZM749.01 369.875C749.462 369.875 749.854 369.8 750.186 369.651C750.517 369.498 750.773 369.286 750.955 369.015C751.137 368.741 751.229 368.42 751.233 368.053C751.229 367.672 751.129 367.335 750.934 367.043C750.741 366.751 750.479 366.522 750.148 366.354C749.817 366.187 749.438 366.103 749.01 366.103C748.579 366.103 748.196 366.187 747.861 366.354C747.527 366.522 747.263 366.751 747.071 367.043C746.878 367.335 746.784 367.672 746.788 368.053C746.784 368.42 746.871 368.741 747.049 369.015C747.231 369.286 747.489 369.498 747.824 369.651C748.159 369.8 748.554 369.875 749.01 369.875ZM749.01 364.783C749.373 364.783 749.696 364.71 749.977 364.564C750.259 364.418 750.479 364.215 750.64 363.955C750.804 363.695 750.887 363.391 750.891 363.042C750.887 362.7 750.805 362.4 750.645 362.144C750.488 361.888 750.269 361.69 749.988 361.551C749.706 361.408 749.381 361.337 749.01 361.337C748.633 361.337 748.301 361.408 748.016 361.551C747.735 361.69 747.516 361.888 747.359 362.144C747.202 362.4 747.126 362.7 747.129 363.042C747.126 363.391 747.204 363.695 747.365 363.955C747.525 364.215 747.746 364.418 748.027 364.564C748.312 364.71 748.64 364.783 749.01 364.783ZM760.531 369.026V368.449C760.531 368.035 760.616 367.658 760.787 367.316C760.962 366.97 761.215 366.694 761.546 366.488C761.881 366.278 762.285 366.172 762.759 366.172C763.243 366.172 763.649 366.276 763.977 366.482C764.304 366.689 764.552 366.965 764.719 367.311C764.89 367.656 764.976 368.035 764.976 368.449V369.026C764.976 369.439 764.89 369.818 764.719 370.164C764.548 370.506 764.297 370.782 763.966 370.992C763.638 371.198 763.236 371.302 762.759 371.302C762.278 371.302 761.872 371.198 761.54 370.992C761.209 370.782 760.958 370.506 760.787 370.164C760.616 369.818 760.531 369.439 760.531 369.026ZM761.776 368.449V369.026C761.776 369.332 761.849 369.61 761.995 369.859C762.141 370.108 762.395 370.233 762.759 370.233C763.118 370.233 763.369 370.108 763.512 369.859C763.654 369.61 763.726 369.332 763.726 369.026V368.449C763.726 368.142 763.656 367.864 763.517 367.615C763.382 367.366 763.129 367.241 762.759 367.241C762.402 367.241 762.15 367.366 762 367.615C761.85 367.864 761.776 368.142 761.776 368.449ZM755.028 362.764V362.187C755.028 361.774 755.113 361.394 755.284 361.049C755.459 360.703 755.711 360.427 756.043 360.221C756.377 360.014 756.782 359.911 757.255 359.911C757.74 359.911 758.146 360.014 758.474 360.221C758.801 360.427 759.049 360.703 759.216 361.049C759.384 361.394 759.467 361.774 759.467 362.187V362.764C759.467 363.177 759.382 363.556 759.211 363.902C759.044 364.244 758.794 364.52 758.463 364.73C758.135 364.936 757.733 365.04 757.255 365.04C756.771 365.04 756.363 364.936 756.032 364.73C755.704 364.52 755.455 364.244 755.284 363.902C755.113 363.556 755.028 363.177 755.028 362.764ZM756.278 362.187V362.764C756.278 363.07 756.349 363.348 756.491 363.597C756.637 363.847 756.892 363.971 757.255 363.971C757.612 363.971 757.861 363.847 758.003 363.597C758.15 363.348 758.223 363.07 758.223 362.764V362.187C758.223 361.88 758.153 361.603 758.014 361.353C757.875 361.104 757.622 360.979 757.255 360.979C756.899 360.979 756.646 361.104 756.497 361.353C756.351 361.603 756.278 361.88 756.278 362.187ZM755.535 371.077L763.058 360.135H764.335L756.812 371.077H755.535Z" fill="#2A363B"/>
</g>
<g filter="url(#filter1_d_5470_4833)">
<rect x="81" y="377.415" width="306" height="106" rx="20" fill="white" shape-rendering="crispEdges"/>
<rect x="81.5" y="377.915" width="305" height="105" rx="19.5" stroke="#E5E7EB" shape-rendering="crispEdges"/>
<path d="M111.034 411.142C111.034 412.676 110.757 414.002 110.203 415.119C109.649 416.237 108.889 417.099 107.923 417.705C106.957 418.311 105.854 418.614 104.614 418.614C103.373 418.614 102.27 418.311 101.304 417.705C100.338 417.099 99.5781 416.237 99.0241 415.119C98.4702 414.002 98.1932 412.676 98.1932 411.142C98.1932 409.608 98.4702 408.282 99.0241 407.165C99.5781 406.047 100.338 405.186 101.304 404.58C102.27 403.974 103.373 403.671 104.614 403.671C105.854 403.671 106.957 403.974 107.923 404.58C108.889 405.186 109.649 406.047 110.203 407.165C110.757 408.282 111.034 409.608 111.034 411.142ZM109.33 411.142C109.33 409.883 109.119 408.82 108.697 407.953C108.281 407.087 107.715 406.431 107 405.986C106.29 405.541 105.494 405.318 104.614 405.318C103.733 405.318 102.935 405.541 102.22 405.986C101.51 406.431 100.944 407.087 100.523 407.953C100.106 408.82 99.8977 409.883 99.8977 411.142C99.8977 412.402 100.106 413.465 100.523 414.331C100.944 415.198 101.51 415.853 102.22 416.298C102.935 416.744 103.733 416.966 104.614 416.966C105.494 416.966 106.29 416.744 107 416.298C107.715 415.853 108.281 415.198 108.697 414.331C109.119 413.465 109.33 412.402 109.33 411.142ZM122.689 407.506L118.655 418.415H116.95L112.916 407.506H114.734L117.746 416.199H117.859L120.871 407.506H122.689ZM129.085 418.642C128.033 418.642 127.127 418.41 126.364 417.946C125.607 417.477 125.022 416.824 124.61 415.986C124.203 415.143 123.999 414.163 123.999 413.046C123.999 411.928 124.203 410.943 124.61 410.091C125.022 409.234 125.595 408.566 126.329 408.088C127.067 407.605 127.929 407.364 128.914 407.364C129.482 407.364 130.043 407.458 130.597 407.648C131.151 407.837 131.656 408.145 132.11 408.571C132.565 408.993 132.927 409.551 133.197 410.247C133.467 410.943 133.602 411.8 133.602 412.818V413.529H125.192V412.08H131.897C131.897 411.464 131.774 410.915 131.528 410.432C131.286 409.949 130.941 409.568 130.491 409.288C130.046 409.009 129.52 408.869 128.914 408.869C128.246 408.869 127.669 409.035 127.181 409.367C126.698 409.693 126.326 410.119 126.066 410.645C125.806 411.171 125.675 411.734 125.675 412.335V413.301C125.675 414.125 125.817 414.824 126.102 415.396C126.39 415.965 126.79 416.398 127.302 416.696C127.813 416.99 128.407 417.137 129.085 417.137C129.525 417.137 129.923 417.075 130.278 416.952C130.638 416.824 130.948 416.635 131.208 416.384C131.469 416.128 131.67 415.811 131.812 415.432L133.431 415.887C133.261 416.436 132.974 416.919 132.572 417.335C132.169 417.747 131.672 418.069 131.08 418.301C130.488 418.529 129.823 418.642 129.085 418.642ZM136.151 418.415V407.506H137.771V409.154H137.884C138.083 408.614 138.443 408.176 138.964 407.84C139.485 407.503 140.072 407.335 140.725 407.335C140.848 407.335 141.002 407.338 141.187 407.342C141.371 407.347 141.511 407.354 141.606 407.364V409.068C141.549 409.054 141.419 409.033 141.215 409.004C141.016 408.971 140.806 408.955 140.583 408.955C140.053 408.955 139.579 409.066 139.163 409.288C138.751 409.506 138.424 409.809 138.183 410.198C137.946 410.581 137.827 411.019 137.827 411.512V418.415H136.151ZM146.803 418.671C146.112 418.671 145.484 418.54 144.921 418.28C144.357 418.015 143.91 417.634 143.578 417.137C143.247 416.635 143.081 416.029 143.081 415.318C143.081 414.693 143.204 414.187 143.451 413.798C143.697 413.405 144.026 413.098 144.438 412.875C144.85 412.653 145.304 412.487 145.801 412.378C146.303 412.264 146.808 412.174 147.314 412.108C147.977 412.023 148.515 411.959 148.926 411.916C149.343 411.869 149.646 411.791 149.836 411.682C150.03 411.573 150.127 411.384 150.127 411.114V411.057C150.127 410.356 149.935 409.812 149.551 409.423C149.173 409.035 148.597 408.841 147.826 408.841C147.025 408.841 146.398 409.016 145.944 409.367C145.489 409.717 145.169 410.091 144.985 410.489L143.394 409.921C143.678 409.258 144.057 408.742 144.53 408.372C145.008 407.998 145.529 407.738 146.093 407.591C146.661 407.44 147.22 407.364 147.769 407.364C148.119 407.364 148.522 407.406 148.976 407.492C149.435 407.572 149.878 407.74 150.304 407.996C150.735 408.252 151.093 408.637 151.377 409.154C151.661 409.67 151.803 410.361 151.803 411.227V418.415H150.127V416.938H150.042C149.928 417.174 149.739 417.428 149.473 417.698C149.208 417.967 148.855 418.197 148.415 418.387C147.975 418.576 147.437 418.671 146.803 418.671ZM147.059 417.165C147.721 417.165 148.28 417.035 148.735 416.774C149.194 416.514 149.54 416.178 149.772 415.766C150.008 415.354 150.127 414.921 150.127 414.466V412.932C150.056 413.017 149.9 413.095 149.658 413.166C149.421 413.233 149.147 413.292 148.834 413.344C148.526 413.391 148.226 413.434 147.932 413.472C147.643 413.505 147.409 413.533 147.229 413.557C146.793 413.614 146.386 413.706 146.007 413.834C145.633 413.957 145.33 414.144 145.098 414.395C144.871 414.641 144.757 414.977 144.757 415.404C144.757 415.986 144.973 416.426 145.404 416.725C145.839 417.018 146.391 417.165 147.059 417.165ZM156.538 403.869V418.415H154.862V403.869H156.538ZM161.284 403.869V418.415H159.608V403.869H161.284ZM178.161 407.506C178.076 406.786 177.73 406.227 177.124 405.83C176.518 405.432 175.775 405.233 174.894 405.233C174.25 405.233 173.687 405.337 173.204 405.546C172.726 405.754 172.352 406.04 172.082 406.405C171.817 406.77 171.684 407.184 171.684 407.648C171.684 408.036 171.776 408.37 171.961 408.649C172.15 408.924 172.392 409.154 172.685 409.338C172.979 409.518 173.287 409.667 173.609 409.786C173.931 409.899 174.227 409.992 174.496 410.063L175.974 410.46C176.353 410.56 176.774 410.697 177.238 410.872C177.707 411.047 178.154 411.287 178.58 411.59C179.011 411.888 179.366 412.271 179.646 412.74C179.925 413.209 180.065 413.784 180.065 414.466C180.065 415.252 179.859 415.962 179.447 416.597C179.04 417.231 178.443 417.735 177.657 418.11C176.876 418.484 175.926 418.671 174.809 418.671C173.767 418.671 172.865 418.503 172.103 418.166C171.345 417.83 170.749 417.361 170.313 416.76C169.882 416.159 169.638 415.46 169.582 414.665H171.4C171.447 415.214 171.632 415.669 171.954 416.029C172.281 416.384 172.692 416.649 173.19 416.824C173.692 416.994 174.231 417.08 174.809 417.08C175.481 417.08 176.085 416.971 176.62 416.753C177.155 416.53 177.579 416.223 177.891 415.83C178.204 415.432 178.36 414.968 178.36 414.438C178.36 413.955 178.225 413.562 177.955 413.259C177.685 412.956 177.33 412.709 176.89 412.52C176.45 412.331 175.974 412.165 175.462 412.023L173.673 411.512C172.536 411.185 171.637 410.718 170.974 410.112C170.311 409.506 169.979 408.713 169.979 407.733C169.979 406.919 170.2 406.208 170.64 405.602C171.085 404.992 171.682 404.518 172.43 404.182C173.183 403.841 174.023 403.671 174.951 403.671C175.888 403.671 176.722 403.839 177.451 404.175C178.18 404.506 178.758 404.961 179.184 405.538C179.615 406.116 179.842 406.772 179.866 407.506H178.161ZM187.165 418.642C186.142 418.642 185.262 418.401 184.523 417.918C183.784 417.435 183.216 416.77 182.819 415.922C182.421 415.074 182.222 414.106 182.222 413.017C182.222 411.909 182.426 410.931 182.833 410.084C183.245 409.232 183.818 408.566 184.551 408.088C185.29 407.605 186.152 407.364 187.137 407.364C187.904 407.364 188.595 407.506 189.211 407.79C189.826 408.074 190.33 408.472 190.723 408.983C191.116 409.494 191.36 410.091 191.455 410.773H189.779C189.651 410.276 189.367 409.835 188.926 409.452C188.491 409.064 187.904 408.869 187.165 408.869C186.512 408.869 185.939 409.04 185.446 409.381C184.959 409.717 184.578 410.193 184.303 410.808C184.033 411.419 183.898 412.137 183.898 412.96C183.898 413.803 184.031 414.537 184.296 415.162C184.566 415.787 184.944 416.272 185.432 416.618C185.925 416.964 186.502 417.137 187.165 417.137C187.601 417.137 187.996 417.061 188.351 416.909C188.706 416.758 189.007 416.54 189.253 416.256C189.499 415.972 189.675 415.631 189.779 415.233H191.455C191.36 415.877 191.126 416.457 190.752 416.973C190.382 417.485 189.892 417.892 189.282 418.195C188.676 418.493 187.97 418.642 187.165 418.642ZM198.337 418.642C197.352 418.642 196.488 418.408 195.745 417.939C195.006 417.47 194.428 416.815 194.012 415.972C193.6 415.129 193.394 414.144 193.394 413.017C193.394 411.881 193.6 410.889 194.012 410.041C194.428 409.194 195.006 408.536 195.745 408.067C196.488 407.598 197.352 407.364 198.337 407.364C199.322 407.364 200.184 407.598 200.922 408.067C201.666 408.536 202.243 409.194 202.655 410.041C203.072 410.889 203.28 411.881 203.28 413.017C203.28 414.144 203.072 415.129 202.655 415.972C202.243 416.815 201.666 417.47 200.922 417.939C200.184 418.408 199.322 418.642 198.337 418.642ZM198.337 417.137C199.085 417.137 199.701 416.945 200.184 416.561C200.667 416.178 201.024 415.673 201.256 415.048C201.488 414.423 201.604 413.746 201.604 413.017C201.604 412.288 201.488 411.609 201.256 410.979C201.024 410.349 200.667 409.84 200.184 409.452C199.701 409.064 199.085 408.869 198.337 408.869C197.589 408.869 196.973 409.064 196.49 409.452C196.007 409.84 195.65 410.349 195.418 410.979C195.186 411.609 195.07 412.288 195.07 413.017C195.07 413.746 195.186 414.423 195.418 415.048C195.65 415.673 196.007 416.178 196.49 416.561C196.973 416.945 197.589 417.137 198.337 417.137ZM205.839 418.415V407.506H207.458V409.154H207.572C207.771 408.614 208.13 408.176 208.651 407.84C209.172 407.503 209.759 407.335 210.413 407.335C210.536 407.335 210.69 407.338 210.874 407.342C211.059 407.347 211.199 407.354 211.293 407.364V409.068C211.237 409.054 211.106 409.033 210.903 409.004C210.704 408.971 210.493 408.955 210.271 408.955C209.74 408.955 209.267 409.066 208.85 409.288C208.438 409.506 208.112 409.809 207.87 410.198C207.633 410.581 207.515 411.019 207.515 411.512V418.415H205.839ZM217.522 418.642C216.471 418.642 215.564 418.41 214.802 417.946C214.044 417.477 213.46 416.824 213.048 415.986C212.64 415.143 212.437 414.163 212.437 413.046C212.437 411.928 212.64 410.943 213.048 410.091C213.46 409.234 214.032 408.566 214.766 408.088C215.505 407.605 216.367 407.364 217.352 407.364C217.92 407.364 218.481 407.458 219.035 407.648C219.589 407.837 220.093 408.145 220.548 408.571C221.002 408.993 221.364 409.551 221.634 410.247C221.904 410.943 222.039 411.8 222.039 412.818V413.529H213.63V412.08H220.335C220.335 411.464 220.211 410.915 219.965 410.432C219.724 409.949 219.378 409.568 218.928 409.288C218.483 409.009 217.958 408.869 217.352 408.869C216.684 408.869 216.106 409.035 215.619 409.367C215.136 409.693 214.764 410.119 214.504 410.645C214.243 411.171 214.113 411.734 214.113 412.335V413.301C214.113 414.125 214.255 414.824 214.539 415.396C214.828 415.965 215.228 416.398 215.739 416.696C216.251 416.99 216.845 417.137 217.522 417.137C217.962 417.137 218.36 417.075 218.715 416.952C219.075 416.824 219.385 416.635 219.646 416.384C219.906 416.128 220.107 415.811 220.249 415.432L221.869 415.887C221.698 416.436 221.412 416.919 221.009 417.335C220.607 417.747 220.11 418.069 219.518 418.301C218.926 418.529 218.261 418.642 217.522 418.642Z" fill="#111928"/>
<path d="M104.611 443.722C105.446 443.727 106.259 443.875 107.048 444.165C107.844 444.449 108.56 444.915 109.196 445.563C109.832 446.205 110.338 447.065 110.713 448.145C111.088 449.225 111.276 450.56 111.276 452.151C111.281 453.651 111.122 454.992 110.798 456.173C110.48 457.35 110.023 458.344 109.426 459.156C108.83 459.969 108.111 460.588 107.27 461.014C106.429 461.44 105.483 461.654 104.432 461.654C103.33 461.654 102.352 461.438 101.5 461.006C100.653 460.574 99.9688 459.983 99.446 459.233C98.9233 458.483 98.6023 457.625 98.483 456.659H101.594C101.753 457.352 102.077 457.904 102.565 458.313C103.06 458.716 103.682 458.918 104.432 458.918C105.642 458.918 106.574 458.392 107.227 457.341C107.881 456.29 108.207 454.83 108.207 452.96H108.088C107.81 453.46 107.449 453.892 107.006 454.256C106.563 454.614 106.06 454.889 105.497 455.083C104.94 455.276 104.349 455.372 103.724 455.372C102.702 455.372 101.781 455.128 100.963 454.639C100.151 454.151 99.5057 453.48 99.0284 452.628C98.5568 451.776 98.3182 450.801 98.3125 449.705C98.3125 448.568 98.5739 447.548 99.0966 446.645C99.625 445.736 100.361 445.02 101.304 444.497C102.247 443.969 103.349 443.71 104.611 443.722ZM104.619 446.279C104.006 446.279 103.452 446.429 102.957 446.73C102.469 447.026 102.082 447.429 101.798 447.94C101.52 448.446 101.381 449.012 101.381 449.637C101.386 450.256 101.526 450.818 101.798 451.324C102.077 451.83 102.455 452.23 102.932 452.526C103.415 452.821 103.966 452.969 104.585 452.969C105.045 452.969 105.474 452.881 105.872 452.705C106.27 452.529 106.616 452.284 106.912 451.972C107.213 451.654 107.446 451.293 107.611 450.889C107.781 450.486 107.864 450.06 107.858 449.611C107.858 449.014 107.716 448.463 107.432 447.958C107.153 447.452 106.77 447.046 106.281 446.739C105.798 446.432 105.244 446.279 104.619 446.279ZM120.565 461.747C119.162 461.747 117.957 461.392 116.952 460.682C115.952 459.966 115.182 458.935 114.642 457.588C114.108 456.236 113.841 454.608 113.841 452.705C113.847 450.801 114.116 449.182 114.651 447.847C115.19 446.506 115.96 445.483 116.96 444.779C117.966 444.074 119.168 443.722 120.565 443.722C121.963 443.722 123.165 444.074 124.17 444.779C125.176 445.483 125.946 446.506 126.48 447.847C127.02 449.188 127.29 450.807 127.29 452.705C127.29 454.614 127.02 456.244 126.48 457.597C125.946 458.943 125.176 459.972 124.17 460.682C123.17 461.392 121.969 461.747 120.565 461.747ZM120.565 459.08C121.656 459.08 122.517 458.543 123.148 457.469C123.784 456.389 124.102 454.801 124.102 452.705C124.102 451.318 123.957 450.154 123.668 449.21C123.378 448.267 122.969 447.557 122.44 447.08C121.912 446.597 121.287 446.355 120.565 446.355C119.48 446.355 118.622 446.895 117.991 447.975C117.361 449.048 117.043 450.625 117.037 452.705C117.031 454.097 117.17 455.267 117.455 456.216C117.744 457.165 118.153 457.881 118.682 458.364C119.21 458.841 119.838 459.08 120.565 459.08ZM137.281 443.142L131.656 464.04H128.954L134.579 443.142H137.281ZM146.315 443.96V461.415H143.153V447.037H143.05L138.968 449.645V446.747L143.306 443.96H146.315ZM157.198 461.747C155.795 461.747 154.59 461.392 153.585 460.682C152.585 459.966 151.815 458.935 151.275 457.588C150.741 456.236 150.474 454.608 150.474 452.705C150.479 450.801 150.749 449.182 151.283 447.847C151.823 446.506 152.593 445.483 153.593 444.779C154.599 444.074 155.8 443.722 157.198 443.722C158.596 443.722 159.798 444.074 160.803 444.779C161.809 445.483 162.579 446.506 163.113 447.847C163.653 449.188 163.923 450.807 163.923 452.705C163.923 454.614 163.653 456.244 163.113 457.597C162.579 458.943 161.809 459.972 160.803 460.682C159.803 461.392 158.602 461.747 157.198 461.747ZM157.198 459.08C158.289 459.08 159.15 458.543 159.781 457.469C160.417 456.389 160.735 454.801 160.735 452.705C160.735 451.318 160.59 450.154 160.3 449.21C160.011 448.267 159.602 447.557 159.073 447.08C158.545 446.597 157.92 446.355 157.198 446.355C156.113 446.355 155.255 446.895 154.624 447.975C153.994 449.048 153.675 450.625 153.67 452.705C153.664 454.097 153.803 455.267 154.087 456.216C154.377 457.165 154.786 457.881 155.315 458.364C155.843 458.841 156.471 459.08 157.198 459.08ZM173.206 461.747C171.803 461.747 170.598 461.392 169.592 460.682C168.592 459.966 167.822 458.935 167.283 457.588C166.749 456.236 166.482 454.608 166.482 452.705C166.487 450.801 166.757 449.182 167.291 447.847C167.831 446.506 168.601 445.483 169.601 444.779C170.607 444.074 171.808 443.722 173.206 443.722C174.604 443.722 175.805 444.074 176.811 444.779C177.817 445.483 178.587 446.506 179.121 447.847C179.661 449.188 179.93 450.807 179.93 452.705C179.93 454.614 179.661 456.244 179.121 457.597C178.587 458.943 177.817 459.972 176.811 460.682C175.811 461.392 174.609 461.747 173.206 461.747ZM173.206 459.08C174.297 459.08 175.158 458.543 175.788 457.469C176.425 456.389 176.743 454.801 176.743 452.705C176.743 451.318 176.598 450.154 176.308 449.21C176.018 448.267 175.609 447.557 175.081 447.08C174.553 446.597 173.928 446.355 173.206 446.355C172.121 446.355 171.263 446.895 170.632 447.975C170.001 449.048 169.683 450.625 169.678 452.705C169.672 454.097 169.811 455.267 170.095 456.216C170.385 457.165 170.794 457.881 171.322 458.364C171.851 458.841 172.479 459.08 173.206 459.08Z" fill="#17B26A"/>
</g>
<defs>
<filter id="filter0_d_5470_4833" x="182.286" y="-2.00272e-05" width="680.914" height="477.882" filterUnits="userSpaceOnUse" color-interpolation-filters="sRGB">
<feFlood flood-opacity="0" result="BackgroundImageFix"/>
<feColorMatrix in="SourceAlpha" type="matrix" values="0 0 0 0 0 0 0 0 0 0 0 0 0 0 0 0 0 0 127 0" result="hardAlpha"/>
<feOffset dy="4.2987"/>
<feGaussianBlur stdDeviation="35.3568"/>
<feComposite in2="hardAlpha" operator="out"/>
<feColorMatrix type="matrix" values="0 0 0 0 0 0 0 0 0 0 0 0 0 0 0 0 0 0 0.16 0"/>
<feBlend mode="normal" in2="BackgroundImageFix" result="effect1_dropShadow_5470_4833"/>
<feBlend mode="normal" in="SourceGraphic" in2="effect1_dropShadow_5470_4833" result="shape"/>
</filter>
<filter id="filter1_d_5470_4833" x="56.3" y="352.715" width="355.4" height="155.4" filterUnits="userSpaceOnUse" color-interpolation-filters="sRGB">
<feFlood flood-opacity="0" result="BackgroundImageFix"/>
<feColorMatrix in="SourceAlpha" type="matrix" values="0 0 0 0 0 0 0 0 0 0 0 0 0 0 0 0 0 0 127 0" result="hardAlpha"/>
<feOffset/>
<feGaussianBlur stdDeviation="12.35"/>
<feComposite in2="hardAlpha" operator="out"/>
<feColorMatrix type="matrix" values="0 0 0 0 0 0 0 0 0 0 0 0 0 0 0 0 0 0 0.25 0"/>
<feBlend mode="normal" in2="BackgroundImageFix" result="effect1_dropShadow_5470_4833"/>
<feBlend mode="normal" in="SourceGraphic" in2="effect1_dropShadow_5470_4833" result="shape"/>
</filter>
</defs>
</svg>
