<svg width="401" height="337" viewBox="0 0 401 337" fill="none" xmlns="http://www.w3.org/2000/svg">
<g clip-path="url(#clip0_5470_4974)">
<rect width="401" height="337" fill="url(#paint0_linear_5470_4974)"/>
<path d="M169 106L245 145" stroke="white" stroke-width="1.4"/>
<path d="M142.601 61.9999H142.471C126.747 61.9999 114 74.7506 114 90.4793V90.6093C114 106.338 126.747 119.089 142.471 119.089H142.601C158.325 119.089 171.072 106.338 171.072 90.6093V90.4793C171.072 74.7506 158.325 61.9999 142.601 61.9999Z" fill="#00E510"/>
<path d="M148.098 98.8938C140.794 98.8938 134.852 92.9475 134.85 85.6411C134.852 83.789 136.359 82.283 138.207 82.283C138.397 82.283 138.585 82.299 138.765 82.331C139.161 82.397 139.536 82.531 139.882 82.733C139.932 82.763 139.966 82.811 139.974 82.867L140.746 87.7332C140.756 87.7912 140.738 87.8472 140.7 87.8892C140.274 88.3613 139.73 88.7013 139.125 88.8713L138.833 88.9533L138.943 89.2353C139.938 91.7714 141.966 93.7975 144.503 94.7976L144.785 94.9096L144.867 94.6176C145.037 94.0115 145.377 93.4675 145.849 93.0415C145.883 93.0095 145.929 92.9935 145.975 92.9935C145.985 92.9935 145.995 92.9935 146.007 92.9955L150.872 93.7675C150.93 93.7775 150.978 93.8095 151.008 93.8595C151.208 94.2056 151.342 94.5836 151.41 94.9796C151.442 95.1556 151.456 95.3416 151.456 95.5356C151.456 97.3857 149.95 98.8918 148.098 98.8938Z" fill="#FDFDFD"/>
<path d="M161.05 88.9411C160.656 84.4889 158.617 80.3587 155.308 77.3125C151.979 74.2484 147.66 72.5603 143.143 72.5603C133.229 72.5603 125.163 80.6287 125.163 90.5452C125.163 93.8734 126.081 97.1155 127.818 99.9397L123.943 108.52L136.35 107.198C138.508 108.082 140.791 108.53 143.141 108.53C143.759 108.53 144.392 108.498 145.028 108.432C145.588 108.372 146.154 108.284 146.71 108.172C155.012 106.494 161.072 99.1236 161.12 90.6412V90.5452C161.12 90.0052 161.096 89.4651 161.048 88.9411H161.05ZM136.828 103.432L129.964 104.164L132.013 99.6217L131.603 99.0716C131.574 99.0316 131.544 98.9916 131.51 98.9456C129.73 96.4875 128.79 93.5834 128.79 90.5472C128.79 82.6308 135.229 76.1905 143.143 76.1905C150.557 76.1905 156.841 81.9768 157.447 89.3631C157.479 89.7592 157.497 90.1572 157.497 90.5492C157.497 90.6612 157.495 90.7712 157.493 90.8892C157.341 97.5116 152.716 103.136 146.246 104.568C145.752 104.678 145.246 104.762 144.742 104.816C144.218 104.876 143.681 104.906 143.147 104.906C141.245 104.906 139.398 104.538 137.652 103.81C137.458 103.732 137.268 103.648 137.09 103.562L136.83 103.436L136.828 103.432Z" fill="#FDFDFD"/>
<g filter="url(#filter0_d_5470_4974)">
<path d="M271.063 128H270.918C253.29 128 239 142.294 239 159.927V160.073C239 177.706 253.29 192 270.918 192H271.063C288.691 192 302.981 177.706 302.981 160.073V159.927C302.981 142.294 288.691 128 271.063 128Z" fill="#007EBB"/>
</g>
<path d="M254.26 149.274C253.417 148.492 252.998 147.523 252.998 146.371C252.998 145.218 253.419 144.207 254.26 143.422C255.103 142.639 256.188 142.247 257.517 142.247C258.846 142.247 259.889 142.639 260.729 143.422C261.572 144.205 261.991 145.189 261.991 146.371C261.991 147.552 261.57 148.492 260.729 149.274C259.886 150.057 258.817 150.449 257.517 150.449C256.217 150.449 255.103 150.057 254.26 149.274ZM261.283 153.763V177.755H253.704V153.763H261.283Z" fill="#FEFFFC"/>
<path d="M286.51 156.133C288.162 157.927 288.987 160.389 288.987 163.524V177.331H281.789V164.497C281.789 162.916 281.379 161.687 280.561 160.813C279.742 159.938 278.64 159.499 277.259 159.499C275.878 159.499 274.775 159.936 273.957 160.813C273.139 161.687 272.729 162.916 272.729 164.497V177.331H265.488V153.696H272.729V156.831C273.462 155.786 274.45 154.961 275.692 154.353C276.934 153.745 278.33 153.443 279.884 153.443C282.65 153.443 284.86 154.34 286.51 156.133Z" fill="#FEFFFC"/>
<path d="M251.168 186L170.5 234.5" stroke="white" stroke-width="1.97959"/>
<g filter="url(#filter1_d_5470_4974)">
<rect x="99" y="213" width="74" height="74" rx="37" fill="#D05503" shape-rendering="crispEdges"/>
<path d="M123.288 238.415C123.523 238.38 123.799 238.413 124.04 238.414L147.04 238.416C149.049 238.415 150.171 238.195 151.7 239.875C151.492 240.04 151.258 240.184 151.04 240.337L143.746 245.501C142.074 246.706 140.385 247.901 138.685 249.066C138.108 249.461 137.553 249.904 136.959 250.271C135.662 251.073 134.782 250.091 133.77 249.363L124.132 242.561C122.891 241.689 121.668 240.781 120.393 239.96C121.109 239.049 122.127 238.497 123.288 238.415Z" fill="white"/>
<path d="M152.389 241.612L152.414 241.655C152.363 242.201 152.389 242.764 152.389 243.313L152.39 257.123C152.392 258.509 152.422 259.396 151.356 260.476C150.653 261.188 149.857 261.496 148.867 261.503L123.7 261.504C121.819 261.504 120.195 260.847 119.715 258.775C119.588 258.227 119.608 257.678 119.609 257.12L119.609 250.716L119.609 244.645C119.609 243.636 119.588 242.621 119.609 241.612C119.991 241.833 120.351 242.125 120.713 242.379L133.841 251.586C135.859 252.983 136.485 252.762 138.551 251.303L151.003 242.543C151.455 242.231 151.905 241.869 152.389 241.612Z" fill="white"/>
</g>
</g>
<defs>
<filter id="filter0_d_5470_4974" x="200.427" y="92.8865" width="141.126" height="141.146" filterUnits="userSpaceOnUse" color-interpolation-filters="sRGB">
<feFlood flood-opacity="0" result="BackgroundImageFix"/>
<feColorMatrix in="SourceAlpha" type="matrix" values="0 0 0 0 0 0 0 0 0 0 0 0 0 0 0 0 0 0 127 0" result="hardAlpha"/>
<feOffset dy="3.45946"/>
<feGaussianBlur stdDeviation="19.2865"/>
<feComposite in2="hardAlpha" operator="out"/>
<feColorMatrix type="matrix" values="0 0 0 0 0 0 0 0 0 0 0 0 0 0 0 0 0 0 0.25 0"/>
<feBlend mode="normal" in2="BackgroundImageFix" result="effect1_dropShadow_5470_4974"/>
<feBlend mode="normal" in="SourceGraphic" in2="effect1_dropShadow_5470_4974" result="shape"/>
</filter>
<filter id="filter1_d_5470_4974" x="52.9965" y="171.485" width="166.007" height="166.007" filterUnits="userSpaceOnUse" color-interpolation-filters="sRGB">
<feFlood flood-opacity="0" result="BackgroundImageFix"/>
<feColorMatrix in="SourceAlpha" type="matrix" values="0 0 0 0 0 0 0 0 0 0 0 0 0 0 0 0 0 0 127 0" result="hardAlpha"/>
<feOffset dy="4.48814"/>
<feGaussianBlur stdDeviation="23.0017"/>
<feComposite in2="hardAlpha" operator="out"/>
<feColorMatrix type="matrix" values="0 0 0 0 0 0 0 0 0 0 0 0 0 0 0 0 0 0 0.25 0"/>
<feBlend mode="normal" in2="BackgroundImageFix" result="effect1_dropShadow_5470_4974"/>
<feBlend mode="normal" in="SourceGraphic" in2="effect1_dropShadow_5470_4974" result="shape"/>
</filter>
<linearGradient id="paint0_linear_5470_4974" x1="200.5" y1="0" x2="200.5" y2="337" gradientUnits="userSpaceOnUse">
<stop stop-color="#BAF4EC"/>
<stop offset="1" stop-color="#E7FFFC"/>
</linearGradient>
<clipPath id="clip0_5470_4974">
<rect width="401" height="337" fill="white"/>
</clipPath>
</defs>
</svg>
