<svg width="158" height="33" viewBox="0 0 158 33" fill="none" xmlns="http://www.w3.org/2000/svg">
<path d="M150.027 21.6686C150.027 20.9352 150.561 20.4019 151.362 20.4019C152.163 20.4019 152.697 20.9352 152.697 21.6686C152.697 22.402 152.163 22.9353 151.362 22.9353C150.561 22.9353 150.027 22.402 150.027 21.6686Z" fill="#717680"/>
<path d="M133.408 28.1362V29.803C133.408 29.803 133.408 29.9363 133.274 29.9363H131.806C131.806 29.9363 131.673 29.9363 131.673 29.803V28.1362L129.938 25.2027C129.938 25.136 129.938 25.0693 130.004 25.0693H131.539H131.606L132.474 26.6028C132.474 26.6028 132.607 26.6028 132.674 26.6028L133.541 25.0693C133.541 25.0693 133.541 25.0693 133.608 25.0693H135.01C135.076 25.0693 135.143 25.136 135.076 25.2027L133.341 28.1362H133.408Z" fill="#717680"/>
<path d="M139.414 28.8691V29.7358C139.414 29.7358 139.414 29.8025 139.347 29.8025H135.61C135.61 29.8025 135.543 29.8025 135.543 29.7358V25.0022C135.543 25.0022 135.543 24.9355 135.61 24.9355H139.28C139.28 24.9355 139.347 24.9355 139.347 25.0022V25.8689C139.347 25.8689 139.347 25.9356 139.28 25.9356H137.011C137.011 25.9356 136.944 25.9356 136.944 26.0023V26.669C136.944 26.669 136.944 26.7357 137.011 26.7357H139.013C139.013 26.7357 139.08 26.7357 139.08 26.8023V27.669C139.08 27.669 139.08 27.7357 139.013 27.7357H137.011C137.011 27.7357 136.944 27.7357 136.944 27.8024V28.5358C136.944 28.5358 136.944 28.6024 137.011 28.6024H139.414C139.414 28.6024 139.481 28.6024 139.481 28.6691L139.414 28.8691Z" fill="#717680"/>
<path d="M143.416 28.9358H141.48H141.414L141.08 29.8025C141.08 29.8025 141.08 29.8025 141.013 29.8025H139.812C139.812 29.8025 139.679 29.7358 139.745 29.6692L141.814 24.9355C141.814 24.9355 141.814 24.9355 141.881 24.9355H143.149H143.216L145.285 29.6692C145.285 29.6692 145.285 29.8025 145.218 29.8025H143.95H143.883L143.549 28.9358C143.549 28.9358 143.549 28.9358 143.483 28.9358H143.416ZM143.015 27.7357L142.548 26.5356C142.548 26.469 142.415 26.469 142.348 26.5356L141.881 27.7357C141.881 27.7357 141.881 27.8691 141.948 27.8691H142.949C142.949 27.8691 143.082 27.8691 143.015 27.7357Z" fill="#717680"/>
<path d="M147.822 28.5358H147.222C147.222 28.5358 147.155 28.5358 147.155 28.6024V29.7358C147.155 29.7358 147.155 29.8025 147.088 29.8025H145.887C145.887 29.8025 145.82 29.8025 145.82 29.7358V25.0022C145.82 25.0022 145.82 24.9355 145.887 24.9355H148.023C149.357 24.9355 150.225 25.6023 150.225 26.7357C150.225 27.8691 149.891 27.9357 149.357 28.2691C149.357 28.2691 149.357 28.3358 149.357 28.4024L150.292 29.7358C150.292 29.7358 150.292 29.8692 150.225 29.8692H148.957C148.957 29.8692 148.957 29.8692 148.89 29.8692L148.023 28.6691C148.023 28.6691 148.023 28.6691 147.956 28.6691L147.822 28.5358ZM147.889 26.0689H147.222C147.222 26.0689 147.155 26.0689 147.155 26.1356V27.4024C147.155 27.4024 147.155 27.469 147.222 27.469H147.889C148.49 27.469 148.757 27.2024 148.757 26.7357C148.757 26.269 148.49 26.0023 147.889 26.0023V26.0689Z" fill="#717680"/>
<path fill-rule="evenodd" clip-rule="evenodd" d="M133.413 12.4009C134.48 12.4009 135.548 12.6676 136.483 13.2676C136.75 13.4676 136.95 13.6676 137.217 13.8677C137.884 14.5344 138.418 15.4011 138.618 16.4011C138.752 17.4012 139.219 18.2679 139.953 19.0013C140.821 19.868 142.022 20.4014 143.29 20.4014C144.558 20.4014 145.759 19.9347 146.627 19.0013C147.494 18.1346 148.028 16.9345 148.028 15.6678C148.028 14.401 147.561 13.2009 146.627 12.3342C145.759 11.4675 144.558 10.9341 143.29 10.9341C142.022 10.9341 140.821 11.4008 139.953 12.3342C139.352 12.9343 138.885 13.7343 138.685 14.601C138.218 13.801 137.55 13.0676 136.683 12.6009C137.017 11.8675 137.55 11.1342 138.151 10.5341C139.553 9.13403 141.354 8.40066 143.29 8.40066C145.225 8.40066 147.094 9.13403 148.429 10.5341C149.83 11.9342 150.564 13.7343 150.564 15.6678C150.564 17.6012 149.83 19.468 148.429 20.8014C147.027 22.2015 145.225 22.9349 143.29 22.9349C141.354 22.9349 139.486 22.2015 138.151 20.8014C137.15 19.8014 136.416 18.4679 136.149 17.0679C136.015 16.5345 135.815 16.0678 135.415 15.7344C134.347 14.6677 132.545 14.6677 131.544 15.7344C131.477 15.8011 131.344 15.9344 131.277 16.0678C131.277 16.1345 131.21 16.2011 131.144 16.2678C130.877 16.7345 130.81 17.2012 130.81 17.6679C130.81 18.4013 131.077 19.068 131.611 19.5347C132.679 20.6014 134.48 20.6014 135.482 19.5347C136.483 18.4679 135.882 19.0013 136.015 18.7346C136.282 19.668 136.816 20.4681 137.55 21.0681C137.484 21.1348 137.35 21.2681 137.283 21.3348C135.215 23.4016 131.811 23.4016 129.742 21.3348C128.741 20.3347 128.207 19.068 128.207 17.6679C128.207 16.7345 128.407 15.8011 128.874 15.0011L132.745 8.33398H135.682L133.346 12.3342L133.413 12.4009Z" fill="#717680"/>
<path fill-rule="evenodd" clip-rule="evenodd" d="M5.7416 15.6676C5.7416 15.6676 5.07422 15.6676 5.07422 15.0676V3.80023C5.07422 3.80023 5.07422 3.2002 5.7416 3.2002H10.2131C10.2131 3.2002 12.5489 3.2002 14.6178 4.06691C14.818 4.13359 16.4198 4.86696 17.2874 6.53373C17.3541 6.66707 18.0215 7.80048 18.0215 9.66726C18.0215 9.8006 18.0215 11.334 17.3541 12.5341C17.3541 12.5341 16.62 13.8675 15.2852 14.6676C15.1517 14.7342 13.817 15.6676 11.5478 15.6676C11.3476 15.6676 5.80834 15.6676 5.80834 15.6676M12.0818 11.534C13.1496 10.934 13.0828 9.66726 13.1496 9.60059C13.1496 8.2005 12.3487 7.73381 12.282 7.66713C11.4811 7.13377 10.2798 7.13377 10.2798 7.13377C10.0129 7.13377 10.0129 7.40045 10.0129 7.40045V11.734C10.0129 11.9341 10.2798 11.9341 10.2798 11.9341C11.6146 11.9341 12.0818 11.6007 12.1485 11.534" fill="#717680"/>
<path fill-rule="evenodd" clip-rule="evenodd" d="M32.0352 3.80023C32.0352 3.80023 32.0352 3.2002 32.7025 3.2002H36.3064C36.3064 3.2002 36.9738 3.2002 36.9738 3.80023V11.0673C36.9738 11.0673 36.9738 11.6674 37.6412 11.6674H40.4442C40.4442 11.6674 41.1116 11.6674 41.1116 12.2674V15.0676C41.1116 15.0676 41.1116 15.6676 40.4442 15.6676H32.7693C32.7693 15.6676 32.1019 15.6676 32.1019 15.0676V3.80023H32.0352Z" fill="#717680"/>
<path fill-rule="evenodd" clip-rule="evenodd" d="M55.4633 8.33411H49.2566C48.6559 8.33411 48.5892 8.93414 48.5892 8.93414V11.2676H50.5246C50.7248 11.2676 50.6581 11.4676 50.6581 11.5343C50.0574 12.401 48.7894 12.401 48.6559 12.401C47.3212 12.401 46.7205 11.2676 46.6538 11.2009C46.2533 10.4676 46.2534 9.66752 46.2534 9.60085C46.3201 8.40078 46.9875 7.73407 47.0542 7.6674C47.9218 6.86735 48.8561 6.93402 48.9229 6.93402C49.7905 6.93402 50.3244 7.40072 50.3911 7.46739C50.7248 7.86741 51.3255 7.6674 51.3255 7.6674C51.3255 7.6674 55.1296 6.33399 55.263 6.33399C54.6624 5.00057 52.9272 4.20052 52.8605 4.13385C51.9261 3.66716 50.9918 3.46714 50.8583 3.40047C49.7237 3.13379 48.6559 3.13379 48.4557 3.13379C47.2544 3.13379 46.3201 3.40047 46.1866 3.46714C44.5849 3.86717 43.4503 4.86723 43.3169 5.00057C42.3158 5.93396 41.9154 6.93402 41.8486 7.06736C41.248 8.40078 41.3147 9.73419 41.3147 9.86753C41.3147 11.0676 41.6484 11.801 41.7151 11.9343C42.1823 13.1344 43.0499 14.0011 43.1834 14.0678C44.3847 15.1345 45.6527 15.5345 45.8529 15.5345C47.3879 16.0012 48.7894 15.9346 48.9229 15.9346C50.6581 15.9346 51.9929 15.2679 52.1263 15.2012C53.0607 14.8012 53.8615 14.1345 53.995 14.0678C54.7291 13.4678 55.1963 12.6677 55.263 12.5344C55.8637 11.401 55.9304 10.0675 55.9304 10.0675V9.00081C55.9304 9.06749 55.9304 8.40078 55.3298 8.40078" fill="#717680"/>
<path fill-rule="evenodd" clip-rule="evenodd" d="M82.6246 3.2002C82.6246 3.2002 83.0918 3.40021 82.8248 3.80023C82.7581 3.93357 79.2877 8.93388 79.2877 8.93388C79.2877 8.93388 79.0207 9.20056 79.2877 9.53392C79.2877 9.60059 83.292 15.0676 83.292 15.0676C83.292 15.0676 83.6924 15.6676 83.0918 15.6676H78.6203C78.6203 15.6676 78.0864 15.6676 77.686 15.0676C77.6192 14.9342 74.9497 10.4673 74.9497 10.4673C74.9497 10.4673 74.9497 10.4006 74.8162 10.4673V15.0676C74.883 15.0676 74.883 15.6676 74.2823 15.6676H70.8119C70.8119 15.6676 70.1445 15.6676 70.1445 15.0676V3.80023C70.1445 3.80023 70.1445 3.2002 70.8119 3.2002H74.2823C74.2823 3.2002 74.883 3.2002 74.883 3.80023C74.883 4.00024 74.8162 8.53385 74.8162 8.53385C74.8162 8.53385 74.883 8.6672 74.9497 8.53385C74.9497 8.46718 75.884 6.73374 75.884 6.73374L77.6192 3.80023C77.6192 3.80023 78.0197 3.2002 78.6203 3.2002H82.6246Z" fill="#717680"/>
<path fill-rule="evenodd" clip-rule="evenodd" d="M88.7674 15.6676C88.7674 15.6676 89.4347 15.6676 89.4347 15.0676V3.80023C89.4347 3.80023 89.4347 3.2002 88.7674 3.2002H85.1635C85.1635 3.2002 84.4961 3.2002 84.4961 3.80023V15.0676C84.4961 15.0676 84.4961 15.6676 85.1635 15.6676H88.7674Z" fill="#717680"/>
<path fill-rule="evenodd" clip-rule="evenodd" d="M91.9021 3.2002H97.1744C97.1744 3.2002 99.1766 3.2002 100.578 3.93357C100.712 3.93357 101.779 4.53361 102.247 5.60034C102.247 5.66701 102.647 6.46706 102.647 7.53379C102.647 7.60046 102.647 8.53385 102.313 9.13389C102.313 9.26723 101.846 10.2006 100.178 10.734C100.178 10.734 99.9774 10.734 100.111 10.934C100.111 10.934 100.645 11.2674 100.912 11.6674L103.381 15.0676C103.381 15.0676 103.915 15.7343 103.181 15.6676H98.8429C98.8429 15.6676 98.1755 15.6676 97.9085 15.0676C97.9085 14.9342 96.1066 11.7341 96.1066 11.7341H95.9731V15.0676C95.9731 15.0676 95.9731 15.6676 95.3058 15.6676H91.8354C91.8354 15.6676 91.168 15.6676 91.168 15.0676V3.80023C91.168 3.80023 91.168 3.2002 91.8354 3.2002M96.0399 8.60053C96.0399 8.73387 96.3068 8.73387 96.3068 8.73387H96.507C97.1077 8.73387 97.3746 8.60053 97.4414 8.60053C97.7751 8.46718 97.9085 8.2005 97.9085 8.2005C97.9753 8.00049 97.9753 7.66714 97.9753 7.66714C97.9753 7.33378 97.7751 7.0671 97.7751 7.0671C97.6416 6.86709 97.3079 6.73374 97.3079 6.73374C96.9742 6.6004 96.3068 6.66707 96.1734 6.66707C96.0399 6.66707 96.0399 6.80042 96.0399 6.80042V8.6672V8.60053Z" fill="#717680"/>
<path fill-rule="evenodd" clip-rule="evenodd" d="M126.875 9.3339C124.672 6.00037 123.337 3.60022 123.337 3.60022C123.337 3.53355 123.204 3.40021 123.07 3.33354C122.937 3.26687 122.804 3.2002 122.67 3.2002C121.402 3.2002 120.201 3.2002 118.933 3.2002C118.332 3.2002 118.332 3.80023 118.332 3.80023V15.0676C118.332 15.6676 118.933 15.6676 118.933 15.6676H122.336C122.937 15.6676 122.937 15.0676 122.937 15.0676V9.66726C122.937 9.66726 122.937 9.53392 123.137 9.66726C123.137 9.66726 126.274 14.4675 126.674 15.0676C127.075 15.6676 127.609 15.6676 127.609 15.6676C129.01 13.2675 130.478 10.8007 131.88 8.40051C131.88 6.86709 131.746 5.33366 131.746 3.80023C131.746 3.2002 131.079 3.2002 131.079 3.2002H127.609C127.075 3.2002 127.075 3.80023 127.075 3.80023V9.3339C127.075 9.3339 127.075 9.40057 126.941 9.40057C126.941 9.40057 126.875 9.40057 126.808 9.3339H126.875Z" fill="#717680"/>
<path fill-rule="evenodd" clip-rule="evenodd" d="M17.8865 15.6676C17.8865 15.6676 17.2858 15.6676 17.5528 15.0676C17.5528 14.9342 18.0867 13.7342 18.0867 13.7342L22.0242 3.80023C22.0242 3.80023 22.2912 3.2002 22.8918 3.2002H25.6949C25.6949 3.2002 26.429 3.2002 26.3622 3.80023C26.3622 3.93357 25.8951 5.06698 25.8951 5.06698L22.2912 15.0676C22.2912 15.0676 22.091 15.6676 21.4236 15.6676H17.9532" fill="#717680"/>
<path fill-rule="evenodd" clip-rule="evenodd" d="M30.6324 15.135C30.6324 15.135 30.8326 15.6684 30.232 15.6684C29.6313 15.6684 23.6249 15.6684 23.6249 15.6684C23.6249 15.6684 23.0242 15.6684 23.2245 15.135C23.4247 14.6017 26.5614 5.80114 26.5614 5.80114C26.5614 5.80114 26.8283 5.53446 27.162 5.80114C27.162 5.93448 30.5657 15.135 30.5657 15.135" fill="#717680"/>
<path fill-rule="evenodd" clip-rule="evenodd" d="M56.1951 15.6676C56.1951 15.6676 55.5944 15.6676 55.8614 15.0676C55.8614 14.9342 56.3953 13.7342 56.3953 13.7342L60.3328 3.80023C60.3328 3.80023 60.5998 3.2002 61.2004 3.2002H64.0035C64.0035 3.2002 64.7376 3.2002 64.6708 3.80023C64.6708 3.93357 64.2037 5.06698 64.2037 5.06698L60.5998 15.0676C60.5998 15.0676 60.3996 15.6676 59.7322 15.6676H56.2618" fill="#717680"/>
<path fill-rule="evenodd" clip-rule="evenodd" d="M68.941 15.135C68.941 15.135 69.1412 15.6684 68.5406 15.6684C67.9399 15.6684 61.9335 15.6684 61.9335 15.6684C61.9335 15.6684 61.3328 15.6684 61.533 15.135C61.7333 14.6017 64.87 5.80114 64.87 5.80114C64.87 5.80114 65.1369 5.53446 65.4706 5.80114C65.4706 5.93448 68.8743 15.135 68.8743 15.135" fill="#717680"/>
<path fill-rule="evenodd" clip-rule="evenodd" d="M104.515 15.6676C104.515 15.6676 103.915 15.6676 104.182 15.0676C104.182 14.9342 104.716 13.7342 104.716 13.7342L108.653 3.80023C108.653 3.80023 108.92 3.2002 109.521 3.2002H112.324C112.324 3.2002 113.058 3.2002 112.991 3.80023C112.991 3.93357 112.524 5.06698 112.524 5.06698L108.92 15.0676C108.92 15.0676 108.72 15.6676 108.052 15.6676H104.582" fill="#717680"/>
<path fill-rule="evenodd" clip-rule="evenodd" d="M117.261 15.135C117.261 15.135 117.462 15.6684 116.861 15.6684C116.26 15.6684 110.254 15.6684 110.254 15.6684C110.254 15.6684 109.653 15.6684 109.853 15.135C110.054 14.6017 113.19 5.80114 113.19 5.80114C113.19 5.80114 113.457 5.53446 113.791 5.80114C113.791 5.93448 117.195 15.135 117.195 15.135" fill="#717680"/>
</svg>
