<svg width="401" height="337" viewBox="0 0 401 337" fill="none" xmlns="http://www.w3.org/2000/svg">
<rect width="401" height="337" fill="url(#paint0_linear_5470_6613)"/>
<g filter="url(#filter0_d_5470_6613)">
<rect x="50" y="38" width="302" height="261.768" rx="14.2677" fill="white" shape-rendering="crispEdges"/>
<rect x="50.2972" y="38.2972" width="301.406" height="261.174" rx="13.9705" stroke="#F1F3F7" stroke-width="0.594488" shape-rendering="crispEdges"/>
<path d="M69.8763 66.0237V57.3766H73.119C73.7833 57.3766 74.3406 57.492 74.791 57.7228C75.2442 57.9536 75.5862 58.2773 75.817 58.6939C76.0506 59.1077 76.1674 59.5904 76.1674 60.1421C76.1674 60.6966 76.0492 61.178 75.8128 61.5861C75.5791 61.9914 75.2343 62.3053 74.7783 62.5277C74.3223 62.7472 73.7622 62.857 73.0979 62.857H70.7883V61.5566H72.8868C73.2752 61.5566 73.5933 61.5031 73.841 61.3961C74.0887 61.2863 74.2717 61.1273 74.3899 60.919C74.5109 60.7079 74.5714 60.4489 74.5714 60.1421C74.5714 59.8353 74.5109 59.5735 74.3899 59.3568C74.2688 59.1372 74.0845 58.9712 73.8368 58.8586C73.5891 58.7432 73.2696 58.6855 72.8783 58.6855H71.4428V66.0237H69.8763ZM74.3434 62.1054L76.4841 66.0237H74.7361L72.6334 62.1054H74.3434ZM80.32 66.1503C79.6698 66.1503 79.1082 66.0152 78.6353 65.745C78.1652 65.472 77.8035 65.0863 77.5502 64.5881C77.2969 64.0871 77.1702 63.4974 77.1702 62.819C77.1702 62.1519 77.2969 61.5664 77.5502 61.0626C77.8064 60.5559 78.1638 60.1618 78.6226 59.8803C79.0815 59.596 79.6205 59.4539 80.2398 59.4539C80.6395 59.4539 81.0166 59.5186 81.3713 59.6481C81.7288 59.7748 82.0441 59.9718 82.3171 60.2392C82.5929 60.5066 82.8097 60.8472 82.9673 61.261C83.1249 61.672 83.2038 62.1617 83.2038 62.7303V63.199H77.888V62.1688H81.7386C81.7358 61.876 81.6725 61.6157 81.5486 61.3877C81.4248 61.1569 81.2517 60.9753 81.0293 60.843C80.8098 60.7107 80.5536 60.6446 80.2609 60.6446C79.9484 60.6446 79.674 60.7206 79.4375 60.8726C79.2011 61.0217 79.0167 61.2188 78.8844 61.4637C78.7549 61.7057 78.6888 61.9717 78.686 62.2617V63.161C78.686 63.5382 78.7549 63.8619 78.8929 64.1321C79.0308 64.3995 79.2236 64.605 79.4713 64.7486C79.719 64.8893 80.0089 64.9597 80.3411 64.9597C80.5635 64.9597 80.7647 64.9287 80.9449 64.8668C81.125 64.802 81.2812 64.7077 81.4135 64.5839C81.5458 64.46 81.6458 64.3066 81.7133 64.1237L83.1404 64.2841C83.0503 64.6613 82.8786 64.9906 82.6253 65.2721C82.3748 65.5508 82.0539 65.7675 81.6626 65.9223C81.2714 66.0743 80.8238 66.1503 80.32 66.1503ZM87.3257 66.1503C86.6783 66.1503 86.1224 66.0082 85.6579 65.7239C85.1963 65.4396 84.8402 65.0469 84.5897 64.5459C84.342 64.042 84.2181 63.4622 84.2181 62.8063C84.2181 62.1477 84.3448 61.5664 84.5981 61.0626C84.8515 60.5559 85.209 60.1618 85.6706 59.8803C86.135 59.596 86.6839 59.4539 87.3172 59.4539C87.8436 59.4539 88.3095 59.551 88.7148 59.7452C89.123 59.9366 89.4481 60.2083 89.6901 60.5601C89.9322 60.9092 90.0701 61.3173 90.1039 61.7846H88.643C88.5839 61.4721 88.4432 61.2117 88.2208 61.0034C88.0012 60.7923 87.7071 60.6868 87.3384 60.6868C87.0259 60.6868 86.7515 60.7712 86.515 60.9401C86.2786 61.1062 86.0942 61.3454 85.9619 61.6579C85.8324 61.9703 85.7677 62.3447 85.7677 62.781C85.7677 63.2229 85.8324 63.6029 85.9619 63.921C86.0914 64.2363 86.273 64.4797 86.5066 64.6514C86.743 64.8203 87.0203 64.9048 87.3384 64.9048C87.5635 64.9048 87.7648 64.8626 87.9421 64.7781C88.1223 64.6909 88.2729 64.5656 88.3939 64.4023C88.515 64.2391 88.598 64.0406 88.643 63.807H90.1039C90.0673 64.2658 89.9322 64.6726 89.6986 65.0272C89.465 65.3791 89.1469 65.6549 88.7444 65.8548C88.3418 66.0518 87.869 66.1503 87.3257 66.1503ZM91.359 66.0237V59.5383H92.841V60.6192H92.9085C93.0267 60.2449 93.2294 59.9563 93.5165 59.7537C93.8064 59.5482 94.1372 59.4455 94.5087 59.4455C94.5932 59.4455 94.6875 59.4497 94.7916 59.4581C94.8986 59.4637 94.9873 59.4736 95.0576 59.4877V60.8937C94.9929 60.8712 94.8901 60.8514 94.7494 60.8346C94.6115 60.8149 94.4778 60.805 94.3483 60.805C94.0696 60.805 93.8191 60.8655 93.5967 60.9866C93.3772 61.1048 93.2041 61.2694 93.0774 61.4806C92.9507 61.6917 92.8874 61.9352 92.8874 62.211V66.0237H91.359ZM100.207 63.2961V59.5383H101.735V66.0237H100.253V64.871H100.186C100.039 65.2341 99.7985 65.5311 99.4635 65.7619C99.1314 65.9927 98.7218 66.1081 98.2348 66.1081C97.8098 66.1081 97.434 66.0138 97.1075 65.8252C96.7838 65.6338 96.5305 65.3566 96.3475 64.9934C96.1646 64.6275 96.0731 64.1856 96.0731 63.6677V59.5383H97.6015V63.4312C97.6015 63.8422 97.7141 64.1687 97.9393 64.4108C98.1645 64.6529 98.46 64.7739 98.826 64.7739C99.0511 64.7739 99.2693 64.719 99.4804 64.6092C99.6915 64.4994 99.8646 64.3362 99.9997 64.1194C100.138 63.8999 100.207 63.6254 100.207 63.2961ZM103.307 66.0237V59.5383H104.835V66.0237H103.307ZM104.075 58.6179C103.833 58.6179 103.625 58.5377 103.45 58.3772C103.276 58.214 103.189 58.0183 103.189 57.7903C103.189 57.5595 103.276 57.3639 103.45 57.2035C103.625 57.0402 103.833 56.9586 104.075 56.9586C104.32 56.9586 104.528 57.0402 104.7 57.2035C104.875 57.3639 104.962 57.5595 104.962 57.7903C104.962 58.0183 104.875 58.214 104.7 58.3772C104.528 58.5377 104.32 58.6179 104.075 58.6179ZM109.645 59.5383V60.7206H105.917V59.5383H109.645ZM106.838 57.9846H108.366V64.073C108.366 64.2785 108.397 64.4361 108.459 64.5459C108.524 64.6529 108.608 64.726 108.712 64.7654C108.816 64.8049 108.932 64.8246 109.059 64.8246C109.154 64.8246 109.241 64.8175 109.32 64.8034C109.402 64.7894 109.464 64.7767 109.506 64.7654L109.764 65.9603C109.682 65.9885 109.565 66.0194 109.413 66.0532C109.264 66.087 109.081 66.1067 108.864 66.1123C108.481 66.1236 108.137 66.0659 107.83 65.9392C107.523 65.8097 107.28 65.6099 107.099 65.3397C106.922 65.0694 106.835 64.7317 106.838 64.3263V57.9846ZM110.924 66.0237V59.5383H112.452V66.0237H110.924ZM111.692 58.6179C111.45 58.6179 111.242 58.5377 111.067 58.3772C110.893 58.214 110.805 58.0183 110.805 57.7903C110.805 57.5595 110.893 57.3639 111.067 57.2035C111.242 57.0402 111.45 56.9586 111.692 56.9586C111.937 56.9586 112.145 57.0402 112.317 57.2035C112.492 57.3639 112.579 57.5595 112.579 57.7903C112.579 58.0183 112.492 58.214 112.317 58.3772C112.145 58.5377 111.937 58.6179 111.692 58.6179ZM115.552 62.2237V66.0237H114.024V59.5383H115.485V60.6403H115.561C115.71 60.2772 115.948 59.9887 116.274 59.7748C116.604 59.5609 117.01 59.4539 117.494 59.4539C117.942 59.4539 118.332 59.5496 118.664 59.741C118.999 59.9324 119.258 60.2097 119.441 60.5728C119.627 60.9359 119.718 61.3764 119.715 61.8943V66.0237H118.187V62.1308C118.187 61.6973 118.074 61.3581 117.849 61.1132C117.627 60.8683 117.319 60.7459 116.924 60.7459C116.657 60.7459 116.419 60.805 116.211 60.9232C116.005 61.0386 115.844 61.2061 115.725 61.4257C115.61 61.6452 115.552 61.9112 115.552 62.2237ZM124.09 68.5908C123.541 68.5908 123.069 68.5162 122.675 68.367C122.281 68.2206 121.964 68.0236 121.725 67.7759C121.486 67.5282 121.32 67.2537 121.227 66.9526L122.603 66.619C122.665 66.7457 122.755 66.8709 122.874 66.9948C122.992 67.1214 123.151 67.2256 123.351 67.3072C123.553 67.3917 123.808 67.4339 124.115 67.4339C124.548 67.4339 124.907 67.3283 125.192 67.1172C125.476 66.9089 125.618 66.5655 125.618 66.087V64.8583H125.542C125.463 65.016 125.348 65.1778 125.196 65.3439C125.047 65.51 124.848 65.6493 124.6 65.7619C124.356 65.8745 124.047 65.9308 123.676 65.9308C123.178 65.9308 122.726 65.814 122.32 65.5803C121.918 65.3439 121.597 64.992 121.358 64.5248C121.121 64.0547 121.003 63.4664 121.003 62.7599C121.003 62.0477 121.121 61.4468 121.358 60.957C121.597 60.4644 121.919 60.0915 122.325 59.8381C122.73 59.582 123.182 59.4539 123.68 59.4539C124.06 59.4539 124.372 59.5186 124.617 59.6481C124.865 59.7748 125.062 59.9282 125.208 60.1083C125.355 60.2857 125.466 60.4532 125.542 60.6108H125.626V59.5383H127.134V66.1292C127.134 66.6837 127.002 67.1426 126.737 67.5057C126.472 67.8688 126.111 68.1404 125.652 68.3206C125.193 68.5007 124.672 68.5908 124.09 68.5908ZM124.102 64.7317C124.426 64.7317 124.702 64.6529 124.93 64.4952C125.158 64.3376 125.331 64.111 125.449 63.8154C125.567 63.5199 125.626 63.1652 125.626 62.7514C125.626 62.3433 125.567 61.9858 125.449 61.679C125.334 61.3722 125.162 61.1343 124.934 60.9654C124.709 60.7937 124.432 60.7079 124.102 60.7079C123.762 60.7079 123.477 60.7966 123.249 60.9739C123.021 61.1512 122.85 61.3947 122.734 61.7043C122.619 62.0112 122.561 62.3602 122.561 62.7514C122.561 63.1483 122.619 63.496 122.734 63.7943C122.852 64.0899 123.026 64.3207 123.254 64.4868C123.484 64.65 123.767 64.7317 124.102 64.7317ZM133.516 66.1546C133.105 66.1546 132.735 66.0814 132.405 65.935C132.079 65.7858 131.82 65.5663 131.628 65.2763C131.44 64.9864 131.345 64.6289 131.345 64.2039C131.345 63.838 131.413 63.5354 131.548 63.2961C131.683 63.0569 131.868 62.8654 132.101 62.7219C132.335 62.5783 132.598 62.47 132.891 62.3968C133.186 62.3208 133.492 62.2659 133.807 62.2321C134.187 62.1927 134.495 62.1575 134.732 62.1266C134.968 62.0928 135.14 62.0421 135.247 61.9746C135.357 61.9042 135.411 61.7958 135.411 61.6494V61.6241C135.411 61.306 135.317 61.0597 135.129 60.8852C134.94 60.7107 134.668 60.6235 134.314 60.6235C133.939 60.6235 133.642 60.7051 133.423 60.8683C133.206 61.0316 133.06 61.2244 132.984 61.4468L131.557 61.2441C131.669 60.85 131.855 60.5207 132.114 60.2561C132.373 59.9887 132.69 59.7889 133.064 59.6566C133.438 59.5215 133.852 59.4539 134.305 59.4539C134.618 59.4539 134.929 59.4905 135.238 59.5637C135.548 59.6369 135.831 59.7579 136.087 59.9268C136.343 60.0929 136.549 60.3195 136.703 60.6066C136.861 60.8937 136.94 61.2526 136.94 61.6832V66.0237H135.471V65.1328H135.42C135.327 65.3129 135.196 65.4818 135.027 65.6394C134.861 65.7943 134.651 65.9195 134.398 66.0152C134.148 66.1081 133.853 66.1546 133.516 66.1546ZM133.913 65.0314C134.219 65.0314 134.485 64.9709 134.711 64.8499C134.936 64.726 135.109 64.5628 135.23 64.3601C135.354 64.1574 135.416 63.9365 135.416 63.6972V62.933C135.368 62.9724 135.286 63.009 135.171 63.0428C135.058 63.0766 134.932 63.1061 134.791 63.1314C134.65 63.1568 134.511 63.1793 134.373 63.199C134.235 63.2187 134.115 63.2356 134.014 63.2497C133.786 63.2806 133.582 63.3313 133.402 63.4017C133.222 63.472 133.079 63.5706 132.975 63.6972C132.871 63.8211 132.819 63.9815 132.819 64.1786C132.819 64.46 132.922 64.6726 133.127 64.8161C133.333 64.9597 133.595 65.0314 133.913 65.0314ZM140.005 62.2237V66.0237H138.477V59.5383H139.938V60.6403H140.014C140.163 60.2772 140.401 59.9887 140.727 59.7748C141.057 59.5609 141.463 59.4539 141.947 59.4539C142.395 59.4539 142.785 59.5496 143.117 59.741C143.452 59.9324 143.711 60.2097 143.894 60.5728C144.08 60.9359 144.171 61.3764 144.168 61.8943V66.0237H142.64V62.1308C142.64 61.6973 142.527 61.3581 142.302 61.1132C142.08 60.8683 141.772 60.7459 141.377 60.7459C141.11 60.7459 140.872 60.805 140.664 60.9232C140.458 61.0386 140.297 61.2061 140.178 61.4257C140.063 61.6452 140.005 61.9112 140.005 62.2237ZM147.588 66.1546C147.177 66.1546 146.807 66.0814 146.478 65.935C146.151 65.7858 145.892 65.5663 145.701 65.2763C145.512 64.9864 145.418 64.6289 145.418 64.2039C145.418 63.838 145.486 63.5354 145.621 63.2961C145.756 63.0569 145.94 62.8654 146.174 62.7219C146.408 62.5783 146.671 62.47 146.963 62.3968C147.259 62.3208 147.564 62.2659 147.88 62.2321C148.26 62.1927 148.568 62.1575 148.804 62.1266C149.041 62.0928 149.212 62.0421 149.319 61.9746C149.429 61.9042 149.484 61.7958 149.484 61.6494V61.6241C149.484 61.306 149.39 61.0597 149.201 60.8852C149.013 60.7107 148.741 60.6235 148.386 60.6235C148.012 60.6235 147.715 60.7051 147.495 60.8683C147.279 61.0316 147.132 61.2244 147.056 61.4468L145.629 61.2441C145.742 60.85 145.928 60.5207 146.187 60.2561C146.446 59.9887 146.762 59.7889 147.137 59.6566C147.511 59.5215 147.925 59.4539 148.378 59.4539C148.69 59.4539 149.001 59.4905 149.311 59.5637C149.621 59.6369 149.904 59.7579 150.16 59.9268C150.416 60.0929 150.621 60.3195 150.776 60.6066C150.934 60.8937 151.013 61.2526 151.013 61.6832V66.0237H149.543V65.1328H149.493C149.4 65.3129 149.269 65.4818 149.1 65.6394C148.934 65.7943 148.724 65.9195 148.471 66.0152C148.22 66.1081 147.926 66.1546 147.588 66.1546ZM147.985 65.0314C148.292 65.0314 148.558 64.9709 148.783 64.8499C149.008 64.726 149.182 64.5628 149.303 64.3601C149.426 64.1574 149.488 63.9365 149.488 63.6972V62.933C149.44 62.9724 149.359 63.009 149.243 63.0428C149.131 63.0766 149.004 63.1061 148.863 63.1314C148.723 63.1568 148.583 63.1793 148.445 63.199C148.308 63.2187 148.188 63.2356 148.087 63.2497C147.859 63.2806 147.654 63.3313 147.474 63.4017C147.294 63.472 147.152 63.5706 147.048 63.6972C146.944 63.8211 146.892 63.9815 146.892 64.1786C146.892 64.46 146.994 64.6726 147.2 64.8161C147.405 64.9597 147.667 65.0314 147.985 65.0314ZM154.078 57.3766V66.0237H152.549V57.3766H154.078ZM156.6 68.4557C156.391 68.4557 156.199 68.4388 156.021 68.405C155.847 68.374 155.707 68.3374 155.603 68.2952L155.958 67.1046C156.18 67.1693 156.379 67.2003 156.553 67.1974C156.728 67.1946 156.881 67.1397 157.013 67.0328C157.149 66.9286 157.263 66.7541 157.355 66.5092L157.486 66.1588L155.135 59.5383H156.756L158.25 64.4361H158.318L159.817 59.5383H161.442L158.846 66.809C158.725 67.1524 158.564 67.4466 158.364 67.6914C158.165 67.9391 157.92 68.1277 157.63 68.2572C157.343 68.3895 156.999 68.4557 156.6 68.4557ZM165.739 59.5383V60.7206H162.01V59.5383H165.739ZM162.931 57.9846H164.459V64.073C164.459 64.2785 164.49 64.4361 164.552 64.5459C164.617 64.6529 164.701 64.726 164.805 64.7654C164.91 64.8049 165.025 64.8246 165.152 64.8246C165.247 64.8246 165.335 64.8175 165.413 64.8034C165.495 64.7894 165.557 64.7767 165.599 64.7654L165.857 65.9603C165.775 65.9885 165.658 66.0194 165.506 66.0532C165.357 66.087 165.174 66.1067 164.957 66.1123C164.575 66.1236 164.23 66.0659 163.923 65.9392C163.616 65.8097 163.373 65.6099 163.193 65.3397C163.015 65.0694 162.928 64.7317 162.931 64.3263V57.9846ZM167.017 66.0237V59.5383H168.545V66.0237H167.017ZM167.785 58.6179C167.543 58.6179 167.335 58.5377 167.16 58.3772C166.986 58.214 166.899 58.0183 166.899 57.7903C166.899 57.5595 166.986 57.3639 167.16 57.2035C167.335 57.0402 167.543 56.9586 167.785 56.9586C168.03 56.9586 168.239 57.0402 168.41 57.2035C168.585 57.3639 168.672 57.5595 168.672 57.7903C168.672 58.0183 168.585 58.214 168.41 58.3772C168.239 58.5377 168.03 58.6179 167.785 58.6179ZM172.946 66.1503C172.299 66.1503 171.743 66.0082 171.278 65.7239C170.817 65.4396 170.46 65.0469 170.21 64.5459C169.962 64.042 169.838 63.4622 169.838 62.8063C169.838 62.1477 169.965 61.5664 170.218 61.0626C170.472 60.5559 170.829 60.1618 171.291 59.8803C171.755 59.596 172.304 59.4539 172.937 59.4539C173.464 59.4539 173.93 59.551 174.335 59.7452C174.743 59.9366 175.068 60.2083 175.31 60.5601C175.552 60.9092 175.69 61.3173 175.724 61.7846H174.263C174.204 61.4721 174.063 61.2117 173.841 61.0034C173.621 60.7923 173.327 60.6868 172.959 60.6868C172.646 60.6868 172.372 60.7712 172.135 60.9401C171.899 61.1062 171.714 61.3454 171.582 61.6579C171.453 61.9703 171.388 62.3447 171.388 62.781C171.388 63.2229 171.453 63.6029 171.582 63.921C171.712 64.2363 171.893 64.4797 172.127 64.6514C172.363 64.8203 172.641 64.9048 172.959 64.9048C173.184 64.9048 173.385 64.8626 173.562 64.7781C173.743 64.6909 173.893 64.5656 174.014 64.4023C174.135 64.2391 174.218 64.0406 174.263 63.807H175.724C175.688 64.2658 175.552 64.6726 175.319 65.0272C175.085 65.3791 174.767 65.6549 174.365 65.8548C173.962 66.0518 173.489 66.1503 172.946 66.1503ZM182.105 61.2526L180.712 61.4046C180.672 61.2638 180.603 61.1315 180.505 61.0077C180.409 60.8838 180.28 60.7839 180.116 60.7079C179.953 60.6319 179.753 60.5939 179.517 60.5939C179.199 60.5939 178.931 60.6629 178.715 60.8008C178.501 60.9387 178.395 61.1174 178.398 61.337C178.395 61.5256 178.464 61.679 178.605 61.7972C178.748 61.9154 178.985 62.0126 179.314 62.0886L180.42 62.325C181.034 62.4573 181.49 62.667 181.788 62.9541C182.089 63.2412 182.241 63.617 182.244 64.0814C182.241 64.4896 182.122 64.8499 181.885 65.1623C181.652 65.472 181.327 65.714 180.91 65.8886C180.493 66.0631 180.015 66.1503 179.475 66.1503C178.681 66.1503 178.042 65.9843 177.558 65.6521C177.073 65.3171 176.785 64.8513 176.692 64.2546L178.183 64.111C178.25 64.4037 178.394 64.6247 178.613 64.7739C178.833 64.9231 179.118 64.9977 179.47 64.9977C179.833 64.9977 180.125 64.9231 180.344 64.7739C180.567 64.6247 180.678 64.4403 180.678 64.2208C180.678 64.035 180.606 63.8816 180.463 63.7606C180.322 63.6395 180.102 63.5466 179.804 63.4819L178.698 63.2497C178.076 63.1202 177.615 62.902 177.317 62.5952C177.019 62.2856 176.871 61.8943 176.874 61.4214C176.871 61.0217 176.979 60.6755 177.199 60.3828C177.421 60.0872 177.729 59.8592 178.123 59.6988C178.52 59.5355 178.978 59.4539 179.496 59.4539C180.256 59.4539 180.854 59.6157 181.29 59.9395C181.729 60.2632 182.001 60.7009 182.105 61.2526Z" fill="#19213D"/>
<rect x="259.457" y="57.0237" width="5.94488" height="5.94488" rx="2.97244" fill="#2388FF"/>
<path d="M271.247 58.6049C271.216 58.3482 271.093 58.1489 270.877 58.007C270.661 57.8652 270.396 57.7942 270.082 57.7942C269.852 57.7942 269.651 57.8314 269.479 57.9057C269.308 57.98 269.175 58.0822 269.078 58.2122C268.984 58.3423 268.936 58.4901 268.936 58.6556C268.936 58.7941 268.969 58.9131 269.035 59.0128C269.103 59.1107 269.189 59.1926 269.294 59.2585C269.398 59.3227 269.508 59.3759 269.623 59.4181C269.738 59.4586 269.843 59.4916 269.94 59.5169L270.467 59.6588C270.602 59.6942 270.752 59.7432 270.918 59.8057C271.085 59.8682 271.244 59.9535 271.396 60.0616C271.55 60.168 271.677 60.3048 271.776 60.472C271.876 60.6392 271.926 60.8444 271.926 61.0876C271.926 61.3679 271.852 61.6213 271.705 61.8476C271.56 62.0739 271.347 62.2537 271.067 62.3872C270.788 62.5206 270.45 62.5873 270.051 62.5873C269.68 62.5873 269.358 62.5273 269.086 62.4074C268.816 62.2875 268.603 62.1203 268.448 61.9058C268.294 61.6913 268.207 61.4422 268.187 61.1585L268.835 61.1585C268.852 61.3544 268.918 61.5165 269.033 61.6449C269.149 61.7716 269.296 61.8661 269.474 61.9286C269.653 61.9894 269.845 62.0198 270.051 62.0198C270.291 62.0198 270.506 61.981 270.697 61.9033C270.888 61.8239 271.039 61.7141 271.151 61.574C271.262 61.4321 271.318 61.2666 271.318 61.0774C271.318 60.9052 271.27 60.765 271.173 60.6569C271.077 60.5488 270.95 60.461 270.793 60.3934C270.636 60.3259 270.467 60.2668 270.284 60.2161L269.646 60.0337C269.24 59.9172 268.92 59.7508 268.683 59.5346C268.447 59.3185 268.328 59.0356 268.328 58.686C268.328 58.3955 268.407 58.1421 268.564 57.926C268.723 57.7081 268.936 57.5392 269.202 57.4193C269.471 57.2977 269.771 57.2369 270.102 57.2369C270.436 57.2369 270.733 57.2969 270.994 57.4168C271.254 57.535 271.46 57.6971 271.612 57.9032C271.765 58.1092 271.846 58.3431 271.855 58.6049L271.247 58.6049ZM274.57 58.6049L274.57 59.1116L272.553 59.1116L272.553 58.6049L274.57 58.6049ZM273.141 57.6726L273.739 57.6726L273.739 61.3814C273.739 61.5503 273.763 61.677 273.812 61.7614C273.863 61.8442 273.927 61.8999 274.005 61.9286C274.084 61.9556 274.168 61.9692 274.256 61.9692C274.322 61.9692 274.376 61.9658 274.418 61.959C274.46 61.9506 274.494 61.9438 274.519 61.9388L274.641 62.4758C274.6 62.491 274.544 62.5062 274.471 62.5214C274.399 62.5383 274.306 62.5468 274.195 62.5468C274.026 62.5468 273.861 62.5104 273.698 62.4378C273.538 62.3652 273.405 62.2546 273.298 62.106C273.193 61.9573 273.141 61.7699 273.141 61.5436L273.141 57.6726ZM275.469 62.4961L275.469 58.6049L276.047 58.6049L276.047 59.1926L276.087 59.1926C276.158 59.0001 276.287 58.8439 276.472 58.724C276.658 58.6041 276.868 58.5441 277.101 58.5441C277.145 58.5441 277.2 58.5449 277.265 58.5466C277.331 58.5483 277.381 58.5509 277.415 58.5542L277.415 59.1622C277.395 59.1572 277.348 59.1496 277.276 59.1394C277.205 59.1276 277.129 59.1217 277.05 59.1217C276.861 59.1217 276.692 59.1614 276.543 59.2408C276.396 59.3185 276.28 59.4265 276.194 59.565C276.109 59.7018 276.067 59.8581 276.067 60.0337L276.067 62.4961L275.469 62.4961ZM279.637 62.5772C279.262 62.5772 278.938 62.4944 278.666 62.3289C278.396 62.1617 278.188 61.9286 278.041 61.6297C277.895 61.3291 277.823 60.9795 277.823 60.5809C277.823 60.1823 277.895 59.831 278.041 59.527C278.188 59.2213 278.392 58.9832 278.654 58.8126C278.917 58.6404 279.225 58.5542 279.576 58.5542C279.778 58.5542 279.979 58.588 280.176 58.6556C280.374 58.7231 280.554 58.8329 280.716 58.9849C280.878 59.1352 281.007 59.3345 281.103 59.5828C281.2 59.831 281.248 60.1367 281.248 60.4998L281.248 60.7532L278.248 60.7532L278.248 60.2364L280.64 60.2364C280.64 60.0168 280.596 59.8209 280.508 59.6486C280.422 59.4764 280.299 59.3404 280.138 59.2408C279.979 59.1411 279.792 59.0913 279.576 59.0913C279.338 59.0913 279.132 59.1504 278.958 59.2686C278.785 59.3852 278.653 59.5372 278.56 59.7246C278.467 59.9121 278.421 60.1131 278.421 60.3276L278.421 60.6721C278.421 60.966 278.471 61.2151 278.573 61.4194C278.676 61.6221 278.818 61.7766 279.001 61.883C279.183 61.9877 279.395 62.0401 279.637 62.0401C279.794 62.0401 279.936 62.0181 280.062 61.9742C280.191 61.9286 280.301 61.8611 280.394 61.7716C280.487 61.6804 280.559 61.5672 280.609 61.4321L281.187 61.5942C281.126 61.7901 281.024 61.9624 280.88 62.111C280.737 62.258 280.56 62.3728 280.348 62.4556C280.137 62.5366 279.9 62.5772 279.637 62.5772ZM283.302 62.5873C283.056 62.5873 282.832 62.5408 282.631 62.448C282.43 62.3534 282.27 62.2174 282.152 62.0401C282.034 61.8611 281.975 61.6449 281.975 61.3916C281.975 61.1686 282.019 60.9879 282.107 60.8494C282.194 60.7093 282.312 60.5995 282.459 60.5201C282.606 60.4407 282.768 60.3816 282.945 60.3428C283.124 60.3022 283.304 60.2701 283.485 60.2465C283.721 60.2161 283.913 60.1933 284.06 60.1781C284.208 60.1612 284.317 60.1333 284.384 60.0945C284.453 60.0557 284.488 59.9881 284.488 59.8918L284.488 59.8716C284.488 59.6216 284.42 59.4274 284.283 59.2889C284.148 59.1504 283.942 59.0812 283.667 59.0812C283.382 59.0812 283.158 59.1437 282.996 59.2686C282.834 59.3936 282.72 59.527 282.654 59.6689L282.086 59.4662C282.188 59.2298 282.323 59.0457 282.492 58.914C282.662 58.7805 282.848 58.6877 283.049 58.6353C283.252 58.5813 283.451 58.5542 283.647 58.5542C283.772 58.5542 283.915 58.5694 284.078 58.5998C284.241 58.6285 284.399 58.6885 284.551 58.7797C284.705 58.8709 284.832 59.0085 284.934 59.1926C285.035 59.3767 285.086 59.6233 285.086 59.9324L285.086 62.4961L284.488 62.4961L284.488 61.9692L284.458 61.9692C284.417 62.0536 284.349 62.144 284.255 62.2402C284.16 62.3365 284.034 62.4184 283.877 62.486C283.72 62.5535 283.529 62.5873 283.302 62.5873ZM283.394 62.0502C283.63 62.0502 283.829 62.0038 283.991 61.9109C284.155 61.818 284.279 61.6981 284.361 61.5512C284.446 61.4042 284.488 61.2497 284.488 61.0876L284.488 60.5404C284.463 60.5708 284.407 60.5986 284.321 60.624C284.236 60.6476 284.138 60.6687 284.027 60.6873C283.917 60.7042 283.81 60.7194 283.705 60.7329C283.602 60.7447 283.519 60.7549 283.454 60.7633C283.299 60.7836 283.154 60.8165 283.019 60.8621C282.885 60.906 282.777 60.9727 282.694 61.0622C282.613 61.1501 282.573 61.27 282.573 61.422C282.573 61.6297 282.65 61.7868 282.803 61.8932C282.959 61.9979 283.155 62.0502 283.394 62.0502ZM286.177 62.4961L286.177 58.6049L286.755 58.6049L286.755 59.2129L286.805 59.2129C286.886 59.0052 287.017 58.8439 287.198 58.729C287.379 58.6125 287.596 58.5542 287.849 58.5542C288.106 58.5542 288.319 58.6125 288.49 58.729C288.662 58.8439 288.796 59.0052 288.893 59.2129L288.933 59.2129C289.033 59.0119 289.182 58.8523 289.382 58.7341C289.581 58.6142 289.82 58.5542 290.099 58.5542C290.447 58.5542 290.731 58.6632 290.952 58.881C291.174 59.0972 291.284 59.4341 291.284 59.8918L291.284 62.4961L290.686 62.4961L290.686 59.8918C290.686 59.6047 290.608 59.3995 290.451 59.2762C290.294 59.1529 290.109 59.0913 289.896 59.0913C289.622 59.0913 289.41 59.1741 289.26 59.3396C289.11 59.5034 289.035 59.7111 289.035 59.9628L289.035 62.4961L288.427 62.4961L288.427 59.831C288.427 59.6098 288.355 59.4316 288.211 59.2965C288.068 59.1597 287.883 59.0913 287.656 59.0913C287.501 59.0913 287.356 59.1327 287.221 59.2154C287.087 59.2982 286.979 59.413 286.896 59.56C286.815 59.7052 286.775 59.8733 286.775 60.0641L286.775 62.4961L286.177 62.4961ZM292.975 57.3078L292.975 62.4961L292.377 62.4961L292.377 57.3078L292.975 57.3078ZM294.07 62.4961L294.07 58.6049L294.668 58.6049L294.668 62.4961L294.07 62.4961ZM294.374 57.9564C294.258 57.9564 294.157 57.9167 294.073 57.8373C293.99 57.7579 293.949 57.6625 293.949 57.551C293.949 57.4396 293.99 57.3441 294.073 57.2648C294.157 57.1854 294.258 57.1457 294.374 57.1457C294.491 57.1457 294.59 57.1854 294.673 57.2648C294.758 57.3441 294.8 57.4396 294.8 57.551C294.8 57.6625 294.758 57.7579 294.673 57.8373C294.59 57.9167 294.491 57.9564 294.374 57.9564ZM296.361 60.1553L296.361 62.4961L295.763 62.4961L295.763 58.6049L296.341 58.6049L296.341 59.2129L296.391 59.2129C296.483 59.0153 296.621 58.8565 296.807 58.7366C296.993 58.615 297.232 58.5542 297.526 58.5542C297.79 58.5542 298.02 58.6083 298.218 58.7164C298.416 58.8228 298.569 58.9849 298.679 59.2028C298.789 59.4189 298.844 59.6925 298.844 60.0236L298.844 62.4961L298.246 62.4961L298.246 60.0641C298.246 59.7584 298.166 59.5203 298.008 59.3497C297.849 59.1774 297.631 59.0913 297.354 59.0913C297.163 59.0913 296.993 59.1327 296.842 59.2154C296.694 59.2982 296.576 59.4189 296.49 59.5777C296.404 59.7365 296.361 59.929 296.361 60.1553ZM301.568 62.5772C301.193 62.5772 300.869 62.4944 300.597 62.3289C300.327 62.1617 300.119 61.9286 299.972 61.6297C299.826 61.3291 299.754 60.9795 299.754 60.5809C299.754 60.1823 299.826 59.831 299.972 59.527C300.119 59.2213 300.323 58.9832 300.585 58.8126C300.848 58.6404 301.156 58.5542 301.507 58.5542C301.71 58.5542 301.91 58.588 302.107 58.6556C302.305 58.7231 302.485 58.8329 302.647 58.9849C302.809 59.1352 302.938 59.3345 303.034 59.5828C303.131 59.831 303.179 60.1367 303.179 60.4998L303.179 60.7532L300.179 60.7532L300.179 60.2364L302.571 60.2364C302.571 60.0168 302.527 59.8209 302.439 59.6486C302.353 59.4764 302.23 59.3404 302.069 59.2408C301.91 59.1411 301.723 59.0913 301.507 59.0913C301.269 59.0913 301.063 59.1504 300.889 59.2686C300.716 59.3852 300.584 59.5372 300.491 59.7246C300.398 59.9121 300.352 60.1131 300.352 60.3276L300.352 60.6721C300.352 60.966 300.402 61.2151 300.504 61.4194C300.607 61.6221 300.749 61.7766 300.932 61.883C301.114 61.9877 301.326 62.0401 301.568 62.0401C301.725 62.0401 301.867 62.0181 301.993 61.9742C302.122 61.9286 302.232 61.8611 302.325 61.7716C302.418 61.6804 302.49 61.5672 302.54 61.4321L303.118 61.5942C303.057 61.7901 302.955 61.9624 302.812 62.111C302.668 62.258 302.491 62.3728 302.28 62.4556C302.068 62.5366 301.831 62.5772 301.568 62.5772ZM306.176 62.4961L306.176 57.3078L307.929 57.3078C308.336 57.3078 308.669 57.3813 308.927 57.5282C309.187 57.6735 309.38 57.8702 309.505 58.1185C309.63 58.3668 309.692 58.6437 309.692 58.9494C309.692 59.2551 309.63 59.5329 309.505 59.7829C309.381 60.0329 309.19 60.2321 308.932 60.3808C308.674 60.5277 308.343 60.6012 307.939 60.6012L306.682 60.6012L306.682 60.0438L307.919 60.0438C308.197 60.0438 308.421 59.9957 308.59 59.8994C308.759 59.8032 308.881 59.6731 308.957 59.5093C309.035 59.3438 309.074 59.1572 309.074 58.9494C309.074 58.7417 309.035 58.5559 308.957 58.3921C308.881 58.2283 308.758 58.0999 308.588 58.007C308.417 57.9125 308.191 57.8652 307.909 57.8652L306.804 57.8652L306.804 62.4961L306.176 62.4961ZM310.623 62.4961L310.623 58.6049L311.201 58.6049L311.201 59.1926L311.241 59.1926C311.312 59.0001 311.44 58.8439 311.626 58.724C311.812 58.6041 312.021 58.5441 312.255 58.5441C312.298 58.5441 312.353 58.5449 312.419 58.5466C312.485 58.5483 312.535 58.5509 312.569 58.5542L312.569 59.1622C312.548 59.1572 312.502 59.1496 312.429 59.1394C312.358 59.1276 312.283 59.1217 312.204 59.1217C312.015 59.1217 311.846 59.1614 311.697 59.2408C311.55 59.3185 311.434 59.4265 311.348 59.565C311.263 59.7018 311.221 59.8581 311.221 60.0337L311.221 62.4961L310.623 62.4961ZM314.74 62.5772C314.388 62.5772 314.08 62.4936 313.815 62.3264C313.552 62.1592 313.346 61.9252 313.197 61.6246C313.05 61.324 312.976 60.9727 312.976 60.5708C312.976 60.1654 313.05 59.8116 313.197 59.5093C313.346 59.207 313.552 58.9722 313.815 58.805C314.08 58.6378 314.388 58.5542 314.74 58.5542C315.091 58.5542 315.398 58.6378 315.662 58.805C315.927 58.9722 316.133 59.207 316.28 59.5093C316.429 59.8116 316.503 60.1654 316.503 60.5708C316.503 60.9727 316.429 61.324 316.28 61.6246C316.133 61.9252 315.927 62.1592 315.662 62.3264C315.398 62.4936 315.091 62.5772 314.74 62.5772ZM314.74 62.0401C315.007 62.0401 315.226 61.9717 315.398 61.8349C315.571 61.6981 315.698 61.5182 315.781 61.2953C315.864 61.0724 315.905 60.8309 315.905 60.5708C315.905 60.3107 315.864 60.0683 315.781 59.8437C315.698 59.6191 315.571 59.4375 315.398 59.299C315.226 59.1605 315.007 59.0913 314.74 59.0913C314.473 59.0913 314.253 59.1605 314.081 59.299C313.909 59.4375 313.781 59.6191 313.698 59.8437C313.616 60.0683 313.574 60.3107 313.574 60.5708C313.574 60.8309 313.616 61.0724 313.698 61.2953C313.781 61.5182 313.909 61.6981 314.081 61.8349C314.253 61.9717 314.473 62.0401 314.74 62.0401ZM318.996 62.5772C318.632 62.5772 318.317 62.491 318.054 62.3188C317.79 62.1465 317.588 61.9092 317.446 61.6069C317.304 61.3046 317.233 60.9592 317.233 60.5708C317.233 60.1756 317.306 59.8268 317.451 59.5245C317.598 59.2205 317.802 58.9832 318.064 58.8126C318.328 58.6404 318.635 58.5542 318.986 58.5542C319.26 58.5542 319.506 58.6049 319.726 58.7062C319.945 58.8076 320.125 58.9494 320.266 59.1318C320.406 59.3142 320.493 59.527 320.526 59.7702L319.929 59.7702C319.883 59.5929 319.782 59.4358 319.625 59.299C319.469 59.1605 319.26 59.0913 318.996 59.0913C318.763 59.0913 318.559 59.1521 318.383 59.2737C318.209 59.3936 318.073 59.5633 317.975 59.7829C317.879 60.0008 317.831 60.2566 317.831 60.5505C317.831 60.8511 317.878 61.1129 317.973 61.3358C318.069 61.5588 318.204 61.7319 318.378 61.8552C318.554 61.9784 318.76 62.0401 318.996 62.0401C319.152 62.0401 319.293 62.0131 319.419 61.959C319.546 61.905 319.653 61.8273 319.741 61.726C319.829 61.6246 319.891 61.503 319.929 61.3612L320.526 61.3612C320.493 61.5909 320.409 61.7977 320.276 61.9818C320.144 62.1642 319.969 62.3095 319.751 62.4176C319.535 62.524 319.283 62.5772 318.996 62.5772ZM323.032 62.5772C322.657 62.5772 322.334 62.4944 322.062 62.3289C321.791 62.1617 321.583 61.9286 321.436 61.6297C321.291 61.3291 321.218 60.9795 321.218 60.5809C321.218 60.1823 321.291 59.831 321.436 59.527C321.583 59.2213 321.787 58.9832 322.049 58.8126C322.312 58.6404 322.62 58.5542 322.971 58.5542C323.174 58.5542 323.374 58.588 323.572 58.6556C323.769 58.7231 323.949 58.8329 324.111 58.9849C324.273 59.1352 324.402 59.3345 324.499 59.5828C324.595 59.831 324.643 60.1367 324.643 60.4998L324.643 60.7532L321.644 60.7532L321.644 60.2364L324.035 60.2364C324.035 60.0168 323.991 59.8209 323.903 59.6486C323.817 59.4764 323.694 59.3404 323.534 59.2408C323.375 59.1411 323.187 59.0913 322.971 59.0913C322.733 59.0913 322.527 59.1504 322.353 59.2686C322.181 59.3852 322.048 59.5372 321.955 59.7246C321.862 59.9121 321.816 60.1131 321.816 60.3276L321.816 60.6721C321.816 60.966 321.867 61.2151 321.968 61.4194C322.071 61.6221 322.214 61.7766 322.396 61.883C322.578 61.9877 322.79 62.0401 323.032 62.0401C323.189 62.0401 323.331 62.0181 323.458 61.9742C323.586 61.9286 323.696 61.8611 323.789 61.7716C323.882 61.6804 323.954 61.5672 324.005 61.4321L324.582 61.5942C324.522 61.7901 324.419 61.9624 324.276 62.111C324.132 62.258 323.955 62.3728 323.744 62.4556C323.533 62.5366 323.295 62.5772 323.032 62.5772ZM328.309 59.4764L327.772 59.6284C327.738 59.5389 327.688 59.4519 327.622 59.3674C327.558 59.2813 327.47 59.2104 327.359 59.1546C327.247 59.0989 327.105 59.071 326.931 59.071C326.693 59.071 326.494 59.1259 326.335 59.2357C326.178 59.3438 326.1 59.4814 326.1 59.6486C326.1 59.7973 326.154 59.9146 326.262 60.0008C326.37 60.0869 326.539 60.1587 326.769 60.2161L327.346 60.358C327.694 60.4424 327.953 60.5716 328.124 60.7456C328.294 60.9178 328.38 61.1399 328.38 61.4118C328.38 61.6348 328.316 61.8341 328.187 62.0097C328.061 62.1853 327.883 62.3238 327.655 62.4252C327.427 62.5265 327.162 62.5772 326.86 62.5772C326.463 62.5772 326.134 62.491 325.874 62.3188C325.614 62.1465 325.45 61.8948 325.38 61.5638L325.948 61.422C326.002 61.6314 326.104 61.7885 326.254 61.8932C326.406 61.9979 326.605 62.0502 326.85 62.0502C327.128 62.0502 327.35 61.9911 327.513 61.8729C327.679 61.753 327.762 61.6094 327.762 61.4422C327.762 61.3071 327.714 61.194 327.62 61.1028C327.525 61.0099 327.38 60.9406 327.184 60.895L326.536 60.743C326.179 60.6586 325.917 60.5277 325.75 60.3504C325.585 60.1713 325.502 59.9476 325.502 59.679C325.502 59.4595 325.564 59.2653 325.687 59.0964C325.812 58.9275 325.982 58.7949 326.196 58.6986C326.412 58.6024 326.657 58.5542 326.931 58.5542C327.316 58.5542 327.618 58.6387 327.838 58.8076C328.059 58.9765 328.216 59.1994 328.309 59.4764ZM332.036 59.4764L331.499 59.6284C331.465 59.5389 331.415 59.4519 331.349 59.3674C331.285 59.2813 331.197 59.2104 331.086 59.1546C330.975 59.0989 330.832 59.071 330.658 59.071C330.42 59.071 330.221 59.1259 330.063 59.2357C329.905 59.3438 329.827 59.4814 329.827 59.6486C329.827 59.7973 329.881 59.9146 329.989 60.0008C330.097 60.0869 330.266 60.1587 330.496 60.2161L331.073 60.358C331.421 60.4424 331.681 60.5716 331.851 60.7456C332.022 60.9178 332.107 61.1399 332.107 61.4118C332.107 61.6348 332.043 61.8341 331.914 62.0097C331.788 62.1853 331.61 62.3238 331.382 62.4252C331.154 62.5265 330.889 62.5772 330.587 62.5772C330.19 62.5772 329.862 62.491 329.601 62.3188C329.341 62.1465 329.177 61.8948 329.107 61.5638L329.675 61.422C329.729 61.6314 329.831 61.7885 329.981 61.8932C330.133 61.9979 330.332 62.0502 330.577 62.0502C330.855 62.0502 331.077 61.9911 331.241 61.8729C331.406 61.753 331.489 61.6094 331.489 61.4422C331.489 61.3071 331.442 61.194 331.347 61.1028C331.252 61.0099 331.107 60.9406 330.911 60.895L330.263 60.743C329.906 60.6586 329.645 60.5277 329.477 60.3504C329.312 60.1713 329.229 59.9476 329.229 59.679C329.229 59.4595 329.291 59.2653 329.414 59.0964C329.539 58.9275 329.709 58.7949 329.923 58.6986C330.139 58.6024 330.384 58.5542 330.658 58.5542C331.043 58.5542 331.345 58.6387 331.565 58.8076C331.786 58.9765 331.943 59.1994 332.036 59.4764Z" fill="#19213D"/>
<rect x="259.262" y="72.4803" width="5.94488" height="5.94488" rx="2.97244" fill="#BBDAFF"/>
<path d="M268.214 77.9528L268.214 72.7645L268.812 72.7645L268.812 74.6797L268.863 74.6797C268.907 74.6122 268.967 74.526 269.045 74.4213C269.125 74.3149 269.238 74.2203 269.385 74.1376C269.533 74.0531 269.734 74.0109 269.988 74.0109C270.315 74.0109 270.604 74.0928 270.854 74.2566C271.104 74.4205 271.299 74.6527 271.439 74.9533C271.579 75.2539 271.649 75.6086 271.649 76.0173C271.649 76.4294 271.579 76.7866 271.439 77.0889C271.299 77.3895 271.105 77.6226 270.856 77.7881C270.608 77.9519 270.322 78.0338 269.998 78.0338C269.748 78.0338 269.548 77.9925 269.397 77.9097C269.247 77.8253 269.131 77.7298 269.05 77.6234C268.969 77.5154 268.907 77.4258 268.863 77.3549L268.792 77.3549L268.792 77.9528L268.214 77.9528ZM268.802 76.0072C268.802 76.301 268.845 76.5603 268.931 76.7849C269.017 77.0078 269.143 77.1826 269.309 77.3093C269.474 77.4343 269.677 77.4968 269.917 77.4968C270.167 77.4968 270.375 77.4309 270.542 77.2992C270.711 77.1658 270.838 76.9867 270.922 76.7621C271.008 76.5358 271.052 76.2842 271.052 76.0072C271.052 75.7336 271.009 75.487 270.925 75.2674C270.842 75.0462 270.716 74.8714 270.547 74.743C270.38 74.613 270.17 74.548 269.917 74.548C269.673 74.548 269.469 74.6096 269.304 74.7329C269.138 74.8545 269.013 75.0251 268.929 75.2446C268.844 75.4625 268.802 75.7167 268.802 76.0072ZM274.145 78.0338C273.793 78.0338 273.485 77.9502 273.22 77.783C272.957 77.6158 272.751 77.3819 272.602 77.0813C272.455 76.7807 272.382 76.4294 272.382 76.0274C272.382 75.6221 272.455 75.2683 272.602 74.966C272.751 74.6637 272.957 74.4289 273.22 74.2617C273.485 74.0945 273.793 74.0109 274.145 74.0109C274.496 74.0109 274.803 74.0945 275.067 74.2617C275.332 74.4289 275.538 74.6637 275.685 74.966C275.834 75.2683 275.908 75.6221 275.908 76.0274C275.908 76.4294 275.834 76.7807 275.685 77.0813C275.538 77.3819 275.332 77.6158 275.067 77.783C274.803 77.9502 274.496 78.0338 274.145 78.0338ZM274.145 77.4968C274.412 77.4968 274.631 77.4284 274.803 77.2916C274.976 77.1548 275.103 76.9749 275.186 76.752C275.269 76.529 275.31 76.2875 275.31 76.0274C275.31 75.7674 275.269 75.525 275.186 75.3004C275.103 75.0758 274.976 74.8942 274.803 74.7557C274.631 74.6172 274.412 74.548 274.145 74.548C273.878 74.548 273.658 74.6172 273.486 74.7557C273.314 74.8942 273.186 75.0758 273.104 75.3004C273.021 75.525 272.979 75.7674 272.979 76.0274C272.979 76.2875 273.021 76.529 273.104 76.752C273.186 76.9749 273.314 77.1548 273.486 77.2916C273.658 77.4284 273.878 77.4968 274.145 77.4968ZM278.513 74.0616L278.513 74.5682L276.496 74.5682L276.496 74.0616L278.513 74.0616ZM277.084 73.1293L277.682 73.1293L277.682 76.8381C277.682 77.007 277.706 77.1337 277.755 77.2181C277.806 77.3009 277.87 77.3566 277.948 77.3853C278.027 77.4123 278.111 77.4258 278.199 77.4258C278.265 77.4258 278.319 77.4225 278.361 77.4157C278.403 77.4073 278.437 77.4005 278.462 77.3954L278.584 77.9325C278.543 77.9477 278.487 77.9629 278.414 77.9781C278.341 77.995 278.249 78.0034 278.138 78.0034C277.969 78.0034 277.803 77.9671 277.641 77.8945C277.481 77.8219 277.347 77.7113 277.241 77.5626C277.136 77.414 277.084 77.2266 277.084 77.0002L277.084 73.1293ZM281.104 74.0616L281.104 74.5682L279.088 74.5682L279.088 74.0616L281.104 74.0616ZM279.676 73.1293L280.273 73.1293L280.273 76.8381C280.273 77.007 280.298 77.1337 280.347 77.2181C280.398 77.3009 280.462 77.3566 280.539 77.3853C280.619 77.4123 280.702 77.4258 280.79 77.4258C280.856 77.4258 280.91 77.4225 280.952 77.4157C280.995 77.4073 281.028 77.4005 281.054 77.3954L281.175 77.9325C281.135 77.9477 281.078 77.9629 281.006 77.9781C280.933 77.995 280.841 78.0034 280.729 78.0034C280.561 78.0034 280.395 77.9671 280.233 77.8945C280.073 77.8219 279.939 77.7113 279.833 77.5626C279.728 77.414 279.676 77.2266 279.676 77.0002L279.676 73.1293ZM282.685 72.7645L282.685 77.9528L282.087 77.9528L282.087 72.7645L282.685 72.7645ZM285.412 78.0338C285.037 78.0338 284.713 77.9511 284.441 77.7856C284.171 77.6184 283.963 77.3853 283.816 77.0864C283.67 76.7858 283.598 76.4362 283.598 76.0376C283.598 75.639 283.67 75.2877 283.816 74.9837C283.963 74.678 284.167 74.4399 284.429 74.2693C284.692 74.097 285 74.0109 285.351 74.0109C285.554 74.0109 285.754 74.0447 285.951 74.1122C286.149 74.1798 286.329 74.2896 286.491 74.4416C286.653 74.5919 286.782 74.7912 286.879 75.0394C286.975 75.2877 287.023 75.5934 287.023 75.9565L287.023 76.2098L284.023 76.2098L284.023 75.693L286.415 75.693C286.415 75.4735 286.371 75.2776 286.283 75.1053C286.197 74.933 286.074 74.7971 285.913 74.6974C285.755 74.5978 285.567 74.548 285.351 74.548C285.113 74.548 284.907 74.6071 284.733 74.7253C284.561 74.8418 284.428 74.9938 284.335 75.1813C284.242 75.3688 284.196 75.5698 284.196 75.7842L284.196 76.1288C284.196 76.4226 284.246 76.6718 284.348 76.8761C284.451 77.0788 284.593 77.2333 284.776 77.3397C284.958 77.4444 285.17 77.4968 285.412 77.4968C285.569 77.4968 285.711 77.4748 285.837 77.4309C285.966 77.3853 286.076 77.3178 286.169 77.2282C286.262 77.137 286.334 77.0239 286.385 76.8888L286.962 77.0509C286.901 77.2468 286.799 77.4191 286.656 77.5677C286.512 77.7146 286.335 77.8295 286.124 77.9122C285.912 77.9933 285.675 78.0338 285.412 78.0338ZM288.53 75.612L288.53 77.9528L287.932 77.9528L287.932 74.0616L288.51 74.0616L288.51 74.6696L288.561 74.6696C288.652 74.472 288.79 74.3132 288.976 74.1933C289.162 74.0717 289.402 74.0109 289.696 74.0109C289.959 74.0109 290.19 74.065 290.387 74.173C290.585 74.2794 290.738 74.4416 290.848 74.6594C290.958 74.8756 291.013 75.1492 291.013 75.4802L291.013 77.9528L290.415 77.9528L290.415 75.5208C290.415 75.2151 290.336 74.977 290.177 74.8064C290.018 74.6341 289.8 74.548 289.523 74.548C289.332 74.548 289.162 74.5894 289.012 74.6721C288.863 74.7549 288.746 74.8756 288.659 75.0344C288.573 75.1931 288.53 75.3857 288.53 75.612ZM293.737 78.0338C293.362 78.0338 293.039 77.9511 292.767 77.7856C292.496 77.6184 292.288 77.3853 292.141 77.0864C291.996 76.7858 291.923 76.4362 291.923 76.0376C291.923 75.639 291.996 75.2877 292.141 74.9837C292.288 74.678 292.492 74.4399 292.754 74.2693C293.017 74.097 293.325 74.0109 293.676 74.0109C293.879 74.0109 294.079 74.0447 294.276 74.1122C294.474 74.1798 294.654 74.2896 294.816 74.4416C294.978 74.5919 295.107 74.7912 295.204 75.0394C295.3 75.2877 295.348 75.5934 295.348 75.9565L295.348 76.2098L292.349 76.2098L292.349 75.693L294.74 75.693C294.74 75.4735 294.696 75.2776 294.608 75.1053C294.522 74.933 294.399 74.7971 294.238 74.6974C294.08 74.5978 293.892 74.548 293.676 74.548C293.438 74.548 293.232 74.6071 293.058 74.7253C292.886 74.8418 292.753 74.9938 292.66 75.1813C292.567 75.3688 292.521 75.5698 292.521 75.7842L292.521 76.1288C292.521 76.4226 292.572 76.6718 292.673 76.8761C292.776 77.0788 292.919 77.2333 293.101 77.3397C293.283 77.4444 293.495 77.4968 293.737 77.4968C293.894 77.4968 294.036 77.4748 294.162 77.4309C294.291 77.3853 294.401 77.3178 294.494 77.2282C294.587 77.137 294.659 77.0239 294.71 76.8888L295.287 77.0509C295.226 77.2468 295.124 77.4191 294.981 77.5677C294.837 77.7146 294.66 77.8295 294.449 77.9122C294.238 77.9933 294 78.0338 293.737 78.0338ZM297.838 78.0338C297.474 78.0338 297.159 77.9477 296.896 77.7754C296.632 77.6032 296.43 77.3659 296.288 77.0636C296.146 76.7613 296.075 76.4159 296.075 76.0274C296.075 75.6322 296.148 75.2835 296.293 74.9812C296.44 74.6772 296.644 74.4399 296.906 74.2693C297.17 74.097 297.477 74.0109 297.828 74.0109C298.102 74.0109 298.348 74.0616 298.568 74.1629C298.787 74.2642 298.967 74.4061 299.108 74.5885C299.248 74.7709 299.335 74.9837 299.368 75.2269L298.771 75.2269C298.725 75.0496 298.624 74.8925 298.467 74.7557C298.311 74.6172 298.102 74.548 297.838 74.548C297.605 74.548 297.401 74.6088 297.225 74.7304C297.051 74.8503 296.915 75.02 296.817 75.2396C296.721 75.4574 296.673 75.7133 296.673 76.0072C296.673 76.3078 296.72 76.5696 296.815 76.7925C296.911 77.0154 297.046 77.1886 297.22 77.3118C297.396 77.4351 297.602 77.4968 297.838 77.4968C297.994 77.4968 298.135 77.4698 298.261 77.4157C298.388 77.3617 298.495 77.284 298.583 77.1826C298.671 77.0813 298.733 76.9597 298.771 76.8178L299.368 76.8178C299.335 77.0475 299.251 77.2544 299.118 77.4385C298.986 77.6209 298.811 77.7662 298.593 77.8742C298.377 77.9806 298.125 78.0338 297.838 78.0338ZM300.8 76.5341L300.79 75.7944L300.911 75.7944L302.614 74.0616L303.353 74.0616L301.54 75.8957L301.489 75.8957L300.8 76.5341ZM300.242 77.9528L300.242 72.7645L300.84 72.7645L300.84 77.9528L300.242 77.9528ZM302.715 77.9528L301.195 76.0274L301.621 75.612L303.475 77.9528L302.715 77.9528ZM306.879 74.933L306.342 75.085C306.308 74.9955 306.258 74.9086 306.193 74.8241C306.128 74.738 306.041 74.667 305.929 74.6113C305.818 74.5556 305.675 74.5277 305.501 74.5277C305.263 74.5277 305.064 74.5826 304.906 74.6924C304.749 74.8005 304.67 74.9381 304.67 75.1053C304.67 75.2539 304.724 75.3713 304.832 75.4574C304.94 75.5436 305.109 75.6154 305.339 75.6728L305.916 75.8146C306.264 75.8991 306.524 76.0283 306.694 76.2022C306.865 76.3745 306.95 76.5966 306.95 76.8685C306.95 77.0914 306.886 77.2907 306.758 77.4664C306.631 77.642 306.454 77.7805 306.226 77.8818C305.998 77.9832 305.732 78.0338 305.43 78.0338C305.033 78.0338 304.705 77.9477 304.445 77.7754C304.185 77.6032 304.02 77.3515 303.951 77.0205L304.518 76.8786C304.572 77.0881 304.674 77.2451 304.825 77.3498C304.977 77.4546 305.175 77.5069 305.42 77.5069C305.699 77.5069 305.92 77.4478 306.084 77.3296C306.249 77.2097 306.332 77.0661 306.332 76.8989C306.332 76.7638 306.285 76.6506 306.19 76.5594C306.096 76.4666 305.95 76.3973 305.754 76.3517L305.106 76.1997C304.749 76.1153 304.488 75.9844 304.32 75.807C304.155 75.628 304.072 75.4042 304.072 75.1357C304.072 74.9162 304.134 74.7219 304.257 74.553C304.382 74.3842 304.552 74.2516 304.766 74.1553C304.983 74.059 305.227 74.0109 305.501 74.0109C305.886 74.0109 306.188 74.0954 306.408 74.2642C306.629 74.4331 306.786 74.6561 306.879 74.933Z" fill="#19213D"/>
<line x1="69.0232" y1="87.833" x2="332.976" y2="87.6398" stroke="#E1E4ED" stroke-width="0.594488"/>
<rect x="73.9596" y="102.927" width="32.9346" height="54.919" rx="4.57756" fill="#4E9FFF" stroke="#8DC1FF" stroke-width="0.356693"/>
<rect x="73.9596" y="160.58" width="32.9346" height="14.5843" rx="4.57756" fill="#BBDAFF" stroke="#C3DDFF" stroke-width="0.356693"/>
<rect x="73.9596" y="177.899" width="32.9346" height="17.5831" rx="4.57756" fill="#BBDAFF" stroke="#E3EFFF" stroke-width="0.356693"/>
<rect x="73.9596" y="198.217" width="32.9346" height="63.0813" rx="4.57756" fill="#4E9FFF" stroke="#8DC1FF" stroke-width="0.356693"/>
<path d="M85.9181 275.989V270.8H86.5464V273.111H89.3128V270.8H89.941V275.989H89.3128V273.668H86.5464V275.989H85.9181ZM91.6268 275.989V270.8H93.3799C93.7852 270.8 94.118 270.87 94.378 271.008C94.6381 271.145 94.8307 271.333 94.9556 271.573C95.0806 271.813 95.1431 272.086 95.1431 272.391C95.1431 272.697 95.0806 272.968 94.9556 273.204C94.8307 273.441 94.639 273.627 94.3806 273.762C94.1222 273.895 93.792 273.962 93.39 273.962H91.9714V273.394H93.3698C93.6468 273.394 93.8697 273.354 94.0386 273.273C94.2092 273.192 94.3324 273.077 94.4084 272.928C94.4861 272.778 94.525 272.599 94.525 272.391C94.525 272.183 94.4861 272.002 94.4084 271.847C94.3308 271.691 94.2066 271.571 94.036 271.487C93.8655 271.401 93.64 271.358 93.3596 271.358H92.2551V275.989H91.6268ZM94.069 273.658L95.3458 275.989H94.6162L93.3596 273.658H94.069Z" fill="#6D758F"/>
<rect x="129.249" y="102.927" width="32.9346" height="40.5273" rx="4.57756" fill="#4E9FFF" stroke="#8DC1FF" stroke-width="0.356693"/>
<rect x="129.249" y="146.189" width="32.9346" height="21.6045" rx="4.57756" fill="#BBDAFF" stroke="#C3DDFF" stroke-width="0.356693"/>
<rect x="129.249" y="170.528" width="32.9346" height="33.2137" rx="4.57756" fill="#BBDAFF" stroke="#E3EFFF" stroke-width="0.356693"/>
<rect x="129.249" y="206.476" width="32.9346" height="54.8222" rx="4.57756" fill="url(#paint1_linear_5470_6613)" stroke="#8DC1FF" stroke-width="0.356693"/>
<path d="M129.516 275.988H127.914V270.8H129.586C130.09 270.8 130.52 270.904 130.878 271.112C131.237 271.318 131.511 271.614 131.702 272.001C131.893 272.386 131.988 272.847 131.988 273.384C131.988 273.925 131.892 274.39 131.699 274.78C131.507 275.169 131.226 275.467 130.858 275.677C130.49 275.885 130.042 275.988 129.516 275.988ZM128.543 275.431H129.475C129.904 275.431 130.26 275.348 130.542 275.183C130.824 275.017 131.034 274.782 131.172 274.476C131.311 274.17 131.38 273.806 131.38 273.384C131.38 272.965 131.312 272.605 131.175 272.302C131.038 271.998 130.834 271.765 130.562 271.603C130.29 271.439 129.951 271.358 129.546 271.358H128.543V275.431ZM135.02 276.07C134.645 276.07 134.322 275.987 134.05 275.821C133.78 275.654 133.571 275.421 133.424 275.122C133.279 274.821 133.207 274.472 133.207 274.073C133.207 273.675 133.279 273.323 133.424 273.019C133.571 272.714 133.776 272.476 134.037 272.305C134.301 272.133 134.608 272.047 134.96 272.047C135.162 272.047 135.362 272.08 135.56 272.148C135.758 272.215 135.937 272.325 136.1 272.477C136.262 272.628 136.391 272.827 136.487 273.075C136.583 273.323 136.632 273.629 136.632 273.992V274.246H133.632V273.729H136.024C136.024 273.509 135.98 273.313 135.892 273.141C135.806 272.969 135.682 272.833 135.522 272.733C135.363 272.633 135.176 272.584 134.96 272.584C134.721 272.584 134.515 272.643 134.341 272.761C134.169 272.878 134.037 273.03 133.944 273.217C133.851 273.404 133.804 273.605 133.804 273.82V274.164C133.804 274.458 133.855 274.707 133.956 274.912C134.059 275.114 134.202 275.269 134.385 275.375C134.567 275.48 134.779 275.532 135.02 275.532C135.177 275.532 135.319 275.511 135.446 275.467C135.574 275.421 135.685 275.353 135.778 275.264C135.871 275.173 135.943 275.06 135.993 274.924L136.571 275.087C136.51 275.283 136.408 275.455 136.264 275.603C136.121 275.75 135.943 275.865 135.732 275.948C135.521 276.029 135.284 276.07 135.02 276.07ZM140.725 272.969L140.188 273.121C140.154 273.031 140.105 272.944 140.039 272.86C139.975 272.774 139.887 272.703 139.775 272.647C139.664 272.591 139.521 272.563 139.347 272.563C139.109 272.563 138.911 272.618 138.752 272.728C138.595 272.836 138.516 272.974 138.516 273.141C138.516 273.29 138.57 273.407 138.678 273.493C138.786 273.579 138.955 273.651 139.185 273.708L139.763 273.85C140.111 273.935 140.37 274.064 140.54 274.238C140.711 274.41 140.796 274.632 140.796 274.904C140.796 275.127 140.732 275.326 140.604 275.502C140.477 275.678 140.3 275.816 140.072 275.918C139.844 276.019 139.579 276.07 139.276 276.07C138.879 276.07 138.551 275.983 138.291 275.811C138.031 275.639 137.866 275.387 137.797 275.056L138.364 274.914C138.418 275.124 138.52 275.281 138.671 275.386C138.823 275.49 139.021 275.543 139.266 275.543C139.545 275.543 139.766 275.483 139.93 275.365C140.095 275.245 140.178 275.102 140.178 274.935C140.178 274.799 140.131 274.686 140.036 274.595C139.942 274.502 139.796 274.433 139.601 274.387L138.952 274.235C138.596 274.151 138.334 274.02 138.167 273.843C138.001 273.664 137.918 273.44 137.918 273.171C137.918 272.952 137.98 272.758 138.103 272.589C138.228 272.42 138.398 272.287 138.613 272.191C138.829 272.095 139.074 272.047 139.347 272.047C139.732 272.047 140.035 272.131 140.254 272.3C140.475 272.469 140.632 272.692 140.725 272.969ZM142.124 275.988V272.097H142.722V275.988H142.124ZM142.428 271.449C142.312 271.449 142.211 271.409 142.127 271.33C142.044 271.25 142.003 271.155 142.003 271.043C142.003 270.932 142.044 270.837 142.127 270.757C142.211 270.678 142.312 270.638 142.428 270.638C142.545 270.638 142.644 270.678 142.727 270.757C142.812 270.837 142.854 270.932 142.854 271.043C142.854 271.155 142.812 271.25 142.727 271.33C142.644 271.409 142.545 271.449 142.428 271.449ZM145.816 277.529C145.527 277.529 145.279 277.492 145.071 277.417C144.863 277.345 144.69 277.248 144.552 277.128C144.415 277.01 144.306 276.884 144.225 276.748L144.701 276.414C144.755 276.485 144.824 276.566 144.906 276.657C144.989 276.75 145.102 276.83 145.246 276.898C145.391 276.967 145.581 277.002 145.816 277.002C146.13 277.002 146.389 276.926 146.594 276.774C146.798 276.622 146.9 276.384 146.9 276.059V275.269H146.849C146.806 275.34 146.743 275.428 146.662 275.532C146.583 275.635 146.468 275.728 146.317 275.809C146.169 275.888 145.968 275.928 145.715 275.928C145.4 275.928 145.118 275.853 144.868 275.705C144.62 275.556 144.423 275.34 144.278 275.056C144.135 274.772 144.063 274.428 144.063 274.023C144.063 273.624 144.133 273.277 144.273 272.981C144.413 272.684 144.608 272.454 144.858 272.292C145.108 272.129 145.397 272.047 145.725 272.047C145.978 272.047 146.179 272.089 146.328 272.173C146.478 272.256 146.593 272.351 146.672 272.457C146.753 272.562 146.816 272.648 146.86 272.715H146.92V272.097H147.498V276.1C147.498 276.434 147.422 276.706 147.27 276.916C147.12 277.127 146.917 277.281 146.662 277.379C146.409 277.479 146.127 277.529 145.816 277.529ZM145.796 275.391C146.035 275.391 146.238 275.336 146.404 275.226C146.569 275.116 146.695 274.958 146.781 274.752C146.867 274.546 146.91 274.3 146.91 274.012C146.91 273.732 146.868 273.485 146.784 273.27C146.699 273.056 146.574 272.888 146.409 272.766C146.243 272.644 146.039 272.584 145.796 272.584C145.542 272.584 145.331 272.648 145.162 272.776C144.995 272.905 144.869 273.077 144.785 273.293C144.702 273.509 144.661 273.749 144.661 274.012C144.661 274.283 144.703 274.522 144.787 274.729C144.873 274.935 145 275.098 145.167 275.216C145.336 275.332 145.546 275.391 145.796 275.391ZM149.618 273.648V275.988H149.02V272.097H149.598V272.705H149.649C149.74 272.508 149.878 272.349 150.064 272.229C150.25 272.107 150.49 272.047 150.784 272.047C151.047 272.047 151.278 272.101 151.475 272.209C151.673 272.315 151.827 272.477 151.936 272.695C152.046 272.911 152.101 273.185 152.101 273.516V275.988H151.503V273.556C151.503 273.251 151.424 273.013 151.265 272.842C151.106 272.67 150.888 272.584 150.611 272.584C150.421 272.584 150.25 272.625 150.1 272.708C149.951 272.791 149.834 272.911 149.747 273.07C149.661 273.229 149.618 273.421 149.618 273.648ZM153.621 275.988V272.097H154.219V275.988H153.621ZM153.925 271.449C153.809 271.449 153.708 271.409 153.624 271.33C153.541 271.25 153.5 271.155 153.5 271.043C153.5 270.932 153.541 270.837 153.624 270.757C153.708 270.678 153.809 270.638 153.925 270.638C154.042 270.638 154.142 270.678 154.224 270.757C154.309 270.837 154.351 270.932 154.351 271.043C154.351 271.155 154.309 271.25 154.224 271.33C154.142 271.409 154.042 271.449 153.925 271.449ZM156.34 273.648V275.988H155.742V272.097H156.32V272.705H156.371C156.462 272.508 156.6 272.349 156.786 272.229C156.972 272.107 157.212 272.047 157.506 272.047C157.769 272.047 158 272.101 158.197 272.209C158.395 272.315 158.548 272.477 158.658 272.695C158.768 272.911 158.823 273.185 158.823 273.516V275.988H158.225V273.556C158.225 273.251 158.146 273.013 157.987 272.842C157.828 272.67 157.61 272.584 157.333 272.584C157.142 272.584 156.972 272.625 156.822 272.708C156.673 272.791 156.556 272.911 156.469 273.07C156.383 273.229 156.34 273.421 156.34 273.648ZM161.914 277.529C161.625 277.529 161.377 277.492 161.169 277.417C160.962 277.345 160.788 277.248 160.65 277.128C160.513 277.01 160.404 276.884 160.323 276.748L160.799 276.414C160.854 276.485 160.922 276.566 161.005 276.657C161.087 276.75 161.201 276.83 161.344 276.898C161.489 276.967 161.679 277.002 161.914 277.002C162.228 277.002 162.488 276.926 162.692 276.774C162.896 276.622 162.998 276.384 162.998 276.059V275.269H162.948C162.904 275.34 162.841 275.428 162.76 275.532C162.681 275.635 162.566 275.728 162.416 275.809C162.267 275.888 162.066 275.928 161.813 275.928C161.499 275.928 161.217 275.853 160.967 275.705C160.718 275.556 160.522 275.34 160.376 275.056C160.233 274.772 160.161 274.428 160.161 274.023C160.161 273.624 160.231 273.277 160.371 272.981C160.512 272.684 160.707 272.454 160.957 272.292C161.206 272.129 161.495 272.047 161.823 272.047C162.076 272.047 162.277 272.089 162.426 272.173C162.576 272.256 162.691 272.351 162.77 272.457C162.851 272.562 162.914 272.648 162.958 272.715H163.019V272.097H163.596V276.1C163.596 276.434 163.52 276.706 163.368 276.916C163.218 277.127 163.015 277.281 162.76 277.379C162.507 277.479 162.225 277.529 161.914 277.529ZM161.894 275.391C162.134 275.391 162.336 275.336 162.502 275.226C162.667 275.116 162.793 274.958 162.879 274.752C162.965 274.546 163.009 274.3 163.009 274.012C163.009 273.732 162.966 273.485 162.882 273.27C162.797 273.056 162.672 272.888 162.507 272.766C162.341 272.644 162.137 272.584 161.894 272.584C161.641 272.584 161.429 272.648 161.261 272.776C161.093 272.905 160.968 273.077 160.883 273.293C160.8 273.509 160.759 273.749 160.759 274.012C160.759 274.283 160.801 274.522 160.886 274.729C160.972 274.935 161.098 275.098 161.266 275.216C161.434 275.332 161.644 275.391 161.894 275.391Z" fill="#6D758F"/>
<rect x="184.534" y="102.927" width="32.9346" height="42.9751" rx="4.57756" fill="#4E9FFF" stroke="#8DC1FF" stroke-width="0.356693"/>
<rect x="184.534" y="148.636" width="32.9346" height="35.367" rx="4.57756" fill="#BBDAFF" stroke="#8DC1FF" stroke-width="0.356693"/>
<rect x="184.534" y="186.738" width="32.9346" height="22.7702" rx="4.57756" fill="#BBDAFF" stroke="#8DC1FF" stroke-width="0.356693"/>
<rect x="184.534" y="212.243" width="32.9346" height="49.0555" rx="4.57756" fill="url(#paint2_linear_5470_6613)" stroke="#8DC1FF" stroke-width="0.356693"/>
<path d="M183.067 270.8H183.817L185.58 275.107H185.641L187.404 270.8H188.154V275.988H187.566V272.047H187.516L185.894 275.988H185.327L183.706 272.047H183.655V275.988H183.067V270.8ZM190.906 276.08C190.659 276.08 190.436 276.033 190.235 275.94C190.034 275.846 189.874 275.71 189.756 275.532C189.638 275.353 189.578 275.137 189.578 274.884C189.578 274.661 189.622 274.48 189.71 274.342C189.798 274.202 189.915 274.092 190.062 274.012C190.209 273.933 190.371 273.874 190.549 273.835C190.728 273.795 190.908 273.763 191.088 273.739C191.325 273.708 191.516 273.686 191.663 273.67C191.812 273.654 191.92 273.626 191.988 273.587C192.057 273.548 192.092 273.48 192.092 273.384V273.364C192.092 273.114 192.023 272.92 191.886 272.781C191.751 272.643 191.546 272.574 191.271 272.574C190.985 272.574 190.762 272.636 190.599 272.761C190.437 272.886 190.323 273.019 190.257 273.161L189.69 272.959C189.791 272.722 189.926 272.538 190.095 272.406C190.266 272.273 190.452 272.18 190.653 272.128C190.855 272.074 191.055 272.047 191.25 272.047C191.375 272.047 191.519 272.062 191.681 272.092C191.845 272.121 192.003 272.181 192.155 272.272C192.309 272.363 192.436 272.501 192.537 272.685C192.639 272.869 192.689 273.116 192.689 273.425V275.988H192.092V275.462H192.061C192.021 275.546 191.953 275.636 191.858 275.733C191.764 275.829 191.638 275.911 191.481 275.978C191.324 276.046 191.132 276.08 190.906 276.08ZM190.997 275.543C191.234 275.543 191.433 275.496 191.595 275.403C191.759 275.31 191.882 275.19 191.965 275.044C192.049 274.897 192.092 274.742 192.092 274.58V274.033C192.066 274.063 192.01 274.091 191.924 274.116C191.84 274.14 191.742 274.161 191.63 274.18C191.521 274.197 191.413 274.212 191.309 274.225C191.206 274.237 191.122 274.247 191.058 274.256C190.903 274.276 190.757 274.309 190.622 274.354C190.489 274.398 190.381 274.465 190.298 274.555C190.217 274.642 190.176 274.762 190.176 274.914C190.176 275.122 190.253 275.279 190.407 275.386C190.562 275.49 190.759 275.543 190.997 275.543ZM194.209 275.988V272.097H194.786V272.685H194.827C194.898 272.492 195.026 272.336 195.212 272.216C195.398 272.096 195.607 272.036 195.84 272.036C195.884 272.036 195.939 272.037 196.005 272.039C196.071 272.041 196.12 272.043 196.154 272.047V272.655C196.134 272.65 196.088 272.642 196.015 272.632C195.944 272.62 195.869 272.614 195.789 272.614C195.6 272.614 195.431 272.654 195.283 272.733C195.136 272.811 195.019 272.919 194.933 273.057C194.849 273.194 194.807 273.35 194.807 273.526V275.988H194.209ZM197.848 274.57L197.838 273.83H197.96L199.662 272.097H200.402L198.588 273.931H198.537L197.848 274.57ZM197.291 275.988V270.8H197.889V275.988H197.291ZM199.764 275.988L198.244 274.063L198.669 273.648L200.524 275.988H199.764ZM203.071 276.07C202.696 276.07 202.372 275.987 202.1 275.821C201.83 275.654 201.622 275.421 201.475 275.122C201.329 274.821 201.257 274.472 201.257 274.073C201.257 273.675 201.329 273.323 201.475 273.019C201.622 272.714 201.826 272.476 202.088 272.305C202.351 272.133 202.659 272.047 203.01 272.047C203.213 272.047 203.413 272.08 203.61 272.148C203.808 272.215 203.988 272.325 204.15 272.477C204.312 272.628 204.441 272.827 204.537 273.075C204.634 273.323 204.682 273.629 204.682 273.992V274.246H201.682V273.729H204.074C204.074 273.509 204.03 273.313 203.942 273.141C203.856 272.969 203.733 272.833 203.572 272.733C203.414 272.633 203.226 272.584 203.01 272.584C202.772 272.584 202.566 272.643 202.392 272.761C202.219 272.878 202.087 273.03 201.994 273.217C201.901 273.404 201.855 273.605 201.855 273.82V274.164C201.855 274.458 201.905 274.707 202.007 274.912C202.11 275.114 202.252 275.269 202.435 275.375C202.617 275.48 202.829 275.532 203.071 275.532C203.228 275.532 203.37 275.511 203.496 275.467C203.625 275.421 203.735 275.353 203.828 275.264C203.921 275.173 203.993 275.06 204.043 274.924L204.621 275.087C204.56 275.283 204.458 275.455 204.315 275.603C204.171 275.75 203.994 275.865 203.783 275.948C203.571 276.029 203.334 276.07 203.071 276.07ZM207.712 272.097V272.604H205.695V272.097H207.712ZM206.283 271.165H206.881V274.874C206.881 275.043 206.905 275.169 206.954 275.254C207.005 275.337 207.069 275.392 207.147 275.421C207.226 275.448 207.31 275.462 207.398 275.462C207.463 275.462 207.517 275.458 207.56 275.451C207.602 275.443 207.636 275.436 207.661 275.431L207.783 275.968C207.742 275.983 207.685 275.999 207.613 276.014C207.54 276.031 207.448 276.039 207.337 276.039C207.168 276.039 207.002 276.003 206.84 275.93C206.68 275.858 206.546 275.747 206.44 275.598C206.335 275.45 206.283 275.262 206.283 275.036V271.165ZM209.039 275.988V272.097H209.637V275.988H209.039ZM209.343 271.449C209.226 271.449 209.126 271.409 209.042 271.33C208.959 271.25 208.917 271.155 208.917 271.043C208.917 270.932 208.959 270.837 209.042 270.757C209.126 270.678 209.226 270.638 209.343 270.638C209.46 270.638 209.559 270.678 209.642 270.757C209.726 270.837 209.769 270.932 209.769 271.043C209.769 271.155 209.726 271.25 209.642 271.33C209.559 271.409 209.46 271.449 209.343 271.449ZM211.758 273.648V275.988H211.16V272.097H211.738V272.705H211.788C211.879 272.508 212.018 272.349 212.204 272.229C212.389 272.107 212.629 272.047 212.923 272.047C213.187 272.047 213.417 272.101 213.615 272.209C213.812 272.315 213.966 272.477 214.076 272.695C214.186 272.911 214.24 273.185 214.24 273.516V275.988H213.643V273.556C213.643 273.251 213.563 273.013 213.404 272.842C213.246 272.67 213.028 272.584 212.751 272.584C212.56 272.584 212.389 272.625 212.239 272.708C212.091 272.791 211.973 272.911 211.887 273.07C211.801 273.229 211.758 273.421 211.758 273.648ZM217.332 277.529C217.043 277.529 216.795 277.492 216.587 277.417C216.379 277.345 216.206 277.248 216.068 277.128C215.931 277.01 215.822 276.884 215.741 276.748L216.217 276.414C216.271 276.485 216.339 276.566 216.422 276.657C216.505 276.75 216.618 276.83 216.762 276.898C216.907 276.967 217.097 277.002 217.332 277.002C217.646 277.002 217.905 276.926 218.109 276.774C218.314 276.622 218.416 276.384 218.416 276.059V275.269H218.365C218.321 275.34 218.259 275.428 218.178 275.532C218.098 275.635 217.984 275.728 217.833 275.809C217.685 275.888 217.484 275.928 217.23 275.928C216.916 275.928 216.634 275.853 216.384 275.705C216.136 275.556 215.939 275.34 215.794 275.056C215.65 274.772 215.579 274.428 215.579 274.023C215.579 273.624 215.649 273.277 215.789 272.981C215.929 272.684 216.124 272.454 216.374 272.292C216.624 272.129 216.913 272.047 217.24 272.047C217.494 272.047 217.695 272.089 217.843 272.173C217.994 272.256 218.109 272.351 218.188 272.457C218.269 272.562 218.331 272.648 218.375 272.715H218.436V272.097H219.014V276.1C219.014 276.434 218.938 276.706 218.786 276.916C218.635 277.127 218.433 277.281 218.178 277.379C217.924 277.479 217.642 277.529 217.332 277.529ZM217.311 275.391C217.551 275.391 217.754 275.336 217.919 275.226C218.085 275.116 218.211 274.958 218.297 274.752C218.383 274.546 218.426 274.3 218.426 274.012C218.426 273.732 218.384 273.485 218.299 273.27C218.215 273.056 218.09 272.888 217.924 272.766C217.759 272.644 217.555 272.584 217.311 272.584C217.058 272.584 216.847 272.648 216.678 272.776C216.511 272.905 216.385 273.077 216.301 273.293C216.218 273.509 216.176 273.749 216.176 274.012C216.176 274.283 216.219 274.522 216.303 274.729C216.389 274.935 216.516 275.098 216.683 275.216C216.852 275.332 217.061 275.391 217.311 275.391Z" fill="#6D758F"/>
<rect x="239.823" y="102.927" width="32.9346" height="19.4123" rx="4.57756" fill="#4E9FFF" stroke="#8DC1FF" stroke-width="0.356693"/>
<rect x="239.823" y="125.074" width="32.9346" height="13.3501" rx="4.57756" fill="#BBDAFF" stroke="#C3DDFF" stroke-width="0.356693"/>
<rect x="239.823" y="141.158" width="32.9346" height="17.2392" rx="4.57756" fill="#BBDAFF" stroke="#E3EFFF" stroke-width="0.356693"/>
<rect x="239.823" y="161.132" width="32.9346" height="100.166" rx="4.57756" fill="url(#paint3_linear_5470_6613)" stroke="#8DC1FF" stroke-width="0.356693"/>
<path d="M239.682 275.988H238.081V270.8H239.753C240.256 270.8 240.687 270.904 241.045 271.112C241.403 271.318 241.678 271.614 241.868 272.001C242.059 272.386 242.155 272.847 242.155 273.384C242.155 273.925 242.058 274.39 241.866 274.78C241.673 275.169 241.393 275.467 241.025 275.677C240.657 275.885 240.209 275.988 239.682 275.988ZM238.709 275.431H239.642C240.071 275.431 240.426 275.348 240.708 275.183C240.99 275.017 241.201 274.782 241.339 274.476C241.478 274.17 241.547 273.806 241.547 273.384C241.547 272.965 241.478 272.605 241.342 272.302C241.205 271.998 241 271.765 240.728 271.603C240.457 271.439 240.118 271.358 239.713 271.358H238.709V275.431ZM245.187 276.07C244.812 276.07 244.489 275.987 244.217 275.821C243.947 275.654 243.738 275.421 243.591 275.122C243.446 274.821 243.373 274.472 243.373 274.073C243.373 273.675 243.446 273.323 243.591 273.019C243.738 272.714 243.942 272.476 244.204 272.305C244.468 272.133 244.775 272.047 245.126 272.047C245.329 272.047 245.529 272.08 245.727 272.148C245.924 272.215 246.104 272.325 246.266 272.477C246.428 272.628 246.558 272.827 246.654 273.075C246.75 273.323 246.798 273.629 246.798 273.992V274.246H243.799V273.729H246.19C246.19 273.509 246.146 273.313 246.059 273.141C245.972 272.969 245.849 272.833 245.689 272.733C245.53 272.633 245.342 272.584 245.126 272.584C244.888 272.584 244.682 272.643 244.508 272.761C244.336 272.878 244.203 273.03 244.11 273.217C244.017 273.404 243.971 273.605 243.971 273.82V274.164C243.971 274.458 244.022 274.707 244.123 274.912C244.226 275.114 244.369 275.269 244.551 275.375C244.734 275.48 244.946 275.532 245.187 275.532C245.344 275.532 245.486 275.511 245.613 275.467C245.741 275.421 245.852 275.353 245.945 275.264C246.037 275.173 246.109 275.06 246.16 274.924L246.737 275.087C246.677 275.283 246.574 275.455 246.431 275.603C246.287 275.75 246.11 275.865 245.899 275.948C245.688 276.029 245.451 276.07 245.187 276.07ZM251.199 272.097L249.76 275.988H249.152L247.713 272.097H248.362L249.436 275.198H249.477L250.551 272.097H251.199ZM253.908 276.07C253.534 276.07 253.21 275.987 252.938 275.821C252.668 275.654 252.459 275.421 252.312 275.122C252.167 274.821 252.095 274.472 252.095 274.073C252.095 273.675 252.167 273.323 252.312 273.019C252.459 272.714 252.664 272.476 252.926 272.305C253.189 272.133 253.496 272.047 253.848 272.047C254.05 272.047 254.25 272.08 254.448 272.148C254.646 272.215 254.826 272.325 254.988 272.477C255.15 272.628 255.279 272.827 255.375 273.075C255.472 273.323 255.52 273.629 255.52 273.992V274.246H252.52V273.729H254.912C254.912 273.509 254.868 273.313 254.78 273.141C254.694 272.969 254.571 272.833 254.41 272.733C254.251 272.633 254.064 272.584 253.848 272.584C253.61 272.584 253.403 272.643 253.23 272.761C253.057 272.878 252.925 273.03 252.832 273.217C252.739 273.404 252.692 273.605 252.692 273.82V274.164C252.692 274.458 252.743 274.707 252.844 274.912C252.947 275.114 253.09 275.269 253.273 275.375C253.455 275.48 253.667 275.532 253.908 275.532C254.066 275.532 254.207 275.511 254.334 275.467C254.462 275.421 254.573 275.353 254.666 275.264C254.759 275.173 254.831 275.06 254.881 274.924L255.459 275.087C255.398 275.283 255.296 275.455 255.152 275.603C255.009 275.75 254.831 275.865 254.62 275.948C254.409 276.029 254.172 276.07 253.908 276.07ZM257.455 270.8V275.988H256.857V270.8H257.455ZM260.559 276.07C260.208 276.07 259.899 275.986 259.634 275.819C259.371 275.652 259.165 275.418 259.016 275.117C258.869 274.816 258.796 274.465 258.796 274.063C258.796 273.658 258.869 273.304 259.016 273.002C259.165 272.699 259.371 272.465 259.634 272.297C259.899 272.13 260.208 272.047 260.559 272.047C260.91 272.047 261.218 272.13 261.481 272.297C261.746 272.465 261.952 272.699 262.099 273.002C262.248 273.304 262.322 273.658 262.322 274.063C262.322 274.465 262.248 274.816 262.099 275.117C261.952 275.418 261.746 275.652 261.481 275.819C261.218 275.986 260.91 276.07 260.559 276.07ZM260.559 275.532C260.826 275.532 261.045 275.464 261.218 275.327C261.39 275.19 261.517 275.011 261.6 274.788C261.683 274.565 261.724 274.323 261.724 274.063C261.724 273.803 261.683 273.561 261.6 273.336C261.517 273.111 261.39 272.93 261.218 272.791C261.045 272.653 260.826 272.584 260.559 272.584C260.292 272.584 260.072 272.653 259.9 272.791C259.728 272.93 259.6 273.111 259.518 273.336C259.435 273.561 259.394 273.803 259.394 274.063C259.394 274.323 259.435 274.565 259.518 274.788C259.6 275.011 259.728 275.19 259.9 275.327C260.072 275.464 260.292 275.532 260.559 275.532ZM263.663 277.448V272.097H264.24V272.715H264.311C264.355 272.648 264.416 272.562 264.494 272.457C264.573 272.351 264.686 272.256 264.833 272.173C264.982 272.089 265.183 272.047 265.436 272.047C265.764 272.047 266.053 272.129 266.302 272.292C266.552 272.456 266.748 272.688 266.888 272.989C267.028 273.29 267.098 273.644 267.098 274.053C267.098 274.465 267.028 274.822 266.888 275.125C266.748 275.425 266.553 275.658 266.305 275.824C266.057 275.988 265.77 276.07 265.446 276.07C265.196 276.07 264.996 276.028 264.846 275.945C264.696 275.861 264.58 275.766 264.499 275.659C264.418 275.551 264.355 275.462 264.311 275.391H264.261V277.448H263.663ZM264.25 274.043C264.25 274.337 264.294 274.596 264.38 274.821C264.466 275.044 264.592 275.218 264.757 275.345C264.923 275.47 265.125 275.532 265.365 275.532C265.615 275.532 265.824 275.467 265.991 275.335C266.16 275.201 266.286 275.022 266.371 274.798C266.457 274.571 266.5 274.32 266.5 274.043C266.5 273.769 266.458 273.523 266.373 273.303C266.291 273.082 266.165 272.907 265.996 272.779C265.829 272.649 265.618 272.584 265.365 272.584C265.122 272.584 264.918 272.645 264.752 272.769C264.587 272.89 264.462 273.061 264.377 273.28C264.293 273.498 264.25 273.752 264.25 274.043ZM270.069 276.07C269.695 276.07 269.371 275.987 269.099 275.821C268.829 275.654 268.62 275.421 268.473 275.122C268.328 274.821 268.256 274.472 268.256 274.073C268.256 273.675 268.328 273.323 268.473 273.019C268.62 272.714 268.825 272.476 269.087 272.305C269.35 272.133 269.657 272.047 270.009 272.047C270.211 272.047 270.411 272.08 270.609 272.148C270.807 272.215 270.987 272.325 271.149 272.477C271.311 272.628 271.44 272.827 271.536 273.075C271.633 273.323 271.681 273.629 271.681 273.992V274.246H268.681V273.729H271.073C271.073 273.509 271.029 273.313 270.941 273.141C270.855 272.969 270.731 272.833 270.571 272.733C270.412 272.633 270.225 272.584 270.009 272.584C269.771 272.584 269.564 272.643 269.391 272.761C269.218 272.878 269.086 273.03 268.993 273.217C268.9 273.404 268.853 273.605 268.853 273.82V274.164C268.853 274.458 268.904 274.707 269.005 274.912C269.108 275.114 269.251 275.269 269.434 275.375C269.616 275.48 269.828 275.532 270.069 275.532C270.227 275.532 270.368 275.511 270.495 275.467C270.623 275.421 270.734 275.353 270.827 275.264C270.92 275.173 270.992 275.06 271.042 274.924L271.62 275.087C271.559 275.283 271.457 275.455 271.313 275.603C271.17 275.75 270.992 275.865 270.781 275.948C270.57 276.029 270.333 276.07 270.069 276.07ZM273.018 275.988V272.097H273.596V272.685H273.636C273.707 272.492 273.836 272.336 274.021 272.216C274.207 272.096 274.417 272.036 274.65 272.036C274.694 272.036 274.748 272.037 274.814 272.039C274.88 272.041 274.93 272.043 274.964 272.047V272.655C274.943 272.65 274.897 272.642 274.824 272.632C274.753 272.62 274.678 272.614 274.599 272.614C274.41 272.614 274.241 272.654 274.092 272.733C273.945 272.811 273.829 272.919 273.743 273.057C273.658 273.194 273.616 273.35 273.616 273.526V275.988H273.018Z" fill="#6D758F"/>
<rect x="295.108" y="102.927" width="32.9346" height="58.8251" rx="4.57756" fill="#4E9FFF" stroke="#8DC1FF" stroke-width="0.356693"/>
<rect x="295.108" y="164.486" width="32.9346" height="13.3247" rx="4.57756" fill="#BBDAFF" stroke="#C3DDFF" stroke-width="0.356693"/>
<rect x="295.108" y="180.546" width="32.9346" height="25.7508" rx="4.57756" fill="#BBDAFF" stroke="#E3EFFF" stroke-width="0.356693"/>
<rect x="295.108" y="209.031" width="32.9346" height="52.2671" rx="4.57756" fill="url(#paint4_linear_5470_6613)" stroke="#8DC1FF" stroke-width="0.356693"/>
<path d="M298.633 275.988H297.974L299.879 270.8H300.528L302.433 275.988H301.774L300.224 271.621H300.183L298.633 275.988ZM298.876 273.962H301.531V274.519H298.876V273.962ZM304.186 273.648V275.988H303.588V272.097H304.166V272.705H304.216C304.308 272.508 304.446 272.349 304.632 272.229C304.818 272.107 305.057 272.047 305.351 272.047C305.615 272.047 305.845 272.101 306.043 272.209C306.24 272.315 306.394 272.477 306.504 272.695C306.614 272.911 306.669 273.185 306.669 273.516V275.988H306.071V273.556C306.071 273.251 305.991 273.013 305.833 272.842C305.674 272.67 305.456 272.584 305.179 272.584C304.988 272.584 304.818 272.625 304.667 272.708C304.519 272.791 304.401 272.911 304.315 273.07C304.229 273.229 304.186 273.421 304.186 273.648ZM309.334 276.08C309.088 276.08 308.864 276.033 308.663 275.94C308.462 275.846 308.302 275.71 308.184 275.532C308.066 275.353 308.007 275.137 308.007 274.884C308.007 274.661 308.051 274.48 308.138 274.342C308.226 274.202 308.344 274.092 308.491 274.012C308.638 273.933 308.8 273.874 308.977 273.835C309.156 273.795 309.336 273.763 309.517 273.739C309.753 273.708 309.945 273.686 310.092 273.67C310.24 273.654 310.348 273.626 310.416 273.587C310.485 273.548 310.52 273.48 310.52 273.384V273.364C310.52 273.114 310.451 272.92 310.315 272.781C310.18 272.643 309.974 272.574 309.699 272.574C309.414 272.574 309.19 272.636 309.028 272.761C308.866 272.886 308.752 273.019 308.686 273.161L308.118 272.959C308.22 272.722 308.355 272.538 308.524 272.406C308.694 272.273 308.88 272.18 309.081 272.128C309.284 272.074 309.483 272.047 309.679 272.047C309.804 272.047 309.947 272.062 310.109 272.092C310.273 272.121 310.431 272.181 310.583 272.272C310.737 272.363 310.864 272.501 310.966 272.685C311.067 272.869 311.118 273.116 311.118 273.425V275.988H310.52V275.462H310.489C310.449 275.546 310.381 275.636 310.287 275.733C310.192 275.829 310.066 275.911 309.909 275.978C309.752 276.046 309.561 276.08 309.334 276.08ZM309.425 275.543C309.662 275.543 309.861 275.496 310.023 275.403C310.187 275.31 310.31 275.19 310.393 275.044C310.478 274.897 310.52 274.742 310.52 274.58V274.033C310.494 274.063 310.439 274.091 310.353 274.116C310.268 274.14 310.17 274.161 310.059 274.18C309.949 274.197 309.842 274.212 309.737 274.225C309.634 274.237 309.55 274.247 309.486 274.256C309.331 274.276 309.186 274.309 309.05 274.354C308.917 274.398 308.809 274.465 308.726 274.555C308.645 274.642 308.605 274.762 308.605 274.914C308.605 275.122 308.681 275.279 308.835 275.386C308.991 275.49 309.187 275.543 309.425 275.543ZM313.235 270.8V275.988H312.637V270.8H313.235ZM315.143 277.448C315.042 277.448 314.951 277.439 314.872 277.422C314.793 277.407 314.738 277.392 314.707 277.377L314.859 276.85C315.004 276.887 315.133 276.9 315.244 276.89C315.356 276.88 315.455 276.83 315.541 276.741C315.629 276.653 315.709 276.51 315.781 276.313L315.893 276.009L314.454 272.097H315.102L316.177 275.198H316.217L317.291 272.097H317.94L316.288 276.556C316.214 276.757 316.122 276.923 316.012 277.055C315.902 277.188 315.775 277.287 315.629 277.351C315.486 277.416 315.324 277.448 315.143 277.448ZM321.913 272.969L321.376 273.121C321.342 273.031 321.293 272.944 321.227 272.86C321.162 272.774 321.075 272.703 320.963 272.647C320.852 272.591 320.709 272.563 320.535 272.563C320.297 272.563 320.098 272.618 319.94 272.728C319.783 272.836 319.704 272.974 319.704 273.141C319.704 273.29 319.758 273.407 319.866 273.493C319.974 273.579 320.143 273.651 320.373 273.708L320.951 273.85C321.298 273.935 321.558 274.064 321.728 274.238C321.899 274.41 321.984 274.632 321.984 274.904C321.984 275.127 321.92 275.326 321.792 275.502C321.665 275.678 321.488 275.816 321.26 275.918C321.032 276.019 320.766 276.07 320.464 276.07C320.067 276.07 319.739 275.983 319.479 275.811C319.219 275.639 319.054 275.387 318.985 275.056L319.552 274.914C319.606 275.124 319.708 275.281 319.859 275.386C320.011 275.49 320.209 275.543 320.454 275.543C320.733 275.543 320.954 275.483 321.118 275.365C321.283 275.245 321.366 275.102 321.366 274.935C321.366 274.799 321.319 274.686 321.224 274.595C321.13 274.502 320.984 274.433 320.788 274.387L320.14 274.235C319.783 274.151 319.522 274.02 319.355 273.843C319.189 273.664 319.106 273.44 319.106 273.171C319.106 272.952 319.168 272.758 319.291 272.589C319.416 272.42 319.586 272.287 319.8 272.191C320.017 272.095 320.261 272.047 320.535 272.047C320.92 272.047 321.222 272.131 321.442 272.3C321.663 272.469 321.82 272.692 321.913 272.969ZM325.004 272.097V272.604H322.988V272.097H325.004ZM323.576 271.165H324.173V274.874C324.173 275.043 324.198 275.169 324.247 275.254C324.298 275.337 324.362 275.392 324.439 275.421C324.519 275.448 324.602 275.462 324.69 275.462C324.756 275.462 324.81 275.458 324.852 275.451C324.895 275.443 324.928 275.436 324.954 275.431L325.075 275.968C325.035 275.983 324.978 275.999 324.906 276.014C324.833 276.031 324.741 276.039 324.629 276.039C324.461 276.039 324.295 276.003 324.133 275.93C323.972 275.858 323.839 275.747 323.733 275.598C323.628 275.45 323.576 275.262 323.576 275.036V271.165Z" fill="#6D758F"/>
</g>
<defs>
<filter id="filter0_d_5470_6613" x="15.62" y="3.62" width="370.76" height="330.528" filterUnits="userSpaceOnUse" color-interpolation-filters="sRGB">
<feFlood flood-opacity="0" result="BackgroundImageFix"/>
<feColorMatrix in="SourceAlpha" type="matrix" values="0 0 0 0 0 0 0 0 0 0 0 0 0 0 0 0 0 0 127 0" result="hardAlpha"/>
<feOffset/>
<feGaussianBlur stdDeviation="17.19"/>
<feComposite in2="hardAlpha" operator="out"/>
<feColorMatrix type="matrix" values="0 0 0 0 0.0969792 0 0 0 0 0.127894 0 0 0 0 0.2375 0 0 0 0.18 0"/>
<feBlend mode="normal" in2="BackgroundImageFix" result="effect1_dropShadow_5470_6613"/>
<feBlend mode="normal" in="SourceGraphic" in2="effect1_dropShadow_5470_6613" result="shape"/>
</filter>
<linearGradient id="paint0_linear_5470_6613" x1="200.5" y1="0" x2="200.5" y2="337" gradientUnits="userSpaceOnUse">
<stop stop-color="#BAF4EC"/>
<stop offset="1" stop-color="#E7FFFC"/>
</linearGradient>
<linearGradient id="paint1_linear_5470_6613" x1="132.203" y1="206.298" x2="159.135" y2="261.595" gradientUnits="userSpaceOnUse">
<stop stop-color="#4E9FFF"/>
<stop offset="1" stop-color="#2388FF"/>
</linearGradient>
<linearGradient id="paint2_linear_5470_6613" x1="187.489" y1="212.064" x2="209.938" y2="263.537" gradientUnits="userSpaceOnUse">
<stop stop-color="#4E9FFF"/>
<stop offset="1" stop-color="#2388FF"/>
</linearGradient>
<linearGradient id="paint3_linear_5470_6613" x1="242.778" y1="160.954" x2="304.651" y2="230.689" gradientUnits="userSpaceOnUse">
<stop stop-color="#4E9FFF"/>
<stop offset="1" stop-color="#2388FF"/>
</linearGradient>
<linearGradient id="paint4_linear_5470_6613" x1="298.063" y1="208.853" x2="322.991" y2="262.52" gradientUnits="userSpaceOnUse">
<stop stop-color="#4E9FFF"/>
<stop offset="1" stop-color="#2388FF"/>
</linearGradient>
</defs>
</svg>
