<svg width="768" height="427" viewBox="0 0 768 427" fill="none" xmlns="http://www.w3.org/2000/svg">
<rect width="768" height="427" rx="24" fill="url(#paint0_linear_5470_7547)"/>
<rect x="36.7896" y="37.6797" width="349.044" height="201.791" rx="21.49" fill="white"/>
<rect x="36.7896" y="37.6797" width="349.044" height="201.791" rx="21.49" stroke="url(#paint1_linear_5470_7547)" stroke-width="4.42081"/>
<path d="M61.4649 80.1698H58.7537L63.69 66.1482H66.8256L71.7688 80.1698H69.0576L65.3126 69.0237H65.203L61.4649 80.1698ZM61.5539 74.6721H68.948V76.7123H61.5539V74.6721ZM80.2088 75.747V69.6536H82.6872V80.1698H80.2841V78.3007H80.1745C79.9372 78.8895 79.5469 79.371 79.0038 79.7453C78.4652 80.1196 77.8011 80.3067 77.0115 80.3067C76.3222 80.3067 75.7129 80.1538 75.1835 79.848C74.6586 79.5376 74.2478 79.088 73.9511 78.4992C73.6544 77.9059 73.5061 77.1893 73.5061 76.3494V69.6536H75.9845V75.966C75.9845 76.6324 76.1671 77.1619 76.5322 77.5544C76.8973 77.947 77.3766 78.1432 77.97 78.1432C78.3351 78.1432 78.6888 78.0542 79.0312 77.8762C79.3735 77.6982 79.6542 77.4335 79.8733 77.082C80.0969 76.726 80.2088 76.281 80.2088 75.747ZM90.487 69.6536V71.5706H84.4416V69.6536H90.487ZM85.9341 67.1341H88.4125V77.0067C88.4125 77.3399 88.4627 77.5955 88.5631 77.7735C88.6681 77.947 88.8051 78.0656 88.9739 78.1295C89.1428 78.1934 89.33 78.2254 89.5353 78.2254C89.6905 78.2254 89.832 78.214 89.9598 78.1911C90.0922 78.1683 90.1926 78.1478 90.2611 78.1295L90.6787 80.0671C90.5463 80.1127 90.3569 80.1629 90.1104 80.2177C89.8685 80.2725 89.5719 80.3044 89.2204 80.3135C88.5997 80.3318 88.0405 80.2382 87.543 80.0328C87.0455 79.8229 86.6507 79.4988 86.3586 79.0606C86.071 78.6225 85.9295 78.0748 85.9341 77.4175V67.1341ZM97.0339 80.3752C96.007 80.3752 95.1169 80.1492 94.3638 79.6974C93.6107 79.2455 93.0265 78.6133 92.6111 77.8009C92.2003 76.9884 91.9949 76.0391 91.9949 74.9528C91.9949 73.8665 92.2003 72.9148 92.6111 72.0978C93.0265 71.2808 93.6107 70.6463 94.3638 70.1945C95.1169 69.7426 96.007 69.5167 97.0339 69.5167C98.0609 69.5167 98.9509 69.7426 99.704 70.1945C100.457 70.6463 101.039 71.2808 101.45 72.0978C101.865 72.9148 102.073 73.8665 102.073 74.9528C102.073 76.0391 101.865 76.9884 101.45 77.8009C101.039 78.6133 100.457 79.2455 99.704 79.6974C98.9509 80.1492 98.0609 80.3752 97.0339 80.3752ZM97.0476 78.3897C97.6045 78.3897 98.07 78.2368 98.4443 77.931C98.8186 77.6206 99.097 77.2053 99.2796 76.6849C99.4667 76.1646 99.5603 75.5849 99.5603 74.9459C99.5603 74.3024 99.4667 73.7204 99.2796 73.2001C99.097 72.6752 98.8186 72.2575 98.4443 71.9472C98.07 71.6368 97.6045 71.4816 97.0476 71.4816C96.4771 71.4816 96.0024 71.6368 95.6236 71.9472C95.2493 72.2575 94.9686 72.6752 94.7814 73.2001C94.5989 73.7204 94.5076 74.3024 94.5076 74.9459C94.5076 75.5849 94.5989 76.1646 94.7814 76.6849C94.9686 77.2053 95.2493 77.6206 95.6236 77.931C96.0024 78.2368 96.4771 78.3897 97.0476 78.3897ZM104.177 80.1698V69.6536H106.545V71.4405H106.669C106.888 70.838 107.251 70.3679 107.757 70.0302C108.264 69.6878 108.869 69.5167 109.572 69.5167C110.284 69.5167 110.884 69.6901 111.372 70.037C111.865 70.3793 112.212 70.8472 112.413 71.4405H112.522C112.755 70.8563 113.148 70.3907 113.7 70.0439C114.257 69.6924 114.916 69.5167 115.679 69.5167C116.646 69.5167 117.436 69.8225 118.047 70.4341C118.659 71.0457 118.965 71.938 118.965 73.1111V80.1698H116.48V73.4945C116.48 72.8418 116.306 72.3648 115.959 72.0636C115.612 71.7578 115.188 71.6048 114.686 71.6048C114.088 71.6048 113.62 71.792 113.282 72.1663C112.949 72.536 112.783 73.0175 112.783 73.6109V80.1698H110.352V73.3918C110.352 72.8486 110.188 72.415 109.859 72.0909C109.535 71.7669 109.111 71.6048 108.586 71.6048C108.23 71.6048 107.906 71.6961 107.613 71.8787C107.321 72.0567 107.089 72.31 106.915 72.6387C106.742 72.9627 106.655 73.3416 106.655 73.7752V80.1698H104.177ZM124.505 80.382C123.839 80.382 123.239 80.2633 122.705 80.026C122.175 79.7841 121.755 79.4281 121.445 78.9579C121.139 78.4878 120.986 77.9082 120.986 77.2189C120.986 76.6256 121.096 76.1349 121.315 75.747C121.534 75.359 121.833 75.0486 122.212 74.8158C122.591 74.5831 123.017 74.4073 123.492 74.2887C123.971 74.1654 124.467 74.0764 124.978 74.0216C125.594 73.9577 126.094 73.9007 126.477 73.8505C126.861 73.7957 127.139 73.7136 127.312 73.604C127.49 73.4899 127.579 73.3142 127.579 73.0768V73.0358C127.579 72.52 127.427 72.1206 127.121 71.8376C126.815 71.5546 126.374 71.4131 125.799 71.4131C125.192 71.4131 124.711 71.5455 124.355 71.8102C124.003 72.075 123.766 72.3876 123.643 72.7482L121.329 72.4196C121.511 71.7806 121.812 71.2465 122.232 70.8175C122.652 70.3839 123.166 70.0598 123.773 69.8453C124.38 69.6262 125.051 69.5167 125.786 69.5167C126.292 69.5167 126.797 69.576 127.299 69.6947C127.801 69.8134 128.26 70.0096 128.675 70.2835C129.09 70.5528 129.423 70.9202 129.674 71.3858C129.93 71.8513 130.058 72.4333 130.058 73.1316V80.1698H127.675V78.7252H127.593C127.442 79.0173 127.23 79.2911 126.956 79.5467C126.687 79.7978 126.347 80.0009 125.936 80.1561C125.53 80.3067 125.053 80.382 124.505 80.382ZM125.149 78.5609C125.646 78.5609 126.078 78.4627 126.443 78.2665C126.808 78.0656 127.089 77.8009 127.285 77.4723C127.486 77.1436 127.586 76.7853 127.586 76.3974V75.1582C127.509 75.2221 127.376 75.2814 127.189 75.3362C127.007 75.3909 126.801 75.4389 126.573 75.4799C126.345 75.521 126.119 75.5575 125.895 75.5895C125.672 75.6214 125.478 75.6488 125.313 75.6716C124.944 75.7219 124.613 75.804 124.321 75.9181C124.028 76.0322 123.798 76.192 123.629 76.3974C123.46 76.5982 123.376 76.8584 123.376 77.1779C123.376 77.6343 123.542 77.9789 123.875 78.2117C124.209 78.4445 124.633 78.5609 125.149 78.5609ZM137.801 69.6536V71.5706H131.756V69.6536H137.801ZM133.248 67.1341H135.727V77.0067C135.727 77.3399 135.777 77.5955 135.877 77.7735C135.982 77.947 136.119 78.0656 136.288 78.1295C136.457 78.1934 136.644 78.2254 136.85 78.2254C137.005 78.2254 137.146 78.214 137.274 78.1911C137.406 78.1683 137.507 78.1478 137.575 78.1295L137.993 80.0671C137.861 80.1127 137.671 80.1629 137.425 80.2177C137.183 80.2725 136.886 80.3044 136.535 80.3135C135.914 80.3318 135.355 80.2382 134.857 80.0328C134.36 79.8229 133.965 79.4988 133.673 79.0606C133.385 78.6225 133.244 78.0748 133.248 77.4175V67.1341ZM144.417 80.3752C143.362 80.3752 142.452 80.1561 141.685 79.7179C140.923 79.2752 140.336 78.6499 139.925 77.842C139.515 77.0295 139.309 76.0733 139.309 74.9733C139.309 73.8916 139.515 72.9422 139.925 72.1252C140.341 71.3036 140.92 70.6646 141.664 70.2082C142.408 69.7472 143.282 69.5167 144.286 69.5167C144.935 69.5167 145.546 69.6217 146.121 69.8316C146.701 70.037 147.212 70.3565 147.655 70.7901C148.102 71.2237 148.454 71.776 148.709 72.447C148.965 73.1133 149.093 73.9075 149.093 74.8295V75.5895H140.473V73.919H146.717C146.712 73.4443 146.61 73.0221 146.409 72.6524C146.208 72.2781 145.927 71.9837 145.567 71.7692C145.211 71.5546 144.795 71.4474 144.321 71.4474C143.814 71.4474 143.369 71.5706 142.986 71.8171C142.602 72.059 142.303 72.3785 142.089 72.7756C141.879 73.1681 141.772 73.5994 141.767 74.0696V75.5279C141.767 76.1395 141.879 76.6644 142.102 77.1026C142.326 77.5362 142.639 77.8694 143.04 78.1021C143.442 78.3304 143.912 78.4445 144.451 78.4445C144.811 78.4445 145.138 78.3943 145.43 78.2938C145.722 78.1889 145.975 78.036 146.19 77.8351C146.404 77.6343 146.566 77.3855 146.676 77.0889L148.99 77.349C148.844 77.9606 148.566 78.4947 148.155 78.9511C147.749 79.403 147.228 79.7544 146.594 80.0055C145.959 80.2519 145.234 80.3752 144.417 80.3752Z" fill="black"/>
<path d="M58.877 115.207L60.0621 115.103C60.1182 115.578 60.2477 115.969 60.4506 116.275C60.6579 116.577 60.9773 116.823 61.4091 117.013C61.8408 117.199 62.3265 117.292 62.8661 117.292C63.3453 117.292 63.7684 117.221 64.1354 117.078C64.5023 116.936 64.7743 116.741 64.9513 116.495C65.1326 116.245 65.2233 115.973 65.2233 115.679C65.2233 115.382 65.137 115.122 64.9643 114.902C64.7916 114.678 64.5066 114.49 64.1095 114.339C63.8547 114.24 63.2914 114.086 62.4193 113.879C61.5472 113.668 60.9363 113.469 60.5866 113.283C60.1333 113.046 59.7944 112.752 59.5699 112.403C59.3498 112.049 59.2397 111.654 59.2397 111.218C59.2397 110.738 59.3757 110.292 59.6476 109.877C59.9196 109.458 60.3168 109.141 60.8392 108.925C61.3616 108.709 61.9422 108.601 62.5812 108.601C63.2849 108.601 63.9044 108.716 64.4397 108.945C64.9794 109.169 65.3938 109.502 65.6831 109.942C65.9723 110.382 66.1278 110.881 66.1493 111.438L64.9448 111.528C64.8801 110.928 64.6599 110.475 64.2843 110.169C63.913 109.862 63.3626 109.709 62.633 109.709C61.8732 109.709 61.3184 109.849 60.9687 110.13C60.6233 110.406 60.4506 110.741 60.4506 111.133C60.4506 111.474 60.5737 111.755 60.8198 111.975C61.0615 112.195 61.6918 112.422 62.7107 112.655C63.7339 112.884 64.4354 113.085 64.8153 113.257C65.3679 113.512 65.7759 113.836 66.0392 114.229C66.3026 114.617 66.4343 115.066 66.4343 115.576C66.4343 116.081 66.2896 116.558 66.0004 117.007C65.7111 117.452 65.2945 117.799 64.7506 118.05C64.2109 118.296 63.6022 118.419 62.9244 118.419C62.0653 118.419 61.3443 118.293 60.7615 118.043C60.183 117.793 59.7275 117.417 59.3951 116.916C59.067 116.411 58.8943 115.841 58.877 115.207ZM68.0014 118.257V108.763H69.1671V112.17C69.711 111.539 70.3975 111.224 71.2264 111.224C71.7358 111.224 72.1783 111.326 72.5539 111.528C72.9295 111.727 73.1972 112.003 73.3569 112.357C73.5209 112.711 73.603 113.225 73.603 113.899V118.257H72.4373V113.899C72.4373 113.316 72.31 112.893 72.0553 112.629C71.8049 112.362 71.4487 112.228 70.9868 112.228C70.6414 112.228 70.3154 112.318 70.0089 112.5C69.7067 112.677 69.4908 112.919 69.3613 113.225C69.2318 113.532 69.1671 113.955 69.1671 114.494V118.257H68.0014ZM74.9499 114.818C74.9499 113.545 75.304 112.601 76.012 111.988C76.6034 111.479 77.3244 111.224 78.1749 111.224C79.1204 111.224 79.8931 111.535 80.4932 112.157C81.0933 112.774 81.3934 113.629 81.3934 114.721C81.3934 115.606 81.2595 116.303 80.9919 116.813C80.7285 117.318 80.3421 117.711 79.8327 117.991C79.3276 118.272 78.775 118.412 78.1749 118.412C77.2122 118.412 76.4329 118.104 75.8371 117.486C75.2457 116.869 74.9499 115.979 74.9499 114.818ZM76.148 114.818C76.148 115.699 76.3401 116.359 76.7243 116.8C77.1085 117.236 77.5921 117.454 78.1749 117.454C78.7534 117.454 79.2348 117.234 79.619 116.793C80.0032 116.353 80.1953 115.682 80.1953 114.779C80.1953 113.929 80.0011 113.286 79.6125 112.849C79.2283 112.409 78.7491 112.189 78.1749 112.189C77.5921 112.189 77.1085 112.407 76.7243 112.843C76.3401 113.279 76.148 113.937 76.148 114.818ZM82.7533 118.257V111.379H83.8023V112.422C84.07 111.934 84.3161 111.613 84.5406 111.457C84.7694 111.302 85.0198 111.224 85.2918 111.224C85.6846 111.224 86.084 111.349 86.4898 111.6L86.0883 112.681C85.8034 112.513 85.5184 112.429 85.2335 112.429C84.9788 112.429 84.75 112.506 84.5471 112.662C84.3442 112.813 84.1995 113.024 84.1132 113.296C83.9837 113.711 83.9189 114.164 83.9189 114.656V118.257H82.7533ZM89.7277 117.214L89.8961 118.244C89.568 118.313 89.2744 118.347 89.0154 118.347C88.5923 118.347 88.2642 118.281 88.031 118.147C87.7979 118.013 87.6339 117.838 87.5389 117.622C87.4439 117.402 87.3964 116.942 87.3964 116.243V112.286H86.5416V111.379H87.3964V109.676L88.5556 108.977V111.379H89.7277V112.286H88.5556V116.308C88.5556 116.64 88.575 116.854 88.6139 116.949C88.657 117.044 88.724 117.119 88.8146 117.175C88.9096 117.231 89.0434 117.26 89.2161 117.26C89.3456 117.26 89.5162 117.244 89.7277 117.214ZM90.848 118.257V108.763H92.0137V118.257H90.848ZM93.8334 110.104V108.763H94.999V110.104H93.8334ZM93.8334 118.257V111.379H94.999V118.257H93.8334ZM96.3136 116.204L97.4663 116.023C97.531 116.485 97.7102 116.839 98.0038 117.085C98.3016 117.331 98.7161 117.454 99.2471 117.454C99.7824 117.454 100.18 117.346 100.439 117.13C100.698 116.91 100.827 116.653 100.827 116.359C100.827 116.096 100.713 115.889 100.484 115.738C100.324 115.634 99.9271 115.502 99.2924 115.343C98.4376 115.127 97.844 114.941 97.5116 114.786C97.1835 114.626 96.9331 114.408 96.7604 114.132C96.592 113.851 96.5079 113.542 96.5079 113.206C96.5079 112.899 96.5769 112.616 96.7151 112.357C96.8575 112.094 97.0497 111.876 97.2914 111.703C97.4727 111.569 97.7188 111.457 98.0297 111.367C98.3448 111.272 98.6816 111.224 99.0399 111.224C99.5795 111.224 100.052 111.302 100.458 111.457C100.868 111.613 101.17 111.824 101.365 112.092C101.559 112.355 101.693 112.709 101.766 113.154L100.626 113.309C100.575 112.955 100.424 112.679 100.173 112.48C99.9271 112.282 99.5774 112.182 99.1241 112.182C98.5887 112.182 98.2067 112.271 97.9779 112.448C97.749 112.625 97.6346 112.832 97.6346 113.07C97.6346 113.221 97.6821 113.357 97.7771 113.478C97.8721 113.603 98.021 113.706 98.2239 113.788C98.3405 113.832 98.6837 113.931 99.2536 114.086C100.078 114.307 100.652 114.488 100.976 114.63C101.304 114.768 101.561 114.971 101.747 115.239C101.932 115.507 102.025 115.839 102.025 116.236C102.025 116.625 101.911 116.992 101.682 117.337C101.458 117.678 101.132 117.944 100.704 118.134C100.277 118.319 99.7932 118.412 99.2536 118.412C98.3599 118.412 97.6778 118.227 97.2072 117.855C96.741 117.484 96.4431 116.934 96.3136 116.204ZM105.956 117.214L106.124 118.244C105.796 118.313 105.503 118.347 105.244 118.347C104.821 118.347 104.493 118.281 104.259 118.147C104.026 118.013 103.862 117.838 103.767 117.622C103.672 117.402 103.625 116.942 103.625 116.243V112.286H102.77V111.379H103.625V109.676L104.784 108.977V111.379H105.956V112.286H104.784V116.308C104.784 116.64 104.803 116.854 104.842 116.949C104.885 117.044 104.952 117.119 105.043 117.175C105.138 117.231 105.272 117.26 105.444 117.26C105.574 117.26 105.744 117.244 105.956 117.214Z" fill="#4A5565"/>
<g clip-path="url(#clip0_5470_7547)">
<path d="M249.406 114.091C249.406 111.65 251.386 109.671 253.827 109.671H315.718C318.16 109.671 320.139 111.65 320.139 114.091C320.139 116.533 318.16 118.512 315.718 118.512H253.827C251.386 118.512 249.406 116.533 249.406 114.091Z" fill="#E5E7EB"/>
<path d="M249.406 114.091C249.406 111.65 251.386 109.671 253.827 109.671H312.886C315.328 109.671 317.307 111.65 317.307 114.091C317.307 116.533 315.328 118.512 312.886 118.512H253.827C251.386 118.512 249.406 116.533 249.406 114.091Z" fill="#17B26A"/>
</g>
<path d="M349.122 115.152L351.177 114.925C351.227 115.343 351.358 115.653 351.569 115.855C351.781 116.056 352.06 116.157 352.408 116.157C352.846 116.157 353.219 115.955 353.526 115.552C353.833 115.149 354.03 114.313 354.115 113.044C353.582 113.664 352.914 113.973 352.113 113.973C351.242 113.973 350.489 113.638 349.854 112.969C349.225 112.294 348.91 111.417 348.91 110.339C348.91 109.216 349.242 108.312 349.907 107.627C350.577 106.937 351.428 106.592 352.461 106.592C353.584 106.592 354.506 107.028 355.226 107.899C355.946 108.765 356.306 110.193 356.306 112.183C356.306 114.208 355.931 115.668 355.181 116.565C354.43 117.461 353.453 117.91 352.249 117.91C351.383 117.91 350.683 117.68 350.149 117.222C349.615 116.759 349.273 116.069 349.122 115.152ZM353.927 110.513C353.927 109.828 353.768 109.297 353.451 108.919C353.138 108.541 352.776 108.352 352.363 108.352C351.97 108.352 351.642 108.508 351.381 108.821C351.124 109.128 350.995 109.634 350.995 110.339C350.995 111.055 351.136 111.581 351.418 111.918C351.7 112.251 352.053 112.417 352.476 112.417C352.884 112.417 353.226 112.256 353.503 111.933C353.786 111.611 353.927 111.138 353.927 110.513ZM364.881 109.35L362.826 109.576C362.776 109.153 362.645 108.841 362.434 108.639C362.222 108.438 361.948 108.337 361.61 108.337C361.162 108.337 360.782 108.539 360.469 108.942C360.162 109.345 359.968 110.183 359.888 111.458C360.416 110.833 361.074 110.521 361.859 110.521C362.746 110.521 363.504 110.858 364.134 111.533C364.768 112.208 365.085 113.079 365.085 114.147C365.085 115.28 364.753 116.19 364.088 116.875C363.423 117.559 362.57 117.902 361.527 117.902C360.409 117.902 359.49 117.469 358.769 116.603C358.049 115.731 357.689 114.306 357.689 112.326C357.689 110.297 358.064 108.833 358.815 107.937C359.565 107.04 360.54 106.592 361.739 106.592C362.58 106.592 363.275 106.829 363.824 107.302C364.378 107.771 364.73 108.453 364.881 109.35ZM360.069 113.981C360.069 114.671 360.228 115.205 360.545 115.583C360.862 115.955 361.225 116.142 361.633 116.142C362.026 116.142 362.353 115.988 362.615 115.681C362.877 115.374 363.008 114.87 363.008 114.17C363.008 113.45 362.867 112.923 362.585 112.591C362.303 112.253 361.95 112.085 361.527 112.085C361.119 112.085 360.774 112.246 360.492 112.568C360.21 112.885 360.069 113.356 360.069 113.981Z" fill="#101828"/>
<path d="M59.5181 149.202V139.709H60.7744V149.202H59.5181ZM62.8467 149.202V142.325H63.8958V143.303C64.4009 142.547 65.1305 142.17 66.0846 142.17C66.499 142.17 66.8789 142.245 67.2243 142.396C67.574 142.543 67.8352 142.737 68.0079 142.979C68.1806 143.221 68.3015 143.508 68.3705 143.84C68.4137 144.056 68.4353 144.434 68.4353 144.974V149.202H67.2697V145.019C67.2697 144.544 67.2243 144.19 67.1337 143.957C67.043 143.72 66.8811 143.532 66.648 143.394C66.4192 143.251 66.1493 143.18 65.8385 143.18C65.342 143.18 64.9125 143.338 64.5498 143.653C64.1915 143.968 64.0123 144.566 64.0123 145.446V149.202H62.8467ZM72.7741 148.16L72.9424 149.189C72.6143 149.259 72.3208 149.293 72.0617 149.293C71.6387 149.293 71.3105 149.226 71.0774 149.092C70.8443 148.959 70.6802 148.784 70.5853 148.568C70.4903 148.348 70.4428 147.888 70.4428 147.188V143.232H69.588V142.325H70.4428V140.622L71.602 139.923V142.325H72.7741V143.232H71.602V147.253C71.602 147.586 71.6214 147.799 71.6602 147.894C71.7034 147.989 71.7703 148.065 71.861 148.121C71.956 148.177 72.0898 148.205 72.2625 148.205C72.392 148.205 72.5625 148.19 72.7741 148.16ZM78.6282 146.988L79.8327 147.137C79.6427 147.84 79.2909 148.386 78.7771 148.775C78.2634 149.164 77.6072 149.358 76.8085 149.358C75.8026 149.358 75.0039 149.049 74.4124 148.432C73.8253 147.81 73.5317 146.94 73.5317 145.822C73.5317 144.665 73.8296 143.767 74.4254 143.128C75.0212 142.489 75.794 142.17 76.7437 142.17C77.6633 142.17 78.4145 142.483 78.9973 143.109C79.5801 143.735 79.8715 144.615 79.8715 145.751C79.8715 145.82 79.8694 145.924 79.8651 146.062H74.7362C74.7794 146.817 74.9931 147.396 75.3773 147.797C75.7616 148.199 76.2408 148.399 76.815 148.399C77.2424 148.399 77.6072 148.287 77.9094 148.063C78.2116 147.838 78.4512 147.48 78.6282 146.988ZM74.801 145.103H78.6411C78.5893 144.525 78.4426 144.091 78.2008 143.802C77.8295 143.353 77.3481 143.128 76.7567 143.128C76.2214 143.128 75.7702 143.307 75.4032 143.666C75.0406 144.024 74.8399 144.503 74.801 145.103ZM81.2897 149.202V142.325H82.3388V143.368C82.6065 142.88 82.8526 142.558 83.0771 142.403C83.3059 142.247 83.5563 142.17 83.8283 142.17C84.2211 142.17 84.6205 142.295 85.0263 142.545L84.6248 143.627C84.3398 143.458 84.0549 143.374 83.77 143.374C83.5153 143.374 83.2864 143.452 83.0835 143.607C82.8806 143.758 82.736 143.97 82.6497 144.242C82.5201 144.656 82.4554 145.11 82.4554 145.602V149.202H81.2897ZM87.6295 149.202L85.0133 142.325H86.2437L87.7202 146.444C87.8799 146.888 88.0267 147.35 88.1606 147.83C88.2642 147.467 88.4088 147.031 88.5944 146.521L90.1227 142.325H91.3207L88.7175 149.202H87.6295ZM92.3569 141.049V139.709H93.5225V141.049H92.3569ZM92.3569 149.202V142.325H93.5225V149.202H92.3569ZM100.011 146.988L101.216 147.137C101.026 147.84 100.674 148.386 100.16 148.775C99.6465 149.164 98.9902 149.358 98.1916 149.358C97.1857 149.358 96.387 149.049 95.7955 148.432C95.2084 147.81 94.9148 146.94 94.9148 145.822C94.9148 144.665 95.2127 143.767 95.8085 143.128C96.4042 142.489 97.177 142.17 98.1268 142.17C99.0464 142.17 99.7976 142.483 100.38 143.109C100.963 143.735 101.255 144.615 101.255 145.751C101.255 145.82 101.252 145.924 101.248 146.062H96.1193C96.1625 146.817 96.3762 147.396 96.7604 147.797C97.1446 148.199 97.6239 148.399 98.198 148.399C98.6254 148.399 98.9902 148.287 99.2924 148.063C99.5947 147.838 99.8343 147.48 100.011 146.988ZM96.1841 145.103H100.024C99.9724 144.525 99.8256 144.091 99.5839 143.802C99.2126 143.353 98.7312 143.128 98.1398 143.128C97.6044 143.128 97.1533 143.307 96.7863 143.666C96.4237 144.024 96.2229 144.503 96.1841 145.103ZM103.955 149.202L101.85 142.325H103.055L104.149 146.295L104.557 147.771C104.575 147.698 104.693 147.225 104.913 146.353L106.008 142.325H107.206L108.236 146.314L108.579 147.629L108.974 146.301L110.152 142.325H111.286L109.136 149.202H107.925L106.83 145.084L106.565 143.912L105.172 149.202H103.955Z" fill="#4A5565"/>
<g clip-path="url(#clip1_5470_7547)">
<path d="M249.406 145.037C249.406 142.596 251.386 140.616 253.827 140.616H315.718C318.16 140.616 320.139 142.596 320.139 145.037C320.139 147.479 318.16 149.458 315.718 149.458H253.827C251.386 149.458 249.406 147.479 249.406 145.037Z" fill="#E5E7EB"/>
<path d="M249.406 145.037C249.406 142.596 251.386 140.616 253.827 140.616H311.463C313.905 140.616 315.884 142.596 315.884 145.037C315.884 147.479 313.905 149.458 311.463 149.458H253.827C251.386 149.458 249.406 147.479 249.406 145.037Z" fill="#17B26A"/>
</g>
<path d="M349.122 146.098L351.177 145.871C351.227 146.289 351.358 146.599 351.569 146.8C351.781 147.002 352.06 147.102 352.408 147.102C352.846 147.102 353.219 146.901 353.526 146.498C353.833 146.095 354.03 145.259 354.115 143.99C353.582 144.609 352.914 144.919 352.113 144.919C351.242 144.919 350.489 144.584 349.854 143.914C349.225 143.239 348.91 142.363 348.91 141.285C348.91 140.162 349.242 139.258 349.907 138.573C350.577 137.883 351.428 137.538 352.461 137.538C353.584 137.538 354.506 137.973 355.226 138.845C355.946 139.711 356.306 141.139 356.306 143.128C356.306 145.153 355.931 146.614 355.181 147.51C354.43 148.407 353.453 148.855 352.249 148.855C351.383 148.855 350.683 148.626 350.149 148.168C349.615 147.704 349.273 147.014 349.122 146.098ZM353.927 141.459C353.927 140.774 353.768 140.242 353.451 139.865C353.138 139.487 352.776 139.298 352.363 139.298C351.97 139.298 351.642 139.454 351.381 139.766C351.124 140.074 350.995 140.58 350.995 141.285C350.995 142 351.136 142.527 351.418 142.864C351.7 143.196 352.053 143.363 352.476 143.363C352.884 143.363 353.226 143.201 353.503 142.879C353.786 142.557 353.927 142.083 353.927 141.459ZM361.852 148.659V146.43H357.319V144.571L362.124 137.538H363.907V144.564H365.282V146.43H363.907V148.659H361.852ZM361.852 144.564V140.779L359.306 144.564H361.852Z" fill="#101828"/>
<path d="M59.3303 180.148V170.655H66.1947V171.775H60.5866V174.683H65.8385V175.796H60.5866V179.028H66.4148V180.148H59.3303ZM69.9118 180.148L67.2956 173.271H68.526L70.0024 177.389C70.1622 177.834 70.309 178.296 70.4428 178.775C70.5464 178.413 70.691 177.977 70.8767 177.467L72.405 173.271H73.603L70.9997 180.148H69.9118ZM79.1204 179.3C78.6886 179.667 78.272 179.926 77.8705 180.077C77.4733 180.228 77.0459 180.304 76.5883 180.304C75.8328 180.304 75.2521 180.12 74.8463 179.753C74.4405 179.382 74.2376 178.909 74.2376 178.335C74.2376 177.998 74.3132 177.692 74.4643 177.415C74.6197 177.135 74.8204 176.91 75.0665 176.742C75.3169 176.573 75.5975 176.446 75.9084 176.36C76.1372 176.299 76.4825 176.241 76.9445 176.185C77.8856 176.073 78.5785 175.939 79.0232 175.783C79.0275 175.624 79.0297 175.522 79.0297 175.479C79.0297 175.004 78.9196 174.67 78.6994 174.475C78.4015 174.212 77.959 174.08 77.3719 174.08C76.8236 174.08 76.4178 174.177 76.1544 174.372C75.8954 174.562 75.7033 174.901 75.5781 175.388L74.4384 175.233C74.542 174.745 74.7125 174.352 74.9499 174.054C75.1874 173.752 75.5306 173.521 75.9796 173.361C76.4286 173.197 76.9488 173.115 77.5403 173.115C78.1274 173.115 78.6044 173.184 78.9714 173.323C79.3384 173.461 79.6082 173.636 79.7809 173.847C79.9536 174.054 80.0745 174.318 80.1435 174.637C80.1824 174.836 80.2018 175.194 80.2018 175.712V177.266C80.2018 178.35 80.2256 179.036 80.273 179.326C80.3248 179.611 80.4241 179.885 80.5709 180.148H79.3535C79.2326 179.906 79.1549 179.624 79.1204 179.3ZM79.0232 176.696C78.6001 176.869 77.9655 177.016 77.1193 177.137C76.6401 177.206 76.3012 177.284 76.1026 177.37C75.904 177.456 75.7508 177.584 75.6428 177.752C75.5349 177.916 75.481 178.1 75.481 178.302C75.481 178.613 75.5975 178.872 75.8306 179.08C76.0681 179.287 76.4135 179.39 76.8668 179.39C77.3158 179.39 77.7151 179.293 78.0648 179.099C78.4145 178.9 78.6714 178.631 78.8354 178.29C78.9606 178.026 79.0232 177.638 79.0232 177.124V176.696ZM81.9891 180.148V170.655H83.1548V180.148H81.9891ZM89.4751 180.148V179.138C88.9398 179.915 88.2124 180.304 87.2928 180.304C86.887 180.304 86.5071 180.226 86.1531 180.07C85.8034 179.915 85.5422 179.721 85.3695 179.488C85.2011 179.25 85.0824 178.961 85.0133 178.62C84.9658 178.391 84.9421 178.028 84.9421 177.532V173.271H86.1077V177.085C86.1077 177.694 86.1315 178.104 86.179 178.315C86.2524 178.622 86.4078 178.864 86.6452 179.041C86.8827 179.213 87.1762 179.3 87.5259 179.3C87.8756 179.3 88.2037 179.211 88.5103 179.034C88.8168 178.853 89.0326 178.609 89.1578 178.302C89.2873 177.992 89.3521 177.543 89.3521 176.956V173.271H90.5177V180.148H89.4751ZM94.8954 179.105L95.0638 180.135C94.7356 180.204 94.4421 180.239 94.183 180.239C93.76 180.239 93.4319 180.172 93.1987 180.038C92.9656 179.904 92.8015 179.729 92.7066 179.513C92.6116 179.293 92.5641 178.834 92.5641 178.134V174.177H91.7093V173.271H92.5641V171.568L93.7233 170.868V173.271H94.8954V174.177H93.7233V178.199C93.7233 178.531 93.7427 178.745 93.7815 178.84C93.8247 178.935 93.8916 179.011 93.9823 179.067C94.0773 179.123 94.2111 179.151 94.3838 179.151C94.5133 179.151 94.6838 179.136 94.8954 179.105ZM100.529 179.3C100.098 179.667 99.681 179.926 99.2795 180.077C98.8823 180.228 98.4549 180.304 97.9973 180.304C97.2418 180.304 96.6611 180.12 96.2553 179.753C95.8495 179.382 95.6466 178.909 95.6466 178.335C95.6466 177.998 95.7221 177.692 95.8732 177.415C96.0286 177.135 96.2294 176.91 96.4755 176.742C96.7259 176.573 97.0065 176.446 97.3173 176.36C97.5461 176.299 97.8915 176.241 98.3535 176.185C99.2946 176.073 99.9875 175.939 100.432 175.783C100.437 175.624 100.439 175.522 100.439 175.479C100.439 175.004 100.329 174.67 100.108 174.475C99.8105 174.212 99.368 174.08 98.7809 174.08C98.2326 174.08 97.8268 174.177 97.5634 174.372C97.3044 174.562 97.1123 174.901 96.9871 175.388L95.8473 175.233C95.9509 174.745 96.1215 174.352 96.3589 174.054C96.5964 173.752 96.9396 173.521 97.3886 173.361C97.8376 173.197 98.3578 173.115 98.9492 173.115C99.5364 173.115 100.013 173.184 100.38 173.323C100.747 173.461 101.017 173.636 101.19 173.847C101.363 174.054 101.483 174.318 101.552 174.637C101.591 174.836 101.611 175.194 101.611 175.712V177.266C101.611 178.35 101.635 179.036 101.682 179.326C101.734 179.611 101.833 179.885 101.98 180.148H100.762C100.642 179.906 100.564 179.624 100.529 179.3ZM100.432 176.696C100.009 176.869 99.3745 177.016 98.5283 177.137C98.0491 177.206 97.7102 177.284 97.5116 177.37C97.313 177.456 97.1598 177.584 97.0518 177.752C96.9439 177.916 96.8899 178.1 96.8899 178.302C96.8899 178.613 97.0065 178.872 97.2396 179.08C97.4771 179.287 97.8224 179.39 98.2757 179.39C98.7247 179.39 99.1241 179.293 99.4738 179.099C99.8235 178.9 100.08 178.631 100.244 178.29C100.37 178.026 100.432 177.638 100.432 177.124V176.696ZM103.43 171.995V170.655H104.596V171.995H103.43ZM103.43 180.148V173.271H104.596V180.148H103.43ZM105.943 176.709C105.943 175.436 106.297 174.493 107.005 173.88C107.597 173.37 108.318 173.115 109.168 173.115C110.113 173.115 110.886 173.426 111.486 174.048C112.086 174.665 112.386 175.52 112.386 176.612C112.386 177.497 112.253 178.195 111.985 178.704C111.722 179.209 111.335 179.602 110.826 179.883C110.321 180.163 109.768 180.304 109.168 180.304C108.205 180.304 107.426 179.995 106.83 179.377C106.239 178.76 105.943 177.871 105.943 176.709ZM107.141 176.709C107.141 177.59 107.333 178.251 107.717 178.691C108.102 179.127 108.585 179.345 109.168 179.345C109.747 179.345 110.228 179.125 110.612 178.685C110.996 178.244 111.188 177.573 111.188 176.671C111.188 175.82 110.994 175.177 110.606 174.741C110.221 174.3 109.742 174.08 109.168 174.08C108.585 174.08 108.102 174.298 107.717 174.734C107.333 175.17 107.141 175.829 107.141 176.709ZM113.759 180.148V173.271H114.808V174.249C115.314 173.493 116.043 173.115 116.997 173.115C117.412 173.115 117.792 173.191 118.137 173.342C118.487 173.489 118.748 173.683 118.921 173.925C119.093 174.167 119.214 174.454 119.283 174.786C119.326 175.002 119.348 175.38 119.348 175.919V180.148H118.182V175.965C118.182 175.49 118.137 175.136 118.046 174.903C117.956 174.665 117.794 174.477 117.561 174.339C117.332 174.197 117.062 174.126 116.751 174.126C116.255 174.126 115.825 174.283 115.463 174.598C115.104 174.913 114.925 175.511 114.925 176.392V180.148H113.759Z" fill="#4A5565"/>
<g clip-path="url(#clip2_5470_7547)">
<path d="M249.406 175.983C249.406 173.541 251.386 171.562 253.827 171.562H315.718C318.16 171.562 320.139 173.541 320.139 175.983C320.139 178.424 318.16 180.404 315.718 180.404H253.827C251.386 180.404 249.406 178.424 249.406 175.983Z" fill="#E5E7EB"/>
<path d="M249.406 175.983C249.406 173.541 251.386 171.562 253.827 171.562H310.054C312.496 171.562 314.475 173.541 314.475 175.983C314.475 178.424 312.496 180.404 310.054 180.404H253.827C251.386 180.404 249.406 178.424 249.406 175.983Z" fill="#17B26A"/>
</g>
<path d="M349.122 177.043L351.177 176.817C351.227 177.235 351.358 177.544 351.569 177.746C351.781 177.947 352.06 178.048 352.408 178.048C352.846 178.048 353.219 177.847 353.526 177.444C353.833 177.041 354.03 176.205 354.115 174.935C353.582 175.555 352.914 175.865 352.113 175.865C351.242 175.865 350.489 175.53 349.854 174.86C349.225 174.185 348.91 173.308 348.91 172.231C348.91 171.107 349.242 170.203 349.907 169.518C350.577 168.828 351.428 168.483 352.461 168.483C353.584 168.483 354.506 168.919 355.226 169.79C355.946 170.657 356.306 172.085 356.306 174.074C356.306 176.099 355.931 177.559 355.181 178.456C354.43 179.353 353.453 179.801 352.249 179.801C351.383 179.801 350.683 179.572 350.149 179.113C349.615 178.65 349.273 177.96 349.122 177.043ZM353.927 172.404C353.927 171.719 353.768 171.188 353.451 170.81C353.138 170.433 352.776 170.244 352.363 170.244C351.97 170.244 351.642 170.4 351.381 170.712C351.124 171.019 350.995 171.525 350.995 172.231C350.995 172.946 351.136 173.472 351.418 173.81C351.7 174.142 352.053 174.308 352.476 174.308C352.884 174.308 353.226 174.147 353.503 173.825C353.786 173.502 353.927 173.029 353.927 172.404ZM364.859 177.633V179.604H357.417C357.498 178.859 357.739 178.154 358.142 177.489C358.545 176.819 359.341 175.933 360.53 174.83C361.487 173.938 362.073 173.334 362.29 173.016C362.582 172.578 362.728 172.145 362.728 171.717C362.728 171.243 362.6 170.881 362.343 170.629C362.091 170.372 361.741 170.244 361.293 170.244C360.85 170.244 360.497 170.377 360.235 170.644C359.973 170.911 359.822 171.354 359.782 171.974L357.666 171.762C357.792 170.594 358.188 169.755 358.853 169.246C359.517 168.738 360.348 168.483 361.346 168.483C362.439 168.483 363.297 168.778 363.922 169.367C364.547 169.957 364.859 170.689 364.859 171.566C364.859 172.064 364.768 172.54 364.587 172.994C364.411 173.442 364.128 173.913 363.741 174.406C363.484 174.734 363.02 175.205 362.351 175.819C361.681 176.434 361.255 176.842 361.074 177.043C360.897 177.245 360.754 177.441 360.643 177.633H364.859Z" fill="#101828"/>
<path d="M59.3692 211.094V201.6H65.7737V202.721H60.6255V205.661H65.0808V206.781H60.6255V211.094H59.3692ZM67.2697 202.941V201.6H68.4353V202.941H67.2697ZM67.2697 211.094V204.216H68.4353V211.094H67.2697ZM70.2161 211.094V204.216H71.2652V205.194C71.7703 204.439 72.4999 204.061 73.454 204.061C73.8685 204.061 74.2484 204.137 74.5938 204.288C74.9435 204.434 75.2047 204.629 75.3773 204.871C75.55 205.112 75.6709 205.399 75.74 205.732C75.7832 205.948 75.8047 206.325 75.8047 206.865V211.094H74.6391V206.91C74.6391 206.435 74.5938 206.081 74.5031 205.848C74.4124 205.611 74.2506 205.423 74.0174 205.285C73.7886 205.142 73.5188 205.071 73.208 205.071C72.7115 205.071 72.2819 205.229 71.9193 205.544C71.5609 205.859 71.3818 206.457 71.3818 207.338V211.094H70.2161ZM82.0863 210.245C81.6545 210.612 81.2379 210.871 80.8364 211.023C80.4393 211.174 80.0119 211.249 79.5542 211.249C78.7987 211.249 78.2181 211.066 77.8122 210.699C77.4064 210.327 77.2035 209.855 77.2035 209.281C77.2035 208.944 77.2791 208.637 77.4302 208.361C77.5856 208.08 77.7863 207.856 78.0324 207.687C78.2828 207.519 78.5634 207.392 78.8743 207.305C79.1031 207.245 79.4485 207.187 79.9104 207.131C80.8515 207.018 81.5445 206.884 81.9891 206.729C81.9934 206.569 81.9956 206.468 81.9956 206.425C81.9956 205.95 81.8855 205.615 81.6653 205.421C81.3675 205.158 80.9249 205.026 80.3378 205.026C79.7895 205.026 79.3837 205.123 79.1204 205.317C78.8613 205.507 78.6692 205.846 78.544 206.334L77.4043 206.179C77.5079 205.691 77.6784 205.298 77.9159 205C78.1533 204.698 78.4965 204.467 78.9455 204.307C79.3945 204.143 79.9147 204.061 80.5062 204.061C81.0933 204.061 81.5704 204.13 81.9373 204.268C82.3043 204.406 82.5741 204.581 82.7468 204.793C82.9195 205 83.0404 205.263 83.1094 205.583C83.1483 205.781 83.1677 206.14 83.1677 206.658V208.212C83.1677 209.296 83.1915 209.982 83.239 210.271C83.2908 210.556 83.3901 210.83 83.5368 211.094H82.3194C82.1985 210.852 82.1208 210.569 82.0863 210.245ZM81.9891 207.642C81.566 207.815 80.9314 207.962 80.0852 208.083C79.606 208.152 79.2671 208.229 79.0685 208.316C78.87 208.402 78.7167 208.529 78.6088 208.698C78.5008 208.862 78.4469 209.045 78.4469 209.248C78.4469 209.559 78.5634 209.818 78.7966 210.025C79.034 210.232 79.3794 210.336 79.8327 210.336C80.2817 210.336 80.681 210.239 81.0307 210.045C81.3804 209.846 81.6373 209.576 81.8013 209.235C81.9265 208.972 81.9891 208.583 81.9891 208.07V207.642ZM84.955 211.094V201.6H86.1207V211.094H84.955ZM91.774 211.094V201.6H95.0443C95.7826 201.6 96.346 201.646 96.7345 201.736C97.2785 201.861 97.7426 202.088 98.1268 202.416C98.6276 202.839 99.001 203.381 99.2471 204.042C99.4975 204.698 99.6227 205.449 99.6227 206.295C99.6227 207.016 99.5385 207.655 99.3702 208.212C99.2018 208.769 98.9859 209.231 98.7226 209.598C98.4592 209.96 98.17 210.248 97.8548 210.459C97.544 210.666 97.1662 210.824 96.7216 210.932C96.2812 211.04 95.7739 211.094 95.1997 211.094H91.774ZM93.0304 209.973H95.0573C95.6833 209.973 96.1733 209.915 96.5273 209.799C96.8856 209.682 97.1705 209.518 97.3821 209.306C97.68 209.009 97.9109 208.609 98.075 208.108C98.2434 207.603 98.3276 206.992 98.3276 206.276C98.3276 205.283 98.1635 204.521 97.8354 203.99C97.5116 203.454 97.1166 203.096 96.6503 202.915C96.3136 202.785 95.7718 202.721 95.0249 202.721H93.0304V209.973ZM105.917 208.879L107.122 209.028C106.932 209.732 106.58 210.278 106.066 210.666C105.552 211.055 104.896 211.249 104.097 211.249C103.092 211.249 102.293 210.94 101.701 210.323C101.114 209.701 100.821 208.832 100.821 207.713C100.821 206.556 101.119 205.658 101.714 205.019C102.31 204.381 103.083 204.061 104.033 204.061C104.952 204.061 105.703 204.374 106.286 205C106.869 205.626 107.161 206.507 107.161 207.642C107.161 207.711 107.158 207.815 107.154 207.953H102.025C102.068 208.708 102.282 209.287 102.666 209.689C103.051 210.09 103.53 210.291 104.104 210.291C104.531 210.291 104.896 210.179 105.198 209.954C105.501 209.73 105.74 209.371 105.917 208.879ZM102.09 206.995H105.93C105.878 206.416 105.732 205.982 105.49 205.693C105.119 205.244 104.637 205.019 104.046 205.019C103.51 205.019 103.059 205.199 102.692 205.557C102.33 205.915 102.129 206.394 102.09 206.995ZM113.079 208.575L114.226 208.724C114.1 209.514 113.779 210.133 113.261 210.582C112.747 211.027 112.115 211.249 111.363 211.249C110.422 211.249 109.665 210.943 109.09 210.33C108.52 209.712 108.236 208.829 108.236 207.681C108.236 206.938 108.359 206.289 108.605 205.732C108.851 205.175 109.224 204.758 109.725 204.482C110.23 204.201 110.778 204.061 111.37 204.061C112.117 204.061 112.728 204.251 113.202 204.631C113.677 205.007 113.982 205.542 114.116 206.237L112.982 206.412C112.874 205.95 112.682 205.602 112.406 205.369C112.134 205.136 111.804 205.019 111.415 205.019C110.828 205.019 110.351 205.231 109.984 205.654C109.617 206.073 109.434 206.738 109.434 207.649C109.434 208.573 109.611 209.244 109.965 209.663C110.319 210.081 110.781 210.291 111.35 210.291C111.808 210.291 112.19 210.15 112.497 209.87C112.803 209.589 112.997 209.157 113.079 208.575ZM115.229 202.941V201.6H116.395V202.941H115.229ZM115.229 211.094V204.216H116.395V211.094H115.229ZM117.71 209.041L118.862 208.86C118.927 209.322 119.106 209.676 119.4 209.922C119.698 210.168 120.112 210.291 120.643 210.291C121.178 210.291 121.576 210.183 121.835 209.967C122.094 209.747 122.223 209.49 122.223 209.196C122.223 208.933 122.109 208.726 121.88 208.575C121.72 208.471 121.323 208.339 120.688 208.18C119.834 207.964 119.24 207.778 118.908 207.623C118.58 207.463 118.329 207.245 118.156 206.969C117.988 206.688 117.904 206.379 117.904 206.043C117.904 205.736 117.973 205.453 118.111 205.194C118.254 204.931 118.446 204.713 118.687 204.54C118.869 204.406 119.115 204.294 119.426 204.204C119.741 204.109 120.078 204.061 120.436 204.061C120.976 204.061 121.448 204.139 121.854 204.294C122.264 204.45 122.566 204.661 122.761 204.929C122.955 205.192 123.089 205.546 123.162 205.991L122.022 206.146C121.971 205.792 121.82 205.516 121.569 205.317C121.323 205.119 120.973 205.019 120.52 205.019C119.985 205.019 119.603 205.108 119.374 205.285C119.145 205.462 119.031 205.669 119.031 205.907C119.031 206.058 119.078 206.194 119.173 206.315C119.268 206.44 119.417 206.543 119.62 206.625C119.737 206.669 120.08 206.768 120.65 206.923C121.474 207.144 122.048 207.325 122.372 207.467C122.7 207.605 122.957 207.808 123.143 208.076C123.328 208.344 123.421 208.676 123.421 209.073C123.421 209.462 123.307 209.829 123.078 210.174C122.854 210.515 122.528 210.781 122.1 210.971C121.673 211.156 121.189 211.249 120.65 211.249C119.756 211.249 119.074 211.064 118.603 210.692C118.137 210.321 117.839 209.771 117.71 209.041ZM124.814 202.941V201.6H125.979V202.941H124.814ZM124.814 211.094V204.216H125.979V211.094H124.814ZM127.326 207.655C127.326 206.382 127.68 205.438 128.388 204.825C128.98 204.316 129.701 204.061 130.551 204.061C131.497 204.061 132.269 204.372 132.869 204.994C133.47 205.611 133.77 206.466 133.77 207.558C133.77 208.443 133.636 209.14 133.368 209.65C133.105 210.155 132.718 210.548 132.209 210.828C131.704 211.109 131.151 211.249 130.551 211.249C129.588 211.249 128.809 210.94 128.213 210.323C127.622 209.706 127.326 208.816 127.326 207.655ZM128.524 207.655C128.524 208.536 128.716 209.196 129.101 209.637C129.485 210.073 129.968 210.291 130.551 210.291C131.13 210.291 131.611 210.071 131.995 209.63C132.379 209.19 132.572 208.519 132.572 207.616C132.572 206.766 132.377 206.122 131.989 205.686C131.604 205.246 131.125 205.026 130.551 205.026C129.968 205.026 129.485 205.244 129.101 205.68C128.716 206.116 128.524 206.774 128.524 207.655ZM135.142 211.094V204.216H136.192V205.194C136.697 204.439 137.426 204.061 138.38 204.061C138.795 204.061 139.175 204.137 139.52 204.288C139.87 204.434 140.131 204.629 140.304 204.871C140.476 205.112 140.597 205.399 140.666 205.732C140.709 205.948 140.731 206.325 140.731 206.865V211.094H139.565V206.91C139.565 206.435 139.52 206.081 139.429 205.848C139.339 205.611 139.177 205.423 138.944 205.285C138.715 205.142 138.445 205.071 138.134 205.071C137.638 205.071 137.208 205.229 136.846 205.544C136.487 205.859 136.308 206.457 136.308 207.338V211.094H135.142Z" fill="#4A5565"/>
<g clip-path="url(#clip3_5470_7547)">
<path d="M249.406 206.928C249.406 204.487 251.386 202.508 253.827 202.508H315.718C318.16 202.508 320.139 204.487 320.139 206.928C320.139 209.37 318.16 211.349 315.718 211.349H253.827C251.386 211.349 249.406 209.37 249.406 206.928Z" fill="#E5E7EB"/>
<path d="M249.406 206.928C249.406 204.487 251.386 202.508 253.827 202.508H307.222C309.664 202.508 311.643 204.487 311.643 206.928C311.643 209.37 309.664 211.349 307.222 211.349H253.827C251.386 211.349 249.406 209.37 249.406 206.928Z" fill="#17B26A"/>
</g>
<path d="M350.897 204.574C350.348 204.342 349.948 204.025 349.696 203.622C349.449 203.214 349.326 202.768 349.326 202.285C349.326 201.459 349.613 200.776 350.187 200.237C350.766 199.699 351.587 199.429 352.65 199.429C353.702 199.429 354.518 199.699 355.098 200.237C355.682 200.776 355.974 201.459 355.974 202.285C355.974 202.799 355.841 203.257 355.574 203.66C355.307 204.058 354.931 204.363 354.448 204.574C355.062 204.821 355.528 205.181 355.846 205.654C356.168 206.128 356.329 206.674 356.329 207.294C356.329 208.316 356.002 209.147 355.347 209.787C354.697 210.427 353.831 210.747 352.748 210.747C351.741 210.747 350.902 210.482 350.232 209.953C349.441 209.329 349.046 208.473 349.046 207.385C349.046 206.785 349.195 206.236 349.492 205.738C349.789 205.234 350.257 204.846 350.897 204.574ZM351.335 202.436C351.335 202.859 351.454 203.189 351.69 203.426C351.932 203.662 352.252 203.781 352.65 203.781C353.053 203.781 353.375 203.662 353.617 203.426C353.859 203.184 353.979 202.852 353.979 202.428C353.979 202.031 353.859 201.713 353.617 201.476C353.38 201.235 353.065 201.114 352.672 201.114C352.264 201.114 351.94 201.235 351.698 201.476C351.456 201.718 351.335 202.038 351.335 202.436ZM351.139 207.181C351.139 207.765 351.287 208.221 351.585 208.548C351.887 208.875 352.262 209.039 352.71 209.039C353.148 209.039 353.511 208.883 353.798 208.571C354.085 208.253 354.229 207.798 354.229 207.203C354.229 206.684 354.083 206.269 353.791 205.957C353.498 205.639 353.128 205.481 352.68 205.481C352.161 205.481 351.773 205.659 351.517 206.017C351.265 206.375 351.139 206.763 351.139 207.181ZM359.51 204.574C358.961 204.342 358.56 204.025 358.309 203.622C358.062 203.214 357.938 202.768 357.938 202.285C357.938 201.459 358.225 200.776 358.8 200.237C359.379 199.699 360.2 199.429 361.263 199.429C362.315 199.429 363.131 199.699 363.71 200.237C364.295 200.776 364.587 201.459 364.587 202.285C364.587 202.799 364.453 203.257 364.186 203.66C363.919 204.058 363.544 204.363 363.061 204.574C363.675 204.821 364.141 205.181 364.458 205.654C364.781 206.128 364.942 206.674 364.942 207.294C364.942 208.316 364.615 209.147 363.96 209.787C363.31 210.427 362.444 210.747 361.361 210.747C360.353 210.747 359.515 210.482 358.845 209.953C358.054 209.329 357.659 208.473 357.659 207.385C357.659 206.785 357.807 206.236 358.105 205.738C358.402 205.234 358.87 204.846 359.51 204.574ZM359.948 202.436C359.948 202.859 360.066 203.189 360.303 203.426C360.545 203.662 360.865 203.781 361.263 203.781C361.666 203.781 361.988 203.662 362.23 203.426C362.471 203.184 362.592 202.852 362.592 202.428C362.592 202.031 362.471 201.713 362.23 201.476C361.993 201.235 361.678 201.114 361.285 201.114C360.877 201.114 360.552 201.235 360.311 201.476C360.069 201.718 359.948 202.038 359.948 202.436ZM359.752 207.181C359.752 207.765 359.9 208.221 360.197 208.548C360.5 208.875 360.875 209.039 361.323 209.039C361.761 209.039 362.124 208.883 362.411 208.571C362.698 208.253 362.842 207.798 362.842 207.203C362.842 206.684 362.696 206.269 362.403 205.957C362.111 205.639 361.741 205.481 361.293 205.481C360.774 205.481 360.386 205.659 360.129 206.017C359.877 206.375 359.752 206.763 359.752 207.181Z" fill="#101828"/>
<path d="M426 228.335C426 218.7 433.81 210.89 443.444 210.89H720.375C730.009 210.89 737.819 218.7 737.819 228.335V372.598C737.819 382.233 730.009 390.043 720.375 390.043H443.444C433.81 390.043 426 382.233 426 372.598V228.335Z" fill="white"/>
<path d="M444.697 234.648H447.509L451.275 243.841H451.424L455.191 234.648H458.003V247.335H455.798V238.619H455.68L452.174 247.297H450.526L447.02 238.6H446.902V247.335H444.697V234.648ZM463.145 247.527C462.542 247.527 461.999 247.419 461.515 247.205C461.036 246.986 460.656 246.663 460.376 246.238C460.099 245.813 459.961 245.288 459.961 244.665C459.961 244.128 460.06 243.684 460.258 243.333C460.456 242.982 460.727 242.701 461.069 242.49C461.412 242.28 461.798 242.121 462.228 242.013C462.661 241.902 463.11 241.821 463.572 241.772C464.13 241.714 464.582 241.662 464.929 241.617C465.276 241.567 465.528 241.493 465.685 241.394C465.846 241.291 465.926 241.132 465.926 240.917V240.88C465.926 240.413 465.788 240.052 465.511 239.796C465.234 239.54 464.836 239.411 464.315 239.411C463.766 239.411 463.33 239.531 463.008 239.771C462.69 240.01 462.476 240.293 462.364 240.619L460.27 240.322C460.435 239.744 460.708 239.261 461.088 238.873C461.468 238.48 461.933 238.187 462.482 237.993C463.031 237.795 463.638 237.696 464.303 237.696C464.761 237.696 465.218 237.749 465.672 237.857C466.126 237.964 466.541 238.142 466.917 238.389C467.293 238.633 467.595 238.965 467.822 239.387C468.053 239.808 468.169 240.335 468.169 240.966V247.335H466.013V246.028H465.938C465.802 246.292 465.61 246.54 465.362 246.771C465.119 246.998 464.811 247.182 464.439 247.322C464.072 247.458 463.64 247.527 463.145 247.527ZM463.727 245.879C464.177 245.879 464.567 245.79 464.898 245.612C465.228 245.431 465.482 245.191 465.66 244.894C465.841 244.597 465.932 244.272 465.932 243.921V242.8C465.862 242.858 465.742 242.912 465.573 242.961C465.408 243.011 465.222 243.054 465.015 243.091C464.809 243.128 464.605 243.161 464.402 243.19C464.2 243.219 464.024 243.244 463.876 243.265C463.541 243.31 463.242 243.384 462.977 243.488C462.713 243.591 462.505 243.735 462.352 243.921C462.199 244.103 462.123 244.338 462.123 244.627C462.123 245.04 462.273 245.352 462.575 245.563C462.876 245.774 463.26 245.879 463.727 245.879ZM472.666 241.759V247.335H470.423V237.819H472.567V239.436H472.678C472.897 238.904 473.246 238.48 473.725 238.166C474.208 237.852 474.805 237.696 475.516 237.696C476.172 237.696 476.744 237.836 477.232 238.117C477.723 238.398 478.103 238.804 478.371 239.337C478.644 239.87 478.778 240.516 478.774 241.276V247.335H476.532V241.623C476.532 240.987 476.366 240.489 476.036 240.13C475.71 239.771 475.257 239.591 474.679 239.591C474.287 239.591 473.938 239.678 473.632 239.851C473.331 240.021 473.093 240.266 472.92 240.589C472.751 240.911 472.666 241.301 472.666 241.759ZM483.296 241.759V247.335H481.054V237.819H483.197V239.436H483.309C483.527 238.904 483.876 238.48 484.356 238.166C484.839 237.852 485.435 237.696 486.146 237.696C486.802 237.696 487.374 237.836 487.862 238.117C488.353 238.398 488.733 238.804 489.002 239.337C489.274 239.87 489.408 240.516 489.404 241.276V247.335H487.162V241.623C487.162 240.987 486.997 240.489 486.666 240.13C486.34 239.771 485.888 239.591 485.309 239.591C484.917 239.591 484.568 239.678 484.263 239.851C483.961 240.021 483.724 240.266 483.55 240.589C483.381 240.911 483.296 241.301 483.296 241.759ZM497.749 243.333V237.819H499.991V247.335H497.817V245.643H497.718C497.503 246.176 497.15 246.612 496.658 246.951C496.171 247.289 495.57 247.458 494.856 247.458C494.232 247.458 493.681 247.32 493.202 247.043C492.727 246.763 492.355 246.356 492.087 245.823C491.818 245.286 491.684 244.638 491.684 243.878V237.819H493.926V243.531C493.926 244.134 494.092 244.613 494.422 244.968C494.752 245.323 495.186 245.501 495.723 245.501C496.053 245.501 496.373 245.42 496.683 245.259C496.993 245.098 497.247 244.859 497.445 244.541C497.647 244.219 497.749 243.816 497.749 243.333ZM505.035 247.527C504.432 247.527 503.889 247.419 503.406 247.205C502.927 246.986 502.547 246.663 502.266 246.238C501.989 245.813 501.851 245.288 501.851 244.665C501.851 244.128 501.95 243.684 502.148 243.333C502.347 242.982 502.617 242.701 502.96 242.49C503.303 242.28 503.689 242.121 504.118 242.013C504.552 241.902 505 241.821 505.463 241.772C506.02 241.714 506.472 241.662 506.819 241.617C507.166 241.567 507.418 241.493 507.575 241.394C507.736 241.291 507.817 241.132 507.817 240.917V240.88C507.817 240.413 507.678 240.052 507.402 239.796C507.125 239.54 506.726 239.411 506.206 239.411C505.657 239.411 505.221 239.531 504.899 239.771C504.581 240.01 504.366 240.293 504.255 240.619L502.161 240.322C502.326 239.744 502.599 239.261 502.979 238.873C503.358 238.48 503.823 238.187 504.372 237.993C504.922 237.795 505.529 237.696 506.194 237.696C506.652 237.696 507.108 237.749 507.563 237.857C508.017 237.964 508.432 238.142 508.808 238.389C509.184 238.633 509.485 238.965 509.712 239.387C509.943 239.808 510.059 240.335 510.059 240.966V247.335H507.903V246.028H507.829C507.693 246.292 507.501 246.54 507.253 246.771C507.009 246.998 506.702 247.182 506.33 247.322C505.962 247.458 505.531 247.527 505.035 247.527ZM505.617 245.879C506.068 245.879 506.458 245.79 506.788 245.612C507.119 245.431 507.373 245.191 507.55 244.894C507.732 244.597 507.823 244.272 507.823 243.921V242.8C507.753 242.858 507.633 242.912 507.464 242.961C507.298 243.011 507.112 243.054 506.906 243.091C506.699 243.128 506.495 243.161 506.293 243.19C506.09 243.219 505.915 243.244 505.766 243.265C505.432 243.31 505.132 243.384 504.868 243.488C504.604 243.591 504.395 243.735 504.242 243.921C504.089 244.103 504.013 244.338 504.013 244.627C504.013 245.04 504.164 245.352 504.465 245.563C504.767 245.774 505.151 245.879 505.617 245.879ZM514.557 234.648V247.335H512.314V234.648H514.557Z" fill="black"/>
<path d="M443.984 279.845L445.057 279.751C445.107 280.181 445.225 280.534 445.408 280.812C445.596 281.085 445.885 281.308 446.275 281.48C446.666 281.648 447.105 281.732 447.594 281.732C448.027 281.732 448.41 281.667 448.742 281.538C449.074 281.409 449.32 281.234 449.48 281.011C449.645 280.784 449.727 280.538 449.727 280.273C449.727 280.003 449.648 279.769 449.492 279.57C449.336 279.366 449.078 279.197 448.719 279.06C448.488 278.97 447.979 278.831 447.189 278.644C446.4 278.452 445.848 278.273 445.531 278.105C445.121 277.89 444.814 277.624 444.611 277.308C444.412 276.988 444.312 276.63 444.312 276.236C444.312 275.802 444.436 275.398 444.682 275.023C444.928 274.644 445.287 274.357 445.76 274.161C446.232 273.966 446.758 273.868 447.336 273.868C447.973 273.868 448.533 273.972 449.018 274.179C449.506 274.382 449.881 274.683 450.143 275.081C450.404 275.48 450.545 275.931 450.564 276.435L449.475 276.517C449.416 275.974 449.217 275.564 448.877 275.286C448.541 275.009 448.043 274.87 447.383 274.87C446.695 274.87 446.193 274.997 445.877 275.251C445.564 275.501 445.408 275.804 445.408 276.159C445.408 276.468 445.52 276.722 445.742 276.921C445.961 277.12 446.531 277.325 447.453 277.536C448.379 277.743 449.014 277.925 449.357 278.081C449.857 278.312 450.227 278.605 450.465 278.96C450.703 279.312 450.822 279.718 450.822 280.179C450.822 280.636 450.691 281.068 450.43 281.474C450.168 281.876 449.791 282.191 449.299 282.417C448.811 282.64 448.26 282.751 447.646 282.751C446.869 282.751 446.217 282.638 445.689 282.411C445.166 282.185 444.754 281.845 444.453 281.392C444.156 280.935 444 280.419 443.984 279.845ZM452.24 282.605V274.015H453.295V277.097C453.787 276.527 454.408 276.241 455.158 276.241C455.619 276.241 456.02 276.333 456.359 276.517C456.699 276.697 456.941 276.947 457.086 277.267C457.234 277.587 457.309 278.052 457.309 278.661V282.605H456.254V278.661C456.254 278.134 456.139 277.751 455.908 277.513C455.682 277.271 455.359 277.15 454.941 277.15C454.629 277.15 454.334 277.232 454.057 277.396C453.783 277.556 453.588 277.775 453.471 278.052C453.354 278.329 453.295 278.712 453.295 279.2V282.605H452.24ZM458.527 279.493C458.527 278.341 458.848 277.488 459.488 276.933C460.023 276.472 460.676 276.241 461.445 276.241C462.301 276.241 463 276.523 463.543 277.085C464.086 277.644 464.357 278.417 464.357 279.406C464.357 280.206 464.236 280.837 463.994 281.298C463.756 281.755 463.406 282.111 462.945 282.365C462.488 282.618 461.988 282.745 461.445 282.745C460.574 282.745 459.869 282.466 459.33 281.907C458.795 281.349 458.527 280.544 458.527 279.493ZM459.611 279.493C459.611 280.29 459.785 280.888 460.133 281.286C460.48 281.681 460.918 281.878 461.445 281.878C461.969 281.878 462.404 281.679 462.752 281.281C463.1 280.882 463.273 280.275 463.273 279.458C463.273 278.689 463.098 278.107 462.746 277.712C462.398 277.314 461.965 277.115 461.445 277.115C460.918 277.115 460.48 277.312 460.133 277.706C459.785 278.101 459.611 278.697 459.611 279.493ZM465.588 282.605V276.382H466.537V277.325C466.779 276.884 467.002 276.593 467.205 276.452C467.412 276.312 467.639 276.241 467.885 276.241C468.24 276.241 468.602 276.355 468.969 276.581L468.605 277.56C468.348 277.407 468.09 277.331 467.832 277.331C467.602 277.331 467.395 277.402 467.211 277.542C467.027 277.679 466.896 277.87 466.818 278.116C466.701 278.491 466.643 278.902 466.643 279.347V282.605H465.588ZM471.898 281.661L472.051 282.593C471.754 282.656 471.488 282.687 471.254 282.687C470.871 282.687 470.574 282.626 470.363 282.505C470.152 282.384 470.004 282.226 469.918 282.031C469.832 281.831 469.789 281.415 469.789 280.782V277.202H469.016V276.382H469.789V274.841L470.838 274.208V276.382H471.898V277.202H470.838V280.841C470.838 281.142 470.855 281.335 470.891 281.421C470.93 281.507 470.99 281.575 471.072 281.626C471.158 281.677 471.279 281.702 471.436 281.702C471.553 281.702 471.707 281.689 471.898 281.661ZM472.912 282.605V274.015H473.967V282.605H472.912ZM475.613 275.228V274.015H476.668V275.228H475.613ZM475.613 282.605V276.382H476.668V282.605H475.613ZM477.857 280.747L478.9 280.583C478.959 281.001 479.121 281.322 479.387 281.544C479.656 281.767 480.031 281.878 480.512 281.878C480.996 281.878 481.355 281.781 481.59 281.585C481.824 281.386 481.941 281.154 481.941 280.888C481.941 280.65 481.838 280.462 481.631 280.325C481.486 280.232 481.127 280.113 480.553 279.968C479.779 279.773 479.242 279.605 478.941 279.464C478.645 279.32 478.418 279.122 478.262 278.872C478.109 278.618 478.033 278.339 478.033 278.034C478.033 277.757 478.096 277.501 478.221 277.267C478.35 277.029 478.523 276.831 478.742 276.675C478.906 276.554 479.129 276.452 479.41 276.37C479.695 276.284 480 276.241 480.324 276.241C480.812 276.241 481.24 276.312 481.607 276.452C481.979 276.593 482.252 276.784 482.428 277.027C482.604 277.265 482.725 277.585 482.791 277.988L481.76 278.128C481.713 277.808 481.576 277.558 481.35 277.378C481.127 277.198 480.811 277.109 480.4 277.109C479.916 277.109 479.57 277.189 479.363 277.349C479.156 277.509 479.053 277.697 479.053 277.911C479.053 278.048 479.096 278.171 479.182 278.281C479.268 278.394 479.402 278.488 479.586 278.562C479.691 278.601 480.002 278.691 480.518 278.831C481.264 279.031 481.783 279.195 482.076 279.323C482.373 279.448 482.605 279.632 482.773 279.874C482.941 280.116 483.025 280.417 483.025 280.777C483.025 281.128 482.922 281.46 482.715 281.773C482.512 282.081 482.217 282.322 481.83 282.493C481.443 282.661 481.006 282.745 480.518 282.745C479.709 282.745 479.092 282.577 478.666 282.241C478.244 281.906 477.975 281.407 477.857 280.747ZM486.582 281.661L486.734 282.593C486.438 282.656 486.172 282.687 485.938 282.687C485.555 282.687 485.258 282.626 485.047 282.505C484.836 282.384 484.688 282.226 484.602 282.031C484.516 281.831 484.473 281.415 484.473 280.782V277.202H483.699V276.382H484.473V274.841L485.521 274.208V276.382H486.582V277.202H485.521V280.841C485.521 281.142 485.539 281.335 485.574 281.421C485.613 281.507 485.674 281.575 485.756 281.626C485.842 281.677 485.963 281.702 486.119 281.702C486.236 281.702 486.391 281.689 486.582 281.661Z" fill="#4A5565"/>
<g clip-path="url(#clip4_5470_7547)">
<path d="M616.375 278.598C616.375 276.389 618.166 274.598 620.375 274.598H676.375C678.584 274.598 680.375 276.389 680.375 278.598C680.375 280.808 678.584 282.598 676.375 282.598H620.375C618.166 282.598 616.375 280.808 616.375 278.598Z" fill="#E5E7EB"/>
<path d="M616.375 278.598C616.375 276.389 618.166 274.598 620.375 274.598H660.375C662.584 274.598 664.375 276.389 664.375 278.598C664.375 280.808 662.584 282.598 660.375 282.598H620.375C618.166 282.598 616.375 280.808 616.375 278.598Z" fill="#86CB3C"/>
</g>
<path d="M707.918 276.991C707.421 276.782 707.059 276.494 706.831 276.13C706.608 275.761 706.496 275.357 706.496 274.92C706.496 274.173 706.756 273.555 707.275 273.067C707.799 272.58 708.542 272.336 709.504 272.336C710.456 272.336 711.195 272.58 711.719 273.067C712.247 273.555 712.512 274.173 712.512 274.92C712.512 275.385 712.391 275.8 712.149 276.164C711.908 276.524 711.568 276.8 711.131 276.991C711.687 277.215 712.108 277.54 712.396 277.969C712.687 278.397 712.833 278.892 712.833 279.452C712.833 280.377 712.537 281.129 711.944 281.708C711.356 282.287 710.573 282.576 709.593 282.576C708.681 282.576 707.923 282.337 707.316 281.858C706.601 281.293 706.243 280.519 706.243 279.534C706.243 278.992 706.378 278.495 706.646 278.044C706.915 277.588 707.339 277.237 707.918 276.991ZM708.314 275.057C708.314 275.439 708.422 275.738 708.636 275.952C708.854 276.166 709.144 276.273 709.504 276.273C709.868 276.273 710.16 276.166 710.379 275.952C710.598 275.733 710.707 275.433 710.707 275.05C710.707 274.69 710.598 274.403 710.379 274.189C710.165 273.97 709.88 273.86 709.524 273.86C709.155 273.86 708.861 273.97 708.643 274.189C708.424 274.407 708.314 274.697 708.314 275.057ZM708.137 279.35C708.137 279.878 708.271 280.291 708.54 280.587C708.813 280.883 709.153 281.031 709.559 281.031C709.955 281.031 710.283 280.89 710.543 280.607C710.803 280.32 710.933 279.908 710.933 279.37C710.933 278.901 710.8 278.525 710.536 278.242C710.272 277.955 709.937 277.812 709.531 277.812C709.062 277.812 708.711 277.973 708.479 278.297C708.251 278.62 708.137 278.971 708.137 279.35ZM717.83 282.398V280.382H713.729V278.7L718.076 272.336H719.689V278.693H720.934V280.382H719.689V282.398H717.83ZM717.83 278.693V275.269L715.526 278.693H717.83Z" fill="#101828"/>
<path d="M444.564 310.605V302.015H445.701V310.605H444.564ZM447.576 310.605V304.382H448.525V305.267C448.982 304.583 449.643 304.241 450.506 304.241C450.881 304.241 451.225 304.31 451.537 304.447C451.854 304.579 452.09 304.755 452.246 304.974C452.402 305.193 452.512 305.452 452.574 305.753C452.613 305.948 452.633 306.29 452.633 306.779V310.605H451.578V306.82C451.578 306.39 451.537 306.07 451.455 305.859C451.373 305.644 451.227 305.474 451.016 305.349C450.809 305.22 450.564 305.156 450.283 305.156C449.834 305.156 449.445 305.298 449.117 305.583C448.793 305.868 448.631 306.409 448.631 307.206V310.605H447.576ZM456.559 309.661L456.711 310.593C456.414 310.656 456.148 310.687 455.914 310.687C455.531 310.687 455.234 310.626 455.023 310.505C454.812 310.384 454.664 310.226 454.578 310.031C454.492 309.831 454.449 309.415 454.449 308.782V305.202H453.676V304.382H454.449V302.841L455.498 302.208V304.382H456.559V305.202H455.498V308.841C455.498 309.142 455.516 309.335 455.551 309.421C455.59 309.507 455.65 309.575 455.732 309.626C455.818 309.677 455.939 309.702 456.096 309.702C456.213 309.702 456.367 309.689 456.559 309.661ZM461.855 308.601L462.945 308.736C462.773 309.372 462.455 309.866 461.99 310.218C461.525 310.57 460.932 310.745 460.209 310.745C459.299 310.745 458.576 310.466 458.041 309.907C457.51 309.345 457.244 308.558 457.244 307.546C457.244 306.499 457.514 305.687 458.053 305.109C458.592 304.531 459.291 304.241 460.15 304.241C460.982 304.241 461.662 304.525 462.189 305.091C462.717 305.657 462.98 306.454 462.98 307.482C462.98 307.544 462.979 307.638 462.975 307.763H458.334C458.373 308.447 458.566 308.97 458.914 309.333C459.262 309.697 459.695 309.878 460.215 309.878C460.602 309.878 460.932 309.777 461.205 309.573C461.479 309.37 461.695 309.046 461.855 308.601ZM458.393 306.896H461.867C461.82 306.372 461.688 305.98 461.469 305.718C461.133 305.312 460.697 305.109 460.162 305.109C459.678 305.109 459.27 305.271 458.938 305.595C458.609 305.919 458.428 306.353 458.393 306.896ZM464.264 310.605V304.382H465.213V305.325C465.455 304.884 465.678 304.593 465.881 304.452C466.088 304.312 466.314 304.241 466.561 304.241C466.916 304.241 467.277 304.355 467.645 304.581L467.281 305.56C467.023 305.407 466.766 305.331 466.508 305.331C466.277 305.331 466.07 305.402 465.887 305.542C465.703 305.679 465.572 305.87 465.494 306.116C465.377 306.491 465.318 306.902 465.318 307.347V310.605H464.264ZM470 310.605L467.633 304.382H468.746L470.082 308.109C470.227 308.511 470.359 308.929 470.48 309.363C470.574 309.034 470.705 308.64 470.873 308.179L472.256 304.382H473.34L470.984 310.605H470ZM474.277 303.228V302.015H475.332V303.228H474.277ZM474.277 310.605V304.382H475.332V310.605H474.277ZM481.203 308.601L482.293 308.736C482.121 309.372 481.803 309.866 481.338 310.218C480.873 310.57 480.279 310.745 479.557 310.745C478.646 310.745 477.924 310.466 477.389 309.907C476.857 309.345 476.592 308.558 476.592 307.546C476.592 306.499 476.861 305.687 477.4 305.109C477.939 304.531 478.639 304.241 479.498 304.241C480.33 304.241 481.01 304.525 481.537 305.091C482.064 305.657 482.328 306.454 482.328 307.482C482.328 307.544 482.326 307.638 482.322 307.763H477.682C477.721 308.447 477.914 308.97 478.262 309.333C478.609 309.697 479.043 309.878 479.562 309.878C479.949 309.878 480.279 309.777 480.553 309.573C480.826 309.37 481.043 309.046 481.203 308.601ZM477.74 306.896H481.215C481.168 306.372 481.035 305.98 480.816 305.718C480.48 305.312 480.045 305.109 479.51 305.109C479.025 305.109 478.617 305.271 478.285 305.595C477.957 305.919 477.775 306.353 477.74 306.896ZM484.771 310.605L482.867 304.382H483.957L484.947 307.974L485.316 309.31C485.332 309.243 485.439 308.816 485.639 308.027L486.629 304.382H487.713L488.645 307.991L488.955 309.181L489.312 307.98L490.379 304.382H491.404L489.459 310.605H488.363L487.373 306.878L487.133 305.818L485.873 310.605H484.771Z" fill="#4A5565"/>
<g clip-path="url(#clip5_5470_7547)">
<path d="M616.375 306.598C616.375 304.389 618.166 302.598 620.375 302.598H676.375C678.584 302.598 680.375 304.389 680.375 306.598C680.375 308.808 678.584 310.598 676.375 310.598H620.375C618.166 310.598 616.375 308.808 616.375 306.598Z" fill="#E5E7EB"/>
<path d="M616.375 306.598C616.375 304.389 618.166 302.598 620.375 302.598H652.375C654.584 302.598 656.375 304.389 656.375 306.598C656.375 308.808 654.584 310.598 652.375 310.598H620.375C618.166 310.598 616.375 308.808 616.375 306.598Z" fill="#DC6803"/>
</g>
<path d="M712.778 302.831L710.919 303.036C710.873 302.653 710.755 302.371 710.563 302.189C710.372 302.006 710.124 301.915 709.818 301.915C709.413 301.915 709.069 302.097 708.786 302.462C708.508 302.827 708.333 303.585 708.26 304.738C708.738 304.173 709.333 303.891 710.044 303.891C710.846 303.891 711.532 304.196 712.102 304.807C712.676 305.417 712.963 306.206 712.963 307.172C712.963 308.197 712.662 309.02 712.061 309.64C711.459 310.259 710.687 310.569 709.743 310.569C708.731 310.569 707.9 310.177 707.248 309.394C706.596 308.605 706.271 307.315 706.271 305.524C706.271 303.688 706.61 302.364 707.289 301.553C707.968 300.742 708.85 300.336 709.935 300.336C710.696 300.336 711.325 300.55 711.821 300.979C712.323 301.402 712.642 302.02 712.778 302.831ZM708.424 307.022C708.424 307.646 708.567 308.129 708.854 308.471C709.142 308.808 709.47 308.977 709.839 308.977C710.194 308.977 710.491 308.838 710.728 308.56C710.965 308.282 711.083 307.826 711.083 307.192C711.083 306.541 710.955 306.064 710.7 305.764C710.445 305.458 710.126 305.306 709.743 305.306C709.374 305.306 709.062 305.452 708.807 305.743C708.551 306.03 708.424 306.456 708.424 307.022ZM713.995 307.739L715.854 307.514C715.914 307.988 716.073 308.35 716.333 308.601C716.593 308.851 716.907 308.977 717.276 308.977C717.673 308.977 718.006 308.826 718.274 308.525C718.548 308.225 718.685 307.819 718.685 307.309C718.685 306.826 718.555 306.443 718.295 306.16C718.035 305.878 717.718 305.736 717.345 305.736C717.099 305.736 716.805 305.784 716.463 305.88L716.675 304.314C717.194 304.328 717.591 304.217 717.864 303.98C718.138 303.738 718.274 303.419 718.274 303.022C718.274 302.685 718.174 302.416 717.974 302.216C717.773 302.015 717.507 301.915 717.174 301.915C716.846 301.915 716.565 302.029 716.333 302.257C716.101 302.485 715.959 302.817 715.909 303.255L714.139 302.954C714.262 302.348 714.446 301.865 714.692 301.505C714.943 301.14 715.289 300.855 715.731 300.65C716.178 300.441 716.677 300.336 717.229 300.336C718.172 300.336 718.928 300.637 719.498 301.238C719.967 301.73 720.202 302.286 720.202 302.906C720.202 303.786 719.721 304.488 718.76 305.012C719.334 305.135 719.792 305.411 720.134 305.839C720.48 306.267 720.653 306.785 720.653 307.391C720.653 308.27 720.332 309.02 719.689 309.64C719.047 310.259 718.247 310.569 717.29 310.569C716.383 310.569 715.631 310.31 715.034 309.79C714.437 309.266 714.091 308.582 713.995 307.739Z" fill="#101828"/>
<path d="M444.395 338.605V330.015H450.605V331.029H445.531V333.659H450.283V334.667H445.531V337.591H450.805V338.605H444.395ZM453.969 338.605L451.602 332.382H452.715L454.051 336.109C454.195 336.511 454.328 336.929 454.449 337.363C454.543 337.034 454.674 336.64 454.842 336.179L456.225 332.382H457.309L454.953 338.605H453.969ZM462.301 337.837C461.91 338.169 461.533 338.404 461.17 338.54C460.811 338.677 460.424 338.745 460.01 338.745C459.326 338.745 458.801 338.579 458.434 338.247C458.066 337.911 457.883 337.484 457.883 336.964C457.883 336.659 457.951 336.382 458.088 336.132C458.229 335.878 458.41 335.675 458.633 335.523C458.859 335.37 459.113 335.255 459.395 335.177C459.602 335.122 459.914 335.07 460.332 335.019C461.184 334.917 461.811 334.796 462.213 334.656C462.217 334.511 462.219 334.419 462.219 334.38C462.219 333.95 462.119 333.648 461.92 333.472C461.65 333.234 461.25 333.115 460.719 333.115C460.223 333.115 459.855 333.202 459.617 333.378C459.383 333.55 459.209 333.857 459.096 334.298L458.064 334.157C458.158 333.716 458.312 333.361 458.527 333.091C458.742 332.818 459.053 332.609 459.459 332.464C459.865 332.316 460.336 332.241 460.871 332.241C461.402 332.241 461.834 332.304 462.166 332.429C462.498 332.554 462.742 332.712 462.898 332.904C463.055 333.091 463.164 333.329 463.227 333.618C463.262 333.798 463.279 334.122 463.279 334.591V335.997C463.279 336.978 463.301 337.599 463.344 337.861C463.391 338.118 463.48 338.366 463.613 338.605H462.512C462.402 338.386 462.332 338.13 462.301 337.837ZM462.213 335.482C461.83 335.638 461.256 335.771 460.49 335.88C460.057 335.943 459.75 336.013 459.57 336.091C459.391 336.169 459.252 336.284 459.154 336.437C459.057 336.585 459.008 336.751 459.008 336.935C459.008 337.216 459.113 337.45 459.324 337.638C459.539 337.825 459.852 337.919 460.262 337.919C460.668 337.919 461.029 337.831 461.346 337.656C461.662 337.476 461.895 337.232 462.043 336.923C462.156 336.685 462.213 336.333 462.213 335.868V335.482ZM464.896 338.605V330.015H465.951V338.605H464.896ZM471.67 338.605V337.691C471.186 338.394 470.527 338.745 469.695 338.745C469.328 338.745 468.984 338.675 468.664 338.534C468.348 338.394 468.111 338.218 467.955 338.007C467.803 337.792 467.695 337.531 467.633 337.222C467.59 337.015 467.568 336.687 467.568 336.238V332.382H468.623V335.833C468.623 336.384 468.645 336.755 468.688 336.947C468.754 337.224 468.895 337.443 469.109 337.603C469.324 337.759 469.59 337.837 469.906 337.837C470.223 337.837 470.52 337.757 470.797 337.597C471.074 337.433 471.27 337.212 471.383 336.935C471.5 336.654 471.559 336.247 471.559 335.716V332.382H472.613V338.605H471.67ZM476.574 337.661L476.727 338.593C476.43 338.656 476.164 338.687 475.93 338.687C475.547 338.687 475.25 338.626 475.039 338.505C474.828 338.384 474.68 338.226 474.594 338.031C474.508 337.831 474.465 337.415 474.465 336.782V333.202H473.691V332.382H474.465V330.841L475.514 330.208V332.382H476.574V333.202H475.514V336.841C475.514 337.142 475.531 337.335 475.566 337.421C475.605 337.507 475.666 337.575 475.748 337.626C475.834 337.677 475.955 337.702 476.111 337.702C476.229 337.702 476.383 337.689 476.574 337.661ZM481.672 337.837C481.281 338.169 480.904 338.404 480.541 338.54C480.182 338.677 479.795 338.745 479.381 338.745C478.697 338.745 478.172 338.579 477.805 338.247C477.438 337.911 477.254 337.484 477.254 336.964C477.254 336.659 477.322 336.382 477.459 336.132C477.6 335.878 477.781 335.675 478.004 335.523C478.23 335.37 478.484 335.255 478.766 335.177C478.973 335.122 479.285 335.07 479.703 335.019C480.555 334.917 481.182 334.796 481.584 334.656C481.588 334.511 481.59 334.419 481.59 334.38C481.59 333.95 481.49 333.648 481.291 333.472C481.021 333.234 480.621 333.115 480.09 333.115C479.594 333.115 479.227 333.202 478.988 333.378C478.754 333.55 478.58 333.857 478.467 334.298L477.436 334.157C477.529 333.716 477.684 333.361 477.898 333.091C478.113 332.818 478.424 332.609 478.83 332.464C479.236 332.316 479.707 332.241 480.242 332.241C480.773 332.241 481.205 332.304 481.537 332.429C481.869 332.554 482.113 332.712 482.27 332.904C482.426 333.091 482.535 333.329 482.598 333.618C482.633 333.798 482.65 334.122 482.65 334.591V335.997C482.65 336.978 482.672 337.599 482.715 337.861C482.762 338.118 482.852 338.366 482.984 338.605H481.883C481.773 338.386 481.703 338.13 481.672 337.837ZM481.584 335.482C481.201 335.638 480.627 335.771 479.861 335.88C479.428 335.943 479.121 336.013 478.941 336.091C478.762 336.169 478.623 336.284 478.525 336.437C478.428 336.585 478.379 336.751 478.379 336.935C478.379 337.216 478.484 337.45 478.695 337.638C478.91 337.825 479.223 337.919 479.633 337.919C480.039 337.919 480.4 337.831 480.717 337.656C481.033 337.476 481.266 337.232 481.414 336.923C481.527 336.685 481.584 336.333 481.584 335.868V335.482ZM484.297 331.228V330.015H485.352V331.228H484.297ZM484.297 338.605V332.382H485.352V338.605H484.297ZM486.57 335.493C486.57 334.341 486.891 333.488 487.531 332.933C488.066 332.472 488.719 332.241 489.488 332.241C490.344 332.241 491.043 332.523 491.586 333.085C492.129 333.644 492.4 334.417 492.4 335.406C492.4 336.206 492.279 336.837 492.037 337.298C491.799 337.755 491.449 338.111 490.988 338.365C490.531 338.618 490.031 338.745 489.488 338.745C488.617 338.745 487.912 338.466 487.373 337.907C486.838 337.349 486.57 336.544 486.57 335.493ZM487.654 335.493C487.654 336.29 487.828 336.888 488.176 337.286C488.523 337.681 488.961 337.878 489.488 337.878C490.012 337.878 490.447 337.679 490.795 337.281C491.143 336.882 491.316 336.275 491.316 335.458C491.316 334.689 491.141 334.107 490.789 333.712C490.441 333.314 490.008 333.115 489.488 333.115C488.961 333.115 488.523 333.312 488.176 333.706C487.828 334.101 487.654 334.697 487.654 335.493ZM493.643 338.605V332.382H494.592V333.267C495.049 332.583 495.709 332.241 496.572 332.241C496.947 332.241 497.291 332.31 497.604 332.447C497.92 332.579 498.156 332.755 498.312 332.974C498.469 333.193 498.578 333.452 498.641 333.753C498.68 333.948 498.699 334.29 498.699 334.779V338.605H497.645V334.82C497.645 334.39 497.604 334.07 497.521 333.859C497.439 333.644 497.293 333.474 497.082 333.349C496.875 333.22 496.631 333.156 496.35 333.156C495.9 333.156 495.512 333.298 495.184 333.583C494.859 333.868 494.697 334.409 494.697 335.206V338.605H493.643Z" fill="#4A5565"/>
<g clip-path="url(#clip6_5470_7547)">
<path d="M616.375 334.598C616.375 332.389 618.166 330.598 620.375 330.598H676.375C678.584 330.598 680.375 332.389 680.375 334.598C680.375 336.808 678.584 338.598 676.375 338.598H620.375C618.166 338.598 616.375 336.808 616.375 334.598Z" fill="#E5E7EB"/>
<path d="M616.375 334.598C616.375 332.389 618.166 330.598 620.375 330.598H644.375C646.584 330.598 648.375 332.389 648.375 334.598C648.375 336.808 646.584 338.598 644.375 338.598H620.375C618.166 338.598 616.375 336.808 616.375 334.598Z" fill="#FDB022"/>
</g>
<path d="M710.037 338.398V336.382H705.936V334.7L710.283 328.336H711.896V334.693H713.141V336.382H711.896V338.398H710.037ZM710.037 334.693V331.269L707.733 334.693H710.037ZM715.711 332.991C715.214 332.782 714.852 332.494 714.624 332.13C714.401 331.761 714.289 331.357 714.289 330.92C714.289 330.173 714.549 329.555 715.068 329.067C715.592 328.58 716.335 328.336 717.297 328.336C718.249 328.336 718.988 328.58 719.512 329.067C720.04 329.555 720.305 330.173 720.305 330.92C720.305 331.385 720.184 331.8 719.942 332.164C719.701 332.524 719.361 332.8 718.924 332.991C719.48 333.215 719.901 333.54 720.188 333.969C720.48 334.397 720.626 334.892 720.626 335.452C720.626 336.377 720.33 337.129 719.737 337.708C719.149 338.287 718.366 338.576 717.386 338.576C716.474 338.576 715.715 338.337 715.109 337.858C714.394 337.293 714.036 336.519 714.036 335.534C714.036 334.992 714.171 334.495 714.439 334.044C714.708 333.588 715.132 333.237 715.711 332.991ZM716.107 331.057C716.107 331.439 716.215 331.738 716.429 331.952C716.647 332.166 716.937 332.273 717.297 332.273C717.661 332.273 717.953 332.166 718.172 331.952C718.391 331.733 718.5 331.433 718.5 331.05C718.5 330.69 718.391 330.403 718.172 330.189C717.958 329.97 717.673 329.86 717.317 329.86C716.948 329.86 716.654 329.97 716.436 330.189C716.217 330.407 716.107 330.697 716.107 331.057ZM715.93 335.35C715.93 335.878 716.064 336.291 716.333 336.587C716.606 336.883 716.946 337.031 717.352 337.031C717.748 337.031 718.076 336.89 718.336 336.607C718.596 336.32 718.726 335.908 718.726 335.37C718.726 334.901 718.593 334.525 718.329 334.242C718.065 333.955 717.73 333.812 717.324 333.812C716.855 333.812 716.504 333.973 716.271 334.297C716.044 334.62 715.93 334.971 715.93 335.35Z" fill="#101828"/>
<path d="M444.43 366.605V358.015H450.225V359.029H445.566V361.689H449.598V362.702H445.566V366.605H444.43ZM451.578 359.228V358.015H452.633V359.228H451.578ZM451.578 366.605V360.382H452.633V366.605H451.578ZM454.244 366.605V360.382H455.193V361.267C455.65 360.583 456.311 360.241 457.174 360.241C457.549 360.241 457.893 360.31 458.205 360.447C458.521 360.579 458.758 360.755 458.914 360.974C459.07 361.193 459.18 361.452 459.242 361.753C459.281 361.948 459.301 362.29 459.301 362.779V366.605H458.246V362.82C458.246 362.39 458.205 362.07 458.123 361.859C458.041 361.644 457.895 361.474 457.684 361.349C457.477 361.22 457.232 361.156 456.951 361.156C456.502 361.156 456.113 361.298 455.785 361.583C455.461 361.868 455.299 362.409 455.299 363.206V366.605H454.244ZM464.984 365.837C464.594 366.169 464.217 366.404 463.854 366.54C463.494 366.677 463.107 366.745 462.693 366.745C462.01 366.745 461.484 366.579 461.117 366.247C460.75 365.911 460.566 365.484 460.566 364.964C460.566 364.659 460.635 364.382 460.771 364.132C460.912 363.878 461.094 363.675 461.316 363.523C461.543 363.37 461.797 363.255 462.078 363.177C462.285 363.122 462.598 363.07 463.016 363.019C463.867 362.917 464.494 362.796 464.896 362.656C464.9 362.511 464.902 362.419 464.902 362.38C464.902 361.95 464.803 361.648 464.604 361.472C464.334 361.234 463.934 361.115 463.402 361.115C462.906 361.115 462.539 361.202 462.301 361.378C462.066 361.55 461.893 361.857 461.779 362.298L460.748 362.157C460.842 361.716 460.996 361.361 461.211 361.091C461.426 360.818 461.736 360.609 462.143 360.464C462.549 360.316 463.02 360.241 463.555 360.241C464.086 360.241 464.518 360.304 464.85 360.429C465.182 360.554 465.426 360.712 465.582 360.904C465.738 361.091 465.848 361.329 465.91 361.618C465.945 361.798 465.963 362.122 465.963 362.591V363.997C465.963 364.978 465.984 365.599 466.027 365.861C466.074 366.118 466.164 366.366 466.297 366.605H465.195C465.086 366.386 465.016 366.13 464.984 365.837ZM464.896 363.482C464.514 363.638 463.939 363.771 463.174 363.88C462.74 363.943 462.434 364.013 462.254 364.091C462.074 364.169 461.936 364.284 461.838 364.437C461.74 364.585 461.691 364.751 461.691 364.935C461.691 365.216 461.797 365.45 462.008 365.638C462.223 365.825 462.535 365.919 462.945 365.919C463.352 365.919 463.713 365.831 464.029 365.656C464.346 365.476 464.578 365.232 464.727 364.923C464.84 364.685 464.896 364.333 464.896 363.868V363.482ZM467.58 366.605V358.015H468.635V366.605H467.58ZM473.75 366.605V358.015H476.709C477.377 358.015 477.887 358.056 478.238 358.138C478.73 358.251 479.15 358.456 479.498 358.753C479.951 359.136 480.289 359.626 480.512 360.224C480.738 360.818 480.852 361.497 480.852 362.263C480.852 362.915 480.775 363.493 480.623 363.997C480.471 364.501 480.275 364.919 480.037 365.251C479.799 365.579 479.537 365.839 479.252 366.031C478.971 366.218 478.629 366.361 478.227 366.458C477.828 366.556 477.369 366.605 476.85 366.605H473.75ZM474.887 365.591H476.721C477.287 365.591 477.73 365.538 478.051 365.433C478.375 365.327 478.633 365.179 478.824 364.988C479.094 364.718 479.303 364.357 479.451 363.904C479.604 363.447 479.68 362.894 479.68 362.245C479.68 361.347 479.531 360.657 479.234 360.177C478.941 359.693 478.584 359.368 478.162 359.204C477.857 359.087 477.367 359.029 476.691 359.029H474.887V365.591ZM486.547 364.601L487.637 364.736C487.465 365.372 487.146 365.866 486.682 366.218C486.217 366.57 485.623 366.745 484.9 366.745C483.99 366.745 483.268 366.466 482.732 365.907C482.201 365.345 481.936 364.558 481.936 363.546C481.936 362.499 482.205 361.687 482.744 361.109C483.283 360.531 483.982 360.241 484.842 360.241C485.674 360.241 486.354 360.525 486.881 361.091C487.408 361.657 487.672 362.454 487.672 363.482C487.672 363.544 487.67 363.638 487.666 363.763H483.025C483.064 364.447 483.258 364.97 483.605 365.333C483.953 365.697 484.387 365.878 484.906 365.878C485.293 365.878 485.623 365.777 485.896 365.573C486.17 365.37 486.387 365.046 486.547 364.601ZM483.084 362.896H486.559C486.512 362.372 486.379 361.98 486.16 361.718C485.824 361.312 485.389 361.109 484.854 361.109C484.369 361.109 483.961 361.271 483.629 361.595C483.301 361.919 483.119 362.353 483.084 362.896ZM493.027 364.325L494.064 364.46C493.951 365.175 493.66 365.736 493.191 366.142C492.727 366.544 492.154 366.745 491.475 366.745C490.623 366.745 489.938 366.468 489.418 365.913C488.902 365.355 488.645 364.556 488.645 363.517C488.645 362.845 488.756 362.257 488.979 361.753C489.201 361.249 489.539 360.872 489.992 360.622C490.449 360.368 490.945 360.241 491.48 360.241C492.156 360.241 492.709 360.413 493.139 360.757C493.568 361.097 493.844 361.581 493.965 362.21L492.939 362.368C492.842 361.95 492.668 361.636 492.418 361.425C492.172 361.214 491.873 361.109 491.521 361.109C490.99 361.109 490.559 361.3 490.227 361.683C489.895 362.062 489.729 362.663 489.729 363.488C489.729 364.323 489.889 364.931 490.209 365.31C490.529 365.689 490.947 365.878 491.463 365.878C491.877 365.878 492.223 365.751 492.5 365.497C492.777 365.243 492.953 364.853 493.027 364.325ZM494.973 359.228V358.015H496.027V359.228H494.973ZM494.973 366.605V360.382H496.027V366.605H494.973ZM497.217 364.747L498.26 364.583C498.318 365.001 498.48 365.322 498.746 365.544C499.016 365.767 499.391 365.878 499.871 365.878C500.355 365.878 500.715 365.781 500.949 365.585C501.184 365.386 501.301 365.154 501.301 364.888C501.301 364.65 501.197 364.462 500.99 364.325C500.846 364.232 500.486 364.113 499.912 363.968C499.139 363.773 498.602 363.605 498.301 363.464C498.004 363.32 497.777 363.122 497.621 362.872C497.469 362.618 497.393 362.339 497.393 362.034C497.393 361.757 497.455 361.501 497.58 361.267C497.709 361.029 497.883 360.831 498.102 360.675C498.266 360.554 498.488 360.452 498.77 360.37C499.055 360.284 499.359 360.241 499.684 360.241C500.172 360.241 500.6 360.312 500.967 360.452C501.338 360.593 501.611 360.784 501.787 361.027C501.963 361.265 502.084 361.585 502.15 361.988L501.119 362.128C501.072 361.808 500.936 361.558 500.709 361.378C500.486 361.198 500.17 361.109 499.76 361.109C499.275 361.109 498.93 361.189 498.723 361.349C498.516 361.509 498.412 361.697 498.412 361.911C498.412 362.048 498.455 362.171 498.541 362.281C498.627 362.394 498.762 362.488 498.945 362.562C499.051 362.601 499.361 362.691 499.877 362.831C500.623 363.031 501.143 363.195 501.436 363.323C501.732 363.448 501.965 363.632 502.133 363.874C502.301 364.116 502.385 364.417 502.385 364.777C502.385 365.128 502.281 365.46 502.074 365.773C501.871 366.081 501.576 366.322 501.189 366.493C500.803 366.661 500.365 366.745 499.877 366.745C499.068 366.745 498.451 366.577 498.025 366.241C497.604 365.906 497.334 365.407 497.217 364.747ZM503.645 359.228V358.015H504.699V359.228H503.645ZM503.645 366.605V360.382H504.699V366.605H503.645ZM505.918 363.493C505.918 362.341 506.238 361.488 506.879 360.933C507.414 360.472 508.066 360.241 508.836 360.241C509.691 360.241 510.391 360.523 510.934 361.085C511.477 361.644 511.748 362.417 511.748 363.406C511.748 364.206 511.627 364.837 511.385 365.298C511.146 365.755 510.797 366.111 510.336 366.365C509.879 366.618 509.379 366.745 508.836 366.745C507.965 366.745 507.26 366.466 506.721 365.907C506.186 365.349 505.918 364.544 505.918 363.493ZM507.002 363.493C507.002 364.29 507.176 364.888 507.523 365.286C507.871 365.681 508.309 365.878 508.836 365.878C509.359 365.878 509.795 365.679 510.143 365.281C510.49 364.882 510.664 364.275 510.664 363.458C510.664 362.689 510.488 362.107 510.137 361.712C509.789 361.314 509.355 361.115 508.836 361.115C508.309 361.115 507.871 361.312 507.523 361.706C507.176 362.101 507.002 362.697 507.002 363.493ZM512.99 366.605V360.382H513.939V361.267C514.396 360.583 515.057 360.241 515.92 360.241C516.295 360.241 516.639 360.31 516.951 360.447C517.268 360.579 517.504 360.755 517.66 360.974C517.816 361.193 517.926 361.452 517.988 361.753C518.027 361.948 518.047 362.29 518.047 362.779V366.605H516.992V362.82C516.992 362.39 516.951 362.07 516.869 361.859C516.787 361.644 516.641 361.474 516.43 361.349C516.223 361.22 515.979 361.156 515.697 361.156C515.248 361.156 514.859 361.298 514.531 361.583C514.207 361.868 514.045 362.409 514.045 363.206V366.605H512.99Z" fill="#4A5565"/>
<g clip-path="url(#clip7_5470_7547)">
<path d="M616.375 362.598C616.375 360.389 618.166 358.598 620.375 358.598H676.375C678.584 358.598 680.375 360.389 680.375 362.598C680.375 364.808 678.584 366.598 676.375 366.598H620.375C618.166 366.598 616.375 364.808 616.375 362.598Z" fill="#E5E7EB"/>
<path d="M616.375 362.598C616.375 360.389 618.166 358.598 620.375 358.598H630.375C632.584 358.598 634.375 360.389 634.375 362.598C634.375 364.808 632.584 366.598 630.375 366.598H620.375C618.166 366.598 616.375 364.808 616.375 362.598Z" fill="#F97066"/>
</g>
<path d="M706.202 363.739L708.062 363.514C708.121 363.988 708.28 364.35 708.54 364.601C708.8 364.851 709.114 364.977 709.483 364.977C709.88 364.977 710.213 364.826 710.481 364.525C710.755 364.225 710.892 363.819 710.892 363.309C710.892 362.826 710.762 362.443 710.502 362.16C710.242 361.878 709.925 361.736 709.552 361.736C709.306 361.736 709.012 361.784 708.67 361.88L708.882 360.314C709.401 360.328 709.798 360.217 710.071 359.98C710.345 359.738 710.481 359.419 710.481 359.022C710.481 358.685 710.381 358.416 710.181 358.216C709.98 358.015 709.714 357.915 709.381 357.915C709.053 357.915 708.772 358.029 708.54 358.257C708.308 358.485 708.166 358.817 708.116 359.255L706.346 358.954C706.469 358.348 706.653 357.865 706.899 357.505C707.15 357.14 707.496 356.855 707.938 356.65C708.385 356.441 708.884 356.336 709.436 356.336C710.379 356.336 711.135 356.637 711.705 357.238C712.174 357.73 712.409 358.286 712.409 358.906C712.409 359.786 711.928 360.488 710.967 361.012C711.541 361.135 711.999 361.411 712.341 361.839C712.687 362.267 712.86 362.785 712.86 363.391C712.86 364.27 712.539 365.02 711.896 365.64C711.254 366.259 710.454 366.569 709.497 366.569C708.59 366.569 707.838 366.31 707.241 365.79C706.644 365.266 706.298 364.582 706.202 363.739ZM717.311 356.336C718.281 356.336 719.04 356.682 719.587 357.375C720.239 358.195 720.564 359.556 720.564 361.456C720.564 363.352 720.236 364.715 719.58 365.544C719.038 366.228 718.281 366.569 717.311 366.569C716.335 366.569 715.549 366.196 714.952 365.448C714.355 364.696 714.057 363.359 714.057 361.436C714.057 359.549 714.385 358.191 715.041 357.361C715.583 356.678 716.34 356.336 717.311 356.336ZM717.311 357.929C717.078 357.929 716.871 358.004 716.688 358.154C716.506 358.3 716.365 358.564 716.265 358.947C716.132 359.444 716.066 360.28 716.066 361.456C716.066 362.632 716.126 363.441 716.244 363.883C716.363 364.32 716.511 364.612 716.688 364.758C716.871 364.904 717.078 364.977 717.311 364.977C717.543 364.977 717.75 364.904 717.933 364.758C718.115 364.607 718.256 364.341 718.356 363.958C718.489 363.466 718.555 362.632 718.555 361.456C718.555 360.28 718.495 359.474 718.377 359.036C718.258 358.594 718.108 358.3 717.926 358.154C717.748 358.004 717.543 357.929 717.311 357.929Z" fill="#101828"/>
<defs>
<linearGradient id="paint0_linear_5470_7547" x1="384" y1="0" x2="384" y2="427" gradientUnits="userSpaceOnUse">
<stop stop-color="#C1E0FF"/>
<stop offset="1" stop-color="#DFEFFF"/>
</linearGradient>
<linearGradient id="paint1_linear_5470_7547" x1="211.312" y1="237.26" x2="211.312" y2="39.8901" gradientUnits="userSpaceOnUse">
<stop stop-color="#62D0FF"/>
<stop offset="1" stop-color="#797BFF"/>
</linearGradient>
<clipPath id="clip0_5470_7547">
<path d="M249.406 114.091C249.406 111.65 251.386 109.671 253.827 109.671H315.718C318.16 109.671 320.139 111.65 320.139 114.091C320.139 116.533 318.16 118.512 315.718 118.512H253.827C251.386 118.512 249.406 116.533 249.406 114.091Z" fill="white"/>
</clipPath>
<clipPath id="clip1_5470_7547">
<path d="M249.406 145.037C249.406 142.596 251.386 140.616 253.827 140.616H315.718C318.16 140.616 320.139 142.596 320.139 145.037C320.139 147.479 318.16 149.458 315.718 149.458H253.827C251.386 149.458 249.406 147.479 249.406 145.037Z" fill="white"/>
</clipPath>
<clipPath id="clip2_5470_7547">
<path d="M249.406 175.983C249.406 173.541 251.386 171.562 253.827 171.562H315.718C318.16 171.562 320.139 173.541 320.139 175.983C320.139 178.424 318.16 180.404 315.718 180.404H253.827C251.386 180.404 249.406 178.424 249.406 175.983Z" fill="white"/>
</clipPath>
<clipPath id="clip3_5470_7547">
<path d="M249.406 206.928C249.406 204.487 251.386 202.508 253.827 202.508H315.718C318.16 202.508 320.139 204.487 320.139 206.928C320.139 209.37 318.16 211.349 315.718 211.349H253.827C251.386 211.349 249.406 209.37 249.406 206.928Z" fill="white"/>
</clipPath>
<clipPath id="clip4_5470_7547">
<path d="M616.375 278.598C616.375 276.389 618.166 274.598 620.375 274.598H676.375C678.584 274.598 680.375 276.389 680.375 278.598C680.375 280.808 678.584 282.598 676.375 282.598H620.375C618.166 282.598 616.375 280.808 616.375 278.598Z" fill="white"/>
</clipPath>
<clipPath id="clip5_5470_7547">
<path d="M616.375 306.598C616.375 304.389 618.166 302.598 620.375 302.598H676.375C678.584 302.598 680.375 304.389 680.375 306.598C680.375 308.808 678.584 310.598 676.375 310.598H620.375C618.166 310.598 616.375 308.808 616.375 306.598Z" fill="white"/>
</clipPath>
<clipPath id="clip6_5470_7547">
<path d="M616.375 334.598C616.375 332.389 618.166 330.598 620.375 330.598H676.375C678.584 330.598 680.375 332.389 680.375 334.598C680.375 336.808 678.584 338.598 676.375 338.598H620.375C618.166 338.598 616.375 336.808 616.375 334.598Z" fill="white"/>
</clipPath>
<clipPath id="clip7_5470_7547">
<path d="M616.375 362.598C616.375 360.389 618.166 358.598 620.375 358.598H676.375C678.584 358.598 680.375 360.389 680.375 362.598C680.375 364.808 678.584 366.598 676.375 366.598H620.375C618.166 366.598 616.375 364.808 616.375 362.598Z" fill="white"/>
</clipPath>
</defs>
</svg>
