<svg width="792" height="480" viewBox="0 0 792 480" fill="none" xmlns="http://www.w3.org/2000/svg">
<g filter="url(#filter0_d_5470_7416)">
<rect x="15" y="32.89" width="246" height="111.554" rx="12.479" fill="white" shape-rendering="crispEdges"/>
<path d="M55.3668 100.486C47.6747 98.8323 39.3417 101.175 36.1367 102.553V123.854H95.0009H153.865V64.7888L144.382 68.5668C141.182 69.8414 137.705 70.2551 134.295 69.7664L128.981 69.0048C126.403 68.6353 123.778 68.7806 121.257 69.4321L102.412 74.3021C96.4598 79.1254 83.3192 89.9435 78.3743 94.6291C72.1932 101.864 64.9819 102.553 55.3668 100.486Z" fill="url(#paint0_linear_5470_7416)"/>
<path d="M35.7969 102.886C39.0124 101.507 47.3729 99.1646 55.0903 100.818C64.7371 102.886 71.9721 102.196 78.1736 94.9614C82.0195 91.3292 90.8066 84.0117 97.3449 78.6584C100.597 75.9957 104.397 74.0919 108.467 73.0435L119.348 70.2408C123.098 69.2747 127.003 69.0594 130.837 69.6071L131.291 69.6719C136.658 70.4387 142.133 69.7059 147.111 67.5546L153.167 64.937" stroke="#43B077" stroke-width="1.25088" stroke-linecap="round"/>
<circle cx="153.21" cy="64.4332" r="3.78777" fill="#43B077"/>
<path d="M180.97 78.6884L189.012 62.772V62.6427H179.678V59.7808H192.557V62.7074L184.525 78.6884H180.97ZM201.847 59.5223C202.751 59.5284 203.632 59.6884 204.487 60.0023C205.349 60.3101 206.124 60.8148 206.814 61.5164C207.503 62.2119 208.051 63.1444 208.457 64.3138C208.863 65.4832 209.066 66.9296 209.066 68.6529C209.072 70.2778 208.9 71.7303 208.549 73.0105C208.205 74.2846 207.709 75.3617 207.063 76.2418C206.417 77.122 205.638 77.7928 204.727 78.2544C203.816 78.7161 202.791 78.9469 201.653 78.9469C200.459 78.9469 199.4 78.713 198.477 78.2452C197.56 77.7774 196.818 77.1373 196.252 76.3249C195.686 75.5125 195.338 74.5831 195.209 73.5368H198.579C198.751 74.2877 199.102 74.8847 199.631 75.3278C200.166 75.7648 200.84 75.9833 201.653 75.9833C202.964 75.9833 203.973 75.414 204.681 74.2754C205.389 73.1367 205.743 71.5549 205.743 69.53H205.613C205.312 70.0716 204.921 70.5394 204.441 70.9333C203.961 71.321 203.416 71.6195 202.807 71.8288C202.204 72.0381 201.564 72.1427 200.887 72.1427C199.779 72.1427 198.782 71.878 197.895 71.3487C197.015 70.8194 196.317 70.0932 195.8 69.1699C195.289 68.2467 195.03 67.1912 195.024 66.0033C195.024 64.7723 195.307 63.6675 195.873 62.6889C196.446 61.7041 197.243 60.9286 198.265 60.3624C199.286 59.79 200.48 59.5099 201.847 59.5223ZM201.856 62.2919C201.191 62.2919 200.591 62.455 200.056 62.7812C199.526 63.1013 199.108 63.5383 198.8 64.0922C198.498 64.64 198.348 65.2524 198.348 65.9294C198.354 66.6003 198.505 67.2096 198.8 67.7574C199.102 68.3052 199.511 68.7391 200.028 69.0591C200.551 69.3792 201.148 69.5392 201.819 69.5392C202.318 69.5392 202.782 69.4438 203.213 69.253C203.644 69.0622 204.019 68.7976 204.339 68.459C204.666 68.1144 204.918 67.7235 205.096 67.2866C205.281 66.8496 205.37 66.388 205.364 65.9017C205.364 65.2555 205.21 64.6584 204.903 64.1107C204.601 63.5629 204.186 63.1228 203.656 62.7905C203.133 62.4581 202.533 62.2919 201.856 62.2919ZM222.25 75.1432V74.1461C222.25 73.4137 222.404 72.7397 222.712 72.1242C223.025 71.5088 223.481 71.0133 224.078 70.6379C224.675 70.2624 225.398 70.0747 226.247 70.0747C227.121 70.0747 227.854 70.2624 228.445 70.6379C229.036 71.0071 229.482 71.4995 229.783 72.115C230.091 72.7305 230.245 73.4075 230.245 74.1461V75.1432C230.245 75.8756 230.091 76.5496 229.783 77.165C229.476 77.7805 229.023 78.276 228.426 78.6514C227.835 79.0269 227.109 79.2146 226.247 79.2146C225.386 79.2146 224.656 79.0269 224.059 78.6514C223.462 78.276 223.01 77.7805 222.702 77.165C222.401 76.5496 222.25 75.8756 222.25 75.1432ZM224.66 74.1461V75.1432C224.66 75.6294 224.776 76.0756 225.01 76.4819C225.244 76.8881 225.657 77.0912 226.247 77.0912C226.844 77.0912 227.254 76.8911 227.475 76.4911C227.703 76.0849 227.817 75.6356 227.817 75.1432V74.1461C227.817 73.6537 227.709 73.2044 227.494 72.7982C227.278 72.3858 226.863 72.1796 226.247 72.1796C225.669 72.1796 225.26 72.3858 225.02 72.7982C224.78 73.2044 224.66 73.6537 224.66 74.1461ZM212.639 64.323V63.3259C212.639 62.5874 212.796 61.9103 213.11 61.2948C213.424 60.6794 213.879 60.187 214.476 59.8177C215.073 59.4422 215.797 59.2545 216.646 59.2545C217.514 59.2545 218.243 59.4422 218.834 59.8177C219.431 60.187 219.88 60.6794 220.182 61.2948C220.483 61.9103 220.634 62.5874 220.634 63.3259V64.323C220.634 65.0616 220.48 65.7386 220.173 66.3541C219.871 66.9634 219.422 67.4527 218.825 67.822C218.228 68.1913 217.501 68.376 216.646 68.376C215.778 68.376 215.046 68.1913 214.449 67.822C213.858 67.4527 213.409 66.9603 213.101 66.3449C212.793 65.7294 212.639 65.0554 212.639 64.323ZM215.067 63.3259V64.323C215.067 64.8154 215.181 65.2647 215.409 65.6709C215.643 66.071 216.055 66.271 216.646 66.271C217.237 66.271 217.643 66.071 217.865 65.6709C218.092 65.2647 218.206 64.8154 218.206 64.323V63.3259C218.206 62.8335 218.099 62.3842 217.883 61.978C217.668 61.5657 217.255 61.3595 216.646 61.3595C216.061 61.3595 215.652 61.5657 215.418 61.978C215.184 62.3904 215.067 62.8397 215.067 63.3259ZM213.692 78.6884L226.691 59.7808H228.999L216 78.6884H213.692Z" fill="black"/>
<path d="M244.803 70.0361H248.561L243.272 62.5762L237.984 70.0361H241.744V76.5186H244.803V70.0361Z" fill="#43B077"/>
<path opacity="0.5" d="M179.251 95.8696V94.8134H186.625V95.8696H183.533V104.645H182.342V95.8696H179.251ZM188.308 104.645V97.2714H189.441V104.645H188.308ZM188.884 96.0424C188.664 96.0424 188.473 95.9672 188.313 95.8168C188.156 95.6664 188.078 95.4855 188.078 95.2743C188.078 95.0631 188.156 94.8822 188.313 94.7318C188.473 94.5814 188.664 94.5062 188.884 94.5062C189.105 94.5062 189.294 94.5814 189.451 94.7318C189.611 94.8822 189.691 95.0631 189.691 95.2743C189.691 95.4855 189.611 95.6664 189.451 95.8168C189.294 95.9672 189.105 96.0424 188.884 96.0424ZM191.516 104.645V97.2714H192.611V98.4236H192.707C192.861 98.0299 193.109 97.7243 193.451 97.5067C193.794 97.2858 194.205 97.1754 194.685 97.1754C195.171 97.1754 195.576 97.2858 195.9 97.5067C196.226 97.7243 196.48 98.0299 196.663 98.4236H196.74C196.929 98.0427 197.212 97.7403 197.589 97.5163C197.967 97.289 198.42 97.1754 198.948 97.1754C199.607 97.1754 200.147 97.3818 200.566 97.7947C200.985 98.2044 201.195 98.8429 201.195 99.7102V104.645H200.062V99.7102C200.062 99.1661 199.913 98.7773 199.615 98.5436C199.318 98.31 198.967 98.1932 198.564 98.1932C198.046 98.1932 197.644 98.35 197.359 98.6636C197.074 98.9741 196.932 99.3678 196.932 99.8446V104.645H195.78V99.595C195.78 99.1757 195.644 98.8381 195.372 98.582C195.099 98.3228 194.749 98.1932 194.32 98.1932C194.026 98.1932 193.75 98.2716 193.494 98.4284C193.242 98.5852 193.037 98.8029 192.88 99.0813C192.726 99.3566 192.649 99.675 192.649 100.037V104.645H191.516ZM206.358 104.799C205.648 104.799 205.035 104.642 204.519 104.329C204.007 104.012 203.612 103.57 203.334 103.004C203.058 102.434 202.921 101.771 202.921 101.016C202.921 100.261 203.058 99.595 203.334 99.0189C203.612 98.4396 203.999 97.9883 204.495 97.6651C204.995 97.3386 205.577 97.1754 206.243 97.1754C206.627 97.1754 207.006 97.2394 207.381 97.3674C207.755 97.4955 208.096 97.7035 208.403 97.9915C208.71 98.2764 208.955 98.654 209.138 99.1245C209.32 99.595 209.411 100.174 209.411 100.862V101.342H203.727V100.363H208.259C208.259 99.947 208.176 99.5758 208.009 99.2493C207.846 98.9229 207.613 98.6652 207.309 98.4764C207.008 98.2876 206.652 98.1932 206.243 98.1932C205.792 98.1932 205.401 98.3052 205.071 98.5292C204.745 98.7501 204.494 99.0381 204.318 99.3934C204.142 99.7486 204.054 100.129 204.054 100.536V101.189C204.054 101.746 204.15 102.218 204.342 102.605C204.537 102.989 204.807 103.282 205.153 103.484C205.499 103.682 205.9 103.781 206.358 103.781C206.656 103.781 206.925 103.74 207.165 103.656C207.408 103.57 207.617 103.442 207.793 103.272C207.969 103.1 208.106 102.885 208.202 102.629L209.296 102.936C209.181 103.308 208.987 103.634 208.715 103.916C208.443 104.194 208.107 104.412 207.707 104.569C207.307 104.722 206.857 104.799 206.358 104.799ZM185.165 113.271C185.107 112.785 184.874 112.407 184.464 112.138C184.055 111.87 183.552 111.735 182.957 111.735C182.521 111.735 182.141 111.806 181.814 111.946C181.491 112.087 181.238 112.281 181.056 112.527C180.876 112.774 180.787 113.054 180.787 113.367C180.787 113.63 180.849 113.856 180.974 114.044C181.102 114.23 181.265 114.385 181.464 114.51C181.662 114.632 181.87 114.732 182.088 114.812C182.305 114.889 182.505 114.952 182.688 115L183.686 115.269C183.942 115.336 184.227 115.429 184.541 115.547C184.858 115.665 185.16 115.827 185.448 116.032C185.74 116.233 185.98 116.493 186.168 116.81C186.357 117.126 186.452 117.515 186.452 117.976C186.452 118.507 186.312 118.988 186.034 119.416C185.759 119.845 185.356 120.186 184.824 120.439C184.296 120.692 183.654 120.818 182.899 120.818C182.195 120.818 181.585 120.705 181.07 120.477C180.558 120.25 180.155 119.933 179.86 119.527C179.569 119.12 179.404 118.648 179.366 118.111H180.595C180.627 118.482 180.752 118.789 180.969 119.032C181.19 119.272 181.469 119.452 181.805 119.57C182.144 119.685 182.509 119.743 182.899 119.743C183.354 119.743 183.762 119.669 184.123 119.522C184.485 119.372 184.771 119.164 184.983 118.898C185.194 118.629 185.3 118.315 185.3 117.957C185.3 117.631 185.208 117.365 185.026 117.16C184.843 116.955 184.603 116.789 184.306 116.661C184.008 116.533 183.686 116.421 183.341 116.325L182.131 115.979C181.363 115.758 180.755 115.443 180.307 115.033C179.859 114.624 179.635 114.088 179.635 113.425C179.635 112.875 179.783 112.394 180.081 111.985C180.382 111.572 180.785 111.252 181.291 111.025C181.8 110.794 182.368 110.679 182.995 110.679C183.629 110.679 184.192 110.793 184.685 111.02C185.178 111.244 185.568 111.551 185.856 111.942C186.148 112.332 186.301 112.775 186.317 113.271H185.165ZM190.426 120.818C189.958 120.818 189.534 120.73 189.153 120.554C188.772 120.375 188.47 120.117 188.246 119.781C188.022 119.442 187.91 119.032 187.91 118.552C187.91 118.13 187.993 117.787 188.16 117.525C188.326 117.259 188.548 117.051 188.827 116.901C189.105 116.75 189.413 116.638 189.749 116.565C190.088 116.488 190.429 116.427 190.771 116.382C191.219 116.325 191.583 116.281 191.861 116.253C192.143 116.221 192.347 116.168 192.475 116.094C192.607 116.021 192.672 115.893 192.672 115.71V115.672C192.672 115.198 192.543 114.83 192.283 114.568C192.027 114.305 191.639 114.174 191.117 114.174C190.576 114.174 190.152 114.292 189.845 114.529C189.537 114.766 189.321 115.019 189.197 115.288L188.121 114.904C188.313 114.456 188.569 114.107 188.889 113.857C189.213 113.604 189.565 113.428 189.945 113.329C190.33 113.227 190.707 113.175 191.078 113.175C191.315 113.175 191.587 113.204 191.895 113.262C192.205 113.316 192.504 113.43 192.792 113.603C193.084 113.776 193.325 114.036 193.517 114.385C193.709 114.734 193.805 115.201 193.805 115.787V120.645H192.672V119.647H192.615C192.538 119.807 192.41 119.978 192.231 120.161C192.051 120.343 191.813 120.498 191.515 120.626C191.218 120.754 190.854 120.818 190.426 120.818ZM190.598 119.8C191.046 119.8 191.424 119.712 191.731 119.536C192.042 119.36 192.275 119.133 192.432 118.855C192.592 118.576 192.672 118.283 192.672 117.976V116.939C192.624 116.997 192.519 117.05 192.355 117.098C192.195 117.142 192.01 117.182 191.799 117.218C191.591 117.25 191.387 117.278 191.189 117.304C190.994 117.326 190.835 117.346 190.714 117.362C190.419 117.4 190.144 117.462 189.888 117.549C189.635 117.632 189.43 117.759 189.273 117.928C189.12 118.095 189.043 118.322 189.043 118.61C189.043 119.004 189.189 119.301 189.48 119.503C189.774 119.701 190.147 119.8 190.598 119.8ZM201.639 113.271L198.912 120.645H197.76L195.033 113.271H196.262L198.298 119.148H198.374L200.41 113.271H201.639ZM203.134 120.645V113.271H204.267V120.645H203.134ZM203.71 112.042C203.49 112.042 203.299 111.967 203.139 111.817C202.982 111.666 202.904 111.486 202.904 111.274C202.904 111.063 202.982 110.882 203.139 110.732C203.299 110.581 203.49 110.506 203.71 110.506C203.931 110.506 204.12 110.581 204.277 110.732C204.437 110.882 204.517 111.063 204.517 111.274C204.517 111.486 204.437 111.666 204.277 111.817C204.12 111.967 203.931 112.042 203.71 112.042ZM207.475 116.209V120.645H206.342V113.271H207.437V114.424H207.533C207.706 114.049 207.968 113.748 208.32 113.521C208.672 113.291 209.127 113.175 209.684 113.175C210.183 113.175 210.62 113.278 210.994 113.483C211.369 113.684 211.66 113.992 211.868 114.404C212.076 114.814 212.18 115.333 212.18 115.96V120.645H211.047V116.037C211.047 115.457 210.897 115.006 210.596 114.683C210.295 114.356 209.882 114.193 209.357 114.193C208.996 114.193 208.672 114.272 208.388 114.428C208.106 114.585 207.883 114.814 207.72 115.115C207.557 115.416 207.475 115.781 207.475 116.209ZM217.227 123.564C216.68 123.564 216.209 123.494 215.816 123.353C215.422 123.215 215.094 123.033 214.831 122.806C214.572 122.582 214.366 122.342 214.212 122.086L215.115 121.452C215.217 121.586 215.347 121.74 215.503 121.913C215.66 122.089 215.875 122.241 216.147 122.369C216.422 122.5 216.782 122.566 217.227 122.566C217.822 122.566 218.314 122.422 218.701 122.134C219.088 121.846 219.282 121.394 219.282 120.78V119.282H219.186C219.102 119.416 218.984 119.583 218.83 119.781C218.68 119.976 218.462 120.151 218.178 120.305C217.896 120.455 217.515 120.53 217.035 120.53C216.44 120.53 215.905 120.389 215.431 120.108C214.961 119.826 214.588 119.416 214.313 118.879C214.041 118.341 213.905 117.688 213.905 116.92C213.905 116.165 214.038 115.507 214.303 114.947C214.569 114.384 214.939 113.948 215.412 113.641C215.886 113.331 216.433 113.175 217.054 113.175C217.534 113.175 217.915 113.255 218.197 113.415C218.482 113.572 218.699 113.751 218.85 113.953C219.003 114.152 219.122 114.315 219.205 114.443H219.32V113.271H220.415V120.857C220.415 121.49 220.271 122.006 219.983 122.402C219.698 122.803 219.314 123.095 218.83 123.281C218.35 123.47 217.816 123.564 217.227 123.564ZM217.189 119.512C217.643 119.512 218.027 119.408 218.341 119.2C218.654 118.992 218.893 118.693 219.056 118.303C219.219 117.912 219.301 117.445 219.301 116.901C219.301 116.37 219.221 115.901 219.061 115.494C218.901 115.088 218.664 114.769 218.35 114.539C218.037 114.308 217.649 114.193 217.189 114.193C216.708 114.193 216.308 114.315 215.988 114.558C215.672 114.801 215.433 115.128 215.273 115.537C215.116 115.947 215.038 116.402 215.038 116.901C215.038 117.413 215.118 117.866 215.278 118.259C215.441 118.65 215.681 118.957 215.998 119.181C216.318 119.402 216.715 119.512 217.189 119.512Z" fill="black"/>
</g>
<g filter="url(#filter1_d_5470_7416)">
<rect x="273" y="149.89" width="246" height="104.798" rx="12.479" fill="white" shape-rendering="crispEdges"/>
<circle cx="325.398" cy="202.289" r="17.6011" fill="#EEF6FF"/>
<path d="M333.858 201.814C333.858 206.749 329.857 210.75 324.921 210.75C319.985 210.75 315.984 206.749 315.984 201.814C315.984 196.878 319.985 192.877 324.921 192.877C329.857 192.877 333.858 196.878 333.858 201.814Z" stroke="#4E6BEA" stroke-width="1.34051"/>
<path d="M327.342 200.081C327.254 199.399 326.471 198.298 325.064 198.298C323.429 198.298 322.741 199.203 322.601 199.656C322.384 200.262 322.427 201.507 324.344 201.643C326.739 201.813 327.699 202.095 327.577 203.562C327.455 205.028 326.119 205.344 325.064 205.31C324.009 205.276 322.282 204.792 322.215 203.488M324.897 197.343V198.301M324.897 205.302V206.28" stroke="#4E6BEA" stroke-width="1.34051" stroke-linecap="round"/>
<path d="M335.601 231.669C319.375 237.304 301.652 228.719 296.017 212.492C290.382 196.266 298.968 178.544 315.194 172.908C331.42 167.273 349.143 175.859 354.778 192.085C360.413 208.312 351.827 226.034 335.601 231.669ZM316.852 177.682C303.262 182.402 296.071 197.245 300.791 210.834C305.511 224.424 320.353 231.615 333.943 226.895C347.533 222.176 354.723 207.333 350.004 193.743C345.284 180.153 330.442 172.963 316.852 177.682Z" fill="#E9ECF1"/>
<path d="M348.47 185.428C349.597 184.605 349.85 183.016 348.938 181.96C345.922 178.468 342.16 175.683 337.917 173.817C332.901 171.612 327.392 170.771 321.947 171.379C316.502 171.988 311.314 174.024 306.908 177.281C302.502 180.539 299.036 184.902 296.858 189.93C294.681 194.958 293.871 200.472 294.51 205.914C295.148 211.356 297.213 216.532 300.495 220.92C303.777 225.307 308.16 228.749 313.2 230.898C317.464 232.716 322.069 233.554 326.679 233.364C328.073 233.307 329.059 232.035 328.888 230.65C328.718 229.265 327.456 228.293 326.061 228.329C322.337 228.423 318.627 227.718 315.183 226.25C310.961 224.45 307.291 221.567 304.542 217.892C301.793 214.218 300.064 209.883 299.529 205.325C298.994 200.767 299.673 196.15 301.496 191.939C303.319 187.728 306.223 184.073 309.913 181.345C313.602 178.616 317.947 176.911 322.508 176.402C327.068 175.893 331.682 176.597 335.883 178.444C339.311 179.951 342.364 182.175 344.842 184.955C345.771 185.996 347.343 186.252 348.47 185.428Z" fill="#4E6BEA"/>
<path d="M386.263 200.569C384.933 200.569 383.752 200.341 382.718 199.886C381.69 199.43 380.877 198.796 380.28 197.984C379.683 197.171 379.366 196.233 379.329 195.168H382.801C382.832 195.679 383.001 196.125 383.309 196.507C383.616 196.882 384.026 197.175 384.536 197.384C385.047 197.593 385.62 197.698 386.254 197.698C386.931 197.698 387.531 197.581 388.054 197.347C388.577 197.107 388.986 196.774 389.282 196.35C389.577 195.925 389.722 195.436 389.716 194.882C389.722 194.309 389.574 193.805 389.273 193.368C388.971 192.931 388.534 192.589 387.962 192.343C387.395 192.097 386.712 191.974 385.912 191.974H384.241V189.333H385.912C386.571 189.333 387.146 189.219 387.638 188.992C388.137 188.764 388.528 188.444 388.811 188.032C389.094 187.613 389.233 187.13 389.226 186.582C389.233 186.047 389.113 185.582 388.866 185.188C388.626 184.788 388.285 184.477 387.842 184.256C387.405 184.034 386.891 183.923 386.3 183.923C385.721 183.923 385.186 184.028 384.693 184.237C384.201 184.446 383.804 184.745 383.502 185.133C383.201 185.514 383.041 185.97 383.022 186.499H379.726C379.751 185.44 380.056 184.511 380.64 183.711C381.231 182.905 382.019 182.277 383.004 181.828C383.989 181.372 385.093 181.144 386.318 181.144C387.58 181.144 388.676 181.381 389.605 181.855C390.54 182.323 391.264 182.954 391.774 183.748C392.285 184.542 392.541 185.419 392.541 186.379C392.547 187.444 392.233 188.336 391.599 189.056C390.971 189.776 390.147 190.247 389.125 190.469V190.617C390.454 190.801 391.473 191.294 392.181 192.094C392.895 192.888 393.249 193.876 393.242 195.057C393.242 196.116 392.941 197.064 392.338 197.901C391.741 198.732 390.916 199.384 389.863 199.858C388.817 200.332 387.617 200.569 386.263 200.569ZM403.4 200.67C401.88 200.67 400.575 200.286 399.486 199.516C398.402 198.741 397.568 197.624 396.984 196.165C396.405 194.7 396.116 192.937 396.116 190.875C396.122 188.813 396.414 187.059 396.993 185.613C397.578 184.16 398.412 183.052 399.495 182.289C400.584 181.526 401.886 181.144 403.4 181.144C404.914 181.144 406.216 181.526 407.305 182.289C408.395 183.052 409.229 184.16 409.807 185.613C410.392 187.065 410.684 188.819 410.684 190.875C410.684 192.943 410.392 194.71 409.807 196.174C409.229 197.633 408.395 198.747 407.305 199.516C406.222 200.286 404.92 200.67 403.4 200.67ZM403.4 197.781C404.582 197.781 405.514 197.199 406.198 196.036C406.887 194.866 407.232 193.146 407.232 190.875C407.232 189.373 407.075 188.112 406.761 187.09C406.447 186.068 406.004 185.299 405.431 184.782C404.859 184.259 404.182 183.997 403.4 183.997C402.225 183.997 401.295 184.582 400.612 185.751C399.929 186.914 399.584 188.622 399.578 190.875C399.572 192.383 399.723 193.651 400.03 194.679C400.344 195.707 400.787 196.482 401.36 197.005C401.932 197.522 402.612 197.781 403.4 197.781ZM423.861 196.765V195.768C423.861 195.036 424.015 194.362 424.323 193.746C424.637 193.131 425.092 192.635 425.689 192.26C426.286 191.884 427.009 191.697 427.859 191.697C428.733 191.697 429.465 191.884 430.056 192.26C430.647 192.629 431.093 193.122 431.395 193.737C431.702 194.353 431.856 195.03 431.856 195.768V196.765C431.856 197.498 431.702 198.172 431.395 198.787C431.087 199.403 430.634 199.898 430.037 200.273C429.447 200.649 428.72 200.837 427.859 200.837C426.997 200.837 426.268 200.649 425.671 200.273C425.074 199.898 424.621 199.403 424.313 198.787C424.012 198.172 423.861 197.498 423.861 196.765ZM426.271 195.768V196.765C426.271 197.251 426.388 197.698 426.621 198.104C426.855 198.51 427.268 198.713 427.859 198.713C428.456 198.713 428.865 198.513 429.087 198.113C429.314 197.707 429.428 197.258 429.428 196.765V195.768C429.428 195.276 429.32 194.826 429.105 194.42C428.89 194.008 428.474 193.802 427.859 193.802C427.28 193.802 426.871 194.008 426.631 194.42C426.391 194.826 426.271 195.276 426.271 195.768ZM414.25 185.945V184.948C414.25 184.209 414.407 183.532 414.721 182.917C415.035 182.301 415.491 181.809 416.088 181.44C416.685 181.064 417.408 180.877 418.257 180.877C419.125 180.877 419.854 181.064 420.445 181.44C421.042 181.809 421.491 182.301 421.793 182.917C422.095 183.532 422.245 184.209 422.245 184.948V185.945C422.245 186.684 422.092 187.361 421.784 187.976C421.482 188.585 421.033 189.075 420.436 189.444C419.839 189.813 419.113 189.998 418.257 189.998C417.389 189.998 416.657 189.813 416.06 189.444C415.469 189.075 415.02 188.582 414.712 187.967C414.404 187.351 414.25 186.678 414.25 185.945ZM416.678 184.948V185.945C416.678 186.437 416.792 186.887 417.02 187.293C417.254 187.693 417.666 187.893 418.257 187.893C418.848 187.893 419.254 187.693 419.476 187.293C419.703 186.887 419.817 186.437 419.817 185.945V184.948C419.817 184.456 419.71 184.006 419.494 183.6C419.279 183.188 418.866 182.982 418.257 182.982C417.672 182.982 417.263 183.188 417.029 183.6C416.795 184.012 416.678 184.462 416.678 184.948ZM415.303 200.31L428.302 181.403H430.61L417.611 200.31H415.303Z" fill="black"/>
<path d="M444.006 191.658H447.764L442.476 184.198L437.188 191.658H440.947V198.141H444.006V191.658Z" fill="#43B077"/>
<path opacity="0.5" d="M386.899 219.508H385.709C385.638 219.166 385.515 218.865 385.339 218.605C385.166 218.346 384.955 218.129 384.705 217.953C384.459 217.773 384.185 217.639 383.884 217.549C383.583 217.46 383.27 217.415 382.943 217.415C382.348 217.415 381.809 217.565 381.325 217.866C380.845 218.167 380.463 218.61 380.178 219.196C379.896 219.782 379.756 220.5 379.756 221.351C379.756 222.203 379.896 222.921 380.178 223.507C380.463 224.093 380.845 224.536 381.325 224.837C381.809 225.138 382.348 225.288 382.943 225.288C383.27 225.288 383.583 225.243 383.884 225.154C384.185 225.064 384.459 224.931 384.705 224.755C384.955 224.576 385.166 224.357 385.339 224.098C385.515 223.835 385.638 223.534 385.709 223.195H386.899C386.809 223.697 386.646 224.147 386.409 224.544C386.173 224.941 385.878 225.278 385.526 225.557C385.174 225.832 384.779 226.042 384.34 226.186C383.905 226.33 383.439 226.402 382.943 226.402C382.105 226.402 381.359 226.197 380.706 225.787C380.053 225.378 379.54 224.795 379.165 224.04C378.791 223.285 378.603 222.388 378.603 221.351C378.603 220.315 378.791 219.418 379.165 218.663C379.54 217.908 380.053 217.325 380.706 216.916C381.359 216.506 382.105 216.301 382.943 216.301C383.439 216.301 383.905 216.373 384.34 216.517C384.779 216.661 385.174 216.872 385.526 217.151C385.878 217.426 386.173 217.762 386.409 218.159C386.646 218.553 386.809 219.002 386.899 219.508ZM391.665 226.421C390.999 226.421 390.415 226.263 389.913 225.946C389.414 225.629 389.023 225.186 388.741 224.616C388.463 224.046 388.324 223.381 388.324 222.619C388.324 221.851 388.463 221.18 388.741 220.607C389.023 220.034 389.414 219.59 389.913 219.273C390.415 218.956 390.999 218.797 391.665 218.797C392.331 218.797 392.913 218.956 393.413 219.273C393.915 219.59 394.305 220.034 394.584 220.607C394.866 221.18 395.006 221.851 395.006 222.619C395.006 223.381 394.866 224.046 394.584 224.616C394.305 225.186 393.915 225.629 393.413 225.946C392.913 226.263 392.331 226.421 391.665 226.421ZM391.665 225.403C392.171 225.403 392.587 225.274 392.913 225.014C393.24 224.755 393.481 224.414 393.638 223.992C393.795 223.569 393.873 223.112 393.873 222.619C393.873 222.126 393.795 221.667 393.638 221.241C393.481 220.815 393.24 220.471 392.913 220.209C392.587 219.946 392.171 219.815 391.665 219.815C391.159 219.815 390.743 219.946 390.417 220.209C390.09 220.471 389.849 220.815 389.692 221.241C389.535 221.667 389.457 222.126 389.457 222.619C389.457 223.112 389.535 223.569 389.692 223.992C389.849 224.414 390.09 224.755 390.417 225.014C390.743 225.274 391.159 225.403 391.665 225.403ZM401.959 220.545L400.941 220.833C400.877 220.663 400.783 220.499 400.658 220.339C400.536 220.175 400.37 220.041 400.159 219.935C399.948 219.83 399.677 219.777 399.347 219.777C398.896 219.777 398.52 219.881 398.219 220.089C397.922 220.294 397.773 220.555 397.773 220.871C397.773 221.153 397.875 221.375 398.08 221.539C398.285 221.702 398.605 221.838 399.04 221.947L400.135 222.216C400.794 222.376 401.285 222.62 401.609 222.95C401.932 223.277 402.094 223.697 402.094 224.213C402.094 224.635 401.972 225.013 401.729 225.346C401.489 225.679 401.153 225.941 400.72 226.133C400.288 226.325 399.786 226.421 399.213 226.421C398.461 226.421 397.838 226.258 397.346 225.931C396.853 225.605 396.541 225.128 396.409 224.501L397.485 224.232C397.587 224.629 397.781 224.926 398.066 225.125C398.354 225.323 398.73 225.423 399.194 225.423C399.722 225.423 400.141 225.311 400.452 225.086C400.765 224.859 400.922 224.587 400.922 224.27C400.922 224.014 400.833 223.8 400.653 223.627C400.474 223.451 400.199 223.32 399.828 223.233L398.599 222.945C397.923 222.785 397.427 222.537 397.11 222.201C396.797 221.862 396.64 221.438 396.64 220.929C396.64 220.513 396.757 220.145 396.99 219.825C397.227 219.505 397.549 219.254 397.955 219.071C398.365 218.889 398.829 218.797 399.347 218.797C400.077 218.797 400.65 218.958 401.066 219.278C401.485 219.598 401.783 220.02 401.959 220.545ZM407.006 218.893V219.854H403.184V218.893H407.006ZM404.298 217.127H405.431V224.155C405.431 224.475 405.478 224.715 405.57 224.875C405.666 225.032 405.788 225.138 405.935 225.192C406.086 225.243 406.244 225.269 406.411 225.269C406.535 225.269 406.638 225.262 406.718 225.25C406.798 225.234 406.862 225.221 406.91 225.211L407.14 226.229C407.063 226.258 406.956 226.287 406.819 226.315C406.681 226.347 406.507 226.363 406.295 226.363C405.975 226.363 405.662 226.295 405.354 226.157C405.05 226.019 404.798 225.81 404.596 225.528C404.397 225.246 404.298 224.891 404.298 224.462V217.127ZM418.043 218.893C417.985 218.407 417.752 218.029 417.342 217.761C416.932 217.492 416.43 217.357 415.834 217.357C415.399 217.357 415.018 217.428 414.692 217.568C414.369 217.709 414.116 217.903 413.933 218.149C413.754 218.396 413.665 218.676 413.665 218.99C413.665 219.252 413.727 219.478 413.852 219.666C413.98 219.852 414.143 220.007 414.341 220.132C414.54 220.254 414.748 220.355 414.966 220.435C415.183 220.511 415.383 220.574 415.566 220.622L416.564 220.891C416.82 220.958 417.105 221.051 417.419 221.169C417.736 221.287 418.038 221.449 418.326 221.654C418.617 221.856 418.857 222.115 419.046 222.432C419.235 222.749 419.329 223.137 419.329 223.598C419.329 224.13 419.19 224.61 418.912 225.038C418.637 225.467 418.233 225.808 417.702 226.061C417.174 226.314 416.532 226.44 415.777 226.44C415.073 226.44 414.463 226.327 413.948 226.099C413.436 225.872 413.032 225.555 412.738 225.149C412.447 224.742 412.282 224.27 412.244 223.733H413.473C413.505 224.104 413.629 224.411 413.847 224.654C414.068 224.894 414.346 225.074 414.682 225.192C415.022 225.307 415.386 225.365 415.777 225.365C416.231 225.365 416.639 225.291 417.001 225.144C417.363 224.994 417.649 224.786 417.86 224.52C418.072 224.251 418.177 223.937 418.177 223.579C418.177 223.253 418.086 222.987 417.904 222.782C417.721 222.577 417.481 222.411 417.183 222.283C416.886 222.155 416.564 222.043 416.219 221.947L415.009 221.601C414.241 221.38 413.633 221.065 413.184 220.655C412.736 220.246 412.512 219.71 412.512 219.047C412.512 218.497 412.661 218.017 412.959 217.607C413.26 217.194 413.663 216.874 414.169 216.647C414.677 216.416 415.246 216.301 415.873 216.301C416.507 216.301 417.07 216.415 417.563 216.642C418.056 216.866 418.446 217.173 418.734 217.564C419.025 217.954 419.179 218.397 419.195 218.893H418.043ZM423.303 226.44C422.836 226.44 422.412 226.352 422.031 226.176C421.65 225.997 421.348 225.739 421.124 225.403C420.9 225.064 420.788 224.654 420.788 224.174C420.788 223.752 420.871 223.409 421.037 223.147C421.204 222.881 421.426 222.673 421.705 222.523C421.983 222.372 422.29 222.26 422.626 222.187C422.966 222.11 423.306 222.049 423.649 222.004C424.097 221.947 424.46 221.904 424.739 221.875C425.02 221.843 425.225 221.79 425.353 221.716C425.484 221.643 425.55 221.515 425.55 221.332V221.294C425.55 220.82 425.42 220.452 425.161 220.19C424.905 219.927 424.516 219.796 423.995 219.796C423.454 219.796 423.03 219.914 422.722 220.151C422.415 220.388 422.199 220.641 422.074 220.91L420.999 220.526C421.191 220.078 421.447 219.729 421.767 219.479C422.09 219.226 422.442 219.05 422.823 218.951C423.207 218.849 423.585 218.797 423.956 218.797C424.193 218.797 424.465 218.826 424.772 218.884C425.083 218.938 425.382 219.052 425.67 219.225C425.961 219.398 426.203 219.658 426.395 220.007C426.587 220.356 426.683 220.823 426.683 221.409V226.267H425.55V225.269H425.492C425.416 225.429 425.288 225.6 425.108 225.783C424.929 225.965 424.691 226.12 424.393 226.248C424.095 226.376 423.732 226.44 423.303 226.44ZM423.476 225.423C423.924 225.423 424.302 225.335 424.609 225.158C424.92 224.982 425.153 224.755 425.31 224.477C425.47 224.198 425.55 223.905 425.55 223.598V222.561C425.502 222.619 425.396 222.672 425.233 222.72C425.073 222.765 424.888 222.805 424.676 222.84C424.468 222.872 424.265 222.901 424.067 222.926C423.871 222.949 423.713 222.968 423.591 222.984C423.297 223.022 423.022 223.085 422.766 223.171C422.513 223.254 422.308 223.381 422.151 223.55C421.997 223.717 421.921 223.944 421.921 224.232C421.921 224.626 422.066 224.923 422.358 225.125C422.652 225.323 423.025 225.423 423.476 225.423ZM434.517 218.893L431.79 226.267H430.638L427.911 218.893H429.14L431.175 224.77H431.252L433.288 218.893H434.517ZM436.012 226.267V218.893H437.145V226.267H436.012ZM436.588 217.664C436.367 217.664 436.177 217.589 436.017 217.439C435.86 217.288 435.782 217.108 435.782 216.896C435.782 216.685 435.86 216.504 436.017 216.354C436.177 216.203 436.367 216.128 436.588 216.128C436.809 216.128 436.998 216.203 437.155 216.354C437.315 216.504 437.395 216.685 437.395 216.896C437.395 217.108 437.315 217.288 437.155 217.439C436.998 217.589 436.809 217.664 436.588 217.664ZM440.353 221.832V226.267H439.22V218.893H440.315V220.046H440.411C440.584 219.671 440.846 219.37 441.198 219.143C441.55 218.913 442.005 218.797 442.561 218.797C443.061 218.797 443.498 218.9 443.872 219.105C444.247 219.306 444.538 219.614 444.746 220.026C444.954 220.436 445.058 220.955 445.058 221.582V226.267H443.925V221.659C443.925 221.079 443.774 220.628 443.474 220.305C443.173 219.978 442.76 219.815 442.235 219.815C441.873 219.815 441.55 219.894 441.265 220.05C440.984 220.207 440.761 220.436 440.598 220.737C440.435 221.038 440.353 221.403 440.353 221.832ZM450.105 229.186C449.557 229.186 449.087 229.116 448.693 228.975C448.3 228.837 447.972 228.655 447.709 228.428C447.45 228.204 447.243 227.964 447.09 227.708L447.992 227.074C448.095 227.208 448.224 227.362 448.381 227.535C448.538 227.711 448.752 227.863 449.025 227.991C449.3 228.122 449.66 228.188 450.105 228.188C450.7 228.188 451.191 228.044 451.579 227.756C451.966 227.468 452.159 227.016 452.159 226.402V224.904H452.063C451.98 225.038 451.862 225.205 451.708 225.403C451.558 225.599 451.34 225.773 451.055 225.927C450.774 226.077 450.393 226.152 449.913 226.152C449.317 226.152 448.783 226.011 448.309 225.73C447.839 225.448 447.466 225.038 447.191 224.501C446.919 223.963 446.783 223.31 446.783 222.542C446.783 221.787 446.915 221.129 447.181 220.569C447.447 220.006 447.816 219.57 448.29 219.263C448.764 218.953 449.311 218.797 449.932 218.797C450.412 218.797 450.793 218.877 451.074 219.038C451.359 219.194 451.577 219.374 451.727 219.575C451.881 219.774 451.999 219.937 452.083 220.065H452.198V218.893H453.292V226.479C453.292 227.112 453.148 227.628 452.86 228.025C452.575 228.425 452.191 228.717 451.708 228.903C451.228 229.092 450.694 229.186 450.105 229.186ZM450.066 225.134C450.521 225.134 450.905 225.03 451.218 224.822C451.532 224.614 451.771 224.315 451.934 223.925C452.097 223.534 452.179 223.067 452.179 222.523C452.179 221.992 452.099 221.523 451.939 221.116C451.779 220.71 451.542 220.391 451.228 220.161C450.914 219.93 450.527 219.815 450.066 219.815C449.586 219.815 449.186 219.937 448.866 220.18C448.549 220.423 448.311 220.75 448.151 221.159C447.994 221.569 447.916 222.024 447.916 222.523C447.916 223.035 447.996 223.488 448.156 223.881C448.319 224.272 448.559 224.579 448.876 224.803C449.196 225.024 449.593 225.134 450.066 225.134Z" fill="black"/>
</g>
<g filter="url(#filter2_d_5470_7416)">
<rect x="18" y="254.89" width="239.146" height="203.518" rx="12.48" fill="white" shape-rendering="crispEdges"/>
<path d="M47.0391 433.393L221.039 293.393" stroke="#4E6BEA" stroke-width="1.46416"/>
<path d="M47.2812 288.197V433.805" stroke="#D1D1D1" stroke-width="1.22013" stroke-dasharray="1.95 1.95"/>
<path d="M44.8031 284.556V276.037H47.8396C48.5023 276.037 49.0514 276.157 49.4867 276.399C49.9221 276.64 50.2479 276.97 50.4642 277.389C50.6805 277.805 50.7887 278.273 50.7887 278.795C50.7887 279.319 50.6791 279.79 50.4601 280.209C50.2438 280.625 49.9166 280.955 49.4784 281.199C49.0431 281.44 48.4954 281.561 47.8354 281.561H45.7473V280.471H47.7189C48.1377 280.471 48.4774 280.399 48.738 280.255C48.9987 280.108 49.19 279.908 49.312 279.656C49.434 279.403 49.4951 279.116 49.4951 278.795C49.4951 278.473 49.434 278.187 49.312 277.938C49.19 277.688 48.9973 277.493 48.7339 277.351C48.4732 277.21 48.1293 277.139 47.7023 277.139H46.0884V284.556H44.8031Z" fill="#4E6BEA"/>
<path d="M95.9359 275.89V267.371H98.9724C99.6351 267.371 100.184 267.492 100.62 267.733C101.055 267.974 101.381 268.304 101.597 268.723C101.813 269.139 101.921 269.608 101.921 270.129C101.921 270.653 101.812 271.125 101.593 271.543C101.377 271.959 101.049 272.289 100.611 272.533C100.176 272.775 99.6282 272.895 98.9682 272.895H96.8801V271.805H98.8517C99.2705 271.805 99.6102 271.733 99.8708 271.589C100.131 271.442 100.323 271.242 100.445 270.99C100.567 270.738 100.628 270.451 100.628 270.129C100.628 269.807 100.567 269.522 100.445 269.272C100.323 269.023 100.13 268.827 99.8667 268.686C99.606 268.544 99.2621 268.474 98.8351 268.474H97.2212V275.89H95.9359ZM103.328 275.89V269.501H104.572V275.89H103.328ZM103.957 268.515C103.74 268.515 103.554 268.443 103.399 268.299C103.247 268.152 103.17 267.977 103.17 267.775C103.17 267.57 103.247 267.395 103.399 267.251C103.554 267.104 103.74 267.03 103.957 267.03C104.173 267.03 104.357 267.104 104.51 267.251C104.665 267.395 104.743 267.57 104.743 267.775C104.743 267.977 104.665 268.152 104.51 268.299C104.357 268.443 104.173 268.515 103.957 268.515ZM106.245 278.286V269.501H107.46V270.537H107.564C107.636 270.404 107.74 270.25 107.876 270.075C108.012 269.9 108.2 269.748 108.442 269.617C108.683 269.484 109.002 269.418 109.398 269.418C109.914 269.418 110.374 269.548 110.779 269.809C111.184 270.069 111.502 270.445 111.732 270.936C111.965 271.427 112.081 272.017 112.081 272.708C112.081 273.398 111.966 273.99 111.736 274.484C111.506 274.975 111.19 275.353 110.788 275.62C110.385 275.883 109.927 276.015 109.411 276.015C109.023 276.015 108.705 275.95 108.458 275.819C108.214 275.689 108.023 275.536 107.884 275.362C107.746 275.187 107.639 275.032 107.564 274.896H107.489V278.286H106.245ZM107.464 272.695C107.464 273.145 107.529 273.538 107.66 273.877C107.79 274.215 107.978 274.48 108.225 274.671C108.472 274.86 108.774 274.954 109.132 274.954C109.504 274.954 109.814 274.856 110.064 274.659C110.313 274.459 110.502 274.189 110.63 273.848C110.76 273.507 110.825 273.123 110.825 272.695C110.825 272.274 110.761 271.895 110.634 271.56C110.509 271.224 110.32 270.96 110.068 270.765C109.818 270.571 109.506 270.474 109.132 270.474C108.772 270.474 108.467 270.567 108.217 270.753C107.97 270.939 107.783 271.198 107.655 271.531C107.528 271.864 107.464 272.252 107.464 272.695ZM116.228 276.019C115.599 276.019 115.057 275.884 114.602 275.615C114.15 275.344 113.8 274.962 113.554 274.472C113.31 273.978 113.188 273.4 113.188 272.737C113.188 272.083 113.31 271.506 113.554 271.007C113.8 270.508 114.144 270.118 114.585 269.838C115.029 269.558 115.547 269.418 116.141 269.418C116.501 269.418 116.851 269.477 117.189 269.597C117.527 269.716 117.831 269.903 118.1 270.158C118.369 270.413 118.581 270.745 118.736 271.152C118.892 271.557 118.969 272.049 118.969 272.629V273.07H113.891V272.138H117.751C117.751 271.811 117.684 271.521 117.551 271.269C117.418 271.014 117.231 270.813 116.989 270.666C116.751 270.519 116.471 270.445 116.149 270.445C115.8 270.445 115.495 270.531 115.234 270.703C114.976 270.872 114.777 271.094 114.635 271.369C114.496 271.64 114.427 271.936 114.427 272.255V272.982C114.427 273.41 114.502 273.773 114.652 274.072C114.804 274.372 115.016 274.601 115.288 274.759C115.56 274.914 115.877 274.992 116.241 274.992C116.476 274.992 116.691 274.958 116.885 274.892C117.08 274.822 117.247 274.72 117.389 274.584C117.53 274.448 117.638 274.28 117.713 274.081L118.89 274.293C118.796 274.639 118.627 274.943 118.383 275.204C118.142 275.462 117.838 275.663 117.472 275.807C117.109 275.948 116.694 276.019 116.228 276.019ZM121.593 267.371V275.89H120.349V267.371H121.593ZM123.266 275.89V269.501H124.51V275.89H123.266ZM123.894 268.515C123.678 268.515 123.492 268.443 123.337 268.299C123.184 268.152 123.108 267.977 123.108 267.775C123.108 267.57 123.184 267.395 123.337 267.251C123.492 267.104 123.678 267.03 123.894 267.03C124.111 267.03 124.295 267.104 124.448 267.251C124.603 267.395 124.68 267.57 124.68 267.775C124.68 267.977 124.603 268.152 124.448 268.299C124.295 268.443 124.111 268.515 123.894 268.515ZM127.427 272.097V275.89H126.183V269.501H127.377V270.541H127.456C127.603 270.203 127.833 269.931 128.146 269.726C128.463 269.52 128.86 269.418 129.34 269.418C129.776 269.418 130.157 269.509 130.484 269.692C130.811 269.873 131.065 270.142 131.245 270.499C131.426 270.857 131.516 271.299 131.516 271.826V275.89H130.272V271.976C130.272 271.513 130.151 271.151 129.91 270.89C129.669 270.627 129.337 270.495 128.916 270.495C128.628 270.495 128.371 270.557 128.146 270.682C127.925 270.807 127.748 270.99 127.618 271.231C127.491 271.47 127.427 271.758 127.427 272.097ZM135.937 276.019C135.308 276.019 134.766 275.884 134.311 275.615C133.859 275.344 133.509 274.962 133.263 274.472C133.019 273.978 132.897 273.4 132.897 272.737C132.897 272.083 133.019 271.506 133.263 271.007C133.509 270.508 133.853 270.118 134.294 269.838C134.738 269.558 135.256 269.418 135.85 269.418C136.21 269.418 136.56 269.477 136.898 269.597C137.236 269.716 137.54 269.903 137.809 270.158C138.078 270.413 138.29 270.745 138.445 271.152C138.601 271.557 138.678 272.049 138.678 272.629V273.07H133.6V272.138H137.46C137.46 271.811 137.393 271.521 137.26 271.269C137.127 271.014 136.94 270.813 136.698 270.666C136.46 270.519 136.18 270.445 135.858 270.445C135.509 270.445 135.204 270.531 134.943 270.703C134.685 270.872 134.486 271.094 134.344 271.369C134.205 271.64 134.136 271.936 134.136 272.255V272.982C134.136 273.41 134.211 273.773 134.361 274.072C134.513 274.372 134.725 274.601 134.997 274.759C135.269 274.914 135.586 274.992 135.95 274.992C136.185 274.992 136.4 274.958 136.594 274.892C136.789 274.822 136.956 274.72 137.098 274.584C137.239 274.448 137.347 274.28 137.422 274.081L138.599 274.293C138.505 274.639 138.336 274.943 138.092 275.204C137.851 275.462 137.547 275.663 137.181 275.807C136.818 275.948 136.403 276.019 135.937 276.019ZM145.637 276.011C145.066 276.011 144.574 275.907 144.161 275.699C143.75 275.491 143.434 275.208 143.212 274.85C142.99 274.49 142.88 274.082 142.88 273.627C142.88 273.281 142.952 272.973 143.096 272.704C143.24 272.432 143.441 272.181 143.699 271.951C143.957 271.721 144.255 271.489 144.593 271.256L145.966 270.287C146.199 270.135 146.38 269.974 146.511 269.805C146.641 269.633 146.706 269.421 146.706 269.168C146.706 268.969 146.62 268.777 146.448 268.594C146.276 268.411 146.046 268.32 145.758 268.32C145.558 268.32 145.382 268.368 145.23 268.465C145.08 268.562 144.962 268.687 144.876 268.84C144.793 268.989 144.751 269.147 144.751 269.314C144.751 269.508 144.804 269.703 144.909 269.9C145.018 270.097 145.156 270.301 145.325 270.512C145.494 270.72 145.672 270.936 145.858 271.161L149.813 275.89H148.408L145.134 272.042C144.859 271.718 144.604 271.413 144.369 271.127C144.133 270.839 143.942 270.548 143.795 270.254C143.65 269.957 143.578 269.637 143.578 269.293C143.578 268.902 143.667 268.555 143.845 268.253C144.025 267.948 144.276 267.71 144.597 267.538C144.919 267.366 145.296 267.28 145.729 267.28C146.167 267.28 146.543 267.366 146.856 267.538C147.172 267.707 147.415 267.933 147.584 268.216C147.756 268.496 147.842 268.802 147.842 269.135C147.842 269.54 147.741 269.897 147.538 270.208C147.339 270.516 147.063 270.799 146.71 271.057L145.001 272.317C144.668 272.561 144.437 272.802 144.306 273.041C144.179 273.276 144.115 273.461 144.115 273.594C144.115 273.838 144.177 274.064 144.302 274.272C144.43 274.48 144.607 274.646 144.835 274.771C145.065 274.896 145.334 274.958 145.641 274.958C145.958 274.958 146.265 274.89 146.565 274.754C146.867 274.616 147.14 274.418 147.384 274.16C147.631 273.902 147.827 273.593 147.971 273.232C148.115 272.872 148.187 272.468 148.187 272.022H149.31C149.31 272.571 149.248 273.035 149.123 273.415C148.998 273.792 148.847 274.1 148.67 274.339C148.495 274.574 148.33 274.759 148.175 274.892C148.125 274.936 148.078 274.98 148.033 275.025C147.989 275.069 147.942 275.114 147.892 275.158C147.603 275.449 147.254 275.664 146.844 275.803C146.436 275.941 146.034 276.011 145.637 276.011ZM153.988 275.89V267.371H155.273V271.073H159.52V267.371H160.809V275.89H159.52V272.176H155.273V275.89H153.988ZM162.581 275.89V269.501H163.825V275.89H162.581ZM163.209 268.515C162.993 268.515 162.807 268.443 162.652 268.299C162.499 268.152 162.423 267.977 162.423 267.775C162.423 267.57 162.499 267.395 162.652 267.251C162.807 267.104 162.993 267.03 163.209 267.03C163.426 267.03 163.61 267.104 163.763 267.251C163.918 267.395 163.995 267.57 163.995 267.775C163.995 267.977 163.918 268.152 163.763 268.299C163.61 268.443 163.426 268.515 163.209 268.515ZM165.498 275.89V269.501H166.7V270.516H166.767C166.883 270.172 167.088 269.902 167.382 269.705C167.679 269.505 168.015 269.405 168.389 269.405C168.467 269.405 168.558 269.408 168.664 269.414C168.772 269.419 168.856 269.426 168.917 269.434V270.624C168.867 270.61 168.779 270.595 168.651 270.578C168.523 270.559 168.396 270.549 168.268 270.549C167.974 270.549 167.712 270.612 167.482 270.736C167.255 270.858 167.075 271.029 166.941 271.248C166.808 271.464 166.742 271.711 166.742 271.988V275.89H165.498ZM169.994 275.89V269.501H171.237V275.89H169.994ZM170.622 268.515C170.405 268.515 170.22 268.443 170.064 268.299C169.912 268.152 169.835 267.977 169.835 267.775C169.835 267.57 169.912 267.395 170.064 267.251C170.22 267.104 170.405 267.03 170.622 267.03C170.838 267.03 171.022 267.104 171.175 267.251C171.33 267.395 171.408 267.57 171.408 267.775C171.408 267.977 171.33 268.152 171.175 268.299C171.022 268.443 170.838 268.515 170.622 268.515ZM174.154 272.097V275.89H172.91V269.501H174.104V270.541H174.183C174.33 270.203 174.56 269.931 174.874 269.726C175.19 269.52 175.588 269.418 176.068 269.418C176.503 269.418 176.884 269.509 177.211 269.692C177.539 269.873 177.792 270.142 177.973 270.499C178.153 270.857 178.243 271.299 178.243 271.826V275.89H176.999V271.976C176.999 271.513 176.879 271.151 176.637 270.89C176.396 270.627 176.065 270.495 175.643 270.495C175.355 270.495 175.098 270.557 174.874 270.682C174.652 270.807 174.476 270.99 174.345 271.231C174.218 271.47 174.154 271.758 174.154 272.097ZM182.59 278.419C182.082 278.419 181.645 278.352 181.279 278.219C180.916 278.086 180.619 277.91 180.389 277.691C180.159 277.472 179.987 277.232 179.873 276.971L180.942 276.531C181.017 276.653 181.117 276.782 181.242 276.917C181.37 277.056 181.541 277.174 181.758 277.271C181.977 277.368 182.258 277.417 182.602 277.417C183.074 277.417 183.463 277.301 183.771 277.071C184.079 276.844 184.233 276.481 184.233 275.982V274.725H184.154C184.079 274.861 183.971 275.012 183.829 275.179C183.691 275.345 183.499 275.489 183.255 275.611C183.011 275.733 182.694 275.794 182.303 275.794C181.798 275.794 181.343 275.676 180.938 275.441C180.536 275.202 180.217 274.852 179.982 274.388C179.749 273.923 179.632 273.35 179.632 272.671C179.632 271.991 179.747 271.409 179.977 270.924C180.21 270.438 180.529 270.067 180.934 269.809C181.339 269.548 181.798 269.418 182.311 269.418C182.708 269.418 183.028 269.484 183.272 269.617C183.516 269.748 183.706 269.9 183.842 270.075C183.98 270.25 184.087 270.404 184.162 270.537H184.253V269.501H185.472V276.031C185.472 276.58 185.345 277.031 185.09 277.383C184.834 277.735 184.489 277.996 184.054 278.165C183.621 278.334 183.133 278.419 182.59 278.419ZM182.577 274.763C182.935 274.763 183.237 274.68 183.484 274.513C183.734 274.344 183.922 274.103 184.05 273.789C184.18 273.473 184.245 273.095 184.245 272.654C184.245 272.224 184.181 271.846 184.054 271.518C183.926 271.191 183.739 270.936 183.492 270.753C183.245 270.567 182.94 270.474 182.577 270.474C182.203 270.474 181.891 270.571 181.641 270.765C181.392 270.957 181.203 271.217 181.076 271.547C180.951 271.877 180.888 272.246 180.888 272.654C180.888 273.073 180.952 273.44 181.08 273.756C181.207 274.072 181.396 274.319 181.645 274.497C181.898 274.674 182.208 274.763 182.577 274.763Z" fill="#414651"/>
<path d="M239.045 436.828V428.309H240.331V432.011H244.577V428.309H245.867V436.828H244.577V433.114H240.331V436.828H239.045Z" fill="#4E6BEA"/>
<path d="M234.206 433.521L47.7695 433.521" stroke="#D1D1D1" stroke-width="1.22013" stroke-linecap="round" stroke-dasharray="1.95 1.95"/>
<path d="M33.375 294.298L30.5572 299.178H36.1928L33.375 294.298ZM33.375 429.977H33.8631V298.69H33.375H32.8869V429.977H33.375Z" fill="#4E6BEA"/>
<path d="M228.84 448.767L223.959 445.949V451.585L228.84 448.767ZM53.1406 448.767V449.255H224.447V448.767V448.279H53.1406V448.767Z" fill="#4E6BEA"/>
<path d="M221.039 293.393L48.0391 432.393H221.039V293.393Z" fill="url(#paint1_linear_5470_7416)"/>
</g>
<defs>
<filter id="filter0_d_5470_7416" x="1.8" y="23.69" width="272.4" height="137.954" filterUnits="userSpaceOnUse" color-interpolation-filters="sRGB">
<feFlood flood-opacity="0" result="BackgroundImageFix"/>
<feColorMatrix in="SourceAlpha" type="matrix" values="0 0 0 0 0 0 0 0 0 0 0 0 0 0 0 0 0 0 127 0" result="hardAlpha"/>
<feOffset dy="4"/>
<feGaussianBlur stdDeviation="6.6"/>
<feComposite in2="hardAlpha" operator="out"/>
<feColorMatrix type="matrix" values="0 0 0 0 0 0 0 0 0 0 0 0 0 0 0 0 0 0 0.25 0"/>
<feBlend mode="normal" in2="BackgroundImageFix" result="effect1_dropShadow_5470_7416"/>
<feBlend mode="normal" in="SourceGraphic" in2="effect1_dropShadow_5470_7416" result="shape"/>
</filter>
<filter id="filter1_d_5470_7416" x="259.8" y="140.69" width="272.4" height="131.198" filterUnits="userSpaceOnUse" color-interpolation-filters="sRGB">
<feFlood flood-opacity="0" result="BackgroundImageFix"/>
<feColorMatrix in="SourceAlpha" type="matrix" values="0 0 0 0 0 0 0 0 0 0 0 0 0 0 0 0 0 0 127 0" result="hardAlpha"/>
<feOffset dy="4"/>
<feGaussianBlur stdDeviation="6.6"/>
<feComposite in2="hardAlpha" operator="out"/>
<feColorMatrix type="matrix" values="0 0 0 0 0 0 0 0 0 0 0 0 0 0 0 0 0 0 0.25 0"/>
<feBlend mode="normal" in2="BackgroundImageFix" result="effect1_dropShadow_5470_7416"/>
<feBlend mode="normal" in="SourceGraphic" in2="effect1_dropShadow_5470_7416" result="shape"/>
</filter>
<filter id="filter2_d_5470_7416" x="4.8" y="245.69" width="265.545" height="229.918" filterUnits="userSpaceOnUse" color-interpolation-filters="sRGB">
<feFlood flood-opacity="0" result="BackgroundImageFix"/>
<feColorMatrix in="SourceAlpha" type="matrix" values="0 0 0 0 0 0 0 0 0 0 0 0 0 0 0 0 0 0 127 0" result="hardAlpha"/>
<feOffset dy="4"/>
<feGaussianBlur stdDeviation="6.6"/>
<feComposite in2="hardAlpha" operator="out"/>
<feColorMatrix type="matrix" values="0 0 0 0 0 0 0 0 0 0 0 0 0 0 0 0 0 0 0.25 0"/>
<feBlend mode="normal" in2="BackgroundImageFix" result="effect1_dropShadow_5470_7416"/>
<feBlend mode="normal" in="SourceGraphic" in2="effect1_dropShadow_5470_7416" result="shape"/>
</filter>
<linearGradient id="paint0_linear_5470_7416" x1="92" y1="68.8901" x2="101.052" y2="123.881" gradientUnits="userSpaceOnUse">
<stop stop-color="#43B077"/>
<stop offset="1" stop-color="#D9D9D9" stop-opacity="0"/>
</linearGradient>
<linearGradient id="paint1_linear_5470_7416" x1="95.6341" y1="376.578" x2="180.707" y2="464.023" gradientUnits="userSpaceOnUse">
<stop stop-color="#4E6BEA" stop-opacity="0.2"/>
<stop offset="1" stop-color="#EEF6FF" stop-opacity="0"/>
</linearGradient>
</defs>
</svg>
