<svg width="47" height="47" viewBox="0 0 47 47" fill="none" xmlns="http://www.w3.org/2000/svg">
<path d="M31.3307 5.875C30.292 5.875 29.2957 6.28765 28.5612 7.02216C27.8267 7.75668 27.4141 8.7529 27.4141 9.79167V21.5417C27.4141 22.5804 27.8267 23.5767 28.5612 24.3112C29.2957 25.0457 30.292 25.4583 31.3307 25.4583C31.8501 25.4583 32.3482 25.6647 32.7155 26.0319C33.0827 26.3992 33.2891 26.8973 33.2891 27.4167V29.375C33.2891 30.4138 32.8764 31.41 32.1419 32.1445C31.4074 32.879 30.4112 33.2917 29.3724 33.2917C28.853 33.2917 28.3549 33.498 27.9876 33.8652C27.6204 34.2325 27.4141 34.7306 27.4141 35.25V39.1667C27.4141 39.6861 27.6204 40.1842 27.9876 40.5514C28.3549 40.9187 28.853 41.125 29.3724 41.125C32.4887 41.125 35.4773 39.8871 37.6809 37.6835C39.8845 35.48 41.1224 32.4913 41.1224 29.375V9.79167C41.1224 8.7529 40.7097 7.75668 39.9752 7.02216C39.2407 6.28765 38.2445 5.875 37.2057 5.875H31.3307Z" fill="#D5D7DA"/>
<path d="M9.79167 5.875C8.7529 5.875 7.75668 6.28765 7.02217 7.02216C6.28765 7.75668 5.875 8.7529 5.875 9.79167V21.5417C5.875 22.5804 6.28765 23.5767 7.02217 24.3112C7.75668 25.0457 8.7529 25.4583 9.79167 25.4583C10.311 25.4583 10.8092 25.6647 11.1764 26.0319C11.5437 26.3992 11.75 26.8973 11.75 27.4167V29.375C11.75 30.4138 11.3374 31.41 10.6028 32.1445C9.86832 32.879 8.8721 33.2917 7.83333 33.2917C7.31395 33.2917 6.81584 33.498 6.44858 33.8652C6.08132 34.2325 5.875 34.7306 5.875 35.25V39.1667C5.875 39.6861 6.08132 40.1842 6.44858 40.5514C6.81584 40.9187 7.31395 41.125 7.83333 41.125C10.9496 41.125 13.9383 39.8871 16.1418 37.6835C18.3454 35.48 19.5833 32.4913 19.5833 29.375V9.79167C19.5833 8.7529 19.1707 7.75668 18.4362 7.02216C17.7016 6.28765 16.7054 5.875 15.6667 5.875H9.79167Z" fill="#D5D7DA"/>
</svg>
